<?xml version="1.0" encoding="utf-8"?>
<!-- Generator: Adobe Illustrator 24.0.0, SVG Export Plug-In . SVG Version: 6.00 Build 0)  -->
<svg version="1.1" id="Layer_1" xmlns="http://www.w3.org/2000/svg" xmlns:xlink="http://www.w3.org/1999/xlink" x="0px" y="0px"
	 viewBox="0 0 877 499.7" style="enable-background:new 0 0 877 499.7;" xml:space="preserve">
<style type="text/css">
	.st0{fill:#FFFFFF;}
	.st1{fill:url(#SVGID_1_);}
	.st2{fill:url(#SVGID_2_);}
	.st3{fill:url(#SVGID_3_);}
	.st4{fill:#071D49;}
</style>
<path class="st0" d="M876.9,0.1L0.1,499.7V0.1C0.1,0.1,876.5,0.1,876.9,0.1z"/>
<g>
	<g>
		<g>
			<g>
				
					<linearGradient id="SVGID_1_" gradientUnits="userSpaceOnUse" x1="27.0877" y1="15.1113" x2="168.9367" y2="15.1113" gradientTransform="matrix(1 0 0 1 0 52.8347)">
					<stop  offset="0" style="stop-color:#071D49;stop-opacity:0.3"/>
					<stop  offset="1" style="stop-color:#071D49"/>
				</linearGradient>
				<path class="st1" d="M27.1,108.8V37.1c0-5.5,4.5-9.9,10-9.9h131.8L27.1,108.8z"/>
			</g>
			
				<linearGradient id="SVGID_2_" gradientUnits="userSpaceOnUse" x1="27.0877" y1="60.0147" x2="168.9367" y2="60.0147" gradientTransform="matrix(1 0 0 1 0 52.8347)">
				<stop  offset="0" style="stop-color:#071D49;stop-opacity:0.8"/>
				<stop  offset="1" style="stop-color:#071D49;stop-opacity:0.3"/>
			</linearGradient>
			<polygon class="st2" points="27.1,108.8 27.1,37.2 27.1,37.2 168.9,118.8 168.9,188.5 			"/>
			
				<linearGradient id="SVGID_3_" gradientUnits="userSpaceOnUse" x1="27.0877" y1="105.8656" x2="168.9367" y2="105.8656" gradientTransform="matrix(1 0 0 1 0 52.8347)">
				<stop  offset="0" style="stop-color:#071D49;stop-opacity:0.3"/>
				<stop  offset="1" style="stop-color:#071D49;stop-opacity:0.6"/>
			</linearGradient>
			<path class="st3" d="M168.9,118.8v69.8c0,5.5-4.5,10-10,10H27.1L168.9,118.8z"/>
		</g>
		<g>
			<path class="st4" d="M238.6,140.7c-8.2,0-10.4-4.1-10.9-8.9h-18.8c0.6,14.9,10.4,23,29.7,23c17.8,0,27.8-10.3,27.8-23
				c0-14.9-8.9-19.5-26.4-21.4c-8.6-1.1-10.7-2.9-10.7-6.7c0-3.5,2.7-5.9,8-5.9c5.4,0,8.2,2.5,8.9,7.4h18.3
				c-1.2-14.5-10.6-21.5-27.2-21.5c-16.5,0-26.7,9.1-26.7,21.5c0,13.9,6.6,19.7,26,22c8.3,1.3,10.9,2.4,10.9,6.7
				C247.5,137.9,244.3,140.7,238.6,140.7z"/>
			<path class="st4" d="M299.7,147.7v5.9h16.8V121c0-13.4-8.9-19.1-22.8-19.1c-13.8,0-23.4,6-24.1,18.1h16.2c0.4-3.2,2.1-6,6.8-6
				c5.5,0,6.7,3.2,6.7,8v1.1h-4.8c-16.8,0-26.8,4.6-26.8,16.5c0,10.7,8,15.2,17.1,15.2C292.8,154.8,297.3,151.4,299.7,147.7z
				 M294.7,132.9h4.5v3.1c0,4.3-3.7,7.1-8.6,7.1c-4.1,0-6-1.9-6-4.7C284.7,134.3,287.8,132.9,294.7,132.9z"/>
			<path class="st4" d="M372.6,153.7v-32.8c0-12.9-6.7-19-16.5-19c-8.4,0-13.9,4.2-16.6,9.5v-8.1h-17.3v50.5h17.3v-28.2
				c0-6.5,3.5-9.6,8.6-9.6c5,0,7.2,2.8,7.2,8.5v29.3L372.6,153.7L372.6,153.7z"/>
			<path class="st4" d="M402.5,123.2c-16.8,0-26.8,4.6-26.8,16.5c0,10.7,8,15.2,17.1,15.2c8.1,0,12.6-3.4,14.9-7.1v5.9h16.8V121
				c0-13.4-8.9-19.1-22.8-19.1c-13.8,0-23.4,6-24.1,18.1h16.2c0.4-3.2,2.1-6,6.8-6c5.5,0,6.7,3.2,6.7,8v1.1H402.5L402.5,123.2z
				 M407.3,136c0,4.3-3.7,7.1-8.6,7.1c-4.1,0-6-1.9-6-4.7c0-4.1,3.1-5.5,10-5.5h4.5V136z"/>
			<path class="st4" d="M464.8,81v29.3c-2.9-5.1-7.6-8.5-15.5-8.5c-11.9,0-21.4,9.2-21.4,26.4v0.8c0,17.5,9.6,25.9,21.2,25.9
				c7.6,0,13.2-4.1,15.7-9.3v8.2h17.3V81H464.8z M465.3,128.7c0,8.6-3.9,12.9-10.1,12.9c-6,0-9.7-4.3-9.7-12.8V128
				c0-8.8,3.5-13.1,9.9-13.1c6.3,0,9.9,4.5,9.9,13L465.3,128.7L465.3,128.7z"/>
		</g>
	</g>
	<g>
		<path class="st4" d="M215.4,179.1h4.7l6.4,19.4h-3.7l-1.5-4.8h-7.4l-1.5,4.8h-3.4L215.4,179.1z M214.7,191.1h5.7l-2.9-9
			L214.7,191.1z"/>
		<path class="st4" d="M235.2,179.1h4.8l5.1,13.3l5-13.3h4.8v19.4h-3.6v-14.7l-5.8,14.7h-1.2l-5.9-14.7v14.7h-3.3V179.1L235.2,179.1
			z"/>
		<path class="st4" d="M258.3,193.4v-9.1h3.3v8.7c0,2.2,0.9,3.1,2.8,3.1c1.8,0,3.3-1.1,3.3-3.4v-8.5h3.3v14.2h-3.3v-2.2
			c-0.7,1.4-2.2,2.5-4.5,2.5C260.5,198.8,258.3,197.2,258.3,193.4z"/>
		<path class="st4" d="M277.4,196.3v2.3h-3.3v-20.8h3.3v8.9c0.8-1.4,2.6-2.6,4.6-2.6c3.6,0,6.3,2.6,6.3,7.2v0.2
			c0,4.6-2.6,7.4-6.3,7.4C279.9,198.8,278.2,197.7,277.4,196.3z M285,191.6v-0.2c0-3.2-1.6-4.7-3.8-4.7c-2.3,0-3.9,1.5-3.9,4.7v0.2
			c0,3.2,1.5,4.7,4,4.7C283.7,196.2,285,194.6,285,191.6z"/>
		<path class="st4" d="M289.7,194.6c0-3.3,3.2-4.5,7.3-4.5h1.8v-0.7c0-1.9-0.7-2.9-2.6-2.9c-1.7,0-2.6,0.8-2.7,2.2h-3.2
			c0.3-3.3,2.9-4.7,6.1-4.7c3.2,0,5.7,1.3,5.7,5.2v9.3h-3.2v-1.8c-0.9,1.2-2.2,2-4.4,2C291.9,198.8,289.7,197.6,289.7,194.6z
			 M298.8,193.6v-1.4h-1.7c-2.5,0-4.1,0.6-4.1,2.3c0,1.2,0.7,2,2.3,2C297.3,196.4,298.8,195.4,298.8,193.6z"/>
		<path class="st4" d="M304.3,191.7v-0.2c0-4.5,2.7-7.4,6.4-7.4c2.3,0,3.7,1.1,4.5,2.5v-8.8h3.3v20.8h-3.3v-2.4
			c-0.7,1.4-2.6,2.6-4.7,2.6C307,198.8,304.3,196.3,304.3,191.7z M315.4,191.5v-0.2c0-3.1-1.5-4.7-3.8-4.7c-2.4,0-3.8,1.7-3.8,4.8
			v0.2c0,3.1,1.6,4.6,3.7,4.6C313.7,196.2,315.4,194.7,315.4,191.5z"/>
		<path class="st4" d="M320.8,194.6c0-3.3,3.2-4.5,7.3-4.5h1.8v-0.7c0-1.9-0.7-2.9-2.6-2.9c-1.7,0-2.6,0.8-2.7,2.2h-3.2
			c0.3-3.3,2.9-4.7,6.1-4.7c3.2,0,5.7,1.3,5.7,5.2v9.3h-3.2v-1.8c-0.9,1.2-2.2,2-4.4,2C322.9,198.8,320.8,197.6,320.8,194.6z
			 M329.8,193.6v-1.4h-1.7c-2.5,0-4.1,0.6-4.1,2.3c0,1.2,0.7,2,2.3,2C328.3,196.4,329.8,195.4,329.8,193.6z"/>
		<path class="st4" d="M336.2,177.8h3.3v20.8h-3.3V177.8z"/>
		<path class="st4" d="M341.8,194.6c0-3.3,3.2-4.5,7.3-4.5h1.8v-0.7c0-1.9-0.7-2.9-2.6-2.9c-1.7,0-2.6,0.8-2.7,2.2h-3.2
			c0.3-3.3,2.9-4.7,6.1-4.7s5.7,1.3,5.7,5.2v9.3h-3.2v-1.8c-0.9,1.2-2.2,2-4.4,2C343.9,198.8,341.8,197.6,341.8,194.6z M350.8,193.6
			v-1.4h-1.7c-2.5,0-4.1,0.6-4.1,2.3c0,1.2,0.7,2,2.3,2C349.3,196.4,350.8,195.4,350.8,193.6z"/>
		<path class="st4" d="M362.8,189v-0.2c0-5.9,4-9.9,9.4-9.9c4.5,0,7.9,2.2,8.3,6.8h-3.7c-0.4-2.6-1.9-3.9-4.6-3.9
			c-3.4,0-5.6,2.6-5.6,7v0.2c0,4.4,2.1,7,5.7,7c2.7,0,4.6-1.4,5-4.1h3.5c-0.6,4.7-3.9,7.1-8.5,7.1
			C366.2,198.8,362.8,194.9,362.8,189z"/>
		<path class="st4" d="M382.3,191.6v-0.2c0-4.4,3.1-7.4,7.3-7.4c4.1,0,7.3,2.9,7.3,7.3v0.2c0,4.5-3.1,7.3-7.3,7.3
			C385.4,198.8,382.3,195.9,382.3,191.6z M393.6,191.6v-0.2c0-3-1.5-4.7-3.9-4.7s-3.9,1.8-3.9,4.7v0.2c0,2.9,1.5,4.7,3.9,4.7
			C392.1,196.3,393.6,194.5,393.6,191.6z"/>
		<path class="st4" d="M399.2,184.3h3.3v2.2c0.7-1.3,2.2-2.5,4.3-2.5c1.9,0,3.3,0.8,4,2.6c1.1-1.8,3-2.6,4.8-2.6
			c2.6,0,4.7,1.6,4.7,5.5v9H417v-8.8c0-2.1-0.9-3-2.5-3s-3.1,1.1-3.1,3.3v8.5h-3.3v-8.8c0-2.1-0.9-3-2.5-3c-1.6,0-3.1,1.1-3.1,3.3
			v8.5h-3.3L399.2,184.3L399.2,184.3z"/>
		<path class="st4" d="M423.4,184.3h3.3v2.3c0.8-1.4,2.6-2.6,4.6-2.6c3.6,0,6.3,2.6,6.3,7.2v0.2c0,4.6-2.6,7.4-6.3,7.4
			c-2.2,0-3.9-1.1-4.6-2.5v7.1h-3.3V184.3z M434.3,191.6v-0.2c0-3.2-1.6-4.7-3.8-4.7c-2.3,0-3.9,1.5-3.9,4.7v0.2
			c0,3.2,1.5,4.7,4,4.7C433,196.2,434.3,194.6,434.3,191.6z"/>
		<path class="st4" d="M439,194.6c0-3.3,3.2-4.5,7.3-4.5h1.8v-0.7c0-1.9-0.7-2.9-2.6-2.9c-1.7,0-2.6,0.8-2.7,2.2h-3.2
			c0.3-3.3,2.9-4.7,6.1-4.7c3.2,0,5.7,1.3,5.7,5.2v9.3h-3.2v-1.8c-0.9,1.2-2.2,2-4.4,2C441.2,198.8,439,197.6,439,194.6z
			 M448.1,193.6v-1.4h-1.7c-2.5,0-4.1,0.6-4.1,2.3c0,1.2,0.7,2,2.3,2C446.6,196.4,448.1,195.4,448.1,193.6z"/>
		<path class="st4" d="M454.4,184.3h3.3v2.2c0.7-1.4,2.2-2.6,4.6-2.6c2.9,0,4.8,1.7,4.8,5.6v8.9h-3.3v-8.6c0-2.2-0.9-3.1-2.8-3.1
			c-1.9,0-3.3,1.1-3.3,3.4v8.4h-3.3L454.4,184.3L454.4,184.3z"/>
		<path class="st4" d="M473.7,197.1l-5.6-12.8h3.6l3.8,9.2l3.5-9.2h3.2l-7.8,19.1h-3.2L473.7,197.1z"/>
	</g>
</g>
</svg>
