<?xml version="1.0" encoding="utf-8"?>
<!-- Generator: Adobe Illustrator 19.1.0, SVG Export Plug-In . SVG Version: 6.00 Build 0)  -->
<svg version="1.1" id="Layer_1" xmlns="http://www.w3.org/2000/svg" xmlns:xlink="http://www.w3.org/1999/xlink" x="0px" y="0px"
	 viewBox="0 0 378 73" style="enable-background:new 0 0 378 73;" xml:space="preserve">
<style type="text/css">
	.st0{fill:#042B6E;}
	.st1{fill:#ECBD3C;}
</style>
<g>
	<g>
		<path class="st0" d="M174.4,53.5c-0.5-0.2-1.1-0.3-1.6-0.3c-0.9,0-1.4,0.4-1.4,1c0,0.7,0.6,0.9,1.5,1.3c1.2,0.6,1.8,1.1,1.8,2
			c0,1.2-0.9,2-2.5,2c-0.7,0-1.3-0.1-1.8-0.3v-0.8c0.6,0.3,1.2,0.4,1.7,0.4c1,0,1.6-0.5,1.6-1.2c0-0.8-0.6-1-1.6-1.5
			c-1.1-0.5-1.7-1-1.7-1.9c0-1,0.9-1.7,2.2-1.7c0.6,0,1.2,0.1,1.7,0.2V53.5z"/>
		<path class="st0" d="M178.9,52.6v3.9c0,1.5,0.5,2.2,1.6,2.2c1.3,0,2-1,2-2.9v-3.2h0.9v6.8h-0.8V58c-0.5,1-1.3,1.4-2.3,1.4
			c-1.5,0-2.2-1-2.2-2.8v-4.1H178.9z"/>
		<path class="st0" d="M188.4,62.2h-0.9v-9.6h0.8v1.3c0.5-1,1.4-1.5,2.3-1.5c1.6,0,2.7,1.3,2.7,3.5c0,2.2-1.1,3.6-2.8,3.6
			c-0.9,0-1.7-0.4-2.2-1.2V62.2z M190.6,53.2c-1.2,0-2.1,1-2.1,2.8c0,1.8,0.8,2.8,2.1,2.8c1.1,0,2-1,2-2.8
			C192.5,54.2,191.8,53.2,190.6,53.2z"/>
		<path class="st0" d="M197.9,62.2H197v-9.6h0.8v1.3c0.5-1,1.4-1.5,2.3-1.5c1.6,0,2.7,1.3,2.7,3.5c0,2.2-1.1,3.6-2.8,3.6
			c-0.9,0-1.7-0.4-2.2-1.2V62.2z M200,53.2c-1.2,0-2.1,1-2.1,2.8c0,1.8,0.8,2.8,2.1,2.8c1.1,0,2-1,2-2.8
			C202,54.2,201.2,53.2,200,53.2z"/>
		<path class="st0" d="M212.3,56c0,2.2-1.3,3.6-3.2,3.6c-1.9,0-3.2-1.4-3.2-3.6c0-2.2,1.3-3.5,3.2-3.5C211,52.4,212.3,53.8,212.3,56
			z M206.9,56c0,1.7,0.9,2.8,2.2,2.8c1.3,0,2.3-1.1,2.3-2.8c0-1.7-0.9-2.8-2.3-2.8C207.8,53.2,206.9,54.3,206.9,56z"/>
		<path class="st0" d="M219.1,53.4c-0.2,0-0.3-0.1-0.5-0.1c-1.1,0-1.8,0.9-1.8,2.4v3.6h-0.9v-6.8h0.8V54c0.3-1,1.1-1.5,1.9-1.5
			c0.1,0,0.3,0,0.4,0V53.4z"/>
		<path class="st0" d="M223.6,52.6h1.6v0.7h-1.6v4c0,1,0.2,1.5,1,1.5c0.2,0,0.4,0,0.7-0.1v0.8c-0.3,0.1-0.6,0.1-0.9,0.1
			c-1.3,0-1.6-0.6-1.6-2.1v-4.1h-1.4v-0.7h1.4v-1.7l0.9-0.3V52.6z"/>
		<path class="st0" d="M235,49.2v4.5c0.5-0.8,1.2-1.3,2.2-1.3c1.7,0,2.8,1.3,2.8,3.5c0,2.2-1.2,3.6-2.7,3.6c-1,0-1.8-0.5-2.3-1.5
			v1.4h-0.8V49.2H235z M235,56c0,1.7,0.9,2.8,2.1,2.8c1.2,0,2-1,2-2.8c0-1.8-0.8-2.8-2-2.8C235.8,53.2,235,54.2,235,56z"/>
		<path class="st0" d="M248.7,56.1h-4.8c0.1,1.7,0.9,2.7,2.5,2.7c0.6,0,1.2-0.2,1.8-0.5v0.8c-0.6,0.3-1.2,0.4-1.9,0.4
			c-2,0-3.2-1.3-3.2-3.6c0-2.1,1.2-3.5,3-3.5c1.6,0,2.6,1.2,2.6,3.2V56.1z M246,53.2c-1.1,0-1.9,0.9-2,2.4h3.9
			C247.8,54,247.1,53.2,246,53.2z"/>
		<path class="st0" d="M251.9,52.6l2,5.9l2-5.9h0.9l-2.7,7.8c-0.5,1.3-1,2-2,2c-0.2,0-0.5,0-0.7-0.1l0.1-0.8c0.3,0,0.5,0.1,0.6,0.1
			c0.7,0,1.1-0.6,1.5-1.9l-2.5-7.1H251.9z"/>
		<path class="st0" d="M265.4,56c0,2.2-1.3,3.6-3.2,3.6c-1.9,0-3.2-1.4-3.2-3.6c0-2.2,1.3-3.5,3.2-3.5
			C264.1,52.4,265.4,53.8,265.4,56z M260,56c0,1.7,0.9,2.8,2.2,2.8c1.3,0,2.3-1.1,2.3-2.8c0-1.7-0.9-2.8-2.3-2.8
			C260.9,53.2,260,54.3,260,56z"/>
		<path class="st0" d="M274.4,59.4h-0.9v-3.9c0-1.5-0.5-2.2-1.6-2.2c-1.2,0-2,0.9-2,2.6v3.5H269v-6.8h0.8v1.3c0.5-1,1.3-1.4,2.3-1.4
			c1.4,0,2.3,1,2.3,2.8V59.4z"/>
		<path class="st0" d="M283.7,49.2v10.2h-0.8V58c-0.5,1-1.3,1.5-2.3,1.5c-1.5,0-2.7-1.4-2.7-3.6c0-2.1,1.1-3.5,2.8-3.5
			c0.9,0,1.7,0.4,2.2,1.3v-4.5H283.7z M278.8,55.9c0,1.8,0.8,2.8,2,2.8c1.2,0,2.1-1.1,2.1-2.8c0-1.8-0.8-2.8-2.1-2.8
			C279.6,53.2,278.8,54.2,278.8,55.9z"/>
		<path class="st0" d="M298.5,56.1h-4.8c0.1,1.7,0.9,2.7,2.5,2.7c0.6,0,1.2-0.2,1.8-0.5v0.8c-0.6,0.3-1.2,0.4-1.9,0.4
			c-2,0-3.2-1.3-3.2-3.6c0-2.1,1.2-3.5,3-3.5c1.6,0,2.6,1.2,2.6,3.2V56.1z M295.8,53.2c-1.1,0-1.9,0.9-2,2.4h3.9
			C297.6,54,296.9,53.2,295.8,53.2z"/>
		<path class="st0" d="M302.1,52.6l1.6,2.5l1.7-2.5h1l-2.2,3.1l2.4,3.7h-1l-1.9-3l-1.9,3h-1l2.4-3.6l-2.2-3.2H302.1z"/>
		<path class="st0" d="M310.2,62.2h-0.9v-9.6h0.8v1.3c0.5-1,1.4-1.5,2.3-1.5c1.6,0,2.7,1.3,2.7,3.5c0,2.2-1.1,3.6-2.8,3.6
			c-0.9,0-1.7-0.4-2.2-1.2V62.2z M312.3,53.2c-1.2,0-2.1,1-2.1,2.8c0,1.8,0.8,2.8,2.1,2.8c1.1,0,2-1,2-2.8
			C314.3,54.2,313.5,53.2,312.3,53.2z"/>
		<path class="st0" d="M323.9,56.1h-4.8c0.1,1.7,0.9,2.7,2.5,2.7c0.6,0,1.2-0.2,1.8-0.5v0.8c-0.6,0.3-1.2,0.4-1.9,0.4
			c-2,0-3.2-1.3-3.2-3.6c0-2.1,1.2-3.5,3-3.5c1.6,0,2.6,1.2,2.6,3.2V56.1z M321.1,53.2c-1.1,0-1.9,0.9-2,2.4h3.9
			C323,54,322.3,53.2,321.1,53.2z"/>
		<path class="st0" d="M331.6,53.7c-0.4-0.2-1-0.4-1.5-0.4c-1.4,0-2.5,1.1-2.5,2.7c0,1.7,1,2.7,2.4,2.7c0.5,0,1.1-0.1,1.6-0.4
			l0.1,0.8c-0.5,0.2-1.1,0.3-1.7,0.3c-2,0-3.3-1.4-3.3-3.5c0-2,1.4-3.4,3.4-3.4c0.6,0,1.1,0.1,1.6,0.3L331.6,53.7z"/>
		<path class="st0" d="M336.4,52.6h1.6v0.7h-1.6v4c0,1,0.2,1.5,1,1.5c0.2,0,0.4,0,0.7-0.1v0.8c-0.3,0.1-0.6,0.1-0.9,0.1
			c-1.3,0-1.6-0.6-1.6-2.1v-4.1h-1.4v-0.7h1.4v-1.7l0.9-0.3V52.6z"/>
		<path class="st0" d="M345.9,59.4h-0.8v-1.2c-0.5,0.8-1.3,1.3-2.3,1.3c-1.3,0-2.2-0.8-2.2-2c0-1.4,1.2-2.3,3.5-2.3h0.9
			c0-0.1,0-0.1,0-0.2c0-1.1-0.6-1.8-1.6-1.8c-0.7,0-1.3,0.2-2,0.6v-0.8c0.7-0.3,1.4-0.5,2-0.5c1.6,0,2.3,0.9,2.3,2.6V59.4z
			 M341.6,57.5c0,0.8,0.5,1.3,1.4,1.3c1.2,0,2.1-0.8,2.1-2.2v-0.6h-1C342.5,55.9,341.6,56.5,341.6,57.5z"/>
		<path class="st0" d="M351.3,52.6h1.6v0.7h-1.6v4c0,1,0.2,1.5,1,1.5c0.2,0,0.4,0,0.7-0.1v0.8c-0.3,0.1-0.6,0.1-0.9,0.1
			c-1.3,0-1.6-0.6-1.6-2.1v-4.1h-1.4v-0.7h1.4v-1.7l0.9-0.3V52.6z"/>
		<path class="st0" d="M357.1,49.4v1.1h-1v-1.1H357.1z M357.1,52.6v6.8h-0.9v-6.8H357.1z"/>
		<path class="st0" d="M366.9,56c0,2.2-1.3,3.6-3.2,3.6s-3.2-1.4-3.2-3.6c0-2.2,1.3-3.5,3.2-3.5C365.7,52.4,366.9,53.8,366.9,56z
			 M361.5,56c0,1.7,0.9,2.8,2.2,2.8c1.3,0,2.3-1.1,2.3-2.8c0-1.7-0.9-2.8-2.3-2.8C362.4,53.2,361.5,54.3,361.5,56z"/>
		<path class="st0" d="M375.9,59.4H375v-3.9c0-1.5-0.5-2.2-1.6-2.2c-1.2,0-2,0.9-2,2.6v3.5h-0.9v-6.8h0.8v1.3c0.5-1,1.3-1.4,2.3-1.4
			c1.4,0,2.3,1,2.3,2.8V59.4z"/>
	</g>
	<g>
		<path class="st0" d="M27.9,21.6L17.2,50.2h-6.4L0,21.6l7-1.7L14,40.5l6.9-20.6L27.9,21.6z"/>
		<path class="st0" d="M51.5,41.6c0,5.6-5.1,8.5-11.5,8.5h-8.8V20.9h8.3c5.6,0,10.7,2.1,10.7,7.3c0,2.9-1.5,5.1-4.4,6.4
			C49.5,35.5,51.5,38.2,51.5,41.6z M43.4,29.4c0-1.4-1.1-2.2-3.9-2.2h-1.2v4.9h1.2C42,32.1,43.4,31.4,43.4,29.4z M44.4,40.9
			c0-2.2-1.5-2.9-4.6-2.9h-1.5v5.9h1.5C42.9,43.8,44.4,42.9,44.4,40.9z"/>
		<path class="st0" d="M78,48.1l-6.2,3.1l-8.3-10.6h-1.1v9.7h-7V20.9h8.2c5.9,0,11.5,3.9,11.5,9.8c0,3.2-1.8,6.3-4.9,8L78,48.1z
			 M63.5,34c2.1,0,4.4-1.1,4.4-3.3c0-2.1-1.1-3.3-4.4-3.3h-1.1V34H63.5z"/>
	</g>
	<g>
		<g>
			<path class="st0" d="M109.9,7.1c1.3-3.1,4.2-5.4,7.6-6.8l16,2.3c-3.4,1.3-6.2,3.7-7.5,6.7c-0.5,1.2-0.7,2.3-0.8,3.5l-16.2-2.3
				C109.2,9.4,109.4,8.2,109.9,7.1z"/>
		</g>
		<g>
			<path class="st0" d="M132.8,65.9c-1.3,3.1-4.2,5.4-7.6,6.8l-16-2.2c3.4-1.3,6.2-3.7,7.5-6.7c0.5-1.2,0.7-2.3,0.8-3.5l16.2,2.3
				C133.6,63.6,133.3,64.8,132.8,65.9z"/>
		</g>
		<g>
			<path class="st0" d="M92,47.9c-3.1-1.3-5.4-4.1-6.8-7.6l2.2-16.1c1.3,3.4,3.7,6.2,6.7,7.5c1.2,0.5,2.3,0.7,3.5,0.8l-2.3,16.2
				C94.2,48.7,93.1,48.4,92,47.9z"/>
		</g>
		<g>
			<path class="st0" d="M150.8,25.1c3.1,1.3,5.4,4.1,6.8,7.6l-2.2,16.1c-1.3-3.4-3.7-6.2-6.7-7.5c-1.2-0.5-2.3-0.7-3.5-0.8l2.3-16.2
				C148.5,24.3,149.6,24.6,150.8,25.1z"/>
		</g>
		<g>
			<path class="st0" d="M92.5,23.8c-1.2-3.1-0.9-6.8,0.6-10.2L106,3.9c-1.5,3.4-1.8,7-0.5,10c0.5,1.2,1.1,2.2,1.9,3l-13.1,9.8
				C93.6,25.9,92.9,25,92.5,23.8z"/>
		</g>
		<g>
			<path class="st0" d="M150.2,49.2c1.2,3.1,0.9,6.8-0.6,10.2l-12.9,9.8c1.5-3.4,1.8-7,0.5-10c-0.5-1.2-1.1-2.2-1.9-3l13.1-9.8
				C149.2,47.1,149.8,48,150.2,49.2z"/>
		</g>
		<g>
			<path class="st0" d="M108.7,65.4c-3.1,1.2-6.8,0.9-10.2-0.6l-9.8-12.9c3.4,1.5,7,1.8,10,0.5c1.2-0.5,2.2-1.1,3-1.9l9.8,13.1
				C110.8,64.3,109.8,64.9,108.7,65.4z"/>
		</g>
		<g>
			<path class="st0" d="M134.1,7.6c3.1-1.2,6.8-0.9,10.2,0.6l9.8,12.9c-3.4-1.5-7-1.8-10-0.5c-1.2,0.5-2.2,1.1-3,1.9l-9.8-13.1
				C131.9,8.7,132.9,8.1,134.1,7.6z"/>
		</g>
	</g>
	<g>
		<g>
			<path class="st0" d="M118.4,28.9c0.3-0.8,1.1-1.4,2-1.8l4.2,0.6c-0.9,0.3-1.6,1-1.9,1.7c-0.1,0.3-0.2,0.6-0.2,0.9l-4.2-0.6
				C118.2,29.4,118.3,29.1,118.4,28.9z"/>
		</g>
		<g>
			<path class="st0" d="M124.3,44.1c-0.3,0.8-1.1,1.4-2,1.8l-4.2-0.6c0.9-0.3,1.6-1,2-1.7c0.1-0.3,0.2-0.6,0.2-0.9l4.2,0.6
				C124.5,43.6,124.5,43.9,124.3,44.1z"/>
		</g>
		<g>
			<path class="st0" d="M113.7,39.5c-0.8-0.3-1.4-1.1-1.8-2l0.6-4.2c0.4,0.9,1,1.6,1.7,1.9c0.3,0.1,0.6,0.2,0.9,0.2l-0.6,4.2
				C114.3,39.7,114,39.6,113.7,39.5z"/>
		</g>
		<g>
			<path class="st0" d="M129,33.5c0.8,0.3,1.4,1.1,1.8,2l-0.6,4.2c-0.3-0.9-1-1.6-1.7-1.9c-0.3-0.1-0.6-0.2-0.9-0.2l0.6-4.2
				C128.4,33.3,128.7,33.4,129,33.5z"/>
		</g>
		<g>
			<path class="st0" d="M113.9,33.2c-0.3-0.8-0.2-1.8,0.2-2.7l3.4-2.5c-0.4,0.9-0.5,1.8-0.1,2.6c0.1,0.3,0.3,0.6,0.5,0.8l-3.4,2.6
				C114.1,33.8,114,33.5,113.9,33.2z"/>
		</g>
		<g>
			<path class="st0" d="M128.9,39.8c0.3,0.8,0.2,1.8-0.2,2.6l-3.4,2.5c0.4-0.9,0.5-1.8,0.1-2.6c-0.1-0.3-0.3-0.6-0.5-0.8l3.4-2.6
				C128.6,39.2,128.8,39.5,128.9,39.8z"/>
		</g>
		<g>
			<path class="st0" d="M118.1,44c-0.8,0.3-1.8,0.2-2.6-0.2l-2.5-3.4c0.9,0.4,1.8,0.5,2.6,0.1c0.3-0.1,0.6-0.3,0.8-0.5l2.6,3.4
				C118.6,43.7,118.4,43.9,118.1,44z"/>
		</g>
		<g>
			<path class="st0" d="M124.7,29c0.8-0.3,1.8-0.2,2.6,0.2l2.5,3.4c-0.9-0.4-1.8-0.5-2.6-0.1c-0.3,0.1-0.6,0.3-0.8,0.5l-2.6-3.4
				C124.1,29.3,124.4,29.1,124.7,29z"/>
		</g>
	</g>
	<g>
		<g>
			<path class="st1" d="M128,19.5c-0.8-1.8-2.4-3.2-4.4-3.9l-9.3,1.3c2,0.8,3.6,2.1,4.3,3.9c0.3,0.7,0.4,1.3,0.4,2l9.4-1.3
				C128.4,20.8,128.3,20.1,128,19.5z"/>
		</g>
		<g>
			<path class="st1" d="M114.7,53.5c0.8,1.8,2.4,3.2,4.4,3.9l9.3-1.3c-2-0.8-3.6-2.1-4.3-3.9c-0.3-0.7-0.4-1.3-0.5-2l-9.4,1.3
				C114.3,52.2,114.4,52.9,114.7,53.5z"/>
		</g>
		<g>
			<path class="st1" d="M138.4,43.1c1.8-0.8,3.2-2.4,3.9-4.4l-1.3-9.3c-0.8,2-2.1,3.6-3.9,4.3c-0.7,0.3-1.3,0.4-2,0.4l1.3,9.4
				C137.1,43.6,137.8,43.4,138.4,43.1z"/>
		</g>
		<g>
			<path class="st1" d="M104.3,29.9c-1.8,0.8-3.2,2.4-3.9,4.4l1.3,9.3c0.8-2,2.1-3.6,3.9-4.3c0.7-0.3,1.3-0.4,2-0.5l-1.3-9.4
				C105.6,29.4,105,29.6,104.3,29.9z"/>
		</g>
		<g>
			<path class="st1" d="M138.1,29.1c0.7-1.8,0.5-3.9-0.3-5.9l-7.5-5.7c0.9,1.9,1,4,0.3,5.8c-0.3,0.7-0.7,1.3-1.1,1.7l7.6,5.7
				C137.5,30.4,137.8,29.8,138.1,29.1z"/>
		</g>
		<g>
			<path class="st1" d="M104.6,43.9c-0.7,1.8-0.5,3.9,0.4,5.9l7.5,5.7c-0.9-1.9-1-4-0.3-5.8c0.3-0.7,0.6-1.3,1.1-1.7l-7.6-5.7
				C105.3,42.6,104.9,43.2,104.6,43.9z"/>
		</g>
		<g>
			<path class="st1" d="M128.7,53.2c1.8,0.7,3.9,0.5,5.9-0.4l5.7-7.5c-1.9,0.8-4,1-5.8,0.3c-0.7-0.3-1.3-0.6-1.7-1.1l-5.7,7.6
				C127.5,52.6,128.1,53,128.7,53.2z"/>
		</g>
		<g>
			<path class="st1" d="M114,19.8c-1.8-0.7-3.9-0.5-5.9,0.4l-5.7,7.5c1.9-0.9,4-1,5.8-0.3c0.7,0.3,1.3,0.6,1.7,1.1l5.7-7.6
				C115.2,20.4,114.7,20,114,19.8z"/>
		</g>
	</g>
	<g>
		<path class="st0" d="M171.2,44.2V31.4h-4.1v-3.7h12.2v3.7h-4.1v12.8H171.2z"/>
		<path class="st0" d="M194.6,37.3c0,4.1-2.9,7.4-6.8,7.4c-3.9,0-6.8-3.3-6.8-7.4v-9.6h4v8c0,3,0.5,5.4,2.8,5.4
			c2.4,0,2.8-2.4,2.8-5.4v-8h4V37.3z"/>
		<path class="st0" d="M210.2,43l-3.5,1.7l-4.7-6h-0.6v5.5h-4V27.7h4.6c3.3,0,6.5,2.2,6.5,5.5c0,1.8-1,3.6-2.8,4.5L210.2,43z
			 M202,35.1c1.2,0,2.5-0.6,2.5-1.8c0-1.2-0.6-1.8-2.5-1.8h-0.6v3.7H202z"/>
		<path class="st0" d="M223.3,39.4c0,3.1-2.9,4.8-6.5,4.8h-5V27.7h4.7c3.2,0,6.1,1.2,6.1,4.1c0,1.7-0.8,2.9-2.5,3.6
			C222.2,36,223.3,37.4,223.3,39.4z M218.7,32.5c0-0.8-0.6-1.2-2.2-1.2h-0.7V34h0.7C217.9,34,218.7,33.6,218.7,32.5z M219.3,39
			c0-1.2-0.8-1.7-2.6-1.7h-0.8v3.3h0.8C218.5,40.6,219.3,40.1,219.3,39z"/>
		<path class="st0" d="M230,44.2h-4V27.7h4V44.2z"/>
		<path class="st0" d="M237.4,34.8v9.4h-4V27.7h4l5.7,9.4v-9.4h4v16.5h-4L237.4,34.8z"/>
		<path class="st0" d="M260.1,40.5v3.7h-9.9V27.7h9.6v3.7h-5.7v2.3h4.8v3.7h-4.8v3.1H260.1z"/>
		<path class="st0" d="M281.6,33.6c0,3.6-3.4,5.9-6.9,5.9h-0.6v4.7h-4V27.7h4.6C278.3,27.7,281.6,30.1,281.6,33.6z M274.1,35.8h0.6
			c1.4,0,2.9-0.8,2.9-2.2s-1.5-2.2-2.9-2.2h-0.6V35.8z"/>
		<path class="st0" d="M281,43.9l5.9-16.2h3.4l5.9,16.2l-4,0.9l-1-3.3H286l-1,3.3L281,43.9z M287.1,37.7h3l-1.5-4.9L287.1,37.7z"/>
		<path class="st0" d="M310.7,43l-3.5,1.7l-4.7-6h-0.6v5.5h-4V27.7h4.6c3.3,0,6.5,2.2,6.5,5.5c0,1.8-1,3.6-2.8,4.5L310.7,43z
			 M302.6,35.1c1.2,0,2.5-0.6,2.5-1.8c0-1.2-0.6-1.8-2.5-1.8h-0.6v3.7H302.6z"/>
		<path class="st0" d="M314.4,44.2V31.4h-4.1v-3.7h12.2v3.7h-4.1v12.8H314.4z"/>
		<path class="st0" d="M328.3,34.8v9.4h-4V27.7h4l5.7,9.4v-9.4h4v16.5h-4L328.3,34.8z"/>
		<path class="st0" d="M351.1,40.5v3.7h-9.9V27.7h9.6v3.7h-5.6v2.3h4.8v3.7h-4.8v3.1H351.1z"/>
		<path class="st0" d="M366.2,43l-3.5,1.7l-4.7-6h-0.6v5.5h-4V27.7h4.6c3.3,0,6.5,2.2,6.5,5.5c0,1.8-1,3.6-2.8,4.5L366.2,43z
			 M358.1,35.1c1.2,0,2.5-0.6,2.5-1.8c0-1.2-0.6-1.8-2.5-1.8h-0.6v3.7H358.1z"/>
		<path class="st0" d="M367.3,31.9c0-2.8,3-4.7,5.5-4.7c2,0,3.4,0.6,4.7,1.9l-2.2,2.6c-0.7-0.7-1.3-1-2.2-1c-1,0-1.9,0.3-1.9,1.2
			c0,0.9,1,1.5,2.1,2l1.5,0.8c2,1,3.3,2.6,3.3,4.8c0,3-2.8,5.2-5.8,5.2c-1.8,0-3.9-0.6-5.2-2.3l2.3-2.9c0.7,1,1.8,1.7,2.9,1.7
			c0.9,0,1.9-0.6,1.9-1.7c0-1-1-1.5-2.2-2.2l-1.5-0.8C368.9,35.6,367.3,34.3,367.3,31.9z"/>
	</g>
</g>
</svg>
