<?xml version="1.0" encoding="utf-8"?>
<!-- Generator: Adobe Illustrator 24.0.0, SVG Export Plug-In . SVG Version: 6.00 Build 0)  -->
<svg version="1.1" id="Layer_1" xmlns="http://www.w3.org/2000/svg" xmlns:xlink="http://www.w3.org/1999/xlink" x="0px" y="0px"
	 viewBox="0 0 1032.8 400.3" style="enable-background:new 0 0 1032.8 400.3;" xml:space="preserve">
<style type="text/css">
	.st0{fill:url(#SVGID_1_);}
	.st1{fill:url(#SVGID_2_);}
	.st2{fill:url(#SVGID_3_);}
	.st3{fill:#071D49;}
</style>
<g>
	<g>
		<g>
			<g>
				
					<linearGradient id="SVGID_1_" gradientUnits="userSpaceOnUse" x1="0.1417" y1="750.9879" x2="322.0317" y2="750.9879" gradientTransform="matrix(1 0 0 -1 0 843.7047)">
					<stop  offset="0" style="stop-color:#071D49;stop-opacity:0.3"/>
					<stop  offset="1" style="stop-color:#071D49"/>
				</linearGradient>
				<path class="st0" d="M0.1,185.3V22.6c0-12.5,10.2-22.5,22.7-22.5H322L0.1,185.3z"/>
			</g>
			
				<linearGradient id="SVGID_2_" gradientUnits="userSpaceOnUse" x1="0.1417" y1="649.1279" x2="322.0317" y2="649.1279" gradientTransform="matrix(1 0 0 -1 0 843.7047)">
				<stop  offset="0" style="stop-color:#071D49;stop-opacity:0.8"/>
				<stop  offset="1" style="stop-color:#071D49;stop-opacity:0.3"/>
			</linearGradient>
			<polygon class="st1" points="0.1,185.3 0.1,23 0.1,23 322,208.2 322,366.2 			"/>
			
				<linearGradient id="SVGID_3_" gradientUnits="userSpaceOnUse" x1="0.1417" y1="545.0829" x2="322.0317" y2="545.0829" gradientTransform="matrix(1 0 0 -1 0 843.7047)">
				<stop  offset="0" style="stop-color:#071D49;stop-opacity:0.3"/>
				<stop  offset="1" style="stop-color:#071D49;stop-opacity:0.6"/>
			</linearGradient>
			<path class="st2" d="M322,208.2v158.3c-0.1,12.5-10.2,22.6-22.7,22.6H0.1L322,208.2z"/>
		</g>
		<g>
			<path class="st3" d="M480.2,257.9c-18.6,0-23.6-9.2-24.7-20.3h-42.7c1.3,33.9,23.6,52.3,67.4,52.3c40.3,0,63-23.4,63-52.1
				c0-33.9-20.3-44.2-60-48.6c-19.5-2.6-24.3-6.6-24.3-15.3c0-7.9,6.1-13.4,18.2-13.4c12.3,0,18.6,5.7,20.1,16.9h41.6
				c-2.8-33-24.1-48.8-61.7-48.8c-37.4,0-60.6,20.6-60.6,48.8c0,31.5,14.9,44.6,59.1,49.9c18.8,2.9,24.7,5.5,24.7,15.1
				C500.3,251.5,493.1,257.9,480.2,257.9z"/>
			<path class="st3" d="M618.7,273.8v13.4h38.1V213c0-30.4-20.1-43.3-51.7-43.3c-31.3,0-53,13.6-54.7,41.1h36.8
				c0.9-7.2,4.8-13.6,15.5-13.6c12.5,0,15.1,7.2,15.1,18.2v2.6h-10.9c-38.1,0-60.8,10.5-60.8,37.4c0,24.3,18.2,34.4,38.7,34.4
				C603.1,289.8,613.2,282.1,618.7,273.8z M607.5,240.1h10.3v7c0,9.8-8.3,16.2-19.5,16.2c-9.2,0-13.6-4.2-13.6-10.7
				C584.7,243.2,591.7,240.1,607.5,240.1z"/>
			<path class="st3" d="M784.2,287.2v-74.4c0-29.3-15.3-43.1-37.4-43.1c-19,0-31.5,9.6-37.7,21.5v-18.4h-39.2v114.5h39.2v-64.1
				c0-14.7,7.9-21.7,19.5-21.7c11.4,0,16.4,6.4,16.4,19.3v66.5L784.2,287.2L784.2,287.2z"/>
			<path class="st3" d="M852,218c-38.1,0-60.8,10.5-60.8,37.4c0,24.3,18.2,34.4,38.7,34.4c18.4,0,28.5-7.7,33.9-16v13.4h38.1V213
				c0-30.4-20.1-43.3-51.7-43.3c-31.3,0-53,13.6-54.7,41.1h36.8c0.9-7.2,4.8-13.6,15.5-13.6c12.5,0,15.1,7.2,15.1,18.2v2.6L852,218
				L852,218z M862.9,247.1c0,9.8-8.3,16.2-19.5,16.2c-9.2,0-13.6-4.2-13.6-10.7c0-9.4,7-12.5,22.8-12.5h10.3V247.1z"/>
			<path class="st3" d="M993.4,122.4v66.5c-6.6-11.6-17.3-19.3-35.2-19.3c-27.1,0-48.6,20.8-48.6,59.8v1.8
				c0,39.6,21.7,58.7,48.1,58.7c17.3,0,30-9.4,35.7-21.2v18.6h39.2V122.4H993.4z M994.5,230.5c0,19.5-8.8,29.3-23,29.3
				c-13.6,0-22.1-9.8-22.1-29.1V229c0-19.9,7.9-29.8,22.5-29.8c14.4,0,22.5,10.3,22.5,29.5L994.5,230.5L994.5,230.5z"/>
		</g>
	</g>
	<g>
		<path class="st3" d="M427.5,345h10.7l14.6,44.1h-8.5l-3.5-10.9H424l-3.5,10.9h-7.7L427.5,345z M425.9,372.2h13l-6.5-20.5
			L425.9,372.2z"/>
		<path class="st3" d="M472.4,345h11l11.6,30.1l11.3-30.1h10.9v44.1H509v-33.3l-13.1,33.3h-2.7l-13.4-33.3v33.3h-7.4L472.4,345
			L472.4,345z"/>
		<path class="st3" d="M524.9,377.5v-20.7h7.5v19.8c0,4.9,2,7.1,6.3,7.1c4,0,7.5-2.6,7.5-7.7v-19.2h7.5v32.3h-7.5V384
			c-1.6,3.2-5,5.7-10.2,5.7C529.7,389.7,524.9,386.1,524.9,377.5z"/>
		<path class="st3" d="M568.2,383.9v5.2h-7.5v-47.2h7.5V362c1.8-3.1,5.8-5.9,10.5-5.9c8.1,0,14.3,6,14.3,16.4v0.5
			c0,10.4-6,16.7-14.3,16.7C573.7,389.7,570,387.2,568.2,383.9z M585.4,373.2v-0.5c0-7.2-3.7-10.7-8.6-10.7c-5.2,0-8.9,3.5-8.9,10.7
			v0.5c0,7.2,3.5,10.6,9,10.6C582.4,383.8,585.4,380.1,585.4,373.2z"/>
		<path class="st3" d="M596.1,380.1c0-7.5,7.3-10.2,16.5-10.2h4v-1.7c0-4.3-1.5-6.5-5.9-6.5c-3.9,0-5.8,1.8-6.2,5.1h-7.2
			c0.6-7.5,6.6-10.7,13.8-10.7c7.2,0,12.9,3,12.9,11.8v21.2h-7.3v-4c-2.1,2.8-4.9,4.6-9.9,4.6C601,389.7,596.1,386.9,596.1,380.1z
			 M616.7,377.8v-3.2h-3.8c-5.7,0-9.3,1.3-9.3,5.2c0,2.7,1.5,4.5,5.2,4.5C613.3,384.3,616.7,381.9,616.7,377.8z"/>
		<path class="st3" d="M629.2,373.5V373c0-10.3,6.1-16.8,14.5-16.8c5.2,0,8.5,2.4,10.3,5.6v-19.9h7.5v47.2H654v-5.4
			c-1.7,3.2-5.9,6-10.6,6C635.3,389.7,629.2,384,629.2,373.5z M654.3,373.1v-0.5c0-7.1-3.3-10.6-8.7-10.6c-5.5,0-8.7,3.8-8.7,10.8
			v0.5c0,7.1,3.6,10.5,8.4,10.5C650.4,383.8,654.3,380.3,654.3,373.1z"/>
		<path class="st3" d="M666.6,380.1c0-7.5,7.3-10.2,16.5-10.2h4v-1.7c0-4.3-1.5-6.5-5.9-6.5c-3.9,0-5.8,1.8-6.2,5.1h-7.2
			c0.6-7.5,6.6-10.7,13.8-10.7c7.2,0,12.9,3,12.9,11.8v21.2h-7.3v-4c-2.1,2.8-4.9,4.6-9.9,4.6C671.4,389.7,666.6,386.9,666.6,380.1z
			 M687.1,377.8v-3.2h-3.8c-5.7,0-9.3,1.3-9.3,5.2c0,2.7,1.5,4.5,5.2,4.5C683.7,384.3,687.1,381.9,687.1,377.8z"/>
		<path class="st3" d="M701.5,341.9h7.5v47.2h-7.5V341.9z"/>
		<path class="st3" d="M714.2,380.1c0-7.5,7.3-10.2,16.5-10.2h4v-1.7c0-4.3-1.5-6.5-5.9-6.5c-3.9,0-5.8,1.8-6.2,5.1h-7.2
			c0.6-7.5,6.6-10.7,13.8-10.7c7.2,0,12.9,3,12.9,11.8v21.2h-7.3v-4c-2.1,2.8-4.9,4.6-9.9,4.6C719,389.7,714.2,386.9,714.2,380.1z
			 M734.7,377.8v-3.2h-3.8c-5.7,0-9.3,1.3-9.3,5.2c0,2.7,1.5,4.5,5.2,4.5C731.3,384.3,734.7,381.9,734.7,377.8z"/>
		<path class="st3" d="M762,367.3v-0.5c0-13.3,9.1-22.5,21.4-22.5c10.1,0,18,5.1,18.9,15.4H794c-0.9-5.9-4.2-8.9-10.5-8.9
			c-7.8,0-12.8,6-12.8,15.9v0.5c0,9.9,4.8,15.8,12.9,15.8c6.1,0,10.4-3.1,11.3-9.3h8c-1.3,10.6-8.8,16-19.3,16
			C769.7,389.7,762,380.9,762,367.3z"/>
		<path class="st3" d="M806.3,373.3v-0.5c0-10,7.1-16.7,16.6-16.7c9.4,0,16.5,6.6,16.5,16.5v0.5c0,10.1-7.1,16.6-16.6,16.6
			C813.3,389.7,806.3,383.1,806.3,373.3z M831.8,373.2v-0.4c0-6.7-3.3-10.7-8.9-10.7s-8.9,4-8.9,10.7v0.5c0,6.6,3.3,10.7,8.9,10.7
			C828.4,383.9,831.8,379.8,831.8,373.2z"/>
		<path class="st3" d="M844.5,356.8h7.5v4.9c1.5-3,5.1-5.6,9.8-5.6c4.2,0,7.5,1.8,9.1,5.8c2.5-4,6.9-5.8,10.9-5.8
			c5.9,0,10.7,3.6,10.7,12.5v20.4h-7.5v-19.9c0-4.8-2-6.8-5.7-6.8c-3.7,0-7.1,2.5-7.1,7.4v19.3h-7.5v-19.9c0-4.8-2.1-6.8-5.7-6.8
			c-3.7,0-7.1,2.5-7.1,7.4v19.3h-7.5L844.5,356.8L844.5,356.8z"/>
		<path class="st3" d="M899.5,356.8h7.5v5.2c1.8-3.1,5.8-5.9,10.5-5.9c8.1,0,14.3,6,14.3,16.4v0.5c0,10.4-6,16.7-14.3,16.7
			c-5.1,0-8.8-2.5-10.5-5.7v16.1h-7.5V356.8z M924.2,373.2v-0.5c0-7.2-3.7-10.7-8.6-10.7c-5.2,0-8.9,3.5-8.9,10.7v0.5
			c0,7.2,3.5,10.6,9,10.6C921.2,383.8,924.2,380.1,924.2,373.2z"/>
		<path class="st3" d="M934.9,380.1c0-7.5,7.3-10.2,16.5-10.2h4v-1.7c0-4.3-1.5-6.5-5.9-6.5c-3.9,0-5.8,1.8-6.2,5.1h-7.2
			c0.6-7.5,6.6-10.7,13.8-10.7c7.2,0,12.9,3,12.9,11.8v21.2h-7.3v-4c-2.1,2.8-4.9,4.6-9.9,4.6C939.8,389.7,934.9,386.9,934.9,380.1z
			 M955.4,377.8v-3.2h-3.8c-5.7,0-9.3,1.3-9.3,5.2c0,2.7,1.5,4.5,5.2,4.5C952,384.3,955.4,381.9,955.4,377.8z"/>
		<path class="st3" d="M969.8,356.8h7.5v5.1c1.5-3.2,5.1-5.8,10.4-5.8c6.5,0,11,3.8,11,12.7v20.3h-7.5v-19.6c0-4.9-2-7.1-6.4-7.1
			c-4.2,0-7.6,2.6-7.6,7.7v19h-7.5L969.8,356.8L969.8,356.8z"/>
		<path class="st3" d="M1013.5,385.8l-12.8-29h8.1l8.6,20.8l7.9-20.8h7.3l-17.6,43.3h-7.3L1013.5,385.8z"/>
	</g>
</g>
</svg>
