<svg xmlns="http://www.w3.org/2000/svg" xmlns:xlink="http://www.w3.org/1999/xlink" viewBox="0 0 188 277"><defs><linearGradient id="fad935cb-e67a-4975-875a-02046dc2b19f" x1="-33" y1="144.76" x2="403.79" y2="84.91" gradientUnits="userSpaceOnUse"><stop offset="0.04" stop-color="#c1b081"/><stop offset="0.09" stop-color="#896e42"/><stop offset="0.17" stop-color="#d8aa2c"/><stop offset="0.22" stop-color="#f1cb61"/><stop offset="0.43" stop-color="#e6cda1"/><stop offset="0.65" stop-color="#c7960f"/><stop offset="0.86" stop-color="#a08b5e"/><stop offset="1" stop-color="#775a2e"/></linearGradient><linearGradient id="b30a6b39-5874-4cd0-8415-52b913bfce5b" x1="-37.64" y1="110.1" x2="399.22" y2="50.24" gradientTransform="matrix(-0.84, -0.54, -0.54, 0.84, 174.39, 46.64)" xlink:href="#fad935cb-e67a-4975-875a-02046dc2b19f"/><linearGradient id="b47904e6-b777-4d2c-b939-fe12b31df385" x1="-34.01" y1="136.46" x2="402.69" y2="76.62" gradientTransform="matrix(-0.84, -0.54, -0.54, 0.84, 174.39, 46.64)" xlink:href="#fad935cb-e67a-4975-875a-02046dc2b19f"/><linearGradient id="a1e27bdc-1cad-43ac-94ca-cee3c6fec648" x1="-28.22" y1="178.75" x2="408.52" y2="118.91" gradientTransform="matrix(-0.84, -0.54, -0.54, 0.84, 174.39, 46.64)" xlink:href="#fad935cb-e67a-4975-875a-02046dc2b19f"/><linearGradient id="b62ed6e4-7f1c-4448-8de9-727595f09aed" x1="-30.01" y1="165.71" x2="406.75" y2="105.87" gradientTransform="matrix(-0.84, -0.54, -0.54, 0.84, 174.39, 46.64)" xlink:href="#fad935cb-e67a-4975-875a-02046dc2b19f"/></defs><title>1</title><g style="isolation:isolate"><g id="fafa62b2-806c-463d-aa61-9dd4a065c614" data-name="Layer 2"><g id="a1f285d7-e901-4e1c-aea5-e80021afdd4b" data-name="OBJECTS"><path d="M13.6,87.7a11.1,11.1,0,0,0,.2,1.9c.4,2.5,2,4.7,3.6,6.7l1.2,1.4a22.4,22.4,0,0,0,5.3,5,9.7,9.7,0,0,0,2.9,1.4,13.6,13.6,0,0,0,4.8.9h1.3a19.6,19.6,0,0,1,6.2,1.6l.6.2,2.5,1c3.7,1.5,8.3,3.4,12.3,2.7a7.5,7.5,0,0,0,5-3.1h0l.7-1.6h0l.9.5.6.3.6.3.5.4,1.6.7.9.6a9.3,9.3,0,0,1,1.3,1.5l.5.9.3.7.3.5c.2.3.5.4.8.7h.2l.9,1,.4.5c.1.1.1.3.2.4a5.2,5.2,0,0,1,1.1,1c.2.1.2.4.2.6h.1l-.3.8a9.1,9.1,0,0,1-.7,1.4,8.6,8.6,0,0,0-.7,2.1,4.9,4.9,0,0,0,.5,1.6c0,.2.2.3.2.4a8,8,0,0,0,.5,2.1l.2.3a.3.3,0,0,0,.1.2l.4.5c.1.2.1.5.3.6l.5.4.5.3.7.4a25.6,25.6,0,0,0-2,2.6c-1.5,2.1-3.2,4.1-4.8,6.1L64.3,140l-1.8,2.9-1.2,2.3c-.5.8-.8,1.7-1.2,2.5l-.6,1.2A31.2,31.2,0,0,0,53.2,138a48.5,48.5,0,0,0-8.7-7.4,30.1,30.1,0,0,0-5.6-2.9l-2-.8c-1.8-.8-3.7-1.5-5.5-2.5L28.8,123a80,80,0,0,1-9.3-5.4,57.8,57.8,0,0,1-9.6-8.2l-1.6-1.8.3,2.4a23.4,23.4,0,0,0,2.3,6.9,27.8,27.8,0,0,1,2.1,5.7c.5,2.8,1.2,5.6,1.8,8.1l.4,1.9a26.5,26.5,0,0,0,4.2,8.4l1.4,1.9v.3a17.7,17.7,0,0,1,1.6,2.2c1.9,2.7,3.6,5.6,5.3,8.5l.8,1.4,2.8,4.7c1.8,2.8,4.4,4.8,7.1,6.8l.5.4a85.2,85.2,0,0,1,8.7,7.8l.5.6a11.1,11.1,0,0,1-.7,1.6c-2.2,4.7-4.7,9.3-7.3,13.9-1.3,2.2-3,4.3-4.4,6.5l-3,4.6c-.9,1.6-1.9,3.2-2.7,4.8l-.8,2a11.7,11.7,0,0,0-.5,2c-.4,1.4-.6,2.7-1,4.1a12.3,12.3,0,0,1-.2,1.9l-1.9,5.1c-.6,1.8-1.2,3.5-1.7,5.2a16.6,16.6,0,0,0-.6,2.1c-.3,1.1-.5,2.3-.8,3.3s-.9,2-1.1,3.1l-.9,5.6c-.3,1.8-.7,3.7-1.1,5.5a18,18,0,0,1-2.3,4.6c-.7,1.1-.3,1.7,2.9,3,.4-1.3.9-2.5,1.4-3.7a8.8,8.8,0,0,1,.5-1.5,17.2,17.2,0,0,0,1.1-5,35.4,35.4,0,0,1,1.5-8c.9-2.9,1.7-5.8,2.6-8.7l1.5-4.9c.2-.7.5-1.4.7-2.1H30a5.8,5.8,0,0,0,2.1-.7,14,14,0,0,1,3-1.5,16.2,16.2,0,0,0,3.2-1.7,14.3,14.3,0,0,0,3.1-2.4c.7-.8,1.1-1.9,1.8-2.6s2-1.2,2.9-1.9l.5-.2a45.6,45.6,0,0,0,5.6-3.3,6.2,6.2,0,0,0,1.4-1.8,57.5,57.5,0,0,1,4.2-6.3,22.4,22.4,0,0,1,3.5-3.4c1.3-1,2.8-1.9,4.2-2.9s3.8-2.1,5.7-3.4h.2l2.8.7a2.1,2.1,0,0,0,1.1-.1l3.4-.3,4.9.2H85l.9.8.8.5.7.3a15.6,15.6,0,0,0,3.5,2.7,24.4,24.4,0,0,1,3.1,2.2l1.8,1.9a17.2,17.2,0,0,0,2.7,2.7l1.5,1,.3.2a37.3,37.3,0,0,0,12.5,5.4l2,.3h.2l5.1.8,2.1.2a21,21,0,0,0,7.5-.1,62.6,62.6,0,0,0,7.7-2l1.4-.4a75.4,75.4,0,0,1,8.9-2h.3l3.7-.7,2.1-.4,2.5-.7h.1a23.8,23.8,0,0,1,5.3-1.1h3.7l-2.1-1.5a48.7,48.7,0,0,0-11.1-5.2l-.2.2.2-.3a64.4,64.4,0,0,1-9-3.9,70.5,70.5,0,0,0-13.3-6.2q-4.4-1.5-9.3-2.7a59.7,59.7,0,0,0-6.1-1.1,40.7,40.7,0,0,0-18.1,1.8l-1.1.5a18.2,18.2,0,0,0-3.1,1.6,10.5,10.5,0,0,0-2.7,2.2,11.4,11.4,0,0,1-1.6,1.5l-.8.6a7.5,7.5,0,0,0-2.1-.2l-2.8-.2H80.4l-.8-.2-2.4.2a3.4,3.4,0,0,1-1.4.2l-2.8-.2-.8-.2,2.2-2.1.4-.4.5-.5.9-.9a13.7,13.7,0,0,0,1.5-2.1,51.6,51.6,0,0,1,2.9-4.6,38.3,38.3,0,0,0,1.7-4.3c0-.1.1-.1.1-.2l.4-.3V172l1.1-1.7a20.4,20.4,0,0,1,3.5-2.8,36.8,36.8,0,0,1,9.5-3.3,32.5,32.5,0,0,0,4.2-1.1,77.6,77.6,0,0,0,9.3-3.1,47.9,47.9,0,0,0,8.5-4.3c8.7-5.6,9.8-15.3,10.8-24.8v-.5a17.9,17.9,0,0,0,.2-2.3,63.5,63.5,0,0,1,1.8-9.5c.2,0-1.2-1.2-1.2-1.2a28.8,28.8,0,0,0-5.7,3.2l-3.8,2.3-5.9,2.6a42.2,42.2,0,0,0-8.8,4.3,32.9,32.9,0,0,0-9,8.9c-2.1,2.9-4,6.1-5.8,9.2-.9,1.5-1.7,3-2.6,4.3a41.1,41.1,0,0,1-3.9,5.4,39.3,39.3,0,0,0-4.7,6.6c-.4.7-2.3,6.4-.9,8.4h.2a2.6,2.6,0,0,0-.7,1.7,4.4,4.4,0,0,1-1.1,2.7,7.2,7.2,0,0,0-1.2,2.5,6.2,6.2,0,0,1-1.4,2.5l-2.3,1.7a5.2,5.2,0,0,0-1,1.1L70.7,186c-1.3.9-2.9,1.4-4.1,2.4s-3.5,1.9-5,3l-3.1,2.7a5.3,5.3,0,0,1-1,.6,1.1,1.1,0,0,1-.1-.5c0-.3.2-.5.3-.8h0a3.1,3.1,0,0,0,.6-1.3.7.7,0,0,0,.1-.5c0-.3-.1-.6-.1-.9s-.1-.6-.1-.9a19.4,19.4,0,0,0-.2-2.4v-.4l.4-.2v-.6c-.4-2.1.2-4.9.7-7.5a26.5,26.5,0,0,0,.8-4.3c.2-1.5.3-3.1.4-4.7a101.8,101.8,0,0,0,.3-15.4h0l2.1-4.2,1.6-3.1.9-1.4a10.9,10.9,0,0,1,.8-1.5l1.8-2.8,1-1.4,1.5-2c1.5-2.1,3.2-4.1,4.9-6.2l5.8-6.6a91.9,91.9,0,0,0,6.3-8.7c1.2-1.7,2.5-3.5,3.6-5.3l.4-.7a2.5,2.5,0,0,0,.4-.7,10,10,0,0,0,.8-1.4l.4-.7.3-.8.7-1.6c.2-.6.3-1.2.5-1.8l.4-.8c.1-.3.1-.6.2-.9l.6-1.8c.2-.6.3-1.2.5-1.8a41.7,41.7,0,0,0,1.4-7.2,8.6,8.6,0,0,0,.1-1.6V86.6h0a19.9,19.9,0,0,0,2.7-3.6h0c.7-1,1.4-2.1,2.1-2.9a15.7,15.7,0,0,1,1.9-1.8,14.8,14.8,0,0,0,2.8-2.8l1-1.5a35.2,35.2,0,0,0,5.5-12.8l.3-1.3v-.9c.3-1.8.6-3.7.8-5.3l.2-1.8c.9-5.8-.5-10.2-2.1-15.2l-.4-1.4a76.1,76.1,0,0,1-1.9-9c-.3-1.4-.5-2.6-.7-3.9s-.3-1.5-.5-2.2a18.2,18.2,0,0,0-.7-2.5,30.4,30.4,0,0,1-1-5.4,4.1,4.1,0,0,1-.1-1.1V8.5l-1.5,2.1c-2.5,3.5-3.9,7.4-5.3,11.1a56,56,0,0,1-4,9A76.8,76.8,0,0,0,90.6,44a94.3,94.3,0,0,0-2.7,9.3,55.1,55.1,0,0,0-1.1,6.1c-.5,4.6-.6,11.6,1.8,18.1.1.4.3.8.4,1.2a28.5,28.5,0,0,0,1.6,3,10.9,10.9,0,0,0,2.2,2.7,9.4,9.4,0,0,1,1,1,1.9,1.9,0,0,0,.2.8,15.8,15.8,0,0,1-.2,7.8c-.6,2.4-.9,4.8-1.5,7.2a21.5,21.5,0,0,1-1.1,3.6l-.3.9c-.1.2-.2.3-.2.5a.5.5,0,0,0-.2.4l-1,1.6-1.1,1.5-1.2,1.5a32.5,32.5,0,0,0-2.3,2.9c-1.6,2.2-3,4.7-4.7,6.8s-3.8,3.9-5.6,5.9h-.4a1.1,1.1,0,0,1-.7-.3l-.5-.5a2.1,2.1,0,0,1-.4-.6l-.2-.4-.2-.4a2.4,2.4,0,0,1-.3-.9l-.3-.9-.3-.7a2.4,2.4,0,0,1-.2-.8,1.9,1.9,0,0,1,.1-.8l.3-.9.2-.2a9.1,9.1,0,0,1,.7-1.4l.8-1.3c.1-.4.1-.7.2-1.1a22,22,0,0,1,.5-3.7c.4-1.7,1-3.4,1.5-5.1l1-3.1.3-2a18.1,18.1,0,0,0,.3-2.3,18.1,18.1,0,0,1,.3-2.3l.6-.2v-.5a13.5,13.5,0,0,1,.4-4.3c.2-.9.4-1.7.5-2.4a24.5,24.5,0,0,0,.2-2.7,54.8,54.8,0,0,0,.2-8.9,15.6,15.6,0,0,0-4.3-9.4,26.3,26.3,0,0,0-5-4.3,16.8,16.8,0,0,0-3.2-1.7l-1-.4h-.1a31.3,31.3,0,0,1-3.2-1.5l-1.5-.8a45.4,45.4,0,0,1-5.3-3A32.1,32.1,0,0,1,50,52.1l-1.3-1.3.2,1.8a14.7,14.7,0,0,0,1.4,4,30.3,30.3,0,0,1,1.2,3.2c.3,1.6.6,3.2,1,4.8l.3,1a12.8,12.8,0,0,0,2.4,4.8l.9,1.3L57,73c1.1,1.6,2.1,3.3,3.1,5l.4.7,1.6,2.7a17.3,17.3,0,0,0,4.1,4l.3.2a43.2,43.2,0,0,1,5,4.5l.5.5c.7.9,1.3,1.9,2,2.9h.3l-.3.2a36.2,36.2,0,0,0,2.2,3.2.8.8,0,0,1-.1.4c-.2.8.2,1.8-.1,2.7s-.3.9-.4,1.4a6.8,6.8,0,0,0-.2,1.5,14.3,14.3,0,0,0-.8,2.2,15.2,15.2,0,0,1-.9,2.8c-.2.6-.3,1.3-.5,1.9s-.3.5-.3.8a21.7,21.7,0,0,0-.4,2.5,7.8,7.8,0,0,1-.2,1.6l-.3,1a.8.8,0,0,0-.4-.4,2.7,2.7,0,0,1-.7-.8l-.8-.9-.8-1c-.3-.2-.7-.3-.9-.6a5.3,5.3,0,0,1-.6-1v-.2a9.3,9.3,0,0,1-.5-1,4.1,4.1,0,0,0-.5-.9,2,2,0,0,0-.7-.6l-1.1-.7-1.2-.6-1.6-1-1.7-.8-2.1-.9-.9-.3a10.8,10.8,0,0,1-1.3-1.5l-1.6-1.9-.3-.3a24.9,24.9,0,0,0-8.8-4.9,67.6,67.6,0,0,0-7.8-1.7A42.8,42.8,0,0,1,27.6,91a34.5,34.5,0,0,1-4-2.7c-4.6-3.4-7.5-5.4-8.8-5.2l-.6.3C14,83.6,13.5,84,13.6,87.7ZM69.1,65.3a21.6,21.6,0,0,1,4.8,4.1,14.2,14.2,0,0,1,4,8.6,53.3,53.3,0,0,1-.2,8.8,24.6,24.6,0,0,1-.2,2.6,22.3,22.3,0,0,1-.4,2.3h0c-.1.2-.1.4-.2.6h-.5c-.1.2-.4.4-.3.5a6.2,6.2,0,0,0,.1,1.3c0,.1-.1.1-.1.2l-.2-.3c-.2-.6-.5-1.1-.7-1.8s-.1-.2-.1-.4a4.1,4.1,0,0,1,.5-1.8,1.4,1.4,0,0,1,.2-.6,18.3,18.3,0,0,0,.8-2.5.4.4,0,0,1,.1-.3v-.3c0-.2.1-.4.1-.6v-.9a21.6,21.6,0,0,0-.5-4.6l-.2-.5a12.4,12.4,0,0,0-.4-1.6V78l-.3-.8c0-.1-.1-.3-.1-.4l-.3-.6-.7-1.3c0-.1-.1-.2-.2-.3v-.2a.9.9,0,0,0-.4-.6,1.3,1.3,0,0,0-.4-.6l-.2-.3a23.3,23.3,0,0,0-2.5-3.2L68.7,68l-1.1-1.2-.3-.4L67,66l-.8-.8-.6-.7h-.3a.1.1,0,0,0-.1-.1l-.9-.4.6,1.1a13,13,0,0,0,1,1.5,11.3,11.3,0,0,0,1,1.3L68,69l.5.6.3.3.4.4c0,.1.1.1.1.2l.3.2.2.3.8.9.7.8.3.4.4.6.3.3.2.3v.2l.2.3h0l.3.5.2.3v.2l.3.4h0a3.6,3.6,0,0,1,.4.9c0,.2.1.3.2.5l.2.8c0,.1.1.3.1.4s.1.3.1.4a.9.9,0,0,1,.1.5v.2a1.2,1.2,0,0,1,.2.8c0,.2.1.4.1.6v.3h0a4.3,4.3,0,0,1,.2,1.1c0,.1.1.2.1.4v.2h0a2.2,2.2,0,0,0,.1.8v1.7a7.7,7.7,0,0,1-.7,2.7c-.1.4-.3.8-.4,1.1s-.3-1.5-.4-2.3-.1-.6-.2-.9-.1-.6-.1-.9-.1-.5-.2-.7v-.2a9.4,9.4,0,0,0,.3-4.7,11.5,11.5,0,0,0-2.2-4.6,45.8,45.8,0,0,0-4.7-5.1,56.2,56.2,0,0,1,4.4,5.3,12.7,12.7,0,0,1,2.1,4.4,9.8,9.8,0,0,1,.1,4.5v-.3a23.5,23.5,0,0,0-1.9-4.3h.7l-1.3-1.1L70.2,78a24.8,24.8,0,0,0-1.9-2.6l-.5-.7H68l-.7-.8c0-.1,0-.1-.1-.1l-.6-1c-.2-.4-.5-.8-.7-1.3l-.2-.3-.3-.7-.9-1.7-.8-1.7h0l-.2-.3-.2-.3c0-.1-.1-.2-.2-.3v-.4l-.2-.3-.2-.3-.3-.5a3.5,3.5,0,0,0-.5-.8l-.2-.3-.4-.5-.2-.3c-.1-.2-.3-.3-.4-.4s-.1-.1-.1-.2l-.2-.2-.4-.4-.3-.3h-.3l-.8-.2.7,1.1.3.3.5.7c.1,0,.2.2.3.3l.2.2c0,.1.1.2.2.3l.3.5h.1l.4.6a.8.8,0,0,1,.2.4,1,1,0,0,0,.4.5.5.5,0,0,0,.2.4c0,.2.1.3.2.5l.3.5.4.9v.3h.1v.2h.1v.3l.2.3h0l.2.3c-.2-.2-.3-.4-.5-.5h-.1l-1-1.1-4.2-4.6a59.8,59.8,0,0,1-3.9-4.9l-.8-1.3-.6-1,1.8,1.3A42.5,42.5,0,0,0,60.2,61l1.5.8c1.1.6,2.2,1,3.3,1.5h.3l.8.3A20,20,0,0,1,69,65.2Zm3.8,24.5-.5-.6a45.4,45.4,0,0,0-5.2-4.5l-.3-.3a16.7,16.7,0,0,1-3.8-3.7c-.5-.7-1-1.6-1.6-2.6l-.4-.7c-1-1.7-2-3.4-3.2-5.1l-.8-1.2h0l-.9-1.2a12.8,12.8,0,0,1-2.3-4.5l-.2-.9c-.3-1.2-.6-2.4-.8-3.6l.3.8.3.6.4.7.5.5.8.9a.5.5,0,0,0,.4.2l.2.2h.1l.7.6.4.3.4.3h.2l.3.2.3.2.4.3.3.2.2.2h.5l.3.2.6.4h.3l.3.2h.1l.3.2h.2l.5.4.4.4.4.5,1.1,1.2,1.3,1.5.7.9a6.1,6.1,0,0,1,.7,1l.6.9.6.8.3.5h-.1l-.3-.2-.2-.3-.4-.3h-.1l-2.4-1.7-2.2-1.7-.4-.3-.4-.2-.3-.3-.3-.3-.3-.2-.3-.2-1.9-1.8-1.8-1.9a.3.3,0,0,0-.1-.2l-.2-.3-.5-.6-.3-.5h-.3l-.8-.4.6,1.2.3.7a3.6,3.6,0,0,0,.7,1l.2.2.8,1,.5.5h.1l.2.2.4.4.3.2L60,71.9a1,1,0,0,1,.5.4l.6.5.7.5.5.4.5.4.5.4h.2l.2.2h.2l.3.2h.1l.4.3h.1l.5.4h.2l.3.2h.1c.1.2.3.3.4.4l.3.2.4.3h.3a3.9,3.9,0,0,0,1,.8l.6.4.7.6h0a6.1,6.1,0,0,1,.7,1l.3.5.3.4.5.9a5.9,5.9,0,0,1,.4.8h.1a.7.7,0,0,0,.1.5c.1.2.1.4.2.5a1.8,1.8,0,0,1,.4,1l.3.9c.1.1.1.3.2.5a5.9,5.9,0,0,1-.4.8,2,2,0,0,0,.4-.8.8.8,0,0,0,.1.4,8.9,8.9,0,0,0,.3,1.4l-.3-.3-.8-.9-.3-.3-.3-.3-.3-.3a.2.2,0,0,0-.2-.2l-1.7-1.6-1.7-1.3-.2-.2-.3-.2-.3-.3-.6-.5-.8-.7-.2-.2-.5-.5-.2-.2c-.2-.1-.3-.3-.5-.5h-.1l-.6-.6v-.2l-.2-.2-.3-.5-.3-.3v-.2l-1-.6.5,1h0a7.9,7.9,0,0,0,.4.9l.5.7.6.7.2.3.3.2v.2l.2.2.4.3.3.3.8.7.4.3.4.4.5.4.3.2.3.3.3.2.2.3h.3v.2h.1l.3.2.2.2h.2l.5.4h.2l.3.3h.2q.1.3.3.3l.2.2.3.3.2.2.2.2.3.4.6.6.2.2a.8.8,0,0,0,.4.4c0,.1.1.1.1.2h.3a10.5,10.5,0,0,0,.4,1.7v.6A12.7,12.7,0,0,0,72.9,89.8ZM52.6,59.6a12.1,12.1,0,0,0-1.3-3.5l-.6-1.6L52,55.7c0,.1.1.3.1.4l.6,1.4a11.9,11.9,0,0,0,1.2,2.2l2.3,3,1,1.2.6.7,1.5,1.5-.8-.5-.3-.2H58l-.3-.2-.2-.2-.4-.3a6.9,6.9,0,0,1-1.3-1.1l-.2-.2a.8.8,0,0,1-.4-.4l-.2-.2c-.2-.1-.3-.3-.4-.4s-.1-.1-.1-.2l-.2-.2-.3-.4c0-.1-.1-.2-.2-.3h-.2l-.8-.7C52.7,60.1,52.7,59.9,52.6,59.6Zm23.2,24Zm.2-.7a5,5,0,0,0-.2-1.2h0a.4.4,0,0,0-.1-.3.6.6,0,0,0-.1-.4,1.8,1.8,0,0,0-.2-1v-.4c0,.2.1.3.1.5v.4a23.8,23.8,0,0,1,.5,2.6Zm21.3,1.5h0c-.2-2.1-.5-4.1-.8-6.1l.2-.5c.2-.6.5-1.2.8-1.9v-.2c.4-.8.8-1.7,1.3-2.5l.3-.6.2-.3.5-.7a10.9,10.9,0,0,1,1.3-1.7l1.1-1.6,2.2-3,.5-.6.3-.4.3-.5.4-.5.5-.7h0a21.6,21.6,0,0,0,1.9-3.1,19.6,19.6,0,0,0,1.4-3.5l.2-.3a1.4,1.4,0,0,1,.2-.6,11.1,11.1,0,0,0,.2-1.9c.1-.1,0-.2,0-.3h0l-.4-1-.4,1.4c0,.2-.1.3-.1.5l-.3.8v.2c-.1.4-.3.8-.4,1.2a16.7,16.7,0,0,1-.8,2l-.2.3a.8.8,0,0,1-.2.4c0,.1,0,.1-.1.2s-.1.2-.1.3h-.1a6,6,0,0,1-.6,1.1,2.2,2.2,0,0,1-.5.8l-.5,1-.6.8a1.8,1.8,0,0,0-.5.7l-.7.9a8.6,8.6,0,0,1-.7,1H103l-.8.9-.2.3a.8.8,0,0,1-.4.4h-.1l-.4.6H101l-.3.4c0,.1-.1.1-.1.2l-.7,1-.3.5-.4.6-.3.4-.3.7-.3.3A21.2,21.2,0,0,0,97.2,74l-.2.4a19.7,19.7,0,0,0-.7,1.9L96,73.2h.1V70.7a1.3,1.3,0,0,1,.1-.6,78.8,78.8,0,0,1,6.4-9.1,72.5,72.5,0,0,0,4.9-7,38.9,38.9,0,0,0,2.7-5.4,20.1,20.1,0,0,0,1.3-5.9,20.1,20.1,0,0,1-1.6,5.8,38.1,38.1,0,0,1-2.9,5.2c-1.6,2.3-3.3,4.6-4.9,7A69.5,69.5,0,0,0,96.2,70V67.6a2.2,2.2,0,0,0,.1-.8l.3-2.3.3-1c0-.2.1-.4.1-.6a2.4,2.4,0,0,0,.2-.8c.1-.2.1-.4.2-.5l.3-1.2.6-1.9a8.8,8.8,0,0,0,.5-1.5l.6-1.6a21.2,21.2,0,0,1,1.1-2.9l1.2-2.8a10.4,10.4,0,0,0,.4-1,3.6,3.6,0,0,1,.4-.9l.4-1a2,2,0,0,0,.4-.8l.4-.7a2.5,2.5,0,0,1,.2-.7l.4-.9a9.8,9.8,0,0,0,.8-1.8l.3-.5.9-2.2c.4-.9.7-1.8,1.1-2.8l.2-.5.8-2.3a2.5,2.5,0,0,1,.2-.7l.3-.6.6-2.2h0a36.5,36.5,0,0,0,1.3,5.5l.4,1.4c1.6,5.1,2.8,9.2,2.1,14.5l-.3,1.9c-.2,1.7-.5,3.5-.8,5.3V59l-.3,1.8A35.7,35.7,0,0,1,106.7,73a13,13,0,0,0-1,1.5,19.7,19.7,0,0,1-2.5,2.5,18,18,0,0,0-2,1.9,24.3,24.3,0,0,0-2.4,3.2ZM107.1,18h0c.2.7.5,1.5.7,2.4s.3,1.4.4,2.1l.6,3.5v.3l.3,1.9v.4l-.5.9c-.2.6-.5,1.2-.7,1.7l-.2.4a14.2,14.2,0,0,0-.8,1.8,10.9,10.9,0,0,1-.5,1.7l-.3.7a3.6,3.6,0,0,0-.4.9l-.5,1.3-.2.3c0,.2-.1.3-.2.5A18,18,0,0,1,104,41l-.5,1.2a16.7,16.7,0,0,0-.8,2l-.7,1.4a5.9,5.9,0,0,0-.6,1.4c-.3.6-.5,1.2-.7,1.7a5.4,5.4,0,0,0-.5,1.1,9.3,9.3,0,0,0-.5,1l-.2.5-.6,1.3-.3.5-.3.8c-.1,0-.1.1-.1.3a3.6,3.6,0,0,1-.4.9v.3l-.3.8a.6.6,0,0,1-.1.4c-.2.6-.3,1.2-.5,1.9s-.1.5-.2.7v.2a4.2,4.2,0,0,0-.4,1.2,1.7,1.7,0,0,1-.1.7,6.1,6.1,0,0,0-.3,1.1,2.2,2.2,0,0,1-.1.8,3.6,3.6,0,0,0-.2,1.1c-.1.3-.1.6-.2,1,0-2.1,0-4.1.1-6.2a29.2,29.2,0,0,1,1.7-8.8c.3-1,.5-2,.8-3l.9-2.8.6-2.2,1.4-4.1,1.3-4.2c.8-2.8,1.6-5.7,2.3-8.6.2-.7.5-1.3.7-2s.3-1.5.4-2.2l.4-2.2c0-.2-.1-.4-.1-.7l-1.6,4.1a16,16,0,0,0-1.1,3.3l-.7,2.5a25.8,25.8,0,0,0-.8,2.6l-.6,2c-.1.4-.3.8-.4,1.2l-.9,3.3a39.4,39.4,0,0,0-1.4,4.9c-.4,1.5-1.1,2.9-1.5,4.4a26.8,26.8,0,0,1-.7,2.7l-.5,1.6v.2c.1-1.5.1-3,.1-4.5a50.5,50.5,0,0,1,.6-5.6c.5-2.6,1.5-5.1,2-7.7-.6,2.6-1.8,5-2.4,7.6a26.9,26.9,0,0,0-.6,5.7c.1,1.7.1,3.3.1,5l-.3.9c-.2,1-.5,2-.7,3a17,17,0,0,1-.4,2.2h-.1a5.4,5.4,0,0,1-.1,2.2,10.8,10.8,0,0,0,0,1.8c0,1,0,2,.1,3s.1.8.2,1.2v.2a6.5,6.5,0,0,0,.2,2.4h-.8l-.9-2.5c-.3-.9-.6-1.9-.8-2.8s-.1-.3-.1-.5a.9.9,0,0,1-.1-.5.6.6,0,0,1-.1-.4.7.7,0,0,0-.1-.5v-.3c0-.1-.1-.3-.1-.4s-.2-1.9-.2-2.8a26.2,26.2,0,0,1,.1-2.9.3.3,0,0,0,.1-.2c0-.2.1-.3.1-.4a2.9,2.9,0,0,1,.2-.9.9.9,0,0,1,.1-.5v-.3h-.1v-1l-.7,1.4-.3.9v.2a3,3,0,0,0-.2,1,1.1,1.1,0,0,0-.1.5v.6a1.7,1.7,0,0,0-.1.7v.7h0v1a.9.9,0,0,1,.1.5,11.1,11.1,0,0,0,.2,1.7c0,.2.1.5.1.7s.1.6.1.8a.8.8,0,0,1,.1.4c.1.2.1.4.2.5a.7.7,0,0,0,.1.5,1.3,1.3,0,0,0,.1.6v.2a2.4,2.4,0,0,1,.2.8c0,.1.1.2.1.3s.1.2.1.3h0l.2.5a4.3,4.3,0,0,0,.1.5v.4l.3.7v.3h.1a1.4,1.4,0,0,0,.2.6v.3c0,.1.1.2.1.3s-.1.2-.1.3a1.1,1.1,0,0,0-.1.5c.2,2.4.6,4.7.8,7a7.6,7.6,0,0,1,.1,1.5,27.4,27.4,0,0,0-1.5-4l-1.5-3.6a13.7,13.7,0,0,1-.8-5.3,12.4,12.4,0,0,0,.6,5.4,18.4,18.4,0,0,0,1.5,3.6,29.5,29.5,0,0,1,1.7,4.1v3.3A11.2,11.2,0,0,1,92,81a21,21,0,0,1-1.5-3c-.1-.3-.3-.7-.4-1.1-2.3-6.2-2.2-12.8-1.7-17.3a36.3,36.3,0,0,1,1.1-5.9,71.5,71.5,0,0,1,2.7-9.2,73.2,73.2,0,0,1,6-13,74.1,74.1,0,0,0,4.1-9.2,60.4,60.4,0,0,1,3.8-8.7,31.3,31.3,0,0,0,1,4.4h0ZM99.2,53.3c.1-.1.1-.3.2-.4l.6-1.4.3-.5.5-1a4.7,4.7,0,0,1,.5-1,13.4,13.4,0,0,1,.7-1.8,3.8,3.8,0,0,1,.6-1.3l.7-1.5a10.8,10.8,0,0,1,.8-1.9,6.1,6.1,0,0,1,.5-1.2,14.3,14.3,0,0,0,.8-2.2c.1-.1.1-.3.2-.4l.2-.3.5-1.3a3.6,3.6,0,0,1,.4-.9l.3-.8.6-1.7a6.1,6.1,0,0,1,.7-1.7l.2-.4a1.4,1.4,0,0,1,.2-.6l-.3,1.1-.3.6-.3.7c-.2.8-.5,1.5-.7,2.2l-.2.6c-.4,1-.7,1.9-1.1,2.8l-.9,2.1-.2.6a14.2,14.2,0,0,0-.8,1.8l-.4.9c-.2.2-.2.4-.3.7l-.3.7a2.5,2.5,0,0,0-.4.7,9.3,9.3,0,0,0-.5,1,4.2,4.2,0,0,0-.4,1,3.6,3.6,0,0,1-.4.9L100,52.3a16.2,16.2,0,0,0-1.1,2.8l-.6,1.7a5.8,5.8,0,0,1-.5,1.4l-.6,2a5.6,5.6,0,0,1-.4,1.2,1.3,1.3,0,0,1-.1.6,1.9,1.9,0,0,1-.2.7c0,.2-.1.4-.1.6l-.3.9c.1-.3.1-.6.2-.9s.1-.5.2-.8a1.3,1.3,0,0,1,.2-.9c.1-.3.1-.6.2-.9a1.7,1.7,0,0,1,.3-1h0v-.3a2,2,0,0,1,.1-.7,12.1,12.1,0,0,0,.5-1.8l.2-.5a1.9,1.9,0,0,1,.2-.7v-.2a4.2,4.2,0,0,0,.4-1.2A3.6,3.6,0,0,0,99.2,53.3Zm.7,29.5h0Zm20.7,109.7.5.2,1.4.7.4.2.9.4,1.2.6,1.7.7a4.2,4.2,0,0,1,1.4.6l1.4.7,1.9.7,1.3.6,2.1.8.4.2h.4l2.9,1.2a11.5,11.5,0,0,0,1.7.6l1.7.7.5.2.5.3-1-.3-.6-.3-.8-.3-2.2-.7-.6-.3a9.2,9.2,0,0,1-2.3-.9H135l-2-.8-.7-.4-2.4-1-.3-.2-.7-.3-.7-.2-.8-.4-1-.5-1-.4-.9-.4-2.8-1.2-2.7-1h-.2l-1.7-.6-1.4-.5-1.9-.5-1.3-.4-.6-.2-.7-.2h-.6l-.8-.2h.8l.8.2,1,.2.9.2a3.8,3.8,0,0,1,1,.3h1l1.9.6h.4l.7.2h.2a2.8,2.8,0,0,0,1.2.4Zm23.2,10.3c-1.8.4-3.6.8-5.5,1.4l-1.3.4a66.3,66.3,0,0,1-7.6,2,23.5,23.5,0,0,1-7,.1l-2.1-.3-5-.8h-.2l-2-.3a34.5,34.5,0,0,1-11.9-5.1l-.3-.2-1.4-1a11.8,11.8,0,0,1-2.5-2.5l-1.9-2a24.4,24.4,0,0,0-3.3-2.3,29.5,29.5,0,0,1-3.2-2.3h5.2a16,16,0,0,1,5.4,3.4c1.6,1.6,3.1,3.3,4.8,4.9s2.6,2,3.9,3,2.8,1.7,4.3,2.4a28,28,0,0,0,6.5,2.4,11.7,11.7,0,0,0,6.7-.3,11.8,11.8,0,0,1-6.7,0,28.4,28.4,0,0,1-6.2-2.7c-1.4-.8-2.8-1.6-4.1-2.5a40.4,40.4,0,0,1-4-2.8l-5-4.6a15.3,15.3,0,0,0-5.5-3.2h1.3l.9.3h.2l1.9.8h.1l2.6,1.3a1,1,0,0,1,.5.4l1,.6,1.9,1.4,1.4,1,2.9,2.2h.1l.6.4.5.3.4.3.5.4.6.4.2.2,3.2,1.9,3.5,1.4h.3l.5.2,1.9.3h.4l1-.3-2-.7-.7-.2h-.2l-1.1-.4-2-.8H116l-.5-.3h-.4l-.4-.2-.8-.4-.9-.5-.9-.6-.8-.6-.7-.5-1-.7-.7-.6-.3-.2-1-.8-.3-.2-.3-.3h-.2c-.2,0-.3-.2-.5-.3h-.1l-.5-.4h-.2l-1-.7-.3-.2H104a1.3,1.3,0,0,0-.6-.5l-.4-.2-.6-.4-.4-.2a7.8,7.8,0,0,0-2-1.1l-.5-.2a8.5,8.5,0,0,0-2.4-.9l1.4-.2v.2l.8-.3h1l-.3.2h5.5l4.2,1.5a35,35,0,0,1,5.3,3.1c2.5,1.6,4.8,3.4,7.3,5s3.5,2.2,5.4,3.2a35.7,35.7,0,0,0,5.7,2.3,40.5,40.5,0,0,1-5.6-2.6,45.2,45.2,0,0,1-5.1-3.4c-2.4-1.7-4.8-3.5-7.3-5.1a48.7,48.7,0,0,0-5.6-2.8,24,24,0,0,0-3.8-1.2h1.2l2.3.3,1,.3.6.2h.8l.6.2,1.2.4,1.9.5,1.4.5,1.7.6h.2l2.6,1,2.8,1.2,1,.4,1,.4.9.4.8.4.7.3.7.3.3.2,2.4,1,.7.3,2,.9h.4l2.4,1,.6.2,2.2.7.7.3.7.3Zm-38.3-8.1h0Zm-17.3-5.2.4-.3a14.9,14.9,0,0,0,2.1-.2,19.5,19.5,0,0,1,2.5-.2l1-.2,1.1-.3,1.5-.2s0-.3.1-.4v-.3l-.5-.3-1.2.2c-.4.1-.9-.1-1.4.2a1.9,1.9,0,0,1-1.3.3l5-1.4,5.2-1.5,7-2.5c-2.3.8-4.7,1.5-7.1,2.1L97.3,186,92,187.8a16,16,0,0,1-2.1.5c-.1,0-.2,0-.2-.1l1-.9a7.7,7.7,0,0,1,2.3-1.9,15.9,15.9,0,0,1,2.9-1.5l1.1-.5a38.9,38.9,0,0,1,17.4-1.7c1.9.3,3.9.6,5.9,1.1a80.6,80.6,0,0,1,9.1,2.6,77.5,77.5,0,0,1,13,6.1,57.9,57.9,0,0,0,9.3,4,66,66,0,0,1,8.6,3.8h-.4c-1.4.2-2.6.6-3.9.9l-2.5.7-2.1.4-3.9.8-1.9.3-.9-.5-2.1-.9-.4-.2-1.8-.7a7.6,7.6,0,0,1-1.6-.6l-3-1.1-.3-.2-.5-.2-2.1-.8-1.2-.5-1.9-.8-1.4-.7-1.4-.6-1.8-.7-1.1-.5-.9-.5-.4-.2-1.5-.6-.5-.3c-.3-.1-.5-.1-.7-.3h-.3l-1-.4h-.2l-.9-.3h-.4l-1.8-.5-.8-.2h-.2a2,2,0,0,0-1.1-.3l-.8-.2-1.1-.3h-.7l-1.1-.2h5.1a30.5,30.5,0,0,1,8.9,1.7l3,.8,2.7.9,2.2.6,4.2,1.4,4.2,1.2c2.8.9,5.6,1.6,8.5,2.3l2.1.7,2.1.5,2.2.4.7-.2-4-1.6-3.3-1.1-2.6-.7-2.5-.8-2.1-.5-1.2-.4-3.2-.9-4.9-1.5c-1.6-.3-2.9-1-4.4-1.4l-2.8-.7-1.6-.5-1.6-.5-3-.7a17,17,0,0,1-2.2-.4h-.1a8.6,8.6,0,0,1-2.2-.2h-1.3a31.5,31.5,0,0,1,5.3-.4,49,49,0,0,1,5.4.4c2.6.4,5.1.9,7.6,1.5a96.5,96.5,0,0,1,10.4,3.3c-3.3-1.4-6.7-2.7-10.2-3.8a40.3,40.3,0,0,0-7.7-1.5,50.6,50.6,0,0,0-5.5-.2,30.7,30.7,0,0,0-5.3.7h-.5l-2.9.2h-1.4c-1-.2-2,.3-3,.3a12.4,12.4,0,0,0-2.7.3l1.1-.5.4-.2h1l3-1.1,2.8-.8H113l2.9-.2h3.5l.8.2h.8l1-.2-1.2-.6-1-.4a2.7,2.7,0,0,0-1.2-.3h-4.1l-1.7.2h-.7l-.8.2h-3.7v.2h-.6l-.4.2h-.4l-.7.3-.3.2H105l-.5.2h-.3l-.6.3h-.3l-1.4.6-.6.3-1.8.9-3.9.5-7.3.8Zm2.1-36.4,2.6-4.4c1.8-3,3.6-6.2,5.7-9.1a32.6,32.6,0,0,1,8.5-8.5,41.5,41.5,0,0,1,8.5-4.1c2.1-.9,4.1-1.7,6.1-2.7a36.8,36.8,0,0,0,3.9-2.4,46.4,46.4,0,0,1,4.2-2.5,65.4,65.4,0,0,0-1.4,8.5c-.2,1-.3,1.9-.4,2.8-1,9.1-2,18.5-10,23.7a49.4,49.4,0,0,1-8.3,4.1,88.9,88.9,0,0,1-9.2,3.1l-4,1.1a33.9,33.9,0,0,0-10,3.5,19.5,19.5,0,0,0-3.7,2.9h0a12.7,12.7,0,0,1,1.3-1.9,40.9,40.9,0,0,1,4-5.3l.4-.5,1.2-.6a17.4,17.4,0,0,1,3.6-1.3c2.5-.6,5-1,7.5-1.4a32.7,32.7,0,0,0,5.4-1.3l5.2-2a39.5,39.5,0,0,0,6.6-3.9,31.3,31.3,0,0,0,5.5-5.4,31.6,31.6,0,0,1-12.4,8.6,45.6,45.6,0,0,1-5.2,1.8,30.7,30.7,0,0,1-5.2,1.4c-2.5.6-5,1.1-7.5,1.9a17.8,17.8,0,0,0-3.6,1.4l-.7.4.9-.8a18.5,18.5,0,0,1,1.4-1.4c0-.1.1-.1.1-.2h.4l2.4-1.1h.1l3.3-1.3.8-.2h.8l.7-.2,1.2-.3,3.7-1,3.4-1,1.1-.4,1-.3.5-.2.7-.2.8-.2.6-.3.5-.2a26.3,26.3,0,0,0,4.1-1.9,13.9,13.9,0,0,0,3.6-3.1l.2-.3.5-.6v-.3a3.6,3.6,0,0,0,.4-.9l.2-.6V143c.1-.2,0-.3,0-.4h-.1l-.3-1.1-.3,1.1a6.6,6.6,0,0,1-.9,1.9l-.2.4h-.2v.2h-.1l-.4.5a7.7,7.7,0,0,1-1.9,1.7l-.4.3-.5.3h-.2l-.3.2-.4.2-.4.2-.7.4-1.1.5-.3.2-.9.4-1.2.4-1,.4-1.4.4-1.2.4h-.6l-1.3.4h-1.2c-.2.2-.5.2-.8.3h-.2l-.6.2h-.3l-1.4.5-.6.2h-.1l-.9.3h-.5l-.9.3-.5.2a19.9,19.9,0,0,0-2.6.9l-.6.2-.8.4,3.2-2.9v.2l.3-.4.6-.6a58.5,58.5,0,0,1,5.4-4.5,26.5,26.5,0,0,0,7.4-1.1,22.1,22.1,0,0,0,5.5-2.3,18.3,18.3,0,0,0,6.2-5.5,17.9,17.9,0,0,1-6.4,5.2,36,36,0,0,1-5.4,2.2,30.6,30.6,0,0,1-7.3,1.5l1.4-1.1a20.9,20.9,0,0,0,2.2-2l2.3-1.7,1-.8a45.2,45.2,0,0,0,10.2-6.2,45,45,0,0,0,6.5-6.6,45.3,45.3,0,0,1-6.8,6.3l-5.4,3.7c-1.3.8-2.6,1.6-4,2.3h.1l6.4-5.5c2-2,4-4,5.8-6.2l1.5-1.5c.9-1.1,1.7-2.3,2.5-3.5s.1-.3.1-.6l-1.5,1.5-1.5,1.3-2.3,2.4a41.7,41.7,0,0,1-3.6,3.7l-1.4,1.4-.9.8-2.3,2.2-3.7,3.2c-1,1.1-2.3,1.8-3.4,2.8l-2.1,1.8-2.5,1.9-2.3,1.8-.3.2.4-1,.5-1,.3-.6.2-.4.3-.5.6-1.2,1.5-3c.6-1.1,1.2-2.3,2-3.5l.3-.6.4-.6a4.3,4.3,0,0,1,.4-.7l.3-.3.5-.9a24.7,24.7,0,0,1,2.4-2.9,18.2,18.2,0,0,1,2.9-2.4h.4l.5-.2,1.6-.3h.4l.9-.4-1.4-.2h-1.5l-.9.2-.8.3-.6.4-.4.3-.3.2-.7.6-.7.6-.2.2-.3.3-.9,1.1-.2.2a17.7,17.7,0,0,0-1.2,1.7l-.5.8-.7.9-.6,1.1-.8,1.3-.3.5-.4.6-.2.3c-.1.2-.1.4-.2.5h-.2a.9.9,0,0,1-.3.6h-.1c-.1.2-.1.4-.2.6v.2l-.6,1.2a4.3,4.3,0,0,0-.1.5h-.1a1.3,1.3,0,0,0-.3.8l-.2.4a1.1,1.1,0,0,0-.3.7.8.8,0,0,0-.2.4A13,13,0,0,0,99,148l-.5,1-.6,1.4c-.1.1-.1.3-.2.5l-1.3,1-1.2,1.2-2.1,2-.8.9h0c-1,.4-1.3,1.4-2.1,2s-1.1,1.4-1.8,2a36.5,36.5,0,0,0-3.9,4.9,22.2,22.2,0,0,0-2.5,4.2h-.4a17.4,17.4,0,0,0-1,1.9c-.4-1.5.6-5.2,1.2-6.3a42.2,42.2,0,0,1,4.4-6.3l-.2-.3.3.2A53.9,53.9,0,0,0,90.3,153.1Zm11.3-9.4.6-1.1a.4.4,0,0,1,.1-.3.8.8,0,0,1,.2-.4v-.2a1.5,1.5,0,0,0,.3-.7l.2-.2-.3.7Zm7.6-11.9-.3.4V132l.2-.2Zm-9,22.8c.3-.1.5-.2.7-.1h-.1l-.7.2Zm1-.2.5-.2,1.4-.5h.3l.6-.2h.1a1.6,1.6,0,0,0,.9-.3h1.2l1.3-.3.4-.2-3.4,1.1-3.4.9Zm10.5-3.2h.2l-.7.3h-.3Zm2.2-.9h.2l1.2-.5.8-.4.3-.2.4-.3h.3l.3-.2.5-.3.3-.3a7,7,0,0,0,1.6-1.3,12.3,12.3,0,0,1-2.7,2.2,28.3,28.3,0,0,1-3.9,1.9Zm6.4-4.2.4-.5h.2c.1-.1.1-.1.1-.2s-.1.3-.2.4l-.3.3c-.2.2-.3.4-.5.5ZM43.6,131.9a49.6,49.6,0,0,1,8.4,7.2,29,29,0,0,1,6.5,12l-.7,1.4c-.7,1.3-1.7,2.4-2.3,3.7l-1.4,3.2-1.2,3.3c-.6,1.4-1.1,2.8-1.6,4.2v-.4l-.3-.9A81.6,81.6,0,0,0,48,152.8a69.7,69.7,0,0,0-3.8-9.9,125.6,125.6,0,0,0-6.9-13.1c2.3,4.4,4.4,8.8,6.3,13.4s2.6,6.5,3.7,9.9A90.8,90.8,0,0,1,50.7,165a45,45,0,0,0-3.3-7.4h.4l-.7-.6H47a22.6,22.6,0,0,0-1.6-2.6l-3.3-4.7-1.7-2.3-1.3-1.6-.2-.4c-.4-.7-.9-1.4-1.3-2.2l-.3-.5c0-.1-.1-.3-.1-.4l-.4-.7-.3-.7c-.4-.8-.8-1.7-1.3-2.5l-1.4-2.8v-.3l-.3-.5-.3-.5c0-.2-.1-.3-.2-.5s-.2-.3-.2-.5l-.5-.7L32,132l-.6-.9-.2-.4a8.6,8.6,0,0,0-.7-1l-.3-.5-.7-.9-.3-.4-.7-.9-.3-.3-.3-.3h0l-.3-.3-.9-.8h-.3l-1.1-.3.7.8,1,1.2h0a3.9,3.9,0,0,0,.8,1l.4.5.3.4a2.1,2.1,0,0,1,.4.6l.5.7h.1l.2.3.6,1,.5.7.5.9a2.5,2.5,0,0,1,.4.7l.4.8a4.1,4.1,0,0,1,.5.9,3.6,3.6,0,0,1,.4.9v.2c.2.3.3.7.5,1v.3a.5.5,0,0,1,.2.4v.2c.1.1.1.3.2.4v.2l.2.4v.2l.4.8v.2l.2.3h.1c0,.2.1.3.2.5l-.6-.8-1.2-1.4-1.9-2.1-7.3-8a92.4,92.4,0,0,1-6.8-8.4c-.5-.7-.8-1.6-1.3-2.3s-1-1.5-1.4-2.3l3.5,2.7a90.4,90.4,0,0,0,9.4,5.4l2.7,1.4a39.9,39.9,0,0,0,5.6,2.5h.1l1.9.8a35.1,35.1,0,0,1,5.1,2.6ZM52.2,177a19.9,19.9,0,0,0,.9,2.6l-2-3.1.6-1.7C51.9,175.6,52,176.3,52.2,177Zm4.4,7.9h0Zm-7.7-11A76.9,76.9,0,0,0,40,166l-.5-.4c-2.6-2-5-3.9-6.7-6.5s-1.7-2.7-2.8-4.6l-.8-1.4c-1.6-2.7-3.4-5.8-5.4-8.6l-1.6-2.3L22,142c-.4-.7-.9-1.3-1.3-1.9a24.3,24.3,0,0,1-3.9-7.9l-.5-1.8c-.6-2.8-1.3-5.4-1.8-8.1a23.9,23.9,0,0,0-2.2-6,29.9,29.9,0,0,1-1.5-3.8l2.7,2.5a7.6,7.6,0,0,1,.4,1.1l.9,2.4a17.9,17.9,0,0,0,2.2,3.8l3.9,5.3,1.8,2a5.8,5.8,0,0,0,1,1.2c.9,1.1,1.9,2.1,2.9,3.1l.5.5a13.9,13.9,0,0,1-2.2-1.5l-.5-.3-.5-.3-.4-.3-.4-.3-.3-.3-.3-.2a25.4,25.4,0,0,1-2.4-2l-.3-.2-.8-.9-.3-.2-.8-.9v-.3l-.3-.3-.5-.7-.4-.6h-.3l-.9-.6.7,1.5a3.6,3.6,0,0,0,.4.9,4.1,4.1,0,0,0,.7,1.1l.9,1.1.4.4.4.3.2.2v.2l.2.2.6.5.4.2,1.5,1.2.6.5.7.5.9.5.5.5.4.3.4.2.5.4.2.2c.2,0,.3.1.3.2h.2l.5.3h.1l.3.3c.1,0,.2,0,.2.1l.9.5.4.2h0l.5.4.4.2.8.6.3.2c.7.7,1.2,1.4,1.8,2.1a19,19,0,0,0,1.9,2.1c.8.9,1.6,1.7,2.3,2.6l1.2,1.7,1.2,1.6.3.4a24.7,24.7,0,0,1-4.6-3.1l-3.2-2.8c-1.5-1.3-2.9-2.7-4.3-4.1,1.3,1.5,2.7,2.9,4.1,4.3s2.1,1.9,3.2,2.8a23.6,23.6,0,0,0,4.8,2.9l.8,1.1c.3.6.7,1.1,1,1.6l.9,1.3-.6-.5a1.8,1.8,0,0,1-.7-.5l-.4-.3-.7-.6h-.1c-1.3-1-2.7-2.1-4.2-3.1l-3.8-2.8-.7-.6-.6-.4-.7-.6-.5-.4-.3-.3-.6-.5-3.3-3a29.2,29.2,0,0,1-3.1-3.3l-.3-.5-.4-.5a8.6,8.6,0,0,1-.7-1l-.6-.8-.3-.2h-.2l-.9-.6.7,1.5.8,1.5a7.6,7.6,0,0,0,1.1,1.6l1.8,2.1.8.8.2.3.3.2.8.8.5.4a16.8,16.8,0,0,0,2.1,1.8l.9.7.9.8.3.2.9.7.8.7.6.4.4.4.8.6.4.3.4.4h.2a1.8,1.8,0,0,1,.7.5h.1l.6.3.3.2,1.2.9.4.2h.2a1.6,1.6,0,0,0,.8.6,1,1,0,0,1,.5.4l.7.5.5.3,1.6,1.2,1.2.9.8.6.3.6c.4.7.9,1.3,1.3,1.9l.4.7.5.8.8,1.5.8,1.4h.1a2.9,2.9,0,0,0,.2.9l.3.7a37,37,0,0,1-4.3-2.5c-1.6-1.1-3.3-2.3-4.9-3.6l-6.6-5.5a58.6,58.6,0,0,1-4.4-4.2,29.5,29.5,0,0,1-3.9-4.7,29.5,29.5,0,0,0,3.6,4.9,59.7,59.7,0,0,0,4.3,4.4,60.2,60.2,0,0,0,6.7,5.6,44.5,44.5,0,0,0,5.1,3.3,23.8,23.8,0,0,0,4.5,2.3h0a6.1,6.1,0,0,1,.7,1.7,8.8,8.8,0,0,0,.5,1.5,9.8,9.8,0,0,1,.5,1.6h0c-.1.1-.1.1-.1.2s-.3.9-.5,1.4l-1-1.1-.5-.5-.4-.5-.3-.3-.6-.6-3-2.6-2.9-2.4-.5-.4-.5-.3-.4-.4-.4-.4-1.1-.9-.9-.9h-.2l-1.1-1.1H36a5.7,5.7,0,0,1-1.1-1.1l-1.2-1.3-.2-.3-.3-.4-1-1.4-.3-.2h-.1l-.9-.5.7,1.3.5,1.2c.3.3.5.8.9,1.2l.9,1.1.5.5.3.4.3.2.2.2.2.2.8.8.5.4,1.3,1.1.7.6.7.6.2.2.7.5.8.7.2.2.4.4.5.4.3.2.3.3H43l.4.4h.2l.3.3h.3l.9.8.4.3h0l.5.5.4.3a1,1,0,0,0,.5.4l.3.3.3.4.6.6.4.3.5.6.6.6A17.2,17.2,0,0,0,48.9,173.9ZM39,151.2c-.2-.2-.5-.3-.6-.5h0l.7.5Zm-1-.7-.3-.3-1.3-.8-.3-.2-.5-.3h-.1a2.4,2.4,0,0,0-.8-.6,1.5,1.5,0,0,0-.6-.5l-.3-.2-.8-.7-.4-.4-.3-.2,3,2.2,3,2.2Zm-8.9-6.8-.2-.2H29l.5.4.4.3Zm-3-2.6-.5-.4-.8-.7-.2-.2-.3-.3-.7-.8-1.9-2.1v-.2a44,44,0,0,0,3.1,3.3l3.3,3.1ZM21,135.5c.1.1.1.2.2.4l.3.4A3.5,3.5,0,0,1,21,135.5Zm38.1,21.6c.1,3.7-.1,7.7-.4,12.4-.2,1.5-.3,3.1-.5,4.6a32,32,0,0,1-.7,4.1,48,48,0,0,0-.9,5,.8.8,0,0,0-.1-.4l-.6-.8a2.5,2.5,0,0,1-.4-.7h-.3c-.1,0-.1.2-.1.2l.3.5c.2.2.2.5.4.6a1,1,0,0,1,.4.5,1,1,0,0,0,.4.7v.2l-.5-.6-.2-.3-.2-.4-.4-.7c-.5-1-.9-2-1.3-3s-1.1-4.2-1.6-6.3l.3-.9c1.2-3.2,2.5-6.3,3.8-9.4S58.2,158.9,59.1,157.1Zm-9.9,24.5,1.2-3.2c.6.9,1.2,1.8,1.7,2.7a36.8,36.8,0,0,0,4.2,5.9l.3.4.8-.3a3.1,3.1,0,0,1,.1,1,2.8,2.8,0,0,1,.1.9c.1.1,0,.2,0,.3s.1.8.2,1.2.1.5,0,.7a5.9,5.9,0,0,1-.2,1.3l-.4.6-.3.9a1.3,1.3,0,0,0,.1.6v.5c-1.1,1.4-2,2.8-2.9,4.2a24,24,0,0,1-1.6,2.7,42.7,42.7,0,0,1-4.4,4.1c-.8.6-1.9,1-2.7,1.5a28,28,0,0,0-3.4,2.1,10,10,0,0,0-1.6,2.4c-.2.2-.2.5-.3.6a28.2,28.2,0,0,1-3.1,2.1l-.8.6-.9.5c-.3.2-.7.1-1,.3a13.8,13.8,0,0,1-3.8,2h-.4c0-.2.1-.4.1-.6s.7-2.7,1-4a13.2,13.2,0,0,1,1.1-4,62.5,62.5,0,0,1,4.6-7.9l.8-1,2.3-3.3,2.2-3.3c1.6-2.3,3-4.5,4.5-6.8A37.6,37.6,0,0,0,49.2,181.6Zm8.9-75a5.4,5.4,0,0,1-3.9,2.4c-3.5.6-7.9-1.2-11.4-2.6h-.2l-2.4-.9-.6-.2a24,24,0,0,0-6.5-1.7H31.8a13.8,13.8,0,0,1-4.5-.8c-2.9-1.1-5.1-3.1-7.5-5.9l-1.2-1.4a13.7,13.7,0,0,1-3.3-6c0-.2-.1-.8-.1-1.7a19.5,19.5,0,0,1,.1-2.9,30.6,30.6,0,0,1,5.1,3.2h-.1l-.9-.5a.5.5,0,0,1-.4-.2h-.2l-.7-.4-.6-.3h-.2L16.2,86l1,1,.8.7,1.1.7.6.3.3.2h.2l.3.3.5.4.3.3.8.8.3.3.9.9.4.4.8.7.8.5.9.7.3.2.5.4.3.2.2.2h.3l.4.3h.1l.4.3h.2l.8.4h.4l.6.2.3.2.5.3h.2l-.5-.2-1.3-.5-1.2-.5-1.2-.6-1.2-.6-1.2-.6-1.2-.7-1.1-.7-1.1-.8-1.1-.8a4.3,4.3,0,0,0-1-.9l-2-1.8c0-.1-.2-.1-.4-.2l1.6,2.1.8.9.8.7.7.5.3.3.3.2a7.1,7.1,0,0,1,1.4,1l.6.3.5.3.7.5,1.9.9,1.5.7,1.5.5,1.3.6,1.4.5.8.2.9.2,2,.7,1.8.5,1.3.4h0a5,5,0,0,1,1.3.3l1.1.2,1.8.4H37.8l-1.5-.2H33.5l-1.4-.4-1.4-.4-2.7-1-.4-.2-.3-.2-.9-.4-.4-.2H24.7l1,.8.9.7.3.2.8.4h.2l.6.3.9.3.7.3h.4l.6.2h.6l1.7.4h.7l.9.2h7.3c.2-.1.3-.1.4,0h3.2l2.5.2c.1.1.3,0,.4-.1H49l.8.2,1.6.4H50.2l-.7.3-.5.2H47.8l-1.1.5-.6.3h-.6l-.2.2-.5.7.8-.2h.9l.4-.2h.4l.3-.2h.2l.4-.2h1l.3-.2h3.3l1.1.4,2.2.7h.2a6.7,6.7,0,0,0,1.9,1.6Zm-2.1-2-1.2-.5h.6ZM22.7,89.5h.1A29.5,29.5,0,0,0,27,92.5a45.4,45.4,0,0,0,10.4,2.7A44.4,44.4,0,0,1,45,96.9a21,21,0,0,1,8.2,4.5l.2.2,1.5,1.7-1.1-.3-1.5-.2H52c-2-1-3.9-2.2-5.8-3.4a26.1,26.1,0,0,0-4.3-2.4,18.3,18.3,0,0,0-6.8-1.6,16.8,16.8,0,0,1,6.6,1.9c1.5.7,2.9,1.5,4.3,2.3a57,57,0,0,0,5.9,3.2l-.7-.2s-.1.2-.2.2h0l-2.1-.5-1.5-.5-1.2-.4L40.3,100l-2.8-.7h-.9l-.5-.3-1.2-.6-.6-.3-1.5-.7-.5-.3-.2-.2-.6-.3-1.6-.9a5.7,5.7,0,0,0-1.3-.8A11.9,11.9,0,0,1,26.3,93h-.2l-.4-.3-.5-.3-.5-.4-.2-.2-.5-.5-.9-.9L22,89.1l-.3-.3Zm.3-.3Z" fill="url(#fad935cb-e67a-4975-875a-02046dc2b19f)"/><path d="M117,130.5c2.2-1.8,4.5-3.4,6.7-5-2.2,1.7-4.3,3.4-6.4,5.3a55.5,55.5,0,0,0-4.2,4.2,21.4,21.4,0,0,0-4.6,6.9,24.2,24.2,0,0,1,4.3-7.2A41.6,41.6,0,0,1,117,130.5Z" fill="url(#b30a6b39-5874-4cd0-8415-52b913bfce5b)"/><path d="M95.5,148.1l-2.3,4a63.6,63.6,0,0,0-3,5.8,62.8,62.8,0,0,1,2.7-5.9c.7-1.4,1.5-2.8,2.3-4.1a64.2,64.2,0,0,1,3.8-5.3A63.7,63.7,0,0,0,95.5,148.1Z" fill="url(#b47904e6-b777-4d2c-b939-fe12b31df385)"/><path d="M53.9,178.6a15.9,15.9,0,0,0,1.6-4.1c.2-1,.5-2.1.7-3.1s.5-2.9.7-4.4c-.1,1.5-.3,3-.5,4.5s-.4,2-.7,3A11.7,11.7,0,0,1,53.9,178.6Z" fill="url(#a1e27bdc-1cad-43ac-94ca-cee3c6fec648)"/><path d="M53.2,155.3a39.5,39.5,0,0,1-.7,4.6,22.3,22.3,0,0,1-1.6,4.3,22.5,22.5,0,0,0,1.4-4.4,34.2,34.2,0,0,0,.4-4.6c.1-2.1,0-4.3-.1-6.5s-.6-6.1-1-9.2c.6,3,1.1,6.1,1.5,9.1A37.5,37.5,0,0,1,53.2,155.3Z" fill="url(#b62ed6e4-7f1c-4448-8de9-727595f09aed)"/></g></g></g></svg>
