<svg xmlns="http://www.w3.org/2000/svg" xmlns:xlink="http://www.w3.org/1999/xlink" viewBox="0 0 296 172"><defs><linearGradient id="f1b09d4c-02aa-40e7-829a-75b516cc514b" x1="-18.28" y1="57.23" x2="230.44" y2="57.23" gradientTransform="matrix(-0.47, -0.88, -0.88, 0.47, 241.87, 145.97)" gradientUnits="userSpaceOnUse"><stop offset="0.04" stop-color="#c1b081"/><stop offset="0.09" stop-color="#896e42"/><stop offset="0.17" stop-color="#d8aa2c"/><stop offset="0.22" stop-color="#f1cb61"/><stop offset="0.43" stop-color="#e6cda1"/><stop offset="0.65" stop-color="#c7960f"/><stop offset="0.86" stop-color="#a08b5e"/><stop offset="1" stop-color="#775a2e"/></linearGradient></defs><title>2</title><g style="isolation:isolate"><g id="b13dc0b6-8bf6-484c-9c11-1a2949149557" data-name="Layer 2"><g id="aa9f462e-5f6e-4b61-91a0-7b6f0d7dd08f" data-name="OBJECTS"><path d="M8.7,8.6,8.1,9.9h.4l3.1.8c2.3.5,4.6,1.1,6.8,1.8a153.5,153.5,0,0,1,22.1,8.1l12.4,5.6,6.9,3.3,5.5,2.6,2.5,1.2c5.1,2.4,10.4,4.8,15.8,7,3.4,1.3,6.9,2.6,10.3,3.7a93.4,93.4,0,0,0,12.2,3,47,47,0,0,0,8.2.7h.4V48a40.8,40.8,0,0,0,6.7,22.1,46,46,0,0,0,13.8,14A63.9,63.9,0,0,0,150,91.5,114.8,114.8,0,0,0,161.7,95c9.5,2.3,19.2,3.8,28.7,5.2l3.1.5c6.8,1,13.6,2.1,20.2,3.3a119.2,119.2,0,0,1,12.2,2.8,91.4,91.4,0,0,1,14.3,4.9c9.1,4.1,16.2,9.3,21.8,16a46.9,46.9,0,0,1,8,13.8c.4,1.2.8,2.4,1.3,3.6l1.2,3.4.3.8.3.6h.7v-.6a.7.7,0,0,0-.1-.5l-.4-1.2a73,73,0,0,0-4-10.7,50,50,0,0,0-13.7-17.2,63.4,63.4,0,0,0-9.3-6.3,65.9,65.9,0,0,0-10.5-4.7l-1.4-.5-7.1-2.3c-3.3-.9-6.8-1.7-10.8-2.6-7.1-1.5-14.3-2.5-21.3-3.6l-5-.7c-6.8-1-14.5-2.2-21.9-3.8-3.8-.8-7.6-1.7-11.1-2.7a73.5,73.5,0,0,1-13.1-4.7c-8.7-4.1-15.4-9.4-20.2-16.2A40.4,40.4,0,0,1,116,49.9V47.8h.7a24.8,24.8,0,0,0,7-1.5,12.1,12.1,0,0,0,5.6-3.8,6.9,6.9,0,0,0,1.5-3.1,4.6,4.6,0,0,0-2.9-4.9A8,8,0,0,0,117.8,37a15.3,15.3,0,0,0-2.8,7.5,7.7,7.7,0,0,0-.2,1.5v.5h-.6a50.3,50.3,0,0,1-10.4-1.2A92.7,92.7,0,0,1,93,42.4a158.2,158.2,0,0,1-16.2-6.3L74,34.8l-5.7-2.6-5.5-2.6L59,27.7l-.7-.3-5.6-2.6-3.4-1.5c-4.1-1.9-8.4-3.8-12.6-5.5s-7-2.9-11.2-4.3A115.4,115.4,0,0,0,9.4,8.9H9.2ZM117.1,41a9.6,9.6,0,0,1,3.1-4.6,6.5,6.5,0,0,1,7.5-.7,3.2,3.2,0,0,1,1.4,1.4,3.8,3.8,0,0,1,.4,2.4,5.4,5.4,0,0,1-1,1.8,9.7,9.7,0,0,1-4.3,3.3,22,22,0,0,1-8.1,1.8h0v-.3A17.1,17.1,0,0,1,117.1,41Z" fill="url(#f1b09d4c-02aa-40e7-829a-75b516cc514b)"/></g></g></g></svg>
