<svg xmlns="http://www.w3.org/2000/svg" xmlns:xlink="http://www.w3.org/1999/xlink" viewBox="0 0 555 491"><defs><linearGradient id="bde71681-dc52-494e-be9b-38dc7a388bde" x1="91.18" y1="-96.66" x2="426.71" y2="606.29" gradientUnits="userSpaceOnUse"><stop offset="0.04" stop-color="#c1b081"/><stop offset="0.09" stop-color="#896e42"/><stop offset="0.17" stop-color="#d8aa2c"/><stop offset="0.22" stop-color="#f1cb61"/><stop offset="0.43" stop-color="#e6cda1"/><stop offset="0.65" stop-color="#c7960f"/><stop offset="0.86" stop-color="#a08b5e"/><stop offset="1" stop-color="#775a2e"/></linearGradient><linearGradient id="a87f387c-a536-4352-b096-2a74036310b6" x1="117.24" y1="-109.27" x2="452.79" y2="593.74" gradientTransform="translate(21.1 -29.8) rotate(5.2)" xlink:href="#bde71681-dc52-494e-be9b-38dc7a388bde"/><linearGradient id="a9dc5e7a-4e91-4e0f-b7c9-908055d8b1e3" x1="216.58" y1="-156.61" x2="552.07" y2="546.26" gradientTransform="translate(21.1 -29.8) rotate(5.2)" xlink:href="#bde71681-dc52-494e-be9b-38dc7a388bde"/><linearGradient id="bfe33345-2b5c-478a-8d86-f348e29fdc47" x1="39.88" y1="-72.33" x2="375.42" y2="630.65" gradientTransform="translate(21.1 -29.8) rotate(5.2)" xlink:href="#bde71681-dc52-494e-be9b-38dc7a388bde"/><linearGradient id="f09276fd-013f-432f-95c8-d821bc9c8d5e" x1="75.88" y1="-89.47" x2="411.39" y2="613.44" gradientTransform="translate(21.1 -29.8) rotate(5.2)" xlink:href="#bde71681-dc52-494e-be9b-38dc7a388bde"/><linearGradient id="b88e7007-6627-4ccc-887c-11969de10c54" x1="-44.12" y1="-32.22" x2="291.4" y2="670.72" gradientTransform="translate(21.1 -29.8) rotate(5.2)" xlink:href="#bde71681-dc52-494e-be9b-38dc7a388bde"/><linearGradient id="a914d67e-ad33-4970-9bd5-3992e9d55cc0" x1="-41.44" y1="-33.49" x2="294.08" y2="669.44" gradientTransform="translate(21.1 -29.8) rotate(5.2)" xlink:href="#bde71681-dc52-494e-be9b-38dc7a388bde"/><linearGradient id="e3473c0b-9696-4317-a276-733c4e7694de" x1="-42.35" y1="-33.05" x2="293.16" y2="669.87" gradientTransform="translate(21.1 -29.8) rotate(5.2)" xlink:href="#bde71681-dc52-494e-be9b-38dc7a388bde"/><linearGradient id="be7f6e36-3701-45c1-be22-9c34ca326acd" x1="-35.54" y1="-36.33" x2="299.99" y2="666.63" gradientTransform="translate(21.1 -29.8) rotate(5.2)" xlink:href="#bde71681-dc52-494e-be9b-38dc7a388bde"/><linearGradient id="a44558ce-7b9f-4aed-b2fb-fe546d548bed" x1="-34.4" y1="-36.9" x2="301.15" y2="666.09" gradientTransform="translate(21.1 -29.8) rotate(5.2)" xlink:href="#bde71681-dc52-494e-be9b-38dc7a388bde"/><linearGradient id="b54a9dc1-ffb8-483f-9a39-46f2add3590b" x1="-39.38" y1="-34.46" x2="296.13" y2="668.45" gradientTransform="translate(21.1 -29.8) rotate(5.2)" xlink:href="#bde71681-dc52-494e-be9b-38dc7a388bde"/><linearGradient id="aa4c9113-2b26-4ce2-94ff-5779dd9d3768" x1="-43.82" y1="-32.36" x2="291.7" y2="670.57" gradientTransform="translate(21.1 -29.8) rotate(5.2)" xlink:href="#bde71681-dc52-494e-be9b-38dc7a388bde"/><linearGradient id="f8e457cc-f1ae-42d0-a3c2-9c4b3116ffc4" x1="-37.32" y1="-35.47" x2="298.21" y2="667.47" gradientTransform="translate(21.1 -29.8) rotate(5.2)" xlink:href="#bde71681-dc52-494e-be9b-38dc7a388bde"/><linearGradient id="fe5bb2f3-0d68-4894-a0f3-8fa5ed09db9d" x1="-42.37" y1="-33.05" x2="293.15" y2="669.88" gradientTransform="translate(21.1 -29.8) rotate(5.2)" xlink:href="#bde71681-dc52-494e-be9b-38dc7a388bde"/><linearGradient id="edf1e716-8d97-46a9-95a6-c447fede12e7" x1="-41.42" y1="-33.54" x2="294.12" y2="669.44" gradientTransform="translate(21.1 -29.8) rotate(5.2)" xlink:href="#bde71681-dc52-494e-be9b-38dc7a388bde"/><linearGradient id="a3d0cd72-a1ac-4bc3-9add-43ad8d014545" x1="202.47" y1="-149.91" x2="538" y2="553.05" gradientTransform="translate(21.1 -29.8) rotate(5.2)" xlink:href="#bde71681-dc52-494e-be9b-38dc7a388bde"/><linearGradient id="e5163cea-40c6-466f-ad43-f3663bff59c8" x1="198.94" y1="-148.22" x2="534.47" y2="554.72" gradientTransform="translate(21.1 -29.8) rotate(5.2)" xlink:href="#bde71681-dc52-494e-be9b-38dc7a388bde"/><linearGradient id="bb5d6b70-c588-4c38-a85e-832109f5eeed" x1="203.68" y1="-150.48" x2="539.2" y2="552.45" gradientTransform="translate(21.1 -29.8) rotate(5.2)" xlink:href="#bde71681-dc52-494e-be9b-38dc7a388bde"/><linearGradient id="beade8a7-8c6e-4e65-aedd-0c91582b8ae2" x1="199.94" y1="-148.69" x2="535.45" y2="554.24" gradientTransform="translate(21.1 -29.8) rotate(5.2)" xlink:href="#bde71681-dc52-494e-be9b-38dc7a388bde"/><linearGradient id="b7350d3d-bd74-4eb8-817d-68b1846f9217" x1="204.92" y1="-151.08" x2="540.45" y2="551.87" gradientTransform="translate(21.1 -29.8) rotate(5.2)" xlink:href="#bde71681-dc52-494e-be9b-38dc7a388bde"/><linearGradient id="ab5fafab-1cf4-407d-ae51-ca1cdd8576b1" x1="196.55" y1="-147.07" x2="532.06" y2="555.85" gradientTransform="translate(21.1 -29.8) rotate(5.2)" xlink:href="#bde71681-dc52-494e-be9b-38dc7a388bde"/><linearGradient id="fa033e8f-92e5-4281-8880-ef10a0b79c03" x1="202.75" y1="-150.03" x2="538.27" y2="552.9" gradientTransform="translate(21.1 -29.8) rotate(5.2)" xlink:href="#bde71681-dc52-494e-be9b-38dc7a388bde"/><linearGradient id="ec378b14-9a4f-4cfc-b10e-e089c89a3351" x1="198.1" y1="-147.82" x2="533.63" y2="555.12" gradientTransform="translate(21.1 -29.8) rotate(5.2)" xlink:href="#bde71681-dc52-494e-be9b-38dc7a388bde"/><linearGradient id="f2c727e4-5995-4cb6-8212-e864bb99e439" x1="196.35" y1="-146.98" x2="531.87" y2="555.95" gradientTransform="translate(21.1 -29.8) rotate(5.2)" xlink:href="#bde71681-dc52-494e-be9b-38dc7a388bde"/><linearGradient id="b3d3bac6-2f51-4c59-ad9b-8a405bfa32c8" x1="75.6" y1="-89.35" x2="411.11" y2="613.58" gradientTransform="translate(21.1 -29.8) rotate(5.2)" xlink:href="#bde71681-dc52-494e-be9b-38dc7a388bde"/><linearGradient id="b36b5ee3-e47e-4e39-8426-f41dda8003ca" x1="73.01" y1="-88.12" x2="408.53" y2="614.82" gradientTransform="translate(21.1 -29.8) rotate(5.2)" xlink:href="#bde71681-dc52-494e-be9b-38dc7a388bde"/><linearGradient id="a7329d5a-fb3a-4e21-a573-95bd7cb0f643" x1="76.81" y1="-89.93" x2="412.33" y2="613.01" gradientTransform="translate(21.1 -29.8) rotate(5.2)" xlink:href="#bde71681-dc52-494e-be9b-38dc7a388bde"/><linearGradient id="bab49b40-6525-4cfc-8472-f5c97a8ff916" x1="75.49" y1="-89.3" x2="411.01" y2="613.63" gradientTransform="translate(21.1 -29.8) rotate(5.2)" xlink:href="#bde71681-dc52-494e-be9b-38dc7a388bde"/></defs><title>3</title><g style="isolation:isolate"><g id="ab9eaca2-e39b-42ef-a0e5-821708d22030" data-name="Layer 2"><g id="ab123864-c335-4743-b87d-4032e9edd79e" data-name="OBJECTS"><g id="f2a414ce-d7c2-46d6-a60c-c00e202b6bd1" data-name="L0i43u.tif"><path d="M351.8,118.3c2.3-1.7,4.6-3.5,7-5a220.9,220.9,0,0,1,39.5-19l2.4-.9a17.9,17.9,0,0,0,6.2-3.4c3.6-3.1,8-3.2,12.4-2.4l8.8,1.8a6.2,6.2,0,0,0,2.7-.1,3,3,0,0,0,2.6-2.1c1.4-4.5,5.1-6.9,8.8-9.3a4.6,4.6,0,0,1,2.1-.4c.9,0,1.4.4,1.1,1.5a3.8,3.8,0,0,0,0,2.1,7.9,7.9,0,0,1-.4,6.7h.6a121.2,121.2,0,0,1,24.8,1.6,1.5,1.5,0,0,0,1.1-.4c3.1-4.2,7.5-5.9,12.4-6.4s12.1-.7,18.2-.8,13.5,2,20,4.4a36.5,36.5,0,0,1,9.6,5c.8.6,1,1,.2,1.7a20.6,20.6,0,0,1-8.6,4.6c2.8,2.8,3.7,6.7,5.7,10,.3.6.3,1.2-.6,1.4l-11.2,2.3c.4.5.6.9.9,1.2s1.5,3.2,1.4,5-.5.8-.9.9a23.6,23.6,0,0,1-5.3,1,40.2,40.2,0,0,1-18.7-3.1,34.9,34.9,0,0,1-11.9-7.9,27.6,27.6,0,0,0-6.9-5.8c-3.2-1.8-4.6-5-5.4-8.5a1.4,1.4,0,0,0-1.4-1.3c-8.3-1.2-16.7-2.2-25.2-1.9a4.1,4.1,0,0,0-2.2.7,31.6,31.6,0,0,0-4.8,3.6l13.6,1.7,1.6.3a21.1,21.1,0,0,1,13.8,12.6c1,2.5,1.9,5,3,7.5s1.8,3.3,2.7,5,.5,1.8-1.2,1.9-3.8.3-5.8.3a17,17,0,0,1-2.2-.4,56.3,56.3,0,0,1,.5,5.9,63.5,63.5,0,0,1-.3,7.6c-.1,1.2-.6,1.6-1.6,1.2l-7.6-3.1a15.2,15.2,0,0,0-.6,2c-.2,1.2-.6,1.6-1.8,1a11.7,11.7,0,0,0-2.5-.7c.3,2.3.7,4.4.9,6.5s0,2.6-2.3,3a27.3,27.3,0,0,1-3.2.2,42.3,42.3,0,0,0,1.3,5.1c.5,1.2.2,1.6-.8,1.8-7.2,1.4-14,1.1-20.6-2.3-2.8-1.5-6.1-2.1-9.1-3.1a6.6,6.6,0,0,1-2.5-1.3,77.2,77.2,0,0,1-5.3-6.1,8.1,8.1,0,0,0-.9-1,.9.9,0,0,0,.1.5c1.3,4.5,2.9,8.9,4,13.5s.9,6.8,1.3,10.2a6,6,0,0,1-.8,2.1,8.7,8.7,0,0,1-1.3-1.5c-3.4-5.9-7-11.7-8.9-18.2s-4-15.4-5.8-23.1c-.9-4.1-.1-8.2,1-12.1s3-8.7,4.6-13l.7-1.4c-28.4,9.5-51.7,26.2-71.9,47.8a42.8,42.8,0,0,0,7.2,2.3,19.7,19.7,0,0,0,5.9-.3c2-.3,3.9-1,5.9-1.3s3.5.4,3.1,3-.9,5-1.5,7.4c-.9,4-2.2,7.7-6.7,9.8l6.5,3,11.2,6.4a22,22,0,0,1,3.4,2.8c.8.7.8,1.5.1,2.5a19.4,19.4,0,0,1-6.8,5.9c1.1,1,2.2,1.8,3.1,2.8s1.3,2.6-.4,3.7c-3.8,2.4-7.7,4.8-11.6,7-2.2,1.3-4.7,1.2-7.2,1.2h-1.7v.4c2.4.6,4.7,1.3,7.1,1.8a29.4,29.4,0,0,0,5.1.5,19.2,19.2,0,0,1,7.4,2.2c.6.2.9.9,1.3,1.4a8.6,8.6,0,0,1-1.6,1c-4.5.8-8.9,1.7-13.4,2.3a14.8,14.8,0,0,1-5.9-.4c-3.8-1.1-7.6-2.5-11.4-3.6,5.3,5,12.4,6.8,18.5,10.7h-1.2l-11,.4c-5.4,0-9.4-2.8-12.8-6.7l-5.1-6.1-.9-.9c1.1,4.6,2.2,9.1,3.2,13.6.5,2,.4,2.1-1.5,1.7-5.1-1.1-9.7-3.1-13-7.3a19.2,19.2,0,0,1-4.2-9.3,34.7,34.7,0,0,0-5.2-14.5,25.3,25.3,0,0,1-1.9-4.8l-4,4.5c1.3,2.4.5,4.5-.8,6.5l-5.8,9a2.4,2.4,0,0,0-.3,1.2c.2,1.7.5,3.4.7,5.1s.9,5.2-.5,7.7l5.8.4a18.3,18.3,0,0,1,12.1,6c1.5,1.7,2.9,3.5,4.2,5.3s1.5,4.7,1,7.2-1.1.7-1.7.7l-6.8-.6,8,7.5,5,4.7c1.6,1.8,1.4,3-.7,4l-6.1,2.4c.4,2.3-1.3,3.3-3.4,4.1a23.9,23.9,0,0,0-3.4,2.1c-.3.1-.4.5-.6.8a6.5,6.5,0,0,0-1.7.8c-4.1,3.3-8.8,4.3-13.9,4l-2.2-.2v.4l13.2,3.6a12.3,12.3,0,0,1-1.9-.2c-4.1-1.1-8.1-2.2-12.1-3.5a23.2,23.2,0,0,1-9.6-6.1l-3.3-3.2a14.2,14.2,0,0,0-5.8-3.4,24.3,24.3,0,0,0,3,5.2c3.3,3.8,6.7,7.6,10.1,11.2,1.9,2,4,3.8,6.8,4,5.7.3,11.5.9,17.2-.6a1.5,1.5,0,0,0,1.4-1.6c.2-3.4.7-6.8-1.2-10v-.5a10.4,10.4,0,0,1,1.9,6.3c0,1.4-.1,2.8-.2,4.2a2,2,0,0,1-1.8,2.2,35.9,35.9,0,0,1-10.8.9c-2.4-.2-4.8-.2-7.4-.3,3.4,2.9,7.3,5,10.1,8.3a4.3,4.3,0,0,1-.1.5l-2.1.2c-4.6-.2-8.8-1.9-12.9-3.9l-7.2-3.6a13.4,13.4,0,0,0,.1,1.9,9.2,9.2,0,0,1-2.4,7.1l-5.7,6.1.9.3a23.3,23.3,0,0,1,12.5,6c1.4,1.4,1.5,2.1.1,3.4-2.9,2.7-5.8,5.6-9.7,7l-.8.4c3.9.8,6.2,3.7,8.9,5.8s2.5,5.2-.4,7a26.1,26.1,0,0,1-5.4,2.4c4.6,3,7.3,7.9,10.5,12.5a2,2,0,0,1,.4.8c.9,1.8.6,2.7-1.4,3a25.1,25.1,0,0,0-11.4,5.4c-2.8,2.3-6.1,4.1-10,3.5a38.3,38.3,0,0,1-5.8-1.6l7.4,6.8c1.5,1.4,1.5,2.5-.4,3a18,18,0,0,1-12.3-1l1.4.2c1.9.3,3.8.8,5.6.9a18.6,18.6,0,0,0,4.7-.3c.5,0,1.4-.5,1.5-1s-.4-1.2-.8-1.6c-2.2-2-4.3-3.9-6.6-5.8s-2-1.5-2.8-2.1l-3,9.1c-.1.2,0,.4,0,.6s-.5,0-.7.2a9.5,9.5,0,0,1-4.9,2.7,57.4,57.4,0,0,1-8.2,1.9c-2.4.3-4.7-.8-6.7-2.1s-.4-1.5.3-2,3.2-2.5,4.9-3.6c3.8-2.6,4.4-5.5,1.7-9.4a33.9,33.9,0,0,0-4-4.5c-4.1-4-8.3-7.9-12.2-12-1.9-2-3.2-4.5-4.7-6.8l-7.4,3.2a2.4,2.4,0,0,0-1.7,2c-.9,4.4-1.7,8.8-2.8,13.2a30.6,30.6,0,0,1-3.9,10,15,15,0,0,1-6.2,5.5L181,357h5.6c5.6-.1,10.8,1.6,16,3.7a24.7,24.7,0,0,1,7.5,4.4,11.3,11.3,0,0,1,4,8.6,4.3,4.3,0,0,1-1.1,2.8,51.1,51.1,0,0,1-4.1,3.8l1.2-.3c9.1-2.3,18.3-2.9,27.6-3a171.3,171.3,0,0,1,37.1,3.9A144.7,144.7,0,0,1,313.1,395c5,2.8,9.9,5.8,14.8,8.7a1.4,1.4,0,0,0,1.7.1,22.2,22.2,0,0,1,8.3-2.9,20.8,20.8,0,0,0,13.6-8.1c2.1-2.6,3.9-5.5,5.9-8.2a16.4,16.4,0,0,1,8.4-6,18.7,18.7,0,0,1,5.3-.3c1.3.1,1.7.9,1.3,2.2a5.6,5.6,0,0,1-.9,1.7c-2.9,4.5-5.8,8.9-8.8,13.2a21.6,21.6,0,0,1-8.7,7.4h.8c11.2-1,20.4,3.2,27.6,11.6a23.2,23.2,0,0,1,3.6,7,63.9,63.9,0,0,1,2.9,15.2c-3.2-.5-5-3-7.4-4.8l1.7,5.1a13.3,13.3,0,0,1,.5,3.4c.1,1.9-.3,2.2-2.2,2.3l-7.2.6a4.6,4.6,0,0,0,.3.9c.5,1.1.1,1.8-1,2h-4.2a4.2,4.2,0,0,1-1.6-.1c.1,1.5.4,2.8.5,4.2s-.6,2.8-2.7,2.6-6-.6-9-1-5-.7-7.1-2.1a11,11,0,0,0-2.6-1.5l4.1,10.6-.9-.3-4.8-3.4a16.7,16.7,0,0,1-5.7-7.9c-1.4-4.2-2.7-8.5-4-12.8-.7-2.4-1.5-3.6-4.9-6.6-3,3-6.6,2.6-10.3,2l-3.8-.7c-2.4-.3-4.8-.5-6.8,1.4-1.3-2.1,1.5-10.1,4.4-13s5-4.1,12.6-5.5c0-1.2,0-2.5-.1-3.8s-.4-.6-.7-.8c-8.7-5.3-17.5-10.2-27-13.7-7.3-2.7-14.7-5.3-22.2-7.6A99.1,99.1,0,0,0,243,382c-7.9.3-15.9,1.1-23.8,1.9-4.4.4-8.8,1.2-13.2,1.8l-1.4.5a17.5,17.5,0,0,0,8.3,10.3c2.9,1.8,6.1,1.5,9.2,1.8l8.7,1.2a1.1,1.1,0,0,1,.8.3c1.5,1.2,3.1.9,4.8.5s6.1-.3,9.2.4,8.8,2.2,12.8,4.4a27.8,27.8,0,0,1,9.8,8.2l4.4,5.8c2.5,3.2,4.9,6.2,7.3,9.4a13.3,13.3,0,0,1,1.4,1.9c.6,1.2.2,2.2-1.1,2.3-4.5.2-8.5,1.9-12.7,3.2a11.2,11.2,0,0,1-9.4-1.3l-2.8-1.7c2.5,5.9,4.9,11.7,7.5,17.3,1.5,3.1,2.8,6.1,1.9,9.7-.3,1.5-1.1,2.1-2.5,1.5-4.9-1.9-10-1.8-15.1-1.8a2.2,2.2,0,0,0-2.2,1.4c-.9,1.9-1.7,3.9-.9,6.1s-.7,1.4-1.4,1.4a51.2,51.2,0,0,1-5.6-.3,63.1,63.1,0,0,1-8.7-1.4,18.3,18.3,0,0,1-12.2-9.5l-.6-.9c-.2,3.6-2.9,3.9-5.3,4.6a9.7,9.7,0,0,1-9-1.3,9.5,9.5,0,0,0-3.5-1c-1-.2-2,0-3-.1l-1.2-.5a3.9,3.9,0,0,1,.6-1.1,45.7,45.7,0,0,1,4.9-3.8c5.8-3.6,8-8.8,7.8-15.5-.1-4.7.1-9.5.1-14.2,0-.7-.3-1.4-.3-2.1s-.1-4.3.1-6.4c.5-3.9,1.4-7.6.8-11.5a10.1,10.1,0,0,0-.5-2.5,58.8,58.8,0,0,0-5.8-13.1,13.8,13.8,0,0,1-.8-1.7c-2.7,2.2-5.9,2.5-9.2,2.5a17.7,17.7,0,0,1,.1,2.3,4.7,4.7,0,0,1-2.6,4l-4.1,2.5a99.3,99.3,0,0,1,9.1,5.4,21.5,21.5,0,0,1,4.5,5,49.3,49.3,0,0,1,3.6,5.3,37.1,37.1,0,0,1,1.9,4.6c.3.9-.1,1.5-1.1,1.7s-5,1.2-7.5,1.6a27.2,27.2,0,0,1-13.5-1.8,52.7,52.7,0,0,0-6.8-1.9,15.5,15.5,0,0,1-6.2-2.6l-1-.8c1.6,2.9,3.1,5.7,4.8,8.4a13.4,13.4,0,0,0,2.7,2.6,9.8,9.8,0,0,1,3.9,7.4c.1,2.3-.7,3-2.8,2.1l-10.6-4.4c-2.4-.9-5.1-1.3-7.4-2.6a39.1,39.1,0,0,1-13.9-13.8c-1.3-2.2-2.5-4.4-4-6.5.2,2.1.2,4.3.4,6.4a6.5,6.5,0,0,1-1.3,5c-1.1,1.7-1.8,3.8-2.9,5.5a10.6,10.6,0,0,1-2.7,2.9c-1.5,1-2.3.7-3.6-.7-4.4-4.6-9-9-12.4-14.9l-41.1,14a49.5,49.5,0,0,0-7.4,3.4,6.9,6.9,0,0,0-1.3,1.1,148,148,0,0,1-51.2,35.9c-2.2,1-4.4,1.7-7,2.7-.4-1.4-.9-2.9-1.2-4.3s.5-.8.8-1c2.6-1.1,5.3-2,7.9-3.3l17.4-9.2a6.5,6.5,0,0,0,1.6-1.7,135.7,135.7,0,0,0,10.6-24.1c5-15,8.9-30.2,10.6-46a157.8,157.8,0,0,0,.4-27.5,2.6,2.6,0,0,0-2.1-2.8c-3.6-1.2-6-4-7.9-7.2a8.9,8.9,0,0,1-.5-2.3c-4.5-1.6-7.4-5.3-10-9.5a30,30,0,0,0-4-4.8,8.7,8.7,0,0,0-5.7-2.4c-3.2-.4-6.4-.4-9.5-1A27.5,27.5,0,0,1,12,319c-.5-.2-.9-.8-1.3-1.3v-.2c3.7-3.1,8.2-4.4,12.6-5.8a11,11,0,0,1,9.8,1.1l1.3.7a91.2,91.2,0,0,1,.1-18.1,54.6,54.6,0,0,1,1.9-6.6c.2-.5.7-.8,1.1-1.2a6.4,6.4,0,0,1,1,1.3c.9,3.6,1.7,7.2,2.5,10.7.2.7.3,1.3.5,2.2,1-2.3,1.9-4.3,2.7-6.4a45.6,45.6,0,0,1,6.4-11.9,2.5,2.5,0,0,1,2.9-.9,45.5,45.5,0,0,1,5.1,2.1c1.9,1.3,3.7,2.9,5.8,4.6l3.9-2.8,2.2-1.6a3.3,3.3,0,0,1,3.6.2c1.8-1.7,3.4-3.4,5.2-5s3.4-1.4,4.4,1.1,1.3,3.9,2,5.8,1.9,5,2.8,7.6a28.3,28.3,0,0,1,.8,4l.3,1.8h.5c.9-2.5,1.7-5,2.5-7.5s.6-1.6,2.2-1.3a10.2,10.2,0,0,1,6.6,4.8,32.1,32.1,0,0,1,4.5,12.3c.6,4.6-.9,8.8-2.7,12.9a10.7,10.7,0,0,1-.9,1.9c4.2.2,7.2,2.7,10.3,4.7a65.1,65.1,0,0,1,6,4.3,5.4,5.4,0,0,1,1.5,2.1c.7,1.4.2,2.4-1.4,2.4a31.8,31.8,0,0,1-6.2-.3,28.2,28.2,0,0,0-16.7,2.5c-3.9,1.9-7.6,3.9-11.6,5.5s-5.3,2.9-8.1,4a24.7,24.7,0,0,1-12.9,1.6l-1.7-.2a206.4,206.4,0,0,1-1,36.9H61l.7-2.2c.6-2.4,1.1-4.7,1.9-7.1.2-.6,1-1.1,1.5-1.7l.5.2c.1,1.4.1,2.9.2,4.3l.2.2a48.3,48.3,0,0,0,3.2-5.9,45.6,45.6,0,0,0,2.3-8.8,19,19,0,0,1,14.7-15.9,30.8,30.8,0,0,1,10.5-1.1l1.4.3c2.8.8,3,1.1,2.4,3.8,2.1,0,2.1,0,3.2,3.4l.9-.9c1.5,1.4,1.4,2.9,1.2,4.4-.8,7.2-3.8,13-10.2,17-4.9,3.2-10.4,4.9-16,6.4l-9.9,2.7c.1,1.7-1,2.2-2.1,2.8s-4.7,2.5-7,3.9a3,3,0,0,0-1.2,1.7,197.1,197.1,0,0,1-9.3,33c-2.2,5.7-4.8,11.2-7.2,16.8a3,3,0,0,0-.3.9l1.4-.9A136.4,136.4,0,0,0,75.1,414c6.2-8.3,12-17.1,18.3-25.3s14.2-18.3,21.7-27.2c2.9-3.4,6.5-6.2,9.9-9.2.9-.8,1.2-1.4.7-2.5s-1.3-4-1.8-6a17,17,0,0,1,2.6-13.5c3-4.4,7.2-7.6,10.9-11.3,1.5-1.5,3.2-2.9,4.9-4.3a11.5,11.5,0,0,1,2.7-1.4,1.1,1.1,0,0,1,1.6,1.2c-.4,2.8,1,4.8,2.4,6.9s2.2,7,2,10.8c0,.4-.1.9-.1,1.5,2.9-1.7,5.7-3.2,8.4-4.9s5.1-3.2,7.7-4.8a5.3,5.3,0,0,0,1.4-1.2,132.9,132.9,0,0,0,14.5-17.3,2.4,2.4,0,0,0,.4-1.6,35.1,35.1,0,0,0-2.8-12,8.6,8.6,0,0,1-.5-2.3c0-.4.3-.7.5-1.1h.4c-2.1-3.7-4.3-7.5-6.5-11.1a52.3,52.3,0,0,1-6-14.2c-1.3-5.6-.2-10.8,2.5-15.8a24.2,24.2,0,0,1,3.5-4.4,8.6,8.6,0,0,1,2.3-1.3,8.6,8.6,0,0,1,.5,1.5c2.9-1.6,2.9-1.6,4.6-.1,1-2.2,1.8-2.5,3.9-1.2,4.4,2.7,7.2,6.8,9.4,11.3,3.5,6.9,2.6,13.3-1.8,19.4a34.2,34.2,0,0,0-6.2,14.8l3.6-3.5a2.9,2.9,0,0,1,.1,3.1c-1.2,2.1-2.6,4.1-3.8,6.3a3.1,3.1,0,0,0-.7,1.8c-.1,1.7-.1,3.3-.1,5h.5l4.1-6a133.9,133.9,0,0,0,11.3-21.1,368.7,368.7,0,0,0,15.8-42.2c.6-1.7.9-3.6,1.5-5.6l-2.2,1c-7.4,3.9-15.1,4.4-23.1,2.3a38.4,38.4,0,0,1-6-2,17.1,17.1,0,0,1-7.7-7.1c-2.9-4.9-4.8-10.2-6.8-15.5a1.9,1.9,0,0,1,.6-2.5,10,10,0,0,1,3.6-1.4,49,49,0,0,1,7.7-.5,5.5,5.5,0,0,1,2.4.7c2,1,4,2.2,6.2,3.1a40.4,40.4,0,0,0-2.8-4,37.9,37.9,0,0,1-7.1-16.5c-.5-2.6,0-5.5.3-8.2s.4-3.8-3.1-5.4l-9.9-4.8c-3-1.5-6-2.6-9.4-2s-3.5,1.3-4,3.5-1.2,5-1.9,7.4-1.3,2-2.9.7a11.8,11.8,0,0,1-4.4-8.7,29.6,29.6,0,0,1-.5-5.2c0-1.8.3-3.7.5-5.9a22.9,22.9,0,0,1-4.9-8.5,9.3,9.3,0,0,1-.6-3.4c0-1.4.9-2,2.2-1.3l9.5,4.7a.6.6,0,0,0,.6.1l-.7-.8c-4.7-4.1-5.5-9.3-3.9-15a25,25,0,0,0,.9-13c-.4-2,.3-2.9,2.4-2.5s5.2,1.1,7.8,1.6a23.1,23.1,0,0,1,9.4,4.1,13.2,13.2,0,0,1-.5-3.1,16.9,16.9,0,0,1,.7-4.5,3.9,3.9,0,0,1,5.6-2.2,71.9,71.9,0,0,1,6.7,3.7,23.3,23.3,0,0,1,2.8,2.6,39.8,39.8,0,0,1,.8-5.9,54.9,54.9,0,0,1,2.4-6.8c.6-1.6,1.5-1.9,3-1.1a19.9,19.9,0,0,1,7.7,5.8,9.1,9.1,0,0,0,1,1q1.2-3,2.1-5.7a29.2,29.2,0,0,0,1-4,6.4,6.4,0,0,0-.4-2.4c-.6-2.5-1.3-4.9-1.8-7.4-.1-.6.4-1.4.7-2.1h.4l2.4,4.2a33.5,33.5,0,0,0-2-15.7c-1.9-4.6-2.4-9.3-.4-13.9a20.9,20.9,0,0,1,3-4.7,27.9,27.9,0,0,1,10.3-8.4l2.4-.8c2.5-.7,3-.3,3.3,1.9.8-.2,1.8-.7,2.5-.4s1.3,1.3,1.9,2c.8-1.4,1.2-1.4,2.3-.3a5.6,5.6,0,0,1,1,1.5,21.1,21.1,0,0,1,1.1,18,36.5,36.5,0,0,1-8.7,12.6L213,94.1l-1,1c1.1,1.1.4,2-.2,2.9a46,46,0,0,0-3.2,4.5c-1.6,3.3-2.9,6.8-4.3,10.2a1.4,1.4,0,0,0,0,.9l2.6,7.2c1.9-2.3,3.8-4.8,7.1-5.9,1.7,4.3,3.5,8.6,1.8,13.3s-3.2,7.7-4.7,11.5c-.7,1.7-1.4,3.5-1.9,4.9,7.1,7.1,11.5,15,10.2,25.6l3.4-2.2c2.7-1.9,4.2-2,7-.1l.5-.9a13.1,13.1,0,0,1,6.3-6.6l11.8-5.9a4,4,0,0,1,4.4.6c4.7,3.1,5.6,7.7,5.5,12.8-.1,1.5-.2,2.9-.2,4.4.5-2.5.9-5,1.4-7.4a152.1,152.1,0,0,1,7.2-24.1c4.4-11.2,10.7-21.4,17.5-31.3s13.5-17.1,20.7-25.3l1.2-1.3-1.8.2c-4,.7-7.9,1.8-11.9,2.1a70.7,70.7,0,0,1-13-.4,13,13,0,0,1-8.7-5,41,41,0,0,1-4.6-7.1c-2.1-4.1-3.9-8.3-5.7-12.5a12.4,12.4,0,0,1-1.1-4.2c-.2-1.4.6-1.8,1.9-1.4l2.3.7a3.6,3.6,0,0,0,1.8-.1c5.3-2.3,10.2-1.1,15,1.3a26.4,26.4,0,0,0,9.1,3,23.5,23.5,0,0,1,10.4,4.7c2.5,1.7,4.7,3.7,7.3,5.7-.5-.9-.8-1.8-1.2-2.5-2.3-4-4.7-8-7.1-12a41.3,41.3,0,0,0-10.8-12,25.7,25.7,0,0,1-9.3-12.5,17.9,17.9,0,0,1-.3-8.6c.6-2.8,1.1-5.6,1.7-8.4s1-3.7,2.7-4.8a1.9,1.9,0,0,1,1.9-.3,21.1,21.1,0,0,1,3.3,1.8c4.1,2.4,8.3,4.7,12.3,7.3a47.7,47.7,0,0,1,6.3,4.8,16.5,16.5,0,0,1,5.3,11c0,.4.1.7.1,1.1h.2c0-.1.1-.2.1-.3a40.2,40.2,0,0,1,10.1-18.8,54.9,54.9,0,0,1,6.3-5.6c2.8-2,6.2-2,9.4-1.2a3.7,3.7,0,0,1,2.5,2.1,59.4,59.4,0,0,1,2.8,7.4c.8,2,1.2,4.2,2.1,6.2a13.8,13.8,0,0,1,.2,10,1.9,1.9,0,0,0-.2.7l.2.2c3.2.4,4.8,2.4,5.2,5.5a31.1,31.1,0,0,0,.8,3.7l4.6-4.6a19.8,19.8,0,0,1,10.8-5.6c1.5-.3,2.9-1,4.4-1.2a29.6,29.6,0,0,1,5.1-.6c1.4,0,1.7.5,1.6,1.9s-.5,5-.9,7.5a26.8,26.8,0,0,1-6.1,12.4,24.5,24.5,0,0,0-3.4,5,16.2,16.2,0,0,1-5.2,5.8l-.8.6c3.2-.7,6.5-1.2,9.6-2a12.4,12.4,0,0,0,3.6-1.9,9.5,9.5,0,0,1,8.2-1.1c1.9.6,2.3,1.5,1,3.1l-4.6,5.4c-2.2,2.7-4.3,5.5-6.5,8.1a16.2,16.2,0,0,1-3.2,3.2c-5.4,3.6-11.1,6.5-17.6,7.5a26,26,0,0,0-5.3,1.4l6.6,1.7a7.1,7.1,0,0,1,3.7,2.4,39.8,39.8,0,0,0,4.5,4.7,6.8,6.8,0,0,1,1.9,4.3,1.8,1.8,0,0,1-1.2,2.1c-5.8,2.8-11.6,5.7-17.9,7.4a17.6,17.6,0,0,1-10.9-.7c-7.4-3-13.9-7.5-18.2-14.5a43.7,43.7,0,0,1-5.4-13.8l-6.4,8c-6.8,9-13.8,18-20.5,27.2a107.9,107.9,0,0,0-14.8,29.1,142.1,142.1,0,0,0-6.4,29.6c-.2,2.3-.5,4.7-.8,7.1,2.2,0,4.3-.2,6.3,0s5.3,1.1,8,1.7l6.5,1.4a1.9,1.9,0,0,0,1.6-.5c2.8-2.8,5.6-5.7,8.3-8.6a2.1,2.1,0,0,0,.6-1.7,4.8,4.8,0,0,1,1.6-4.2c3-2.7,4.7-6.1,6.2-9.9s4.1-8.2,6.2-12.3c.8-1.4,1.6-2.9,2.3-4.4a15.2,15.2,0,0,0,1.3-9.2,17.9,17.9,0,0,1-.1-3.3c0-.9.2-1.9,1.3-2.2s1.8.6,2.3,1.5a10.4,10.4,0,0,1,1.3,6.9c-.6,3.3-1.4,6.5-1.9,9.8s-.4,4.3-.6,6.7l6.1-6.4c1.1-1.1,2.4-2.1,3.6-3.1a8.1,8.1,0,0,0,1-.9,154.6,154.6,0,0,1,27.5-26.7l1.3-.7c-.2.2-.3.5-.5.6-9.8,7.2-18.3,15.9-26.3,25l-1.6,2.1a19.1,19.1,0,0,1,3.2-.3,2.4,2.4,0,0,0,2.9-1.3l.5-.6a184.1,184.1,0,0,1,28.1-24.8A158.2,158.2,0,0,1,398.6,98c2.7-1,3.8-2.9,5.2-5.2l-1.6.5c-6.3,2.6-12.8,5-19,7.7a185.5,185.5,0,0,0-27.1,14.5ZM210.9,218.9l-1.3.4a13.9,13.9,0,0,0,3.8,1.7,30,30,0,0,0,7.3,1.1,4.5,4.5,0,0,0,4.5-4.6,11.8,11.8,0,0,0-7.4.6,10.9,10.9,0,0,1-3,.7h-4l.9-.2a27.7,27.7,0,0,0,9.2-2c-1.7-1.1-3-2.6-5.2-2.3a3.2,3.2,0,0,1-1.3-.2c-5.2-.9-10.3-2-15-4.7a44.5,44.5,0,0,0,5.3,6.2C206.4,217.4,208.3,218.9,210.9,218.9ZM320.8,87.3a31.5,31.5,0,0,1-3.1-4.1,14.8,14.8,0,0,0-5.3-5.8l-.4.4c-1,2.2-1.5,4.7.6,6.7a33.9,33.9,0,0,0,4.2,3.3,15,15,0,0,0,6.4,2.4L321,87.5c.2.1.5.2.6.4a8.1,8.1,0,0,0,6.4,3.2,43.4,43.4,0,0,0,10.7-.9l-.6-.3c-6.2-1.3-11.5-4.5-16.4-8.2-1.6-1.3-3.4-1.2-5.5-1.8l1,1.7ZM142.5,376.6h0c-.4,1.2-1,1-1.9.2.5,1.2.9,2.5,1.8,3.1s1.5.8,1.2,1.7l1.3.6-1.1,1.5c.4,0,1.1.3,1.3.1s1.3-.2,2.2.3l-1.6.6,1.8,1.1c-.3-1.8,1.1-1.4,1.7-1.7l.8,1.1c.3-1.2.7-1.8,1.8-1.9l1.6-.2c.7-.2,1.6-1.4,1.4-2.1s-.2-1.7,1.4-1.7l.9-2.1-2.1-.8c.5-.6.4-1.5,1.7-1.5s1.3-.8.6-1.7a9.2,9.2,0,0,0-1.4-1.5,8.4,8.4,0,0,0-.4,1.2l-.8-.8c-.7,1-2.3.6-2.6,2.1h-.7c0-.3-.1-.7,0-.9l.7-.8c.1-1.1,0-2.2,1.7-1.6a1,1,0,0,0,1.3-1.1c0-.2-.9-.3-1.4-.3l-2.1.2c-.4.6-.6,1.1-1,1.3s-1.1-.1-1.1-.3-.5-.6-1-.8-2.8-1.2-4.1-.6a26.9,26.9,0,0,0-3.3,2.6l1,.9c0,.1-.1.2-.2.3l-1-.2-.3,2.8C141.9,374.9,142.1,376,142.5,376.6ZM176,161.1l4.6,3.6,4,3.1c.7-2.1.5-3.6-1.3-4.9s-2.8-2.6-4.3-3.8c-4-3.2-8-6.4-12.1-9.5a8.8,8.8,0,0,0-10-.7,53.8,53.8,0,0,0-6.6,5.2,2.4,2.4,0,0,0-.6.8c-1.6,3.5-.6,6.9-.3,10.8,1.9-4.7,4.5-6.3,9.1-6.2a27.7,27.7,0,0,1,11,3c4,1.9,7.8,4.1,11.8,6.1a25.2,25.2,0,0,0,3.3,1.5,2,2,0,0,0-.7-2.4c-2.7-2.1-5.3-4.4-7.9-6.6ZM329.1,71.7h0l.3,1.2a2.6,2.6,0,0,1,.3,1.7,13.1,13.1,0,0,1-1.2,2.8l4.1-.7A38.1,38.1,0,0,0,344.7,72c4.5-2.7,5.7-6.5,5.3-11.5-.2-3.5-2.2-6.2-4.6-8.4s-3.7-3-6.3-1.8a2.6,2.6,0,0,0-.9.9c-.9,2.1-1.5,4.3-2.6,6.4a11.7,11.7,0,0,1-2.8,3.5c-1.6,1.7-3.4,3.2-5.2,4.8s-.7,1.1.1,1.7a2.1,2.1,0,0,1,.9,2.5C328.4,70.7,328.1,71.4,329.1,71.7ZM262.4,226.4h0l-5.7,2.5c-.3.2-.8.4-.8.7a10.3,10.3,0,0,0,0,5.5c3.2-1.2,6.3-2.5,9.5-3.5a28.7,28.7,0,0,1,23.3,2c5,2.7,10.4,3.4,15.9,3.5a8,8,0,0,0-.8-6.9,30.2,30.2,0,0,0-6.9-7.8,15.7,15.7,0,0,0-7.4-3.1c-9.2-1.5-17.6.7-25.5,5.4-.8.4-1.6,1-2.4,1.5v.2Zm-45,179.9v.8c.1,4.4.1,8.7.1,13.1a1.3,1.3,0,0,1-.6,1,1.3,1.3,0,0,1-1.1-.4,3.7,3.7,0,0,1-1.2-1.3l-2.9-4a1.6,1.6,0,0,0,0,.7,30.4,30.4,0,0,0,5.6,10.1,22.9,22.9,0,0,1,4.8,11.8,32.8,32.8,0,0,0,13.1,23.4c1.3,1,2.4,2.1,3.6,3.1l-.3.3a14.2,14.2,0,0,1-1.3-1.2c-2.5-2.2-5-4.3-7.3-6.7-5.1-5.2-7.3-11.7-8.2-18.7a24.6,24.6,0,0,0-5.1-12.1,28.7,28.7,0,0,1-5.3-9.9,20.2,20.2,0,0,0-.7-2.3h-.4a27,27,0,0,0-1.2,4.9c-.5,8.3,1.1,16.4,2.9,24.5,1,4.1,1.4,8.3,3.6,12.1s6.2,8.8,11.7,10.4,10.2,1.8,15.4,2l1-.3c-1.1-2.8-.1-5.3,1.3-7.7a14,14,0,0,0,1.5-9.6,34.8,34.8,0,0,0-10.3-19.5,52.5,52.5,0,0,1-9.4-12.1A55.1,55.1,0,0,0,217.4,406.3ZM224.1,223c-7.5,34.5-21.9,65.2-43.6,92.2,8.5-6.1,17.2-12.3,25.3-19.3a102.1,102.1,0,0,0,11-10.8,224.2,224.2,0,0,0,19.1-26.4c2.7-4.6,5.1-9.5,7.6-14.3-6.3-4.3-10.9-9.7-15-15.6C227.2,226.9,225.7,225.1,224.1,223ZM62.9,335.8c2.8-.1,4.5,1.6,6.1,3.4s1.3,1.2,1.9,1.9a1.5,1.5,0,0,0,2.4.1l.8-.9c4.2-4.5,6.6-10,8.3-15.8a21.2,21.2,0,0,0,0-12.7c-1.1-3.7-1.9-7.6-2.9-11.3s-1.5-6.4-2.3-9.6a8.7,8.7,0,0,0-3.2-5c-1.4-1.1-2.5-1.2-3.8,0-2.8,2.7-6.3,4.3-9.6,6.4-6.9,4.4-9.9,11-10,18.9,0,3,1.4,6.1,2.4,9.1a29.6,29.6,0,0,1,1.9,11c-.2,2.7-.4,5.4-.7,8.3a15.5,15.5,0,0,0,2.3-.5c1.4-.8,2.7-1.8,4.2-2.5a4.2,4.2,0,0,0,2.6-3.3,12.7,12.7,0,0,0,.5-3.9c0-3.8-.2-7.7-.5-11.5-.5-6-.3-11.9,2.5-17.3a76.6,76.6,0,0,1,4.1-6.8l.5.2-.8,1.2a82.4,82.4,0,0,0-4.2,7.7c-2.1,4.8-1.9,9.9-1.5,15S65.4,329.8,62.9,335.8Zm233-157.9,9.1,4.9a6.6,6.6,0,0,0,2.7,1.2,42.7,42.7,0,0,1,12.6,3.8c5,2.3,9.8,5.1,15.3,6.2,3.9.8,7.8,1.1,11.4-1.2l12.5-7.7a22.4,22.4,0,0,0,3.5-3.4c1.5-1.7,1.4-2-.3-3.5-4.6-3.7-10-6.2-15.2-8.9a40.3,40.3,0,0,1-6.1-3.5c-4.7-3.6-9.6-3.6-14.8-1.4-1.9.8-3.7,1.8-5.6,2.7a30,30,0,0,1-10.9,2.6c-2.2.2-4.4.5-5.9,2.1a24.6,24.6,0,0,1-7.5,5l-1.2.7a42.9,42.9,0,0,1,5.9-.7c9.4-.3,18.7-.7,28.1-.7,7.8,0,15.6-.1,23.3,1.6a32.2,32.2,0,0,1,5,1.6v.4l-.8-.3a31.8,31.8,0,0,0-10.5-2.2c-8.1-.4-16.2-.7-24.2-.4s-14.6.3-21.8.5Zm-117,143.7,12.6-1.7a7.9,7.9,0,0,1,5.2,1,2.2,2.2,0,0,0,1.4,0l8.9-4.2a3.8,3.8,0,0,0,1.2-1c1.2-1.4,2.3-2.9,3.6-4.2s4.2-4,6.4-5.8a20.7,20.7,0,0,1,4.7-3.7c4-2,7.2-5,10.3-8.2a81.8,81.8,0,0,1,8.3-7.3c2.9-2.3,6.6-1.8,10.1-2.1.8-.1.9.6.8,1.2a41.9,41.9,0,0,1-1.4,4.7,16.8,16.8,0,0,1-1.5,3l2.4-.4a25.3,25.3,0,0,1,2.5-10.9,16.8,16.8,0,0,0,1.2-3.8c.8-3.3-.6-6.1-2.3-8.8s-4.7-7.7-4.2-12.2c-2.8-1.3-3.2-4-4.3-6.3a9,9,0,0,0-.5.9,185.9,185.9,0,0,1-22.2,34.7c-8.5,10.4-18.9,18.7-29.9,26.2ZM403.3,96.5h-.2a33.9,33.9,0,0,0-1.5,4.1,37.6,37.6,0,0,0-.6,16c1.3,7.2,2.8,14.4,4.2,21.6.1.3.1.7.3.9,1.8,2.4,3.6,5,5.6,7.3a9.7,9.7,0,0,0,3.8,2.3c2.8,1.1,5.8,1.7,8.5,2.9,5.9,2.8,11.9,4.1,18.4,2.8l2.8-.4c-.5-2.1-.9-3.9-1.2-5.7-.5-4.2-1.5-8.3-4.2-11.7A51.1,51.1,0,0,0,424.9,123c-3.6-2.2-7.3-4.4-9.9-7.9a98.4,98.4,0,0,1-6.1-9.7c-1.8-3.2-3.1-6.5-4.7-9.9,0,.7-.2,1.4-.2,2,0,5.4.1,10.7.2,16a15.2,15.2,0,0,0,.3,2.1c1.2,6.7,4.7,12.1,9.4,17a64.5,64.5,0,0,1,6.7,8,19.9,19.9,0,0,0,6.9,6c1.7.9,3.6,1.6,5.4,2.4l5.9,2.5a5.9,5.9,0,0,1-2.3-.5l-6.4-2.6a20.7,20.7,0,0,1-10.3-8.1c-1.2-1.8-2.7-3.5-4.1-5.2s-2.7-2.8-4-4.3a29.3,29.3,0,0,1-8.2-21C403.5,105.4,403.4,100.9,403.3,96.5ZM218.1,405.8c.1.5.2.6.2.7l7.6,9.9a1.1,1.1,0,0,0,.6.7c3.4,2.4,7,4.3,11.4,4.7s10.2,2.7,13.8,7.1a47.9,47.9,0,0,0,4.1,3.6c4.6,3.8,9.6,4.2,15.1,1.8,2.6-1.1,5.5-1.4,8.3-2.1a11.5,11.5,0,0,0,1.7-.6,13.4,13.4,0,0,0-.7-1.8c0-.1-.1-.2-.2-.3l-10.8-14c-2.9-3.9-6.2-7.4-10.6-9.7s-8.5-3.3-12.9-4.5a20.9,20.9,0,0,0-11.1,0c-.1.5-.3,1-.7,1.1a18.6,18.6,0,0,1-9.3,1.4,8.6,8.6,0,0,0-1.6,0l1.7,1c3.4,1.7,6.7,3.5,10.5,3.9a109.4,109.4,0,0,1,22.6,5.4,39.7,39.7,0,0,1,18.6,13.6l.9,1.4-.3.2-.9-1.2a39.3,39.3,0,0,0-9.9-9.2c-8.3-5.2-17.6-7.5-27.1-9.1-3.9-.6-7.7-1.2-11.3-3l-4.5-2.1c0,.4.2.5.3.8l.6,1.4a10.1,10.1,0,0,1-1.7.3l-1.6-.4Zm39.7-160.3a55.3,55.3,0,0,1,7.2,2.4c2.9,1.3,5.7,2.9,8.5,4.5a26.1,26.1,0,0,0,19.5,3.3l1.3-.2c-.1.3-.2.4-.4.4a25.5,25.5,0,0,1-18-1.7c-3.4-1.7-6.7-3.7-10.2-5.5s-4.8-2.3-7.7-2.2a2.3,2.3,0,0,0-1.1.3l-2.7,1.7a7,7,0,0,0-2.9,3.2l.7.2c6,1.7,11.5,4.3,15.7,9.2a15.4,15.4,0,0,0,4.9,3.9c6.4,2.9,13,3.1,19.3-.7l9-5.6a2.5,2.5,0,0,0,1.4-3,7.6,7.6,0,0,0-3.1-4.7l-17-13.6a11.1,11.1,0,0,0-3-1.7,33.8,33.8,0,0,0-19.9-.9c-4.2,1-3.5,1.2-2.3,4.5S258.8,243.5,257.8,245.5Zm-83.4,141-.4-1.3c-.4-2.4.9-4,3.3-4a4.4,4.4,0,0,1,1.6.2,26.9,26.9,0,0,1,11.6,6.3,1.8,1.8,0,0,0,1.2.5,12.8,12.8,0,0,0,9-2.9c1.9-1.6,4-3,6-4.5s2.3-2.4,1.5-4.7a9.3,9.3,0,0,0-1-2c-1.8-1.9-2.1-4.2-2.1-6.7a5.9,5.9,0,0,0-1.2-3.1,22,22,0,0,0-9-5.7c-5-1.6-10.2-1.2-15.3-.8l-.2.3c2,1.8,4,3.6,5.9,5.5a16.8,16.8,0,0,1,2.4,2.9c.7,1.2.2,2.1-1.1,2.3a29.2,29.2,0,0,1-5.1.4,7.4,7.4,0,0,1-6-3.1,3.6,3.6,0,0,0-1.4-1,12.2,12.2,0,0,0-12.5.1c-2.1,1.2-4,2.7-6,4,.8,1.4,1.8,3,2.8,4.5a17.5,17.5,0,0,1,9.8-1,82.2,82.2,0,0,1,10.9,2.6c6.7,2,13.5,2.8,20.2,0a35.4,35.4,0,0,1,4.4-1.1h.9l-8.3,2.5c-5.7,1.6-11.2.5-16.7-1-3.4-.8-6.7-1.8-10.1-2.4a22.1,22.1,0,0,0-10.2.5c-.4.2-1,.7-1,1.1a7.1,7.1,0,0,1-1.2,3.8,4.2,4.2,0,0,0-.6,1.5c2.4,1.5,4.6,3,6.9,4.3a6.8,6.8,0,0,0,3,1.1C168.9,386.1,171.6,386.3,174.4,386.5ZM326.5,65.9a49.9,49.9,0,0,1,5.1-4.4c3.9-2.5,4.5-6.9,6.4-10.7h-1.5a3.1,3.1,0,0,1-2.7-4.2,6.1,6.1,0,0,1,.7-1.4,26.5,26.5,0,0,1,9.8-9.3,2,2,0,0,0,.8-.8c1-3.1,1.4-6.2.1-9.3s-1.7-4.9-2.4-7.4-1.4-2.8-3.8-2.8a7.4,7.4,0,0,0-2.6.3c-2.3,1-4.5.6-6.8-.1a4.7,4.7,0,0,0-3.3.1,21.6,21.6,0,0,0-8.3,6.7c-2.5,3.2-3.7,7.1-4.8,11-.3,1.1-.5,2.3-.9,3.7l7.1-3.8a18.4,18.4,0,0,1,3.6-1.5c1.6-.4,2.3.4,2,2a19.8,19.8,0,0,1-.8,3.5c-.8,2.8-2.3,5-5.3,6a2.6,2.6,0,0,0-1.1.7,12.4,12.4,0,0,0-4,12.5c.5,2.2,1.2,4.4,1.9,6.6l5.1-1.2a20.2,20.2,0,0,1,2.9-11.4c2-3.5,4.5-6.8,6.7-10.2s3.9-6.7,4.4-10.6.4-5.8.6-8.7a24.8,24.8,0,0,1,.3-2.7c.2,2.3,0,4.6,0,6.9a21.8,21.8,0,0,1-2.8,11.5c-2.2,3.8-4.8,7.4-7,11.1a30.1,30.1,0,0,0-4.6,12.3c-.2,1.4.1,2.3,1.7,2.7a6.5,6.5,0,0,1,1.5,1Zm-119.8,253,.5.4a19.1,19.1,0,0,1,9.1-1.9,68.2,68.2,0,0,1,7.9.9l15.8,3.5c2.1.4,4.2.6,6.4.8a2.5,2.5,0,0,1-1.4.3L234.1,321c-5.6-1-11.1-2.2-16.7-3a17.6,17.6,0,0,0-10.4,2c.5.6.8,1.3,1.3,1.6a76.4,76.4,0,0,0,8.3,5.7c6.1,3.3,12.4,6.3,18.4,9.6a12,12,0,0,0,6.1,1.5c3.2-.1,5.3-1.8,6.7-4.5a9.3,9.3,0,0,0,1-6.9,3.6,3.6,0,0,1,.9-3.3,5,5,0,0,0,1.1-2.6,29.4,29.4,0,0,0-.5-5.1,28.2,28.2,0,0,0-.7-3.1,5.1,5.1,0,0,0-5.7-4.9l-9.6.3a75.9,75.9,0,0,0-9.5.7c-4,.7-8,1.9-12,3a1.3,1.3,0,0,0-1,.4Zm-8.5-147.3a5.1,5.1,0,0,0,.9-1.6,13.2,13.2,0,0,0,.8-3.3c.4-3.6.5-7.3,1.9-10.8.2-.4,0-.9,0-1.3a54.1,54.1,0,0,0-4.4-15.2c-1.2-2.5-1.8-5.2-2.8-7.9s-3.5-3.9-5.6-3.5a42.1,42.1,0,0,0-6,1.1c-2.4.6-4.8,1.2-6,3.9a3.4,3.4,0,0,1-2.2,1.4,10.9,10.9,0,0,0-6.2,3.6c-4,4.2-2,10.3,1.3,12.9s4.5,3.4,6.6,5.2l8.4,7.6a9.3,9.3,0,0,0,.2-1.4c.2-2.1,1-2.4,2.9-1.5a9.1,9.1,0,0,1,4.8,6.6,9.5,9.5,0,0,0,2.4,4.8,1.8,1.8,0,0,0,1.4.4c.4-.1.7-.7.8-1.2s-.1-2.5-.2-3.8c-.4-4.3-2.4-8-4.6-11.5s-6.4-9.4-9.5-14.2c-1.3-2.1-2.4-4.4-3.7-6.6l.4-.2.6,1.1c.9,1.6,1.7,3.3,2.7,4.8,2.9,4.3,5.9,8.5,8.7,12.8S198.4,164.7,198.2,171.6Zm53.1,18.8c1-2,1.9-3.7,2.8-5.3a22.5,22.5,0,0,0,1.9-17.4,4.7,4.7,0,0,0-3-3.4,6.8,6.8,0,0,1-4.2-3.8,9.7,9.7,0,0,0-2.3-2.7,2.7,2.7,0,0,0-3.3-.2c-2.2,1.3-4.3,2.5-6.6,3.6a12.5,12.5,0,0,0-6.2,6.8,1.7,1.7,0,0,0,.1,1,25.2,25.2,0,0,1,.7,12.2c-.6,2.8-2.9,4.8-5.9,2h-.5c-.8,2.3-1.6,4.7-2.3,7.1a6.1,6.1,0,0,0-.2,2.7c.2,2.5.6,4.9.9,7.5h.4a14.3,14.3,0,0,1,3.6.2c2.1.5,2.1.7,3.4-1a16.3,16.3,0,0,0,1.1-1.7c2.8-4.9,3.8-10.4,4.6-15.9a28.1,28.1,0,0,1,3.9-11.5c1.6-2.2,3.5-4.1,5.3-6.2l1.7-2.1a5.2,5.2,0,0,1-1.2,2.2c-1.7,2-3.6,3.9-5.1,6-3.1,4.1-4,9-4.6,14s-2.1,12.2-6.8,17.1l2.7,4.1a49.2,49.2,0,0,1,4.3-2.6c4.2-2.1,6.2-5.6,6.6-10.1a12.5,12.5,0,0,0-.5-3.2c-.2-1-.6-2.1-.7-3.1,0-2.9,1.6-5.1,3.2-7.3a1.2,1.2,0,0,1,2.1.1,18.7,18.7,0,0,1,1.5,3.2C249.6,185.2,250.3,187.6,251.3,190.4ZM452,138.2l1.2-4.5c1-4.4,1.5-8.9-.1-13.2a31.8,31.8,0,0,0-11.3-14.3c-3.7-2.6-8.1-3.4-12.2-4.8a1.4,1.4,0,0,0-.9.1,7.3,7.3,0,0,1-5.6-.1l-1.3-.5a1.7,1.7,0,0,0,.6.8l14.7,10.5c6.8,4.8,11.7,10.9,14,19,.1.4.1.8.2,1.2a.8.8,0,0,1-.5-.5c-2.3-8.4-7.4-14.7-14.4-19.6l-15-10.8-2.8-2-5-3.2-2.9-2.2a4.7,4.7,0,0,0-4.7-.4c-1.5.7-1.6,1-.3,2.1s3.7,2.7,5.7,4a22.8,22.8,0,0,1,9.9,12.1c.8,2.2,1.5,4.5,2.5,6.7s1.8,4,3.3,5a58.8,58.8,0,0,1,10.2,9.7,10.9,10.9,0,0,0,5.5,3.3ZM76.3,420.9c12.6-5.7,26.3-9.1,39.4-13.2-1.1-13.5,2.6-24.8,13.4-33.5h-1.5a87.1,87.1,0,0,0-15.9,2.9,10.2,10.2,0,0,0-6.4,4.3c-4.4,6.3-8.8,12.6-13.3,18.8S81.5,414.1,76.3,420.9Zm259.1-2.6a11.8,11.8,0,0,1,6.4,5.8,34.8,34.8,0,0,1,2.2,4.3c2.5,5.7,6.4,10,12.6,11.7,3.2.9,6.5,1.6,9.8,2.4l1,.3a2.7,2.7,0,0,1-1.5.1c-3.5-.8-7-1.5-10.3-2.5a18.3,18.3,0,0,1-10.5-9c-1-1.7-1.8-3.5-2.7-5.3a13.6,13.6,0,0,0-7.1-7.4c-1.8,3.1-1.7,2.9.4,5.7l.7.8c3.7,4.1,6.6,8.6,7.9,14a3.1,3.1,0,0,0,.9,1.4c3.7,3.7,8.5,4.7,13.5,4.9l11.8.2a13.7,13.7,0,0,0,2.9-.2c.8-.1.9-.5.6-1.3a56.9,56.9,0,0,1-2.5-6.9c-1.8-7.3-6.3-12.7-12.2-17a14.3,14.3,0,0,0-5-2.7,63.3,63.3,0,0,1-12.5-5.5,24.9,24.9,0,0,0-2.6-1.1C337.9,413.6,336.7,415.9,335.4,418.3ZM119,389.1h-.4c-.8,3-1.7,6-2.3,9.1a19.2,19.2,0,0,0,3,14.7c3.5,5,8,9.1,12,13.5a1.5,1.5,0,0,0,1.6.3,5.3,5.3,0,0,0,3.3-3.1l3.1-5.9a10.2,10.2,0,0,0,.9-3.1,32.6,32.6,0,0,0-.3-5.4,21.7,21.7,0,0,0-.8-4.3,46,46,0,0,0-3.1-6.3,33.6,33.6,0,0,1-4.3-13.3,22.8,22.8,0,0,1,3.1-14.2l-.8.4a107.2,107.2,0,0,0-8.4,6.7,19.9,19.9,0,0,0-6.2,17.3,29.2,29.2,0,0,0,11.3,19.8l2.1,1.8C122.8,410.4,118.1,401.2,119,389.1ZM323.2,104.3l-.2.3c2.3,1.5,4.5,3.1,6.9,4.5,4.9,2.8,9.9,4,15.7,2.3s11.1-4.6,16.6-7.1a1.9,1.9,0,0,0,.9-1.5c.1-1.7-.9-3-2.1-4.2s-2.8-3.1-4.4-4.5a9,9,0,0,0-2.8-2,41,41,0,0,0-5-1.4,17.4,17.4,0,0,0-4.5-.6,56.7,56.7,0,0,0-7.2,1,30.4,30.4,0,0,1-18.4-1.7,19.5,19.5,0,0,1-7.9-6.2,41.1,41.1,0,0,0,4,11.5c3.1,5.9,7.7,9.8,14.4,11.1a29.4,29.4,0,0,0,22.7-4.7l1.9-1.2C344.5,107.3,334.2,108.8,323.2,104.3ZM301.3,57.9,301,56c-.5-4.1-.3-8,2.3-11.4a2,2,0,0,0,.1-1.5,22.3,22.3,0,0,0-5.6-8c-3.6-3.4-6.9-6.9-9.2-11.3a21.4,21.4,0,0,1-1-2.2.9.9,0,0,1,.6.3,35.3,35.3,0,0,0,7.6,10.7c3.3,3.2,6.6,6.4,8.2,10.9l7.7-6.1a24.8,24.8,0,0,1-.3-2.7,15.7,15.7,0,0,0-5.1-11.4,46.5,46.5,0,0,0-6.6-5.1c-4.4-2.8-9-5.5-13.5-8.2l-1.9-.9c.1.8.1,1.4.2,1.8a26.5,26.5,0,0,0,1.1,3,8,8,0,0,1-.9,9,31.5,31.5,0,0,0-2.2,2.9,8.9,8.9,0,0,0-.4,10.1,29.8,29.8,0,0,0,7.1,7.5,31.6,31.6,0,0,1,7.4,7.2C298.2,52.9,299.7,55.4,301.3,57.9ZM170.6,352l8.3,5.3a20.9,20.9,0,0,1,3-1.4,16,16,0,0,0,7-5.4,31.5,31.5,0,0,0,4.4-10.7c1.2-5.1,2.3-10.2,3.5-15.3.1-.6.2-1.2.3-2.1a14.4,14.4,0,0,0-1.7.8,15.7,15.7,0,0,0-2.5,2,8.3,8.3,0,0,1-9,1.9,28.3,28.3,0,0,0-4.1-1.4,8.6,8.6,0,0,0-8.8,2.9,26,26,0,0,0-4.8,8.8,36.2,36.2,0,0,1-9.7,15.7l-.5.7a6.4,6.4,0,0,0,1.9-.8c3.4-1.6,7-2.8,10.8-1.5a2.4,2.4,0,0,0,2.5-.6,25.4,25.4,0,0,0,5.9-8.6,38.5,38.5,0,0,1,8-11.8l1.2-1a43,43,0,0,0-8.3,12C176.1,345.4,174.1,349.2,170.6,352ZM470.8,93.7c.9,3.3,2.2,6.6,5.5,8.5a27.2,27.2,0,0,1,6.8,5.8,35,35,0,0,0,12.1,8c5.8,2.5,11.9,3.1,18.1,2.9a34,34,0,0,0,4.6-.7,1.6,1.6,0,0,0,.9-.9,5.1,5.1,0,0,0-1.5-4.8l-2.3-2.3c-5.6-5.1-11.1-10.1-16.7-15a18,18,0,0,0-5.5-3.2c-4.3-1.5-8.7-1.3-13.2-1a42.2,42.2,0,0,0-5.9.9,12,12,0,0,0-2.1,1.3,10.2,10.2,0,0,0,2.2,1.4c1.8.8,3.7,1.2,5.4,2s5,3.6,7.2,5.8a30.9,30.9,0,0,0,11.7,7.8l12.1,4,1.2.4v.3l-2.6-.7-7.5-2.4a33,33,0,0,1-15.9-10,21.3,21.3,0,0,0-10.5-6.4A34.2,34.2,0,0,1,470.8,93.7ZM331.4,403.5v.5l2.3.6c3.4.7,5.1,2.6,5.3,5.7,0,.1.1.2,0-.1l3.2,1.5,11,5a36.8,36.8,0,0,1,6.3,3.1,17.6,17.6,0,0,0,5.8,2.5c5.7,1.6,11.1,3.9,15.5,8.1l4.9,4.3a20,20,0,0,0,2.6,1.5,67.2,67.2,0,0,0-3.3-15.8,17.4,17.4,0,0,0-3.9-6.7,33.2,33.2,0,0,0-15.6-9.5,27.6,27.6,0,0,0-17.9,1.1l7.2.7c2.4.3,4.9.3,7.2,1,8.9,2.7,16.2,7.7,21.2,15.8l.9,1.5a10.6,10.6,0,0,1-1.7-2l-1.6-2.1a36.5,36.5,0,0,0-21.3-13.1c-2.9-.6-5.9-.5-8.9-.9s-7.8-1.6-11.7-2.2A63,63,0,0,0,331.4,403.5ZM182.7,206.1l.6,2.3a26.6,26.6,0,0,0,12.9,17.9,17.8,17.8,0,0,0,13.1,2.2,36.1,36.1,0,0,0,12.7-5.6c.1,0,.1-.2.2-.4a18.6,18.6,0,0,1-11.8-2.2,30.1,30.1,0,0,1-11.1-9.9c-2-2.9-4-5.9-7.5-7.5-1.4-.6-2.7-1.5-4.1-2.2a6,6,0,0,0-2.3-.6c-2.4.1-4.8.2-7.2.5a9.2,9.2,0,0,0-3.2,1c-1.1.5-1.3,1.5-.7,2.7a17.3,17.3,0,0,1,1.4,3.4c1.2,2.8,2.2,5.7,3.6,8.4s2.4,4.8,4.2,6.6c4.6,4.8,10.8,5.5,17.1,6.2C190.2,224.7,184.3,217.1,182.7,206.1ZM10.2,467.4l1.7-.6A127.3,127.3,0,0,0,37.8,454c11.1-7.1,21.3-15.1,30-24.9A312.5,312.5,0,0,0,96,393.3a155.7,155.7,0,0,1,23.1-28.1c2.9-2.7,5.8-5.4,8.6-8.2.3-.2.6-.9.4-1.1a26.4,26.4,0,0,0-2-3.7l-.9.7a89.5,89.5,0,0,0-14,14.2c-6.6,8.5-13.4,16.9-19.9,25.5-5.3,7-10,14.3-15.3,21.2A148.7,148.7,0,0,1,55.5,436a165.9,165.9,0,0,1-36.9,24l-9.5,4.3C9.5,465.3,9.8,466.3,10.2,467.4ZM278,195.7l-1.2.5a34.8,34.8,0,0,1-13.2,2.1,21,21,0,0,0-9.9,1.7,2.7,2.7,0,0,0-1.2,1.4,12,12,0,0,1-3.7,7.1l-3.5,3.2.8-.3a38.5,38.5,0,0,1,17.8-1.9c2.9.3,6-.4,9-.6a2.1,2.1,0,0,0,1.8-1.7c.7-2.1,1.4-4.3,2.3-6.3s1.2-1.5,1.8-2.3l.4.3c.1-4,2.3-6.2,5.9-7.4l2.1-1.1,1-1.2-2.1-.6a55.8,55.8,0,0,1-5.9-1c-3.9-.8-7.8-1.9-11.7-2.6s-10.5-.1-14.7,4l-2.2,1.9,1.2,9a22.1,22.1,0,0,1,9.4-2C267.6,197.9,272.9,197.5,278,195.7ZM93.4,292c-.9,2.7-1.9,5.4-2.6,8.1s-.9,7.8-.9,11.7A31.6,31.6,0,0,1,82,333.3c-2.8,3.2-6,6.2-9.3,9.5l5.6,2.3a1.2,1.2,0,0,0,1.1-.4,69.9,69.9,0,0,0,11.9-13,37,37,0,0,0,7.2-22.1,50.9,50.9,0,0,0-.4-5.5,9,9,0,0,1,.7,2.7,36.4,36.4,0,0,1-1,12.3c-2.1,8.3-7.1,15-12.8,21.1a6,6,0,0,0-.8.8h.4c8.3-5.1,15-11.7,18.7-20.9a22.4,22.4,0,0,0,2.2-9.5c-.2-5.3-2.3-9.9-5-14.3C99,293.9,96.6,292.6,93.4,292ZM306.7,169.2l.3.4,4.1-.5c3.8-.5,7.5-1.1,10.9-3a52.1,52.1,0,0,1,4.7-2.4c5.3-2,10.4-2.1,15,1.7a1.4,1.4,0,0,0,1.9.1c2.9-1.6,4.1-4.4,4.9-7.4s1.3-6,1.9-9-.1-2.7-2.3-2.3l-6.1,1.4a13.6,13.6,0,0,1-7.2.2l-3.4-1.2c-4.8-1.7-9-1-12.6,2.9-1.3,1.5-2.8,2.9-4.2,4.4a10.5,10.5,0,0,0-2.8,4.9,15.8,15.8,0,0,1-1.4,3.6q-1.5,2.9-3.3,5.7l5.3-3.4c3.5-2.1,7-4.6,11.2-5a42.7,42.7,0,0,0,16-5,47.1,47.1,0,0,1,5.2-2.1l.2.3-1.4.5c-3,1.4-6,2.9-9.1,4.2a36.8,36.8,0,0,1-4.7,1.5c-3.4.8-6.9.9-10,2.2S311.1,166.8,306.7,169.2Zm-60.9,290c5.6-.1,11.1-.5,16.3,1.6,1.5.6,1.8.2,2.2-1.3a10.7,10.7,0,0,0-1.5-7.8,57.3,57.3,0,0,1-5-11.7,29.3,29.3,0,0,0-6.7-10.9,21.5,21.5,0,0,0-13.6-6.8,19.3,19.3,0,0,1-9.8-4l-1-.6a48.4,48.4,0,0,0,2.6,4.3,55.6,55.6,0,0,0,4.2,5.4,10.4,10.4,0,0,0,2.5,2.2c2.2,1.7,4.6,3.2,6.7,5,6.7,5.9,12.3,12.8,17.7,19.8a6.1,6.1,0,0,1,.7,1c-7.4-8.7-14.5-17.7-23.9-24.5a3,3,0,0,0,.7,1.1c4.6,5.3,7.9,11.2,9,18.2C247.3,453.2,247.4,456.3,245.8,459.2ZM371.6,64.7c-4.9.3-9.5,2-14.2,3.9s-9.6,3.2-14.3,5.3a50.7,50.7,0,0,1-15.3,4.4c-.5,0-.9.4-1.5.7,13.7,5.1,25.3,1.1,36.1-7a3.4,3.4,0,0,1-.8.9c-10,7.7-20.9,11.3-33.4,7.4a9,9,0,0,0-7,.3l.5.4c5,3.7,10.3,6.9,16.5,8.5a8.6,8.6,0,0,0,2.3.5,37.9,37.9,0,0,0,11.9-3,12,12,0,0,0,3.4-2.5c1-1.2,1.7-2.6,2.6-3.9,2.4-3.6,4.8-7.1,8.8-9.3a5.4,5.4,0,0,0,2-2.2A47.7,47.7,0,0,0,371.6,64.7ZM140.9,380a.5.5,0,0,0-.2.4,50.4,50.4,0,0,0-3.1,15.8,16.4,16.4,0,0,0,.4,5,33.4,33.4,0,0,0,6.6,10.4,10.8,10.8,0,0,0,3.6,2.4c2.7,1,5.6,1.7,8.4,2.5a21,21,0,0,1,6.9,3.7,7.6,7.6,0,0,0,3.2,1.7,43.4,43.4,0,0,0,5.2.9,48.1,48.1,0,0,0-6-9.6c-3.2-3.7-6.3-7.5-9.4-11.3-1-1.2-1.7-2.6-2.7-3.6a46.4,46.4,0,0,1-8.6-12.5,7.7,7.7,0,0,0-1.3-1.7c-.5,14.7,6.9,24.5,18.3,32.2h-.6l-.7-.4c-10-6.8-16.9-15.6-17.5-28.2-.1-2.7-.2-5.4-2.3-7.6ZM310.2,82.4c.4-1.7.7-3.2,1-4.9a12,12,0,0,1-6.9-2.1,44.1,44.1,0,0,0-17.1-7.7c-4.1-.9-8.3-1.7-12.1-3.8l-7.4-4.2,5,12.2a23.3,23.3,0,0,0,5.7,8.2c3.4,3.2,7.4,5.1,12.2,4.6l7.4-.9C302.1,83.2,306,81.6,310.2,82.4ZM140.6,369.5a11.5,11.5,0,0,1-.2-7.1,44.1,44.1,0,0,0,2-18c-.5-4.7-1.2-9.4-.2-14.1.6-2.5,1.1-5.1,1.6-7.7L134,331a23.7,23.7,0,0,0-6.1,8c-2.1,4.3-2.7,8.8-.6,13.2s3.1,6.5,4.9,9.7,3.1,5.2,3.5,8.2Zm52.2-262.1h.2c0,.1.1.1.2.2s1.1,2.4,1.8,3.6a39.8,39.8,0,0,1,4.5,19.1c0,4.5-.1,9.1.8,13.6s1.2,6.2,1.9,9.3a2.9,2.9,0,0,0,.2.9h.5a9.3,9.3,0,0,0,.2-2.3,60.4,60.4,0,0,1,1.4-18.5,46.1,46.1,0,0,0,1.7-9.6c.1-5.8-2.3-10.7-6.2-15.1a24.2,24.2,0,0,0-7.6-5.1c-.6-.3-1.3-.3-1.6.5-1,2.8-2.3,5.4-2.8,8.2a82.7,82.7,0,0,0-.5,10c-.1,1.8.1,3.6.1,5.5,3.2-.7,7.1.9,7.9,4.6a13.8,13.8,0,0,0,.8,2.7c1,2.6,2,5.3,3.1,7.9-.2-3.7-.4-7.4-.3-11.1a42.4,42.4,0,0,0-3.3-17.6Zm51.4,137.1h-.5c-.8,1.7-1.5,3.6-2.3,5.3a148,148,0,0,1-15.8,24.7c-3.5,4.5-6.9,9.1-10.7,13.3-9.1,9.8-20,17.6-30.7,25.4a333.1,333.1,0,0,1-31.4,20c-2.4,1.3-2.9,2.6-2.3,5.5,3.4-2,6.9-3.8,10.1-5.9,9.8-6.3,19.5-12.9,29.3-19.2,15.7-10.2,29.3-22.6,39.9-38.1a243.1,243.1,0,0,0,14-24.3,8.1,8.1,0,0,0,.7-2.2c.1-1.1.1-2.3.1-3.5A7.6,7.6,0,0,0,244.2,244.5ZM208.4,96.2h.3a65.4,65.4,0,0,1,4.1-5.1c5.3-5.7,10-11.8,13.2-19,2.3-5.2,3.3-10.4,2.1-15.9a9.4,9.4,0,0,0-2.7-5.2c-.5-.5-.9-.6-1.4-.2l-2.1,1.9c-7.1,6.2-11.9,13.5-12,23.5,0,6.4-.1,12.8-2.4,19-.1.2.2.6.4.9.8-1.8,1.5-3.5,2.4-5.1a97.5,97.5,0,0,0,7.9-17.8c1.3-4,2.4-8,3.6-12l.5-1.4.5.2c-.8,2.3-1.6,4.5-2.2,6.8-2.5,8.4-5.3,16.7-9.8,24.3A38.5,38.5,0,0,0,208.4,96.2ZM94.7,360.9l.3.2c-9.6,8.3-17.4,18.6-28.9,24.7,2-.7,3.9-1.7,5.8-2.3,6.9-2.3,13.5-4.9,19.5-9.1s9.2-7.8,11-14a8.6,8.6,0,0,0,.1-5.9,1.4,1.4,0,0,0-1-.7,11.1,11.1,0,0,0-2.5.5c-3,.9-6.1,1.7-9,2.8-6.3,2.4-10.5,7.2-13.8,13s-6,10.3-10.7,14.3c-.2.2-.2.7-.3,1.5a90.4,90.4,0,0,0,17.3-13.6c2.6-2.7,5.5-5.3,8.2-7.9Zm90.2-70.3a5.2,5.2,0,0,0,.2-1.1,61.1,61.1,0,0,1,.5-8.6,89.5,89.5,0,0,1,2.1-10.3c3-10.7-1.1-19.5-7-27.9-.2-.2-.9-.5-1-.4a12.4,12.4,0,0,0-3.2,2.7c-2.4,3.9-4,8.1-3.7,12.7a57.2,57.2,0,0,0,6.8,23.9c1.4,2.7,2.5,5.6,3.7,8.4a5.6,5.6,0,0,1,.5.8h.4l-.3-2.1c-1.2-5.7-2.4-11.4-3.7-17.1s-2.6-14-1.9-21.2a2.5,2.5,0,0,1,.2-.7c.1,1.7,0,3.3,0,5,0,7.7,1.8,15.2,3.6,22.6C183.1,281.6,183.9,286,184.9,290.6Zm19.4,94.9a55.7,55.7,0,0,1,6.6-1.4c5.1-.7,10.2-1.1,15.3-1.7,18-2,35.8-1.8,53.3,3.7,14,4.4,27.8,9.5,40.5,17.1l6.7,4a23.9,23.9,0,0,0,1.3-2.8l-.4-.3a192.4,192.4,0,0,0-25.7-13.8,136.4,136.4,0,0,0-26.4-8.8,153.4,153.4,0,0,0-28.7-3.7c-12.8-.5-25.5-.2-38,3a15.8,15.8,0,0,0-5.1,2.8C203.9,384.3,204.1,385,204.3,385.5Zm46.1-72.7,3.7-1.3,6.6-2.7c3.9-1.5,6.8-4.3,9.8-7.1.7-.7.5-1.3-.1-2-3.3-3.7-7.7-5.5-12.4-6.3a20.1,20.1,0,0,0-16,4.3,60.5,60.5,0,0,1-23.8,11.1,38.5,38.5,0,0,0-4.7,1.9v.3a53.6,53.6,0,0,1,5.4-1.4c3.6-.7,7.2-1.1,10.8-2a66.7,66.7,0,0,0,12.9-4.1,37,37,0,0,1,15.1-3.4c2.9,0,5.9.3,8.9.4v.5l-2.7-.2a44.1,44.1,0,0,0-20,2.6c-3.6,1.5-7.4,2.6-11.1,3.9l-.2.3h.6c3.3-.1,6.6.1,9.9-.3S249.7,309.6,250.4,312.8Zm-94.3,87.9c.1,0,.2.2.3.4l6.6,7.8a20.6,20.6,0,0,0,11,6.8,9.7,9.7,0,0,0,3.4-.1c1.2-.1,2.3-.7,3.4-.7H189c3.4-.1,6.9.3,9.9-1.9.4-.3,1.1-.2,1.7-.3l-2.8-4.4a18.1,18.1,0,0,0-5.9-6.1c-1.8-1.1-3.8-2-5.6-3.1a3.7,3.7,0,0,0-4.8.3,11.4,11.4,0,0,1-7,2.2c-3.6.3-7.2.9-10.9,1.3,8.5,5.4,17.8,7.2,27.6,6.4a.9.9,0,0,1-.6.3,42.2,42.2,0,0,1-14.6-1C168.9,407,162.8,403.1,156.1,400.7ZM365,42.2a37.5,37.5,0,0,1-7,16.2c-3.9,4.9-8.2,9.5-12.2,14.1l1-.3,8.8-3.5a20.5,20.5,0,0,0,10-8.4,8.1,8.1,0,0,0,1-3.1c.5-2.5.8-5.1,1.5-7.5s2-5.8,2.8-8.7a12.6,12.6,0,0,0,.3-3.9l-.3-2.9c-1.5.4-3.1.9-4.8,1.2a18.3,18.3,0,0,0-8,4c-1.6,1.3-3,2.9-4.5,4.2a3.3,3.3,0,0,0-1.2,4.3c1,2.6.6,5.2-.1,8s-1.4,6.8-2.1,10.3l.4.2c1.7-1.8,3.5-3.6,5.1-5.5C360.3,55.4,363,49,365,42.2ZM194.9,181.7c2.1,12.4,7.3,22.6,19.8,27.8a3.8,3.8,0,0,0-.9-1.8,45.2,45.2,0,0,1-6.3-10.3l-.8-2.3c-2.6-5.3-5.2-10.8-7.9-16.1-1.6-3-3.5-5.7-5.4-8.8-.4,1.7-.6,2.9-1,4.1a6.9,6.9,0,0,0-.2,4.7,16.3,16.3,0,0,1,.5,4.9c-.2,3.2-.7,6.3-1.2,9.4a6.6,6.6,0,0,0,.4,4.8,74.4,74.4,0,0,0,3.8,6.8,15.5,15.5,0,0,0,3.5,3.7c3.7,2.5,7.9,3.6,12.2,4.5l6.1,1.1c-1.3-1.8-1.7-3.5-3.6-4.4a30,30,0,0,1-17.1-18.9A29,29,0,0,1,194.9,181.7Zm11.7,3.7h.3c1.9-3.1,3.8-6.2,5.8-9.2a29.2,29.2,0,0,1,3.2-3.8,7.4,7.4,0,0,1,2.1-1.3,2,2,0,0,0,1.1-2.2c0-1.4-.1-2.9-.1-4.3,0-5.6-2.6-10-5.6-14.2l-1.6,1.6a12.5,12.5,0,0,0-2.3,2.3,48.2,48.2,0,0,0-2.7,5c-1.5,3.5-2.7,7.2-5.6,9.9a3,3,0,0,0-.8,1.6,28.4,28.4,0,0,0-.5,5.8c.1,4.8,2.5,8.9,4.4,13.1a29.2,29.2,0,0,0,1.4,3.1,22,22,0,0,0,.1-3.6c0-2.2.3-4.3.2-6.5a43.3,43.3,0,0,1,5.5-22l.7-1.1h.3C207.9,167.8,205.7,176.2,206.6,185.4ZM151.5,384.2a30.7,30.7,0,0,0,19.3,9.1,23.2,23.2,0,0,1-10.6-2.4,30.1,30.1,0,0,1-8.6-6,9.3,9.3,0,0,1-2.5,1.2,9.7,9.7,0,0,1-2.9-.2,38.8,38.8,0,0,0,11.2,14.4c3.4,2.7,7.2,2.3,10.9,1s5.7-4,7.1-7.2,1.8-4.7-.3-6.8a1.6,1.6,0,0,0-1-.5,54.9,54.9,0,0,1-7-.5,14.6,14.6,0,0,1-4.4-1.6l-6.2-3.4a1.6,1.6,0,0,0-1,.2,2.8,2.8,0,0,1-3,2.3C152.2,383.8,152,384,151.5,384.2Zm341-293.1a35.7,35.7,0,0,1,3.9,1.9,28.8,28.8,0,0,1,3.4,2.7l11.5,10.2a3,3,0,0,0,1.5.7,36.9,36.9,0,0,0,5.8-.3c3-.5,3-.6,2.4-3.5,0-.2-.1-.5-.1-.8-1.5-5.5-4.5-9.8-9.7-12.3l-3.7-1.6c-6.3-2.7-12.7-3.4-19.3-1.1a17.5,17.5,0,0,1-3.3.6l-11.2,2a3,3,0,0,0-2.6,2.9c3.5-2.1,7.4-2.2,11.2-2.2s6.3.3,9.5.3,8.8.7,12.8,3l10.6,5.5,2.2,1.1v.3c-2-.9-3.9-1.6-5.8-2.6l-9.5-5C499.1,91.4,495.9,91.2,492.5,91.1ZM297.1,179.3c.1.3.1.4.2.5l9.5,11.2a39.4,39.4,0,0,0,9.2,8.1c3.1,1.8,5.9,4,8.9,6a13.4,13.4,0,0,0,2.3,1.3l12.1,4a14.7,14.7,0,0,0,7.5.2l4.8-.7,7.4-1.5c.3,0,.6-.3,1.1-.5a9.3,9.3,0,0,0-1.6-1.1,23,23,0,0,0-7.8-2,28.4,28.4,0,0,1-6.4-1c-4.3-1.2-8.5-2.5-13.1-2.8a11,11,0,0,1-3.4-1,65.5,65.5,0,0,1-7.8-4.4c-3.6-2.6-6.9-5.4-10.2-8.2A63.8,63.8,0,0,0,297.1,179.3ZM206.7,320.9h-.4c.8,1.4,1.4,2.9,2.3,4.2,3.7,5.8,8.8,10.2,14.1,14.4a35.6,35.6,0,0,1,7.6,7.9c1.7,2.6,3.1,5.3,2.6,8.6a7.9,7.9,0,0,1-2.8,4.8,50.5,50.5,0,0,0,6.9-2.2,5.6,5.6,0,0,0,3.4-3.8,30.2,30.2,0,0,0,1.6-5.1c.7-3.7.1-7-3.1-9.6s-9-5.7-13.8-8.2-11.2-4.9-15.8-8.9l-1.4-1a4.6,4.6,0,0,0,.7,1.6c2.9,4.2,7,6.9,11.4,9.2s9.3,4.9,13.1,8.6,5.2,6.4,5.5,10.6a8.2,8.2,0,0,1-1.9,6,.4.4,0,0,1,.1-.5,9.4,9.4,0,0,0,.6-8.9,20.7,20.7,0,0,0-5.4-7.6c-3.7-3.5-8-5.8-12.5-8.1S209.2,326.8,206.7,320.9Zm102.9-238c-1.2,0-2.3-.6-3.3.6-7.4,8.4-15,16.6-21.5,25.9-10.5,15-18.8,31.1-23.2,49.1a149.7,149.7,0,0,0-4.3,23.9l-.3,3.4,3.7-1.3,1.2-10.3a126.4,126.4,0,0,1,8.5-33.7,116,116,0,0,1,12.8-23.1C291.5,105.6,300.5,94.4,309.6,82.9ZM54.1,330.8h.4a46.8,46.8,0,0,0-.7-5.4c-.6-2.2-1.5-4.4-2.1-6.6s-1.8-5.7-1.8-8.5a101,101,0,0,1,1-13.5,52,52,0,0,1,1.7-6.8h.6c-2.1,4.9-2.3,10.1-2.7,15.3a31.6,31.6,0,0,1,4.8-9.3c2.2-2.9,5.3-4.5,8.3-6.2-2.4-4.1-6.5-5.3-10.5-6.7a2.4,2.4,0,0,0-1.6.5c-1.6,2.5-3.3,4.9-4.7,7.6s-2.6,6.2-3.9,9.3a10.1,10.1,0,0,0-.5,2.5,14.6,14.6,0,0,0,1.5,7.7c1.9,4.7,3.9,9.3,5.9,14A16.2,16.2,0,0,0,54.1,330.8Zm27.6-40.5c1.4,6.2,2.7,12.5,2,18.9a14.9,14.9,0,0,0-.1,4.7A26.3,26.3,0,0,1,81.1,330l-3.4,7.1,2-2a31.6,31.6,0,0,0,9.4-21c.2-2.8-.1-5.6.2-8.4a37.3,37.3,0,0,0-.5-8.2,29.9,29.9,0,0,0-.9-3.2c-.7-2-1.5-4-2.3-6s-1.6-5-2.6-7.5a1.5,1.5,0,0,0-2.5-.8,17.9,17.9,0,0,0-5.6,5.7,10.8,10.8,0,0,1,3.1,5.6c1.1,4.7,2.1,9.4,3.2,14,.5,2,1,3.9,1.6,5.9C84,304.1,82.8,297.2,81.7,290.3Zm88.7,31.4a37.4,37.4,0,0,0,11.7-9.5c7.6-9,13.6-19,19.1-29.4,6.8-12.6,12.8-25.6,16.9-39.3,2-6.5,3.6-13.2,5.3-19.8.1-.3-.1-.6-.1-1s-1.9,1.2-2.6,1.8a4.9,4.9,0,0,0-1,1.5c-1.2,4.1-2.1,8.3-3.4,12.3a364.4,364.4,0,0,1-13.7,35.1,136.8,136.8,0,0,1-11.3,21C184.8,303.8,178.5,313.4,170.4,321.7Zm44.2-114.4c-.3-2.6,1.7-3.5,3-4.7s.2.3.6.7c.9-1.7,2-2.9,4.4-2.2-.3-2.8-.5-5.2-.7-7.6a7.6,7.6,0,0,1,0-3c.8-2.5,1.8-4.9,2.7-7.3.1-.3.3-.7.2-.9a4,4,0,0,0-2.6-2.6,12.3,12.3,0,0,0-13.5,4.3c-2.4,3-2.7,6.1-1.7,9.6A36.6,36.6,0,0,0,214.6,207.3Zm92.9-22.6c1.8,1.5,3.3,2.9,4.9,4.1,3.3,2.6,6.4,5.3,9.8,7.6s6.8,4.1,10.9,4.3l5.8.5c2.9.1,5.9.4,8.7-.8a50.6,50.6,0,0,0,4.6-2.4c2.5-1.5,5-3.1,7.4-4.8s1.4-1.7.3-2.9a12.9,12.9,0,0,0-1.7-1.6c-1.6-1.4-1.7-1.3-3.5-.2s-5.9,3.7-8.8,5.4a10.7,10.7,0,0,1-5.8,1.2,30.9,30.9,0,0,1-10-2.2c-4.1-1.7-8.1-3.8-12.2-5.5S311.4,184.8,307.5,184.7Zm2.4,245a7,7,0,0,1,5.7-1.2c2.9.4,5.7.9,8.6,1.2a6.5,6.5,0,0,0,5.7-2c1.9-2,2.7-4.7,3.7-7.3-2.5,2-5.4,2.6-8.3,2.9l-9.7,1.1-.4-.5,6.8-.8a68.5,68.5,0,0,0,7.9-1.3c4.7-1.4,6.1-5.8,8.1-9.6.1-.3.1-.7.2-1.1a52,52,0,0,1-5.1,1.1l-8,.8C315.6,414.1,311,420.6,309.9,429.7ZM252.5,229.5c-2.2-1.3-4.2-2.5-6.3-3.6a32.2,32.2,0,0,0-11.1-4,33.7,33.7,0,0,1-5.5-1.2,27.7,27.7,0,0,1-3.7-2.2l-2.3,3.5c1.4,1.6,2.8,3,4.1,4.6s3.6,4.9,5.4,7.4a16.8,16.8,0,0,0,10.8,7.2c1.1.2,1.6,0,2-1.2a38.8,38.8,0,0,1,2.8-5.8A41.2,41.2,0,0,1,252.5,229.5ZM37.8,288.3h-.7c-.6,2.4-1.6,4.7-1.9,7-.4,3.9-.2,7.9-.5,11.8a16.7,16.7,0,0,0,2.6,10,80.6,80.6,0,0,1,4.2,8.3c2.5,5,5.4,9.7,10.1,13l1.7.9a3.5,3.5,0,0,0-.3-1.6c-1.9-3.3-3.5-6.6-5.6-9.7a58.2,58.2,0,0,1-9.6-26.7c0-.5.1-1,.1-1.5s.3.2.3.4a57.8,57.8,0,0,0,8.3,25.4c2.4,3.9,4.6,8,7,11.9,0,.1.2.2.4.4s.1-1.7.2-2.5.3-4.1-1.7-5.5a4.4,4.4,0,0,1-1.2-1.5c-2.1-4.5-4.4-9-6.3-13.6a75.7,75.7,0,0,1-3.3-10.2c-.9-3.4-1.5-6.9-2.3-10.3ZM167.3,148.7c-1.5-2.7-2.3-5.6-.9-8.7s3.8-4.7,7.1-6.1c-2.3-1.4-4.3-2.4-6.2-3.7s-4.3-4-4.7-5.3l.9,1c1.9,1.6,3.7,3.4,5.7,5a35.4,35.4,0,0,0,4.1,2.6,1.7,1.7,0,0,0,1,.3,2.5,2.5,0,0,0,2.5-1.8,4.6,4.6,0,0,1,2.7-2.4l3.4-1.4c-5.1-4.5-15-7-21.5-5.5a2.2,2.2,0,0,0-1.7,2.1q-.1,3-.6,6a26.9,26.9,0,0,0,2.7,15.3,2.4,2.4,0,0,0,.9,1.1C164.2,147.8,165.8,148.2,167.3,148.7Zm262.4-47.9,3.1,1a30.3,30.3,0,0,1,21.1,19.3c1.3,4.2.9,8.5-.2,12.7-.3.9-.2,1.5.8,1.9l6.8,2.6c.1.1.7-.4.7-.6s.2-2.3.3-3.5c.5-11.5-3.3-21.4-11.9-29.1-3.5-3.2-7.6-5.7-12.7-5.5l-6.8.4C430.6,100.1,430.3,100.5,429.7,100.8Zm-206.3,306a.5.5,0,0,1,.2-.4c-.7-.9-1.3-1.8-2.2-3.2,4.5.3,8.7.6,12.9-1.6-1.6-.6-2.7-1.4-4-1.6-3.9-.6-7.8-.9-11.8-1.3-5.7-.6-9.8-3.7-12.7-8.5a48.8,48.8,0,0,1-2.7-6.1l-2.5,2,1,1.5a70.5,70.5,0,0,1,5.2,10.7,24.6,24.6,0,0,1,1.3,11.1l-1.2,8.4a28.1,28.1,0,0,0,0,2.9h.3c.1-.1.1-.2.2-.4l2.3-6c.1-.4.6-.7,1-1.1s.8.6,1,1l3.7,5.4a5,5,0,0,0,1.3,1.2l.3-.2c.1-5.2.1-10.3.1-15.5Zm-82.3-37.6a57.1,57.1,0,0,0,4.7-6.6c3.3-6.3,5.4-12.9,4.2-20.1a30.3,30.3,0,0,1,.1-8.5,32.6,32.6,0,0,0,.2-7c-.2-3.3-1.8-5.9-4.2-8.4-.5,1.4-1.1,2.6-1.5,3.9a40.3,40.3,0,0,0-2,17.9c.8,7.5,1,14.9-1.7,22.2A10.6,10.6,0,0,0,141.1,369.2Zm123.7-313c.1.1.1.3.2.3a39.5,39.5,0,0,0,18.1,9.7c7.7,1.7,15.2,3.7,21.5,8.7a9.6,9.6,0,0,0,6.7,2,26.4,26.4,0,0,1-3.1-3.9,20.9,20.9,0,0,0-5.9-6.3c-4.1-3.2-8.3-5.8-13.5-6.6a28.4,28.4,0,0,1-8.6-3C275.2,54.6,270.2,53.4,264.8,56.2ZM238.4,338.9l2.9,3.1a3.7,3.7,0,0,0,1.6.9,25.1,25.1,0,0,0,12.7-2.1c2.5-1.2,5-2.6,7.5-3.9a1.7,1.7,0,0,0,1.1-2.1c-.7-3-1.2-6-3.3-8.4s-1.7-2.2-2.6-3.3a20.2,20.2,0,0,0-6.8-5.8c.1,2.9.3,5.6-1.8,7.9s-.2,2.3,1,3l3,2.1a25.1,25.1,0,0,0,2.9,2,54.4,54.4,0,0,0,5,2.2,15.9,15.9,0,0,1-7.9-3.6,33,33,0,0,0-3.9-2.9C249.3,336.6,244.6,339.6,238.4,338.9Zm63.3-143.8c-.5,3.9-.8,7.4.3,10.9.5,1.5.5,3.1,1.2,4.3a18.2,18.2,0,0,0,10.8,8.4l4,1c-1.1-13.5-7.2-24.5-16.2-33.7,0,2.1,0,4.6.1,7a3.2,3.2,0,0,0,.1,1.4c2.7,6.3,5.6,12.6,10.4,17.7l1.5,1.9C308.2,208.9,304.8,202.3,301.7,195.1Zm169.7-105a25.2,25.2,0,0,1,2.9-1l17.6-3.5c5.4-1.1,10.6,0,15.7,1.9s9.3,4.5,11.8,9.3a1.5,1.5,0,0,0,1.1.6,19.8,19.8,0,0,0,11.4-5.1,37.8,37.8,0,0,0-9.2-5.1c-9.1-3.7-18.5-5.7-28.3-4.6-2.8.3-5.6.4-8.4.5a21.3,21.3,0,0,0-10.5,3A13,13,0,0,0,471.4,90.1Zm-4.2,30-.4.2c-1.6-2.1-3.3-4.1-4.8-6.2s-3.3-5.1-5-7.7a12.3,12.3,0,0,0-7.1-5.1,40.2,40.2,0,0,1-5.8-2.1c-2.3-1-4.4-2.2-7-1.8l-3.3.7a12.8,12.8,0,0,0-2.4,1.1,4.3,4.3,0,0,1,.1.5,25.8,25.8,0,0,1,3.8-.4,30.1,30.1,0,0,1,5.2,0c4.3.7,7.8,3.2,11,6.1a34,34,0,0,1,10,16.5,2.6,2.6,0,0,0,2.3,2.1h7.6l.4-.6c-.5-.8-1.2-1.6-1.6-2.4-1.1-2.3-2.3-4.6-3.3-7s-1.3-3.3-2-4.9c-3.2-6.6-8.3-10.8-15.6-11.7-3.6-.5-7.4-.6-11-1.7a3.7,3.7,0,0,0-4.5,2.1l1.3-.3a10.3,10.3,0,0,1,7.7.8,47.1,47.1,0,0,0,7.1,2.7,14,14,0,0,1,8.2,6.3c2.8,4.3,5.3,8.9,8.9,12.6C467.1,119.8,467.1,120,467.2,120.1ZM58.3,349.6c1.8,17.4.1,34.4-3.8,51.3S45.6,434.1,37,449.1a30.1,30.1,0,0,0,4.2-2.7,2.7,2.7,0,0,0,.7-.8c2.2-5.1,4.8-10.1,6.7-15.4,2.7-7.3,5-14.7,7.2-22.2a130,130,0,0,0,4.9-26.9,197.8,197.8,0,0,0,.5-28.8c-.2-2.3-.2-2.3-2.5-2.7C58.6,349.5,58.5,349.6,58.3,349.6ZM262.6,233.4h7.2a23.4,23.4,0,0,1,12.3,3.3,19.4,19.4,0,0,0,4.3,2.2c5.6,1.8,10.2,5.2,14.9,8.5l.3.4c-5.2-3.4-10.3-7-16.3-8.7a2.4,2.4,0,0,0,.8.9l12.3,9.7c1.9,1.5,3.7,3,4.4,5.4,1.3-.3,2.5-.5,3.7-.9a12.6,12.6,0,0,0,2.6-1.3c1.4-.8,1.6-1.6.6-2.8l-1.6-1.6c-2.6-2.6-5.2-5.3-8-7.8a29.2,29.2,0,0,0-5.4-3.8c-2.7-1.4-5.6-2.4-8.4-3.6C278.4,229.7,270.4,230.1,262.6,233.4ZM39.9,323.8l.5-.4-1.8-2.9c-1.2-2-2-4.4-3.6-5.8a10.3,10.3,0,0,0-7.3-3c-4.7.3-9.1,2.1-13.3,4.3a17.3,17.3,0,0,0-2.8,1.9v.4a24.5,24.5,0,0,0,4.8,2c4.1.7,8.1,1.1,12.2,1.6a8.8,8.8,0,0,1,5.6,2.7,52.9,52.9,0,0,1,4.7,5.9,20,20,0,0,0,10.8,8.8l2.3.4c-1.3-1.4-2.9-2.3-3.9-3.7a99.7,99.7,0,0,1-6.5-9.1c-2.8-4.3-6.2-7.9-11.4-9.5a24.1,24.1,0,0,0-11-.5l-1.7.3v-.4C26.2,314.8,33.9,316.3,39.9,323.8ZM172.7,122.5c0-.2,0-.3-.1-.4s-2.2-2.2-3.6-2.9c-4.7-2.3-9.8-3.2-14.8-4.1-1.5-.2-1.8.3-1.7,1.8a57,57,0,0,1,.4,8.3c-.1,2-1.1,4-1.5,6-.9,4.6-.7,8.9,2.8,12.5,1.2,1.1,2.3,2.3,3.4,3.5s.7.5,1,.4a22.7,22.7,0,0,0,3-.6l-.8-1.8a29.4,29.4,0,0,1-2.1-16.6,3.9,3.9,0,0,0-.3-2.4c-.9-2.2-2.1-4.3-3.1-6.5s-.7-1.7-1.1-2.7c1.6,3,3.2,5.9,4.9,8.8a3.1,3.1,0,0,1,.1-1,2.5,2.5,0,0,1,2.4-2.6c3.5-.7,7.1-1.2,10.6.2ZM194,457.7c0,.1.1.2.1.4h2.6a9,9,0,0,1,5.7,1.6,9,9,0,0,0,4.3,1.3,19.3,19.3,0,0,0,5.2-1.1c2.8-.7,3.8-3.1,2.4-5.7a11.7,11.7,0,0,1-1-2.6c-.9-3.7-1.8-7.5-2.6-11.4-1.4-6.5-2.6-13.1-2.3-19.9,0-.1-.1-.2-.2-.5a10.2,10.2,0,0,0-.8,2.7c-.2,4.9-.4,9.9-.2,14.8.3,7.1-2.1,12.6-8.2,16.5A47.8,47.8,0,0,0,194,457.7Zm57.6-205.4-.5.2c.1.5.1,1,.2,1.5a19.9,19.9,0,0,0,3.4,8.4c3.4,4.7,6.9,9.3,10.4,13.8a6.6,6.6,0,0,0,2.2,1.9c4.3,1.9,8.5,3.9,12.8,5.5,2,.8,4.3.8,6.5,1.1a.8.8,0,0,1,.2-.5l-5.2-4.2c-4-3.2-8.1-6.2-11.9-9.6s-4.9-5.5-7.4-8.2a20.8,20.8,0,0,1-4.4-6.9c-.2-.3-.3-.8-.6-.9l-4.7-1.9c1.9,2.7,3.8,5.2,5.4,7.8a50.8,50.8,0,0,0,19.2,19l.4.5-.7-.2-1.2-.6a50,50,0,0,1-16.8-16.5c-1.2-1.9-2.3-3.8-3.6-5.6S252.8,253.8,251.6,252.3Zm42.2-75.2.4.3h.4a30.1,30.1,0,0,0,12.9-10.5,27.6,27.6,0,0,0,4.7-14.2c.2-4.2,1.3-8.5,2.1-12.7a10.2,10.2,0,0,0-1.4-7.4c-.3-.4-1-.9-1.3-.8a2,2,0,0,0-.9,1.3,21.4,21.4,0,0,0,.1,4.4,12.4,12.4,0,0,1-.9,7.4c-.7,1.6-1.4,3.1-2.2,4.6-2.6,4.5-5.5,8.9-7.1,13.9a19.2,19.2,0,0,1-6,9.1,7.3,7.3,0,0,0-1.5,2.9c-.2.3.1.8.1,1.5l2.3-2.3a37,37,0,0,0,8.3-12.4c2.4-5.6,4.4-11.3,6.6-17,.6-1.7,1.3-3.4,1.9-5a2.2,2.2,0,0,1-.2,1.4c-2.2,5.9-4.5,11.8-6.7,17.8s-5.3,11.6-10.2,15.9A12.4,12.4,0,0,0,293.8,177.1Zm-22,162v.2h-2.7l-5.2-.6a7.7,7.7,0,0,0-4.7,1,26.8,26.8,0,0,1-12.9,3.7h-4.1a20,20,0,0,0,.5,2.6c.1.3.2.8.5.9a70.2,70.2,0,0,0,7.7,2.7c3.9.7,7.3-1.1,10.1-3.4a24.5,24.5,0,0,1,11.6-5.5c1.5-.2,1.9-.9,1.1-2.1-3.2-4.9-6-10-11-13.4a11.2,11.2,0,0,0-2.2-.9l-.2.4a15.6,15.6,0,0,1,3.9,7.8c.4,2.4,1.3,4.6-1.8,5.7ZM166.5,429.4c0,.1-.1.2-.1.3l10.2,4.4c1.4.6,2,.1,1.8-1.2a10.1,10.1,0,0,0-.8-3.9,12.7,12.7,0,0,0-9.6-6.4,9.5,9.5,0,0,1-5.1-2,10.1,10.1,0,0,0-2.7-1.9c-3.3-1.3-6.6-2.5-10-3.5s-4.1-1.1-5.7-2.7c0,.2-.1.3,0,.3a37.7,37.7,0,0,0,13,13.6,17.3,17.3,0,0,0,10.7,2.6c1.7-.1,3.3,0,5,0v.3ZM353.6,87.7a66.8,66.8,0,0,0,7.1-2.5,52.6,52.6,0,0,0,8.4-4.6,18.1,18.1,0,0,0,7.1-10c.5-1.8,1.1-3.5,1.7-5.2h.4l-2.1,6.3.3.2c2.5-2.9,5.1-5.7,7.6-8.5.7-.8.4-1.6-.6-1.8a11,11,0,0,0-4-.5,12.3,12.3,0,0,0-9.3,7.2,10.1,10.1,0,0,1-3.6,4.1,17.4,17.4,0,0,0-3.6,3c-2,2.5-3.8,5.2-5.7,7.7S354.9,86.1,353.6,87.7ZM48.3,340.1c1.1,4.6,6.8,8.2,12.5,8.8.1-1.9.3-3.9.5-5.8h.4c-.1,1-.3,2.1-.3,3.1s.9,3.2,2.2,3.3a46.9,46.9,0,0,0,7.5,0,14.8,14.8,0,0,0,8.1-3.1l-.4-.4c-.3-.1-.5-.3-.8-.3a13.1,13.1,0,0,1-6.4-3.3,54.4,54.4,0,0,1-4.2-4.1c-2.2-2.2-4.5-2.4-7-.7l-.8.6a10.6,10.6,0,0,1-7.1,2.1ZM316.5,44c-3.3,1.5-6.5,2.8-9.5,4.3a7.2,7.2,0,0,0-3.8,4.4,12.8,12.8,0,0,0,1.9,12.1,19.6,19.6,0,0,1,3.1,6.9c.6,2.1,2.3,3.5,3.9,5a6.4,6.4,0,0,1-.3-4.5,5,5,0,0,0,.1-2.7c-.9-3.3-2-6.4-3-9.6-.6-1.6-1.3-3.1-1.8-4.8a7.9,7.9,0,0,1,.8-6.5c-1.4,4.2-.2,8,1.7,11.7a41.4,41.4,0,0,1,2.1,5.9c.4,1.3.6,2.7.9,4.1.1-.2.3-.2.3-.3,1.8-3.6,2.5-7.4.9-11.2a12.6,12.6,0,0,1,.2-10.4C314.6,47,315.6,45.7,316.5,44ZM173.8,363.8c-2.1-2.4-4.2-4.9-6.4-7.1a7.9,7.9,0,0,0-5.3-2.6,12.4,12.4,0,0,0-11.4,5.7,18.8,18.8,0,0,1-5.5,5c-1.8,1.2-2.6,3.3-3.5,5l3.9-1.3a20.6,20.6,0,0,0,3.5-1.2,33.7,33.7,0,0,0,8.3-6.3,12.4,12.4,0,0,1,9-4.1h.4l.4.2c-5.8,1-6.3,1.3-10.8,5.4-1.9,1.7-4.1,3.1-6.2,4.7a26,26,0,0,1-2.4,1.3l.5.3c4.1.4,8-.1,11.2-2.9a10.8,10.8,0,0,1,7.8-3A53.2,53.2,0,0,1,173.8,363.8ZM208.2,90.7h-.1a7.8,7.8,0,0,0,.4-2.2c.3-3.9.8-7.8.8-11.8a29.2,29.2,0,0,1,10-22.1,13.1,13.1,0,0,0,2.3-2.4,4.2,4.2,0,0,0,.4-2.5c0-.2-1.2-.6-1.8-.5a14.2,14.2,0,0,0-2.9,1,30.1,30.1,0,0,0-9.9,7.8c-4.7,5.4-5.5,11.5-3,18a36.1,36.1,0,0,1,2.2,17.5.9.9,0,0,0,.1.7,15.6,15.6,0,0,0,.8-4.2c-.1-5.3-.1-10.5-.4-15.8a32.5,32.5,0,0,1,2.3-14.8,17.5,17.5,0,0,1,4.2-6.2,1.5,1.5,0,0,1-.3.7,24.8,24.8,0,0,0-5.8,15.7C207.5,76.6,208,83.7,208.2,90.7ZM79.8,345.3l.2.4,4.2-1.6c4.3-2,8.6-4.2,13-6.1a24.7,24.7,0,0,1,13.7-2.1c2.6.3,5.2.4,7.9.5,1,.1,1.2-.5.8-1.3a5.7,5.7,0,0,0-1.5-2.2c-3.2-2.3-6.4-4.5-9.8-6.6a42.5,42.5,0,0,0-4.9-2.1c-1-.4-1.3.1-1.8.8L95,333.7l-.5.6c9.7-3.6,16.6-4.9,18.2-3.4h-.5a35,35,0,0,0-19,4.8c-3.7,2.3-7.3,4.9-11,7.4A24.1,24.1,0,0,0,79.8,345.3ZM188,247.5l.4-.2,2.1,4.8c2.8,6.7,2.9,13.4-.3,19.9a42.1,42.1,0,0,0-4.1,13.9,29.1,29.1,0,0,0-.1,3.1l.4-.4a38.3,38.3,0,0,1,7.2-17.3,15.7,15.7,0,0,0,2.2-15.1,27.5,27.5,0,0,0-6.6-10.7,22.4,22.4,0,0,0-4.6-3.5c-.9-.7-1.9-.4-2,.9a3.5,3.5,0,0,0,.3,2c.7,1.5,1.7,2.9,2.5,4.4a29.1,29.1,0,0,1,3.8,12.1c.3,4-.6,7.8-1.4,11.6s-1.5,6.9-2.2,10.4h.3a3.6,3.6,0,0,0,.4-.9,29.4,29.4,0,0,1,3.1-9.5,23.6,23.6,0,0,0,.4-21.2ZM67,381.8l.2.2c.9-1.1,1.9-2.1,2.7-3.3,2.8-4.1,5.4-8.3,8.1-12.5a23.6,23.6,0,0,1,10.4-8.9,87.1,87.1,0,0,1,10.2-3.4,2.2,2.2,0,0,0,1.6-2.1c.2-1.1-.8-1.3-1.5-1.5a6.1,6.1,0,0,0-1.3-.3c-4.6-.7-8.9.3-13.2,1.6-7.4,2.3-11.9,9.1-12.2,16.5a14.5,14.5,0,0,1-.8,3.6,43.7,43.7,0,0,1-5.6,10.7,4.1,4.1,0,0,0-.5.9l.3.3c2.3-3.7,5-7.1,6.8-10.9A45,45,0,0,1,85.4,356c1.5-1.2,3.2-2.1,4.9-3.2.1.3.1.4,0,.5l-.5.3A41.4,41.4,0,0,0,74,370.2c-1.6,2.9-3.3,5.8-5,8.7C68.4,379.9,67.6,380.8,67,381.8Zm283.8-323c.4-1.5,1-3.1,1.3-4.8a13,13,0,0,0,.1-4.4c-.6-3.2-1.4-6.3-2.1-9.5s-4.3-5-7.4-2.7a30,30,0,0,0-4.3,3.7,32.2,32.2,0,0,0-3.8,5.1,2.6,2.6,0,0,0,.1,3.1,3.1,3.1,0,0,0,3.3.8,6.1,6.1,0,0,1,1.8-.5,5.3,5.3,0,0,1,2.5,0,18,18,0,0,1,4.7,3.3C348.5,54.6,349.5,56.8,350.8,58.8Zm-180,342.4c1.8-.1,3.9-.1,6-.4a9.4,9.4,0,0,0,3.2-1.1l8.5-5.2c3-1.9,3.2-5.6.2-7.6a26.7,26.7,0,0,0-5.1-3.1,30.2,30.2,0,0,0-6-2,2.3,2.3,0,0,0-2.8,1.2,7,7,0,0,0,.2,3.2c.1.5.8,1,1,1.5s1,1.8.8,2.6a16.1,16.1,0,0,1-1.6,5.4A46.1,46.1,0,0,1,170.8,401.2Zm81.6-108.6c2.9.6,4.7-.7,6.3-2.5l3.3-3.6a9.2,9.2,0,0,0,2.6-5.7c.1-2.5,0-4.9-1.9-6.9a39,39,0,0,1-3.1-4l-1-1c3.4,8.4,2.2,16.7-2.8,21a15.5,15.5,0,0,1,1.2-2.2c4.7-7.2,4.4-14.6-.6-21.5-2.8-3.8-5.2-7.8-5.8-12.6h-.3a4.3,4.3,0,0,0-.5,1.6,17,17,0,0,0,2.1,10.8c.7,1.2,1.5,2.3,2.2,3.6s2.9,5.5,2.1,8.7a53.4,53.4,0,0,1-1.8,5.2A26.2,26.2,0,0,0,252.4,292.6Zm-61.6-94.9c0-1.3-.1-2.6,0-4s.7-4.4,1.1-6.5a17.9,17.9,0,0,0-.3-8.3,7.6,7.6,0,0,1,.2-4.7,11.4,11.4,0,0,0,.6-4.5c-.2-3.5-1.2-6.8-4.8-8.6-1.3-.6-1.9-.4-2,1.1s-.2,4-.2,6,0,2.9,0,4.3h.2l2.7-5.4a10.9,10.9,0,0,1-1.3,3.4c-2,3.6-3.1,7.5-2.4,11.5A35.3,35.3,0,0,0,190.8,197.7Zm53.3-5.3c-.8,5-2.5,9-7.1,11.2a12.8,12.8,0,0,0-6.8,7.1l-.6,1.7a49.6,49.6,0,0,1,11-5.6,11.5,11.5,0,0,0,5.9-5.2,4.3,4.3,0,0,0,.4-.7.6.6,0,0,1,0,.7c-1.5,3.1-4.2,4.8-7.3,6.1s-5.7,2.9-8.6,4.5a4.3,4.3,0,0,0-1.7,1.6c-.9,1.4-1.6,2.8-3.3,3.4,2,0,4.1.2,5.8-.9a17,17,0,0,1,6.4-2.6,10.5,10.5,0,0,0,5.5-2.4c3.2-2.5,5.3-5.6,4-9.9S245.3,195.4,244.1,192.4Zm-32.8-12.3c2.2-.5,4.4-1.4,6.7-1.5s5.7.1,7.2,3.3a2.8,2.8,0,0,0,3,2.1c1.6-.1,2-1.5,2.4-2.7s.1-.4.2-.6a29.6,29.6,0,0,0-.2-9.4c-.7-4.1-3.8-5.4-7.2-3.1a34.7,34.7,0,0,1-5.7,3.7C214.1,173.7,212.9,177.1,211.3,180.1Zm2.6-64.7a16,16,0,0,0-5.8,4.7,5,5,0,0,0-1.4,3.6,7.3,7.3,0,0,1-.3,3.3c-.8,4.3-1.9,8.6-2.6,12.9s-.3,6.7-.4,10h.4c.5-1.5.9-3,1.5-4.4a20.9,20.9,0,0,0,1.8-8.5,26.5,26.5,0,0,1,2.5-10.4c1.3-3,3-5.8,3.2-9.1h.5a26.3,26.3,0,0,1-.9,4.4c-1.3,3.3-3.4,6.3-4,9.9s-.9,6.2-1.3,9.4a67.7,67.7,0,0,0,4.3-5.4,25.2,25.2,0,0,0,4.4-10.4C216.5,121.9,214.6,118.8,213.9,115.4Zm34.7,140.7a.5.5,0,0,0,.2-.4c1.1-4,3.2-7.2,7.1-8.9a2.8,2.8,0,0,0,1.6-2.9,14.5,14.5,0,0,0-1-4.1c-1.2-3.2-2-6.4-1.3-9.8a7.4,7.4,0,0,0,0-1.5L253,230a21.4,21.4,0,0,0-6.1,9.5,2.8,2.8,0,0,0,1.8,3.8l2.3.8a.8.8,0,0,1-.1.4,25,25,0,0,1-2.5-.9,11.8,11.8,0,0,1-2.2-1.7C244.4,247.9,245.5,253.9,248.6,256.1Zm31.6-48.8.4.2c-2,5.3-5.7,9.5-9.5,12.9l10.2-2a1.1,1.1,0,0,0,.8-.8,24.2,24.2,0,0,0,.3-4.6,86.6,86.6,0,0,0-1.2-8.7,11.2,11.2,0,0,0-1.5-3.8c-.6-1.2-1.2-1.1-1.8.1a32.8,32.8,0,0,0-2,5.2,24.7,24.7,0,0,1-7.5,11.7l-9.7,8.1a34.4,34.4,0,0,0-2.7,2.7l.3.4c1.2-.7,2.6-1.3,3.8-2.1a48,48,0,0,1,4.8-3c6.4-3,10.8-8,14.2-14C279.5,208.9,279.8,208.1,280.2,207.3Zm-93.1-79.4c-.1-3.1-.1-6-.2-8.9a2.5,2.5,0,0,0-.6-1.7c-2.5-3.4-6.4-4.8-10.1-6.4-1.6-.7-3.2.4-3.9,2.1a10.9,10.9,0,0,0,.5,8.5,3,3,0,0,0,2,1.8,20.2,20.2,0,0,1,8.6,4.7l.8.3c-2.1-5.3-6.9-8.9-7.9-14.5a2,2,0,0,1,.5.9c1.5,2.5,2.8,5,4.3,7.5s1.9,2.6,2.6,4,1.2,2.1,3.5,1.6C187.3,127.8,187.3,127.7,187.1,127.9ZM311,196.3c1,1.9,2.2,4.3,3.5,6.6a3.1,3.1,0,0,0,.7.9l6.7,7.7c4,4.4,8.5,7.2,14.8,6.1a47.8,47.8,0,0,1,5.4-.2l2.4.2v-.4l-5.8-2.8c-3.1-1.7-6.2-3.2-9.1-5.1s-6.8-5.1-10.3-7.6S313.5,197.9,311,196.3Zm-58.9,88.5c-2.4.2-4.4.3-6.5.6a10,10,0,0,0-2.9,1c-5.6,3-8.6,8.3-11.8,13.7l1.4-.8a32.8,32.8,0,0,0,13.5-10.1,9.5,9.5,0,0,1,4.4-2.9c-1.5,1.3-3.3,2.4-4.6,4a32.9,32.9,0,0,1-12.2,9c-3.7,1.5-6,4.8-9,7.1a48.4,48.4,0,0,0,14.4-7.1,80.5,80.5,0,0,1,8.3-5.1,5.1,5.1,0,0,0,2.5-2.3,24.9,24.9,0,0,0,1.6-3.3A35.4,35.4,0,0,0,252.1,284.8ZM373.6,442.6l7.7-.6c1.8-.2,2.2-.3,1.8-2s-1.6-5.6-2.5-8.4a6,6,0,0,0-1.8-2.1c-4.3-3.7-9.6-5.6-15.2-7.1,2.1,1.5,4.2,2.7,6,4.2a39.8,39.8,0,0,1,5.2,4.9,17.1,17.1,0,0,1,3.6,5.9c-3.3-6.1-8.3-10.4-14.2-13.8,0,.2.1.3.1.4,3.9,3.4,6.1,7.8,7.5,12.7ZM259,224.4a37.6,37.6,0,0,1-5.3-2.7,26.8,26.8,0,0,0-12.1-4.6,63.3,63.3,0,0,0-8.7-.3,36.6,36.6,0,0,0-5.6,1l-.9.2a12.6,12.6,0,0,0,6.4,3,45.9,45.9,0,0,1,8.3,2.1c3.9,1.6,7.5,3.7,11.2,5.6a1.9,1.9,0,0,0,1.5,0C256.1,228,257,225.6,259,224.4ZM146.5,363.2c.8-.8,1.7-1.6,2.5-2.5l7.6-8.7a42.7,42.7,0,0,0,8.4-13.4c.3-.7.5-1.5.8-2.4l-15.2,5.5C152.1,349.3,149.5,356.3,146.5,363.2ZM251,315.9a4.8,4.8,0,0,0,.4.8,24.5,24.5,0,0,1,8.1,6.9,1.5,1.5,0,0,0,1,.4c2.9.2,5.7-.1,8.1-2.1s2.2-4,.1-5.9a43.3,43.3,0,0,0-4.7-3.8,19.2,19.2,0,0,0-4.1-1.9,1.5,1.5,0,0,0-1.3,0l-8.2,3.1a2.5,2.5,0,0,1,.2,1c.1,1,.6,1.4,1.7,1.4a11.9,11.9,0,0,1,3.2.5c3.4.8,6.7,1.8,10.2,1.7a4.1,4.1,0,0,1,1.1,0,1.2,1.2,0,0,1-.8.4l-8.5-1.2C255.4,316.9,253.4,316.4,251,315.9ZM395.2,123.6h-.4c1.9,7.5,3.6,15,5.6,22.4s6.2,13.8,10.1,20.7a15.8,15.8,0,0,0,.3-2.8c-.4-3.2-.5-6.5-1.4-9.6-2.2-6.8-4.6-13.6-8.7-19.6a29.4,29.4,0,0,1-2.5-4.6C397.1,128.1,396.2,125.8,395.2,123.6ZM116.1,408.2l-7.7,2.3c-10.2,2.9-20.5,5.9-30.3,10.1-2.9,1.2-6.7,4.6-7.7,6.9,15.1-7.1,31.3-10.9,47.1-16.2C117,410.2,116.6,409.2,116.1,408.2Zm9.4-61.6c0-.2.1-.3.1-.4.1-6.1,3.1-10.8,7.3-14.8s6-5.1,9-7.7,4.3-4.6,4.1-8.2c-.1-1.7-.4-1.9-1.9-1.2l-1.1.7c-1.6,1.4-3.3,2.7-4.8,4.2-4,3.8-8.3,7.3-11.2,12.1S123.4,341.2,125.5,346.6Zm159.1-262c-6.5-2.4-10.1-7.4-12.7-13.4-1.3-3.1-2.5-6.3-3.7-9.4s-3.3-5.6-6.7-6.5c-1.3-.3-1.8-.1-1.5,1.2a17.6,17.6,0,0,0,1.2,3.9L266,71a28.8,28.8,0,0,0,6,8.7A14.9,14.9,0,0,0,284.6,84.6Zm48.8,318h.1l7.4,1c2.6.4,5.2,1.2,7.9.5,6.1-1.8,8.5-4.4,9.2-10.1s.9-9.3,4.1-13.1a20.5,20.5,0,0,0-3.8,3.4c-2.1,2.8-4,5.7-6.1,8.5-3.7,4.7-8.3,8-14.4,8.8C336.3,401.9,334.9,402.3,333.4,402.6Zm-221-29.7.3.4c1.8-.4,3.7-.7,5.5-1.2,5.5-1.6,11-3,16.9-1.9-1-5.2-4.3-8.9-6.4-13.5Zm46-19.2c4.8-1.3,8.1.9,11.1,4.2l.3.3,6.2,7.5a6.2,6.2,0,0,0,4.2,2.5,42.1,42.1,0,0,0,5,.1l2.1-.6a20,20,0,0,0-1-2.1l-.8-.9c-1.8-1.7-3.6-3.5-5.6-5.1s-5.6-4.2-8.6-6.2a10.7,10.7,0,0,0-3.5-1.4C164.4,351.1,161.4,352,158.4,353.7ZM301.8,55.6c.3-5.3,3.9-7.7,8.1-9.4l8.8-3.5a10.7,10.7,0,0,0,2.8-1.9c1.8-1.8,2.2-4.2,2.8-6.5.1-.5.1-1.5-.1-1.6a2.8,2.8,0,0,0-1.8,0,5.1,5.1,0,0,0-1.5.7c-2.5,1.3-5,2.5-7.4,4a96.8,96.8,0,0,0-8.2,6.1C301.7,46.7,300.9,50.9,301.8,55.6Zm104,87.3c-.5-2.1-1.2-5.7-1.9-9.3s-1.1-5.8-1.8-8.7c-1.7-6.5-2.8-13.1-1.9-19.8.3-2,.7-4,1-6a14.2,14.2,0,0,1-.8,1.8c-1.4,3.7-3.6,7.1-4.4,11.1s-1.4,9.7,1,14.3c.6,1.4,1.2,2.8,1.9,4.1Zm-72,279.2c-.9,1.7-1.4,3.1-2.2,4.4s-.4,1.3.3,1.8a12.2,12.2,0,0,1,4.7,7.7,43,43,0,0,0,2.5,7.4c1.8,4.2,5.9,6.3,8.9,9.8-1.5-5-3-9.7-4.5-14.3a19.7,19.7,0,0,0-1.9-5.3C339.2,429.8,336.5,426.1,333.8,422.1ZM314,71.2h.1l-1.3,1.4a2.8,2.8,0,0,0-.7.9c-.2,1.8,1.6,5.3,4.7,5.7.4-.7-.2-2.2,1.4-2.2s.4.8.6.8,2.4.9,3.3,2c1.5-1.1,3.8-.4,4.7-2.6l.7-.3c1.3-.5,2.1-2.9,1.2-3.8-.3,1.4-.8,1.5-2,.5l1.5-1.4-1.2-.3c.4-.4.6-.5.6-.6s-.7-1.7-1.1-2.5l1.4-.5-5.1-4.5a3.3,3.3,0,0,0-3.9-.7,6.4,6.4,0,0,1-2,.3l-1.1.2.7,1.2-1.3.3c1.7,1.1-1,1.4-.3,2.5l.5-.4c1.2-.6,1.7-2.4,3.5-2.2s1.2.6,1,1.4a2.5,2.5,0,0,0,.2,1.5c.2.5.2,2.4-.3,2.5a.8.8,0,0,1-.8-.3c-.4-.9-.7-1.8-1.1-2.6l-3.8,1.4,1.1,1.5ZM431.4,98.7l1.8-1.6c1.5-1.2,3-2.5,4.5-3.6s3-2,4.4-3.1a7.9,7.9,0,0,0,3.1-7.4l-.6-4.9a3,3,0,0,0-2.8.7,48.2,48.2,0,0,0-4.4,3.5,16.4,16.4,0,0,0-2.6,3.3C432.7,89.6,432.2,94.1,431.4,98.7Zm-25.7-1.9c4.2,10.2,8.9,20.2,19.6,25.7l-.2-.5c-1.1-2.5-2.5-5-3.4-7.6-2-5.8-5.3-10.7-10.6-14ZM356.1,400.9a17.8,17.8,0,0,0,6.3-5.9c2.9-4.2,5.7-8.5,8.5-12.7a12.8,12.8,0,0,0,1.1-2c.3-.8,0-1.4-1-1.6a8.9,8.9,0,0,0-9.1,3.6c-1.7,2.1-2.3,4.6-2.8,7.1S358.8,397.5,356.1,400.9Zm-173.6-111,.3-.3c-.1-.3-.3-.7-.4-1.1l-1.4-3.3c-3.8-6.9-6.9-14.1-8.2-22.1s-.3-13.1,3.6-18.9a5.1,5.1,0,0,0,.3-1.7l-.3-.2a5,5,0,0,0-1.7,1.1,11.8,11.8,0,0,0-2.3,2.7c-3.2,4.8-4.8,10-3.7,15.8a44,44,0,0,0,5.3,14c2.6,4.2,5,8.6,7.5,12.9C181.7,289.2,182.2,289.5,182.5,289.9Zm63.8-80.1c3.8-2.8,5.8-6.2,5.6-10.8-.3-6.3-2.5-12.1-4.5-18a3,3,0,0,0-.4-.8c-.6-.9-1.2-.9-1.7,0a30.1,30.1,0,0,0-1.9,3.5,7.1,7.1,0,0,0,.2,6.8c1.5,3,2.9,6.1,4.1,9.2s1.5,5.6-.2,8.3A18.6,18.6,0,0,0,246.3,209.8ZM228.5,51.6l-.7.3a6.5,6.5,0,0,0,.2,2c1,3.8,1.6,7.6.8,11.5a39.6,39.6,0,0,1-6.6,14.8c-3,4.2-6.4,8-9.7,12l-2.8,3.5.3.3,1.3-.7,11.3-11.4a36.2,36.2,0,0,0,8.6-12.7c2.2-5.6,1.7-11.3-.9-16.8A16.7,16.7,0,0,0,228.5,51.6ZM67.3,385.8c0,.2.1.3.1.5a5.5,5.5,0,0,0,1.8-.2c2.7-.8,5.4-1.9,8.1-2.5,6.7-1.5,13.2-3.4,18.9-7.3s8.9-10.5,9.1-17.9a6.7,6.7,0,0,0-.5-1.9h-.5a15.4,15.4,0,0,0-.8,1.9c-1.2,4.7-3,9-6.7,12.3a57.6,57.6,0,0,1-22.5,12.6C71.9,383.9,69.6,384.9,67.3,385.8ZM216.4,205l3,2.5a1.3,1.3,0,0,1,.2.9,3.2,3.2,0,0,1-2.4,1.8c-.2,0-.6-.6-.6-.6s.5-1.8-.2-2.7a4,4,0,0,1,0-1.1c-.5-.3-1.1-.4-1.1.5a11.3,11.3,0,0,1,.1,2.6c-.2,1.5,1,2.1,1.8,2.8s.7.3,1.1.5l-1.1.9c.5.2,1.1.2,1.3.5s1.6,1.2,2.3,1.8a5.7,5.7,0,0,0,3.3,1.4c.6,0,1-.1,1-.9a2.6,2.6,0,0,1,.5-1.2,5,5,0,0,0,1.1,1c.2.1.8-.1.8-.1s.5-2.3,0-3-.7-1.4-.2-2.1,1.4-1.4,2.3,0l2.1-4.5c0-.1,0-.4-.1-.5s-1-1.2-1.6-1.3-1.1-.7-.8-1.5v-.4l-1,.4.9,3.4c.1.2-.2.5-.4.7l-2.3,2c-.1.2-.4.2-.6.2s-.1-.5,0-.6,1.1-1.7-.1-2.6a2.3,2.3,0,0,1-.4-1c-.1,0,.4-.3.5-.2l.7.9.5.5.6-1.2.3-.5a.9.9,0,0,0-.5-.4c-1.3.4-1.1-.5-1.1-1.4-1.3.7-3.3-.3-3.6,2-1.9-.3-1.9-.3-1.3-2.2l-1.1.3V202ZM171.7,415.8h0l2.6.9,9.1,2.5a23.2,23.2,0,0,0,13.3.7l3.1-.7c4-.6,4,.1,2.4-4.2-.7-1.9-1.9-2.1-3.7-1.2a11.7,11.7,0,0,1-4.1,1.4,28.2,28.2,0,0,1-6.5.1c-3.6-.2-7.3-.4-10.9,1a7.5,7.5,0,0,1-2.6,0A26.1,26.1,0,0,1,171.7,415.8ZM365.1,62.1l.3.2.9-1.4,5.9-8.5a24.4,24.4,0,0,0,4.1-8.6c.5-2.6.7-5.2,1.1-7.9s.4-2.6-2.2-2.5h-1.3c-2,.2-2.6,1.2-2.3,3.1a11.9,11.9,0,0,1,.1,4.2c-.6,2.5-1.5,4.8-2.3,7.2s-1.8,5.2-2.1,7.8A11.2,11.2,0,0,1,365.1,62.1ZM345,441.5c.7,5.2,3.9,8.5,9,9.3l10.7,1.5h1.6c.9-.1,1.5-.5,1.4-1.5l-.3-3.7c-.1-.9-.5-1.2-1.4-1.2l-7.2.2A21.8,21.8,0,0,1,345,441.5ZM254,221.4c3.4-3.4,1.9-7.5,2.1-11.6l-8.6,1.9-10.8,3.1-3,1C241,216.1,248.1,216.7,254,221.4ZM406.4,93c2.7-1,4.7.3,6.4,1.9,3.3,3.2,7.4,4.6,11.5,6.1s6.7-.9,6.8-5.3c-1,0-2,.2-3,.1-3.2,0-5.9-1.4-8.7-2.8S410.8,91,406.4,93ZM209.5,145.6c-1.8,2.3-3.4,4.2-4.8,6.3a16.9,16.9,0,0,0-2.6,5.2c-1,4.2-1.6,8.5-2.3,12.8l.4.2c1.5-2.4,3.2-4.7,4.6-7.2s1.1-3.1,1.8-4.6,2.4-5.5,5.3-7.1a2.5,2.5,0,0,0,.7-2.1A25.1,25.1,0,0,0,209.5,145.6ZM431.2,95c.4-1.9.9-3.7,1.2-5.2a43.5,43.5,0,0,1-5.1.2,35.4,35.4,0,0,1-4.5-.8c-3.8-1-7.5-1.8-11.4-.8s-4.4,2.3-6.3,4.3h.3l.8-.3c3.4-1.2,6.8-2.3,10.4-1.1s4.4,1.8,6.6,2.7S428.4,95.8,431.2,95ZM165.8,161.6a20.4,20.4,0,0,0-9.7-1.3,6.8,6.8,0,0,0-5.8,8c.3,2.1,1.7,3.6,3.2,5.1a7.1,7.1,0,0,0,1.4,1l1-1.7a1.3,1.3,0,0,0,.1-.6c.5-2.1,1-4.2,1.4-6.3a4.4,4.4,0,0,1,4.2-3.7ZM139.9,375.2c-2.9,2.9-5.5,5.9-6.9,9.6a4.6,4.6,0,0,0-.4,1.9c.3,4.7,2.2,8.7,4.5,12.7l.2-.3c-.6-6.8.8-13.3,3.1-19.6a4.9,4.9,0,0,0,.1-1.2C140.3,377.3,140.1,376.4,139.9,375.2ZM300.7,202.3c.2-3.9.5-8.5.6-13.1a9.3,9.3,0,0,0-.8-4.4,22.6,22.6,0,0,0-2.7-3.6c-1-1.4-2.5-1.7-4.1-2,0,1.6.1,3.1.1,4.7a10.7,10.7,0,0,0,1.7,5.2,30.4,30.4,0,0,1,2.5,4.7C299.1,196.8,299.9,199.9,300.7,202.3ZM149.2,154l8.1-6.2a9.7,9.7,0,0,0-1.5-1c-2.9-1.6-5.8-3.1-8.8-4.5a9.6,9.6,0,0,0-2.9-.8,19.3,19.3,0,0,0,0,3.4A24.7,24.7,0,0,0,149.2,154Zm78.1,190.8a4.3,4.3,0,0,1,.5,1.2c1.9,5.4,1.2,6.4-2.5,8.8l-4.7,3.3c-1.1.9-1.1,1.4.2,1.9l2.9,1a6.2,6.2,0,0,0,7.1-2,6.3,6.3,0,0,0,1.2-6.7A20.3,20.3,0,0,0,227.3,344.8ZM341.6,15.4l.2-.3c-.5-1.2-1-2.5-1.6-3.7a2.6,2.6,0,0,0-2.4-1.9c-2-.1-4.1-.5-6,0-4.9,1.3-7.7,5.2-10.6,8.9l2.2-1.6c2.3-1.8,4.7-2.6,7.7-1.3a6.8,6.8,0,0,0,4,.1C337.3,15,339.4,14.5,341.6,15.4ZM209.1,379.1l2.7-2.2c1.8-1.3,1.9-3,1.6-5.1-1.2-6.5-7.3-9.5-13.7-11.5l2.7,1.9c2.2,1.5,3.6,3.4,3.3,6.4a6.2,6.2,0,0,0,1,3.8C208,374.4,209.3,376.3,209.1,379.1Zm-35.4-53.3a9.4,9.4,0,0,1,6.6-.5l3.8,1.3c3.3,1.2,6,.4,8.5-1.9s2.8-2,4.2-3c-1.5-1.5-3.6-1.4-5.7-1.1l-8.3,1.1A15.3,15.3,0,0,0,173.7,325.8ZM283.6,9.1a4,4,0,0,0-2.2,2.8c-.6,2-.9,4.1-1.3,6.1s-1,5.4-1.3,8.1a11.6,11.6,0,0,0,1.1,5.7,37.5,37.5,0,0,1,1.5-5.2,14,14,0,0,1,2.5-3.5c2.5-2.9,2.7-6,1.1-9.5A29.6,29.6,0,0,1,283.6,9.1Zm229.5,98.4a27.7,27.7,0,0,1,2.5,2.4c1,1.2,2.2,1.1,3.5.8l7.9-1.9,1.4-.3c-1.4-3-2.6-5.9-4.1-8.8s-2.1-2.5-4-1.6c.5,2,1.1,4,1.6,6s.1,2-1.5,2.3ZM257.3,171.8h.4c-.1-2.8,0-5.7-.3-8.5a10.1,10.1,0,0,0-4.2-7.3c-2.5-1.9-5.3-1.7-7.7.6a7.1,7.1,0,0,1,3.8,3.8,6.4,6.4,0,0,0,3.8,3.4,5.2,5.2,0,0,1,3.4,3.9C256.8,169.1,257.1,170.4,257.3,171.8Zm16.3,37.8-5.5.8c-.4,0-.8.4-1.1.7l-5.4,7c-1.2,1.6-2.3,3.3-3.5,5,1.1.8,1.8.7,2.6,0l8.2-7A18.5,18.5,0,0,0,273.6,209.6Zm60.3,195.2a.2.2,0,0,1-.2.2l-2.5-.6a2.8,2.8,0,0,0-3.1,1.5,7.8,7.8,0,0,0-.8,5.2c.1.8.4,1,1.2.9l4.7-.4a19.2,19.2,0,0,0,4-.9c1.6-.6,1.9-1.9.6-3.1A27.6,27.6,0,0,0,333.9,404.8ZM470,92.3a20.7,20.7,0,0,0,.4-2.2h-.7c-7.7-1.5-15.4-1.7-23.2-1.8-1.8,0-2.4,1-3.1,2.2C452.4,90.1,461.2,91.2,470,92.3ZM134.1,370.5c-3.2-.1-6.2-.3-9.2.4s-7.1,2.1-10.8,2.5-3.8,2-5.3,3.8c.3,0,.4.1.5,0a81.8,81.8,0,0,1,20.1-3.7l1-.3ZM288.8,189.8l-3.9,2.3a19.7,19.7,0,0,0-3.8,2.6,4.9,4.9,0,0,0-1.3,4.6c.3,1.5,1.4,2.7,2.3,4.2.9-1.6,1.9-3.1,2.8-4.5l3.5-5.5A4.1,4.1,0,0,0,288.8,189.8Zm151-53.4c.1,0,.2.3.4.5a19.8,19.8,0,0,1,3.3,8.4c.3,1.8.6,2,2.4,1.9a8.6,8.6,0,0,0,1.7-.3c1-.1,1.4-.7,1.3-1.7s-.7-4.4-1.1-6.6c0-.3-.5-.6-.8-.7ZM141.2,370.7a5.3,5.3,0,0,0-6.8,2.3,18.8,18.8,0,0,0-2.2,8.1c-.1,1.2,0,2.4,0,3.6h.4a30.6,30.6,0,0,1,7-10,2.2,2.2,0,0,0,.5-.8C140.4,372.9,140.8,371.8,141.2,370.7Zm74.7-61.9c9.2-1,14-7.7,18.2-15a2.2,2.2,0,0,0-.9.7,32.2,32.2,0,0,1-9.8,7.7,18,18,0,0,0-3.9,2.9A41.7,41.7,0,0,0,215.9,308.8Zm50.3-98.4a9.7,9.7,0,0,1-2.4-.2,2,2,0,0,0-2.2,1l-4.3,6.2-2.7,4.3a11.7,11.7,0,0,0,2.3,1.1,1.1,1.1,0,0,0,1.1-.3C260.7,218.5,263.5,214.5,266.2,210.4ZM167.7,332a56.3,56.3,0,0,0-16.4,6.8c-1.1.7-1,1.3-.6,2.4l14.3-5.3c.4-.2,1-.4,1.2-.8ZM205.8,98.4a30.2,30.2,0,0,1-.6,4.6,43.1,43.1,0,0,1-2.2,6c-.8,1.5-.3,2.4.8,3.5,1.2-3,2.1-5.9,3.4-8.6s3.2-5.1,4.8-7.6l-.3-.3Zm87,79.8-9.4,9.5a39.2,39.2,0,0,0,4.1.7,1,1,0,0,0,1-.4c1-.9,1.8-2,2.8-2.8S293.2,180.9,292.8,178.2ZM186.2,293.4l-5.4-4-.5.4c1.9,4.4,3.5,9,3.6,14.3a19.9,19.9,0,0,0,1.6-2.4,1.5,1.5,0,0,0,.3-1.4A8.7,8.7,0,0,1,186.2,293.4Zm20.9,23.9-9.1,4.2a.8.8,0,0,0-.4.6c-.1.9-.1,1.7-.2,2.7l8.1-3.6.4-.4C206.3,319.7,206.6,318.6,207.1,317.3Zm5-181.4c-3.8,3.8-8.1,12.1-7.8,15.3,1.9-2.4,4-4.6,4.8-7.7A79.8,79.8,0,0,1,212.1,135.9ZM60,392.2l8.7-4.7v-.4l-5.8-.6c-.3,0-.9.2-1,.5S59.6,390.2,60,392.2Zm280.1,54.2c1.4,5.1,5,8.2,9.3,10.9C347.9,452.2,343,450.2,340.1,446.4ZM190.7,285l-.5-.3-3.3,4.3-2.3,2.5,2.1,1.7C187.9,290.2,190.3,288.1,190.7,285ZM65.4,377.2l-.7-.2c-1.7,2.7-1.7,5.8-2.7,8.8h2.5ZM204,89l-.7.2c-.3,3.1,1.3,5.8,1.9,8.9l2.3-1.1-1.4-2.8C205.3,92.5,204.7,90.8,204,89Zm52.7,121,.3,6.9c1.6-2.2,3.5-4.1,2.3-7ZM171.3,326.7l-9.5,6.4a43.5,43.5,0,0,0,6.1-2,1.6,1.6,0,0,0,.8-.6ZM257,179.6l-4.1,9.4,3.2-2.5a1.6,1.6,0,0,0,.4-.7C256.7,183.8,256.8,181.8,257,179.6Zm-11.7,62.5-5.7-1.9-.2.4,5.3,3.8C245,243.3,245.1,242.6,245.3,242.1Zm-49-68.6c.9,1.5,1.7,2.9,2.7,4.4-.2-2-.4-3.8-.5-5.7ZM260,209.9c0,.9.1,1.5.1,2.5l1.8-2.4Z" fill="url(#bde71681-dc52-494e-be9b-38dc7a388bde)"/><path d="M262.4,226.4a55.8,55.8,0,0,1,5.8-1.8c5-1,9.9-1.9,15-1a35.2,35.2,0,0,1,11.4,4,10,10,0,0,1,2,1.6c-1.6-.9-3.2-1.8-4.9-2.6A30.8,30.8,0,0,0,274,224c-3.9.7-7.7,1.7-11.6,2.5Z" fill="url(#a87f387c-a536-4352-b096-2a74036310b6)"/><path d="M329.1,71.7c2-1.4,4.1-2.7,5.9-4.2A25.4,25.4,0,0,0,342.8,57l.3-.6h.3l-1.1,2.7a28.7,28.7,0,0,1-12.2,12.2,3.8,3.8,0,0,1-1,.3Z" fill="url(#a9dc5e7a-4e91-4e0f-b7c9-908055d8b1e3)"/><path d="M176,161.1a40.5,40.5,0,0,0-3.4-2.3,27.8,27.8,0,0,0-10.3-4.8c-6.1-1.1-9.1-.3-12.7,4.1.4-1.6,3-3.8,5.1-4.4a16,16,0,0,1,8.4.1c4.9,1.2,9,3.9,12.8,7.1.1,0,.1.1.1.2Z" fill="url(#bfe33345-2b5c-478a-8d86-f348e29fdc47)"/><path d="M216.7,200c-1.5-5.7-1.4-11.2,1.1-16.5A29.9,29.9,0,0,0,216.7,200Z" fill="url(#f09276fd-013f-432f-95c8-d821bc9c8d5e)"/><path d="M142.5,376.6c1.1-1.3,1.9-.2,2.7.3s-.1,1.3-.1,2l-.6.2a3.6,3.6,0,0,1-.4-1.1l-1.6-1.5Z" fill="url(#b88e7007-6627-4ccc-887c-11969de10c54)"/><path d="M148,376.3l-2.8-1c.3-.5.5-1.1.9-1.7s.3-.4.4-.4.6.3.6.4,0,1.4.8,1.6a3.1,3.1,0,0,1,.1,1.1Z" fill="url(#a914d67e-ad33-4970-9bd5-3992e9d55cc0)"/><path d="M144.9,369.9a12.7,12.7,0,0,0-.7,1.2c.7,1,.7,1.6-.2,1.8s-.9-.5-.9-.5S143.1,370.1,144.9,369.9Z" fill="url(#e3473c0b-9696-4317-a276-733c4e7694de)"/><path d="M154.3,377.7c1.4-.3,1.4-.3,1.7,1.2-1-.5-1.8-.8-2.6-1.3s-.4-.6-.5-1,.5-.3.7-.4l.5,1.1C154.2,377.5,154.2,377.6,154.3,377.7Z" fill="url(#be7f6e36-3701-45c1-be22-9c34ca326acd)"/><path d="M155.9,373.7l-2.3.9c-.2,0-.5-.6-.8-.9l2.2-.7Z" fill="url(#a44558ce-7b9f-4aed-b2fb-fe546d548bed)"/><path d="M152.3,382.1l-1.1.7a14.2,14.2,0,0,1-.8-1.8c.3-.1.9-.5,1.1-.4A10.2,10.2,0,0,1,152.3,382.1Z" fill="url(#b54a9dc1-ffb8-483f-9a39-46f2add3590b)"/><path d="M147.1,381.4c-2.1.6-2.6.1-2.1-1.9Z" fill="url(#aa4c9113-2b26-4ce2-94ff-5779dd9d3768)"/><path d="M151.6,375.1l.9,1.5-1,.2a4.4,4.4,0,0,1-.5-1.5Z" fill="url(#f8e457cc-f1ae-42d0-a3c2-9c4b3116ffc4)"/><path d="M147.2,380.9l-.7-1.8.7-.3.7,1.8Z" fill="url(#fe5bb2f3-0d68-4894-a0f3-8fa5ed09db9d)"/><path d="M148,376.3a7.7,7.7,0,0,0-.2,1.5l-1.6-1,1.8-.5Z" fill="url(#edf1e716-8d97-46a9-95a6-c447fede12e7)"/><path d="M324.8,72.4c-.3.1-.7,0-.9.2s-1.7.7-2-.9l-1.9.5v-.4l.7-.4a4.5,4.5,0,0,0-.1-1.2c1.5.1,2.2,1.9,3.8,1.3s.6.5.9.8Z" fill="url(#a3d0cd72-a1ac-4bc3-9add-43ad8d014545)"/><path d="M320.2,73.6h-2.3c-.2,0-.6-.5-.6-.9s0-2.1-1.3-2.5a.8.8,0,0,1-.1-.7c0-.1.5-.3.6-.2a3.6,3.6,0,0,1,1,1.4,1.9,1.9,0,0,0,1.6,1.5c.5.1.9.8,1.4,1.2Z" fill="url(#e5163cea-40c6-466f-ad43-f3663bff59c8)"/><path d="M324.2,68.3h-1.4c.4.5.8.7,1,1.1s.2.5.3.8-.7.4-1,.3l-1.6-.9c.1-.7,1-1.1.7-2.1S323.2,67,324.2,68.3Z" fill="url(#bb5d6b70-c588-4c38-a85e-832109f5eeed)"/><path d="M320.4,77.8l1.1-2.4c.3.2.8.5.8.7a2.7,2.7,0,0,1-.1,1.6C322,78,321.2,77.8,320.4,77.8Z" fill="url(#beade8a7-8c6e-4e65-aedd-0c91582b8ae2)"/><path d="M324.8,72.4h.4c.3-1.1.9-1,1.5-.3a.9.9,0,0,1-.4.9,14.6,14.6,0,0,1-1.7.4A3.7,3.7,0,0,0,324.8,72.4Z" fill="url(#b7350d3d-bd74-4eb8-817d-68b1846f9217)"/><path d="M315.7,73.2l.8-.6c.1.3.1.7.2,1v.5a2.9,2.9,0,0,1,.2.9c-.1.1-.5.3-.6.2s-.5-.4-.6-.7A5.6,5.6,0,0,1,315.7,73.2Z" fill="url(#ab5fafab-1cf4-407d-ae51-ca1cdd8576b1)"/><path d="M323.9,77.9l-.4-1.1,2-.7s.3.6.2.6Z" fill="url(#fa033e8f-92e5-4281-8880-ef10a0b79c03)"/><path d="M317.9,76c.9-.7,1.6-.5,2,.2s-.2.5-.4.7Z" fill="url(#ec378b14-9a4f-4cfc-b10e-e089c89a3351)"/><path d="M317.4,75.7c.1.3.3.8.2.8a2.1,2.1,0,0,1-1.1.4c-.1,0-.4-.6-.4-.7a4.3,4.3,0,0,1,.9-1Z" fill="url(#f2c727e4-5995-4cb6-8212-e864bb99e439)"/><path d="M224.2,209.7l2,.6-1,2.1c1.9-.1,1.5.8,1.3,1.4s-1.3.6-1.8.5a9.5,9.5,0,0,1-2-.6l1.6-1.7c.9-.8.4-1.4-.4-2.1Z" fill="url(#b3d3bac6-2f51-4c59-ad9b-8a405bfa32c8)"/><path d="M219.9,211.8l3.1-.8-.6.8a2.7,2.7,0,0,1-.7.8,7.6,7.6,0,0,1-1.1,1.4c-.2-.2-.6-.4-.7-.7A7.4,7.4,0,0,1,219.9,211.8Z" fill="url(#b36b5ee3-e47e-4e39-8426-f41dda8003ca)"/><path d="M223.4,208.8c0-1,.1-1.9.1-2.7,2,.5,2.1.6,1.6,2.6h-1.7Z" fill="url(#a7329d5a-fb3a-4e21-a573-95bd7cb0f643)"/><path d="M222.6,205.6c.1.8.3,1.3.3,1.7l-.7.4a3.1,3.1,0,0,1-.5-1.2C221.6,206.3,222.1,206.1,222.6,205.6Z" fill="url(#bab49b40-6525-4cfc-8472-f5c97a8ff916)"/></g></g></g></g></svg>
