<svg xmlns="http://www.w3.org/2000/svg" xmlns:xlink="http://www.w3.org/1999/xlink" viewBox="0 0 464 163"><defs><linearGradient id="a60c91e3-511b-4b78-a241-8ca17facebd3" x1="20.27" y1="145.6" x2="390.72" y2="-55.36" gradientUnits="userSpaceOnUse"><stop offset="0.04" stop-color="#c1b081"/><stop offset="0.09" stop-color="#896e42"/><stop offset="0.17" stop-color="#d8aa2c"/><stop offset="0.22" stop-color="#f1cb61"/><stop offset="0.43" stop-color="#e6cda1"/><stop offset="0.65" stop-color="#c7960f"/><stop offset="0.86" stop-color="#a08b5e"/><stop offset="1" stop-color="#775a2e"/></linearGradient></defs><title>4</title><g style="isolation:isolate"><g id="a469e8d1-c7cb-46d8-a1d3-d62c18701386" data-name="Layer 2"><g id="f9681666-3113-47e9-bfaf-d4f0432be8bc" data-name="OBJECTS"><path d="M68.6,8.6C43.7,12,22.1,30,13,53.2S8,109.4,34.4,119c13.5,4.9,28.6,3,41.8-1.7s25.8-12.6,37.5-20.7S138.6,78.9,152,71.4a222.3,222.3,0,0,1,46.3-19.7c15.4-4.4,33-5.6,46.2,5,5.1,4.1,9.2,9.7,10.4,16.2,1.6,8.2-1.5,16.3-5.8,23-8,12.4-19.9,22.6-32.5,30a107.7,107.7,0,0,1-20.2,9.1,79.2,79.2,0,0,1-10.6,2.9c-3.6.8-7.6,1.9-11.2,1.5-5.9-.6-5.2-6.3-3-10.2a52.6,52.6,0,0,1,6.4-8.5A119.2,119.2,0,0,1,192.6,106,151.1,151.1,0,0,1,228,83.4,190.5,190.5,0,0,1,268.5,70c7-1.5,14.2-2.7,21.4-3.5s13.6-1.6,20.2,0a15,15,0,0,1,8.3,4.6c2.8,3.3,3.3,7.8,2.4,12a26.2,26.2,0,0,1-5.9,10.5c-2.6,2.8-5.6,6-8.9,8s-4.6,2.2-6.5.5-1.3-4.1-.7-6a32.7,32.7,0,0,1,6-9.7,59.8,59.8,0,0,1,16.7-13.7c14.4-8.2,30.9-11.3,46.8-15.4s33.1-9.4,49.3-15.2c8-2.9,16-6.1,23.8-9.4.5-.2.3-1-.2-.8-16.9,7-34.2,13.2-51.7,18.5-8.8,2.7-17.7,5.1-26.6,7.3s-17,4.1-25.3,6.9c-13.9,4.8-27.7,12.3-36.1,24.7-2.2,3.3-7.6,12.4-1,14.4,2.8.8,5.7-.9,7.7-2.5a56.3,56.3,0,0,0,8.5-8.4c4.2-5.2,7.1-12.4,4.4-18.9s-8.2-8.1-13.9-8.8-14.3.1-21.3,1a215.6,215.6,0,0,0-21.3,3.8C236.4,76.5,209,89.1,187.7,109a125.2,125.2,0,0,0-14.2,15.8c-2.9,3.7-8,11.9-1.4,15,2.8,1.3,6.3.5,9.2,0a111.3,111.3,0,0,0,11.1-2.6,105.7,105.7,0,0,0,20.7-8.4A102.5,102.5,0,0,0,247,100.3c4.5-6,8.4-12.9,9-20.5a25.9,25.9,0,0,0-5.4-18c-9.1-12-24.5-15.5-38.9-13.7-8.7,1-17.2,3.7-25.5,6.7a243.7,243.7,0,0,0-23.5,10c-14.8,7.3-28.5,16.3-42,25.7s-25.8,18.2-40.3,24.2-30.9,8.7-45.7,3.4S11.1,98.2,9.5,82.7c-3-28.1,14.9-55.8,39.8-67.9a65.6,65.6,0,0,1,19.3-6c.2,0,.1-.2,0-.2Z" fill="url(#a60c91e3-511b-4b78-a241-8ca17facebd3)"/></g></g></g></svg>
