<svg xmlns="http://www.w3.org/2000/svg" xmlns:xlink="http://www.w3.org/1999/xlink" viewBox="0 0 414 444"><defs><linearGradient id="afb1b949-a130-4cc1-beb4-3cf1855f1ef6" x1="10.93" y1="426" x2="378.59" y2="67.51" gradientUnits="userSpaceOnUse"><stop offset="0.04" stop-color="#c1b081"/><stop offset="0.09" stop-color="#896e42"/><stop offset="0.17" stop-color="#d8aa2c"/><stop offset="0.22" stop-color="#f1cb61"/><stop offset="0.43" stop-color="#e6cda1"/><stop offset="0.65" stop-color="#c7960f"/><stop offset="0.86" stop-color="#a08b5e"/><stop offset="1" stop-color="#775a2e"/></linearGradient><linearGradient id="aeb518d0-9220-4d8a-afc2-e762c87883b8" x1="-16.58" y1="397.57" x2="351.07" y2="39.08" gradientTransform="translate(-80.8 288.5) rotate(-50.8)" xlink:href="#afb1b949-a130-4cc1-beb4-3cf1855f1ef6"/><linearGradient id="be9ea431-4a98-45e7-8968-c538104dbecc" x1="-106.81" y1="305.04" x2="260.84" y2="-53.45" gradientTransform="translate(-80.8 288.5) rotate(-50.8)" xlink:href="#afb1b949-a130-4cc1-beb4-3cf1855f1ef6"/><linearGradient id="e0976dda-a82d-4ceb-bf25-7c24c0e47fdd" x1="-58.58" y1="354.5" x2="309.07" y2="-3.99" gradientTransform="translate(-80.8 288.5) rotate(-50.8)" xlink:href="#afb1b949-a130-4cc1-beb4-3cf1855f1ef6"/><linearGradient id="a65075e5-2073-4485-94a9-b0b62c9cab36" x1="-37.8" y1="375.8" x2="329.84" y2="17.32" gradientTransform="translate(-80.8 288.5) rotate(-50.8)" xlink:href="#afb1b949-a130-4cc1-beb4-3cf1855f1ef6"/><linearGradient id="ec64e208-c7a1-4a9d-93b2-2cd5be079c18" x1="65.13" y1="481.39" x2="432.79" y2="122.89" gradientTransform="translate(-80.8 288.5) rotate(-50.8)" xlink:href="#afb1b949-a130-4cc1-beb4-3cf1855f1ef6"/><linearGradient id="bd57ddad-2a6c-4c93-9c1e-cba1aaa410b9" x1="63.62" y1="479.83" x2="431.28" y2="121.34" gradientTransform="translate(-80.8 288.5) rotate(-50.8)" xlink:href="#afb1b949-a130-4cc1-beb4-3cf1855f1ef6"/><linearGradient id="eea506bd-3cbc-40b3-b38a-15fd813a2340" x1="61.67" y1="477.84" x2="429.34" y2="119.34" gradientTransform="translate(-80.8 288.5) rotate(-50.8)" xlink:href="#afb1b949-a130-4cc1-beb4-3cf1855f1ef6"/><linearGradient id="b757073c-6fdc-44c1-a844-50a13813b563" x1="65.39" y1="481.66" x2="433.06" y2="123.15" gradientTransform="translate(-80.8 288.5) rotate(-50.8)" xlink:href="#afb1b949-a130-4cc1-beb4-3cf1855f1ef6"/><linearGradient id="bc246824-f07c-48b0-9f91-7f8729305322" x1="63.29" y1="479.48" x2="430.94" y2="121" gradientTransform="translate(-80.8 288.5) rotate(-50.8)" xlink:href="#afb1b949-a130-4cc1-beb4-3cf1855f1ef6"/><linearGradient id="f41c95b4-17cf-4b4e-8237-2818bed453cd" x1="67.66" y1="483.96" x2="435.3" y2="125.48" gradientTransform="translate(-80.8 288.5) rotate(-50.8)" xlink:href="#afb1b949-a130-4cc1-beb4-3cf1855f1ef6"/><linearGradient id="fe22d095-ba44-4e16-8b6b-2d4e1c981723" x1="66.86" y1="483.15" x2="434.51" y2="124.66" gradientTransform="translate(-80.8 288.5) rotate(-50.8)" xlink:href="#afb1b949-a130-4cc1-beb4-3cf1855f1ef6"/><linearGradient id="b28f827d-ae6e-4a91-80db-4f261bd114d6" x1="64.42" y1="480.66" x2="432.09" y2="122.16" gradientTransform="translate(-80.8 288.5) rotate(-50.8)" xlink:href="#afb1b949-a130-4cc1-beb4-3cf1855f1ef6"/><linearGradient id="eee1a5ba-34f4-4882-b032-2472ee48ad50" x1="66.5" y1="482.77" x2="434.15" y2="124.29" gradientTransform="translate(-80.8 288.5) rotate(-50.8)" xlink:href="#afb1b949-a130-4cc1-beb4-3cf1855f1ef6"/><linearGradient id="be2460a0-2f42-4051-80d0-52f1cfc67626" x1="64.94" y1="481.17" x2="432.58" y2="122.69" gradientTransform="translate(-80.8 288.5) rotate(-50.8)" xlink:href="#afb1b949-a130-4cc1-beb4-3cf1855f1ef6"/><linearGradient id="ae9fd9db-2a07-4bc2-9bc1-3d3387e25984" x1="-102.87" y1="309.09" x2="264.79" y2="-49.41" gradientTransform="translate(-80.8 288.5) rotate(-50.8)" xlink:href="#afb1b949-a130-4cc1-beb4-3cf1855f1ef6"/><linearGradient id="b171e737-724c-4104-8dce-cb0df8156ba8" x1="-103.13" y1="308.81" x2="264.52" y2="-49.68" gradientTransform="translate(-80.8 288.5) rotate(-50.8)" xlink:href="#afb1b949-a130-4cc1-beb4-3cf1855f1ef6"/><linearGradient id="f28def5d-c34f-4ad8-9f92-911b258ffbbe" x1="-104.41" y1="307.5" x2="263.24" y2="-50.98" gradientTransform="translate(-80.8 288.5) rotate(-50.8)" xlink:href="#afb1b949-a130-4cc1-beb4-3cf1855f1ef6"/><linearGradient id="ee4a581e-31e0-4d4d-98bb-c669a8296f72" x1="-100.07" y1="311.94" x2="267.57" y2="-46.54" gradientTransform="translate(-80.8 288.5) rotate(-50.8)" xlink:href="#afb1b949-a130-4cc1-beb4-3cf1855f1ef6"/><linearGradient id="a173cd92-25b8-4e59-bfdf-597f87d3b186" x1="-102.38" y1="309.57" x2="265.27" y2="-48.91" gradientTransform="translate(-80.8 288.5) rotate(-50.8)" xlink:href="#afb1b949-a130-4cc1-beb4-3cf1855f1ef6"/><linearGradient id="be089dc2-febb-4972-89aa-def3ebc58bb4" x1="-101.74" y1="310.25" x2="265.92" y2="-48.24" gradientTransform="translate(-80.8 288.5) rotate(-50.8)" xlink:href="#afb1b949-a130-4cc1-beb4-3cf1855f1ef6"/><linearGradient id="ec138dd3-f9fe-4c15-a5a4-058779e61756" x1="-99.8" y1="312.22" x2="267.85" y2="-46.26" gradientTransform="translate(-80.8 288.5) rotate(-50.8)" xlink:href="#afb1b949-a130-4cc1-beb4-3cf1855f1ef6"/><linearGradient id="a9287f92-466e-4879-8ed6-225cf9434025" x1="-100.36" y1="311.67" x2="267.3" y2="-46.83" gradientTransform="translate(-80.8 288.5) rotate(-50.8)" xlink:href="#afb1b949-a130-4cc1-beb4-3cf1855f1ef6"/><linearGradient id="a03d81ac-c0c5-4da0-9058-e7695af75bfe" x1="-100.52" y1="311.51" x2="267.15" y2="-46.99" gradientTransform="translate(-80.8 288.5) rotate(-50.8)" xlink:href="#afb1b949-a130-4cc1-beb4-3cf1855f1ef6"/><linearGradient id="a550ec3b-0cfd-414a-af85-4c5fc0f00404" x1="-26.19" y1="387.72" x2="341.46" y2="29.23" gradientTransform="translate(-80.8 288.5) rotate(-50.8)" xlink:href="#afb1b949-a130-4cc1-beb4-3cf1855f1ef6"/><linearGradient id="b32bff27-7ed2-4eca-9bfe-708d43e83859" x1="-25.98" y1="387.94" x2="341.68" y2="29.45" gradientTransform="translate(-80.8 288.5) rotate(-50.8)" xlink:href="#afb1b949-a130-4cc1-beb4-3cf1855f1ef6"/><linearGradient id="b587a380-b9e9-4484-9a4d-0a73636d2a3d" x1="-28.78" y1="385.05" x2="338.86" y2="26.57" gradientTransform="translate(-80.8 288.5) rotate(-50.8)" xlink:href="#afb1b949-a130-4cc1-beb4-3cf1855f1ef6"/><linearGradient id="aafa8396-0fd7-4759-aa44-601f87f39e8d" x1="-29.26" y1="384.58" x2="338.4" y2="26.09" gradientTransform="translate(-80.8 288.5) rotate(-50.8)" xlink:href="#afb1b949-a130-4cc1-beb4-3cf1855f1ef6"/></defs><title>5</title><g style="isolation:isolate"><g id="b793d8af-c00f-48d5-aeca-9192e9cc9025" data-name="Layer 2"><g id="e23853c6-457b-4a6f-aab8-15fb90fb097c" data-name="OBJECTS"><g id="ea94da83-4f78-4e8d-99fa-9ff9d88cd663" data-name="L0i43u.tif"><path d="M96.2,153c-1.4-1.8-3-3.6-4.2-5.5a176.5,176.5,0,0,1-16.7-31.2l-.9-2a14.7,14.7,0,0,0-3-4.9c-2.6-2.7-2.8-6.3-2.3-9.8s.8-4.9,1.2-7.3a7.5,7.5,0,0,0-.2-2.1,2.3,2.3,0,0,0-1.8-2c-3.8-1-5.7-3.9-7.8-6.8a3.1,3.1,0,0,1-.4-1.7c0-.7.2-1.2,1.1-.9a3.2,3.2,0,0,0,1.7-.1,6.4,6.4,0,0,1,5.4.1,1.3,1.3,0,0,0,.1-.5,103.9,103.9,0,0,1,.4-20.1.8.8,0,0,0-.3-.8c-3.5-2.4-5-6-5.6-9.9s-1-9.7-1.3-14.6,1.2-11.1,2.8-16.4a28.8,28.8,0,0,1,3.8-7.9c.4-.7.7-.8,1.4-.2a16.6,16.6,0,0,1,3.9,6.8c2.2-2.4,5.3-3.3,7.9-5,.5-.3,1-.3,1.2.4.7,3,1.5,5.9,2.3,9.1l.8-.9c1.1-1.2,2.6-1.3,4.1-1.2a1,1,0,0,1,.7.6,20.7,20.7,0,0,1,1,4.3,32.7,32.7,0,0,1-1.8,15.2,31.3,31.3,0,0,1-6,9.9,19.4,19.4,0,0,0-4.4,5.8c-1.4,2.6-4,3.8-6.7,4.7-.7.1-1,.4-1,1.1a116.8,116.8,0,0,0-.7,20.5,3.5,3.5,0,0,0,.6,1.7,34.5,34.5,0,0,0,3.1,3.8l.9-11.1a5.9,5.9,0,0,1,.2-1.3,17.1,17.1,0,0,1,9.7-11.6c2-.9,4-1.7,5.9-2.7s2.6-1.6,4-2.3,1.4-.5,1.6.8.3,3.2.4,4.7a6.3,6.3,0,0,1-.3,1.9,39.7,39.7,0,0,1,4.8-.7c2.1-.1,4.1-.1,6.2,0s1.3.5,1,1.3-1.5,4.1-2.2,6.2l1.6.4c.9.1,1.3.4.9,1.4a8,8,0,0,0-.5,2.1l5.2-1c1.8-.3,2.1,0,2.5,1.7a18.5,18.5,0,0,1,.3,2.7,28,28,0,0,0,4.1-1.3c.9-.4,1.2-.2,1.4.6,1.4,5.7,1.4,11.3-1.1,16.8-1.1,2.3-1.5,4.9-2.2,7.4a5.8,5.8,0,0,1-1,2.1l-4.7,4.5-.8.7h.4c3.6-1.2,7.1-2.6,10.8-3.7a73.9,73.9,0,0,1,8.2-1.4,7,7,0,0,1,1.7.6l-1.2,1.1c-4.6,3-9.1,6.1-14.3,7.8s-12.3,3.7-18.5,5.5c-3.3.9-6.6.4-9.8-.4s-7.1-2.2-10.7-3.3l-1.1-.4c8.6,22.5,22.9,40.8,41.1,56.3a33.7,33.7,0,0,0,1.6-5.8,15.7,15.7,0,0,0-.5-4.8c-.3-1.6-.9-3.2-1.2-4.8s.2-2.8,2.3-2.5,4.1.5,6.1.9,6.3,1.5,8.1,5.1c.8-2,1.4-3.7,2.2-5.4s3.1-6.2,4.8-9.2a14.6,14.6,0,0,1,2.1-2.8,1.3,1.3,0,0,1,2-.3,16.9,16.9,0,0,1,5,5.3c.8-.9,1.4-1.8,2.2-2.6s2-1.1,3,.2c2.1,3,4.1,6.1,6.1,9.2a11,11,0,0,1,1.1,5.7,6.6,6.6,0,0,0,.1,1.4h.2c.4-1.9,1-3.9,1.3-5.8a28.8,28.8,0,0,0,.2-4.1,14.1,14.1,0,0,1,1.5-6.1c.2-.5.7-.7,1.1-1.1a3.5,3.5,0,0,1,.8,1.3c.9,3.5,1.8,7.1,2.4,10.7a11.2,11.2,0,0,1-.2,4.8c-.7,3.1-1.7,6.2-2.5,9.3,3.9-4.4,5.1-10.2,8.1-15.3,0,.3.1.6.1,1,.2,2.9.5,5.9.6,8.8.3,4.4-1.9,7.7-4.9,10.6l-4.8,4.3-.6.8,10.9-3.1c1.5-.4,1.6-.3,1.4,1.2-.8,4.2-2.2,7.9-5.5,10.8a16.2,16.2,0,0,1-7.4,3.7,28.7,28.7,0,0,0-11.5,4.6,22.2,22.2,0,0,1-3.8,1.8l3.8,3.1c1.9-1.1,3.6-.6,5.3.4l7.4,4.4a1.7,1.7,0,0,0,1,.1l4.2-.7c2-.3,4.1-.9,6.2.1,0-1.7,0-3.1.1-4.6a14.2,14.2,0,0,1,4.4-10,45.9,45.9,0,0,1,4.1-3.6,7,7,0,0,1,5.8-1c.9.1.6.8.6,1.3s-.1,3.8-.2,5.4q2.9-3.1,5.7-6.6c1.3-1.4,2.4-2.9,3.7-4.2s2.3-1.3,3.2.4,1.4,3.1,2.2,4.8c1.8-.4,2.7,1,3.5,2.6a15.3,15.3,0,0,0,1.7,2.7c.1.2.5.3.7.4a6.1,6.1,0,0,0,.7,1.4,15.6,15.6,0,0,1,3.7,11.1,9.1,9.1,0,0,1-.1,1.7h.4l2.4-10.8a3.8,3.8,0,0,1-.1,1.5q-1.1,5.1-2.4,9.9a18.5,18.5,0,0,1-4.6,8c-.8.9-1.7,1.8-2.5,2.8a11.6,11.6,0,0,0-2.5,4.8,23.9,23.9,0,0,0,4.1-2.6c3-2.8,5.9-5.7,8.7-8.6s2.9-3.4,3-5.6c.1-4.7.3-9.3-1.1-13.9-.2-.8-.6-1.1-1.3-1.1-2.8,0-5.6-.3-8,1.3h-.5a8.5,8.5,0,0,1,5.1-1.8h3.3a1.8,1.8,0,0,1,1.9,1.4,28.9,28.9,0,0,1,1.1,8.7c-.1,1.9,0,3.9,0,6,2.3-2.8,3.8-6.1,6.4-8.5h.4c0,.6.2,1.1.2,1.7a25.5,25.5,0,0,1-2.7,10.5l-2.7,6h1.6a7.1,7.1,0,0,1,5.8,1.6l5.1,4.4a1.9,1.9,0,0,0,.2-.7,18.6,18.6,0,0,1,4.5-10.3c1-1.2,1.6-1.3,2.7-.2s4.7,4.4,5.9,7.5l.4.7c.5-3.2,2.8-5.1,4.4-7.4s4.1-2.2,5.7.1a23.5,23.5,0,0,1,2.1,4.2c2.3-3.8,6.1-6.1,9.7-8.8l.6-.4c1.5-.8,2.2-.6,2.6,1a19.5,19.5,0,0,0,4.7,9c2,2.2,3.5,4.9,3.2,8a35.7,35.7,0,0,1-1.1,4.7l5.2-6.2c1.1-1.3,2-1.2,2.5.2a15.6,15.6,0,0,1-.4,10,3.7,3.7,0,0,1,.1-1.1,38,38,0,0,0,.5-4.6,15.4,15.4,0,0,0-.3-3.7,2.1,2.1,0,0,0-.9-1.3,2,2,0,0,0-1.3.8l-4.5,5.5-1.6,2.3,7.5,2.1h.5c.1.2,0,.5.1.5a7.7,7.7,0,0,1,2.4,3.9,53.9,53.9,0,0,1,1.8,6.6c.4,2-.5,3.8-1.4,5.5s-1.2.3-1.6-.2-2.2-2.5-3.2-3.8c-2.2-3-4.6-3.4-7.6-1.1a28.1,28.1,0,0,0-3.5,3.4c-3.1,3.5-6,7-9.3,10.3a35.1,35.1,0,0,1-5.3,4c.9,1.9,1.9,3.9,2.8,5.9a2.3,2.3,0,0,0,1.7,1.3c3.6.6,7.2,1.1,10.8,1.8a23.5,23.5,0,0,1,8.2,2.8,12.1,12.1,0,0,1,4.7,4.8c.3.7.7,1.3,1.2,2.2-.1-1.7-.2-3.1-.3-4.6-.3-4.5,1-8.8,2.5-13a22,22,0,0,1,3.2-6.3,9.7,9.7,0,0,1,6.8-3.5,3.8,3.8,0,0,1,2.3.8c1.2.9,2.1,2.1,3.3,3.2l-.3-1a91.7,91.7,0,0,1-3.4-22.1,139,139,0,0,1,1.8-30.2,120.2,120.2,0,0,1,10.2-31.4c2-4.1,4.3-8.1,6.5-12.2.3-.6.4-.9,0-1.4a19,19,0,0,1-2.6-6.6,17.4,17.4,0,0,0-7-10.7c-2.2-1.7-4.6-3-6.8-4.5a13,13,0,0,1-5.2-6.6,14.6,14.6,0,0,1-.4-4.2c0-1.1.7-1.5,1.7-1.2l1.5.7c3.6,2.2,7.3,4.3,10.9,6.6a17.2,17.2,0,0,1,6.3,6.8v-.6c-1.2-9.1,1.8-16.6,8.3-22.7a18.2,18.2,0,0,1,5.6-3.2,48.3,48.3,0,0,1,12.2-2.8c-.3,2.6-2.3,4.1-3.6,6.1l4-1.5a13.1,13.1,0,0,1,2.7-.6c1.6-.2,1.8.2,2,1.7s.5,3.8.7,5.8l.7-.3c.9-.4,1.5-.1,1.6.7s.2,2.3.3,3.5v1.3l3.3-.6c1.7-.1,2.3.4,2.3,2.1s-.4,4.9-.6,7.3-.3,4-1.4,5.8a11.4,11.4,0,0,0-1.2,2.2l8.5-3.7c-.1.3-.1.6-.2.7l-2.6,4a13.6,13.6,0,0,1-6.2,4.9l-10.2,3.7c-1.9.6-2.8,1.3-5.1,4.2,2.5,2.3,2.3,5.2,1.9,8.2-.1,1.1-.3,2.1-.4,3.1s-.3,3.9,1.3,5.4c-1.6,1.2-8.2-.8-10.6-3s-3.5-3.9-4.8-10l-3.1.2c-.3,0-.5.3-.7.6a124.7,124.7,0,0,0-10.1,22.3c-1.9,6-3.7,12-5.3,18.1a79.6,79.6,0,0,0-2.3,27.5c.6,6.4,1.5,12.8,2.4,19.2.5,3.5,1.3,7,1.9,10.6.1.3.3.7.4,1.1a14.2,14.2,0,0,0,8.1-7.1c1.3-2.4,1-5,1.2-7.5s.4-4.7.6-7a1.1,1.1,0,0,1,.2-.8c.9-1.2.6-2.5.2-3.8a15.4,15.4,0,0,1,.1-7.4,44.1,44.1,0,0,1,3-10.6,24,24,0,0,1,6.3-8.2l4.6-3.7c2.4-2.1,4.8-4.2,7.3-6.2l1.5-1.2c1-.6,1.7-.3,1.9.8.3,3.6,1.8,6.8,3,10.1a8.8,8.8,0,0,1-.7,7.6l-1.3,2.4c4.7-2.3,9.3-4.3,13.7-6.7,2.5-1.3,4.9-2.5,7.8-1.9,1.2.3,1.7.8,1.3,2-1.4,4.1-1.1,8.2-1,12.3a1.8,1.8,0,0,0,1.2,1.7c1.7.7,3.3,1.2,5.1.6s1.1.4,1.1,1,.1,3.1,0,4.6a55.9,55.9,0,0,1-.9,7,14.6,14.6,0,0,1-7.2,10.2l-.7.5c2.9.1,3.2,2.3,3.9,4.2a7.7,7.7,0,0,1-.7,7.2,6.9,6.9,0,0,0-.7,2.9,20.8,20.8,0,0,0,0,2.5c0,.3-.3.6-.4.9a1.6,1.6,0,0,1-.9-.5,36.8,36.8,0,0,1-3.2-3.7c-3.1-4.6-7.4-6.2-12.8-5.8-3.8.3-7.7.3-11.5.4-.5,0-1.1.3-1.7.3a29.9,29.9,0,0,1-5.2.1c-3.1-.2-6.2-.8-9.3-.2l-2,.5a47.1,47.1,0,0,0-10.3,5.1l-1.4.8c1.9,2.1,2.2,4.6,2.4,7.3l1.8-.2a4.4,4.4,0,0,1,3.4,2l2.1,3.2a75.9,75.9,0,0,1,4-7.5,17.6,17.6,0,0,1,3.9-3.8,25.3,25.3,0,0,1,4.2-3.1,20.9,20.9,0,0,1,3.7-1.7c.7-.3,1.2,0,1.4.8s1,4,1.5,6a21.7,21.7,0,0,1-1,11,36.5,36.5,0,0,0-1.3,5.5,12.6,12.6,0,0,1-1.9,5.1l-.6.9c2.3-1.4,4.5-2.7,6.6-4.2a11,11,0,0,0,2-2.3,8.1,8.1,0,0,1,5.9-3.3c1.8-.2,2.4.4,1.8,2.1s-2.2,5.8-3.2,8.7-.9,4.2-1.9,6.1a30.6,30.6,0,0,1-10.6,11.7l-5.2,3.4a47.5,47.5,0,0,0,5.3-.5,5.3,5.3,0,0,1,4,.9c1.4.9,3.1,1.3,4.6,2.1a9.5,9.5,0,0,1,2.4,2.1c.8,1.2.6,1.9-.4,2.9-3.6,3.8-7,7.6-11.6,10.6,4.2,10.9,8.4,21.9,12.7,32.7a65.4,65.4,0,0,0,3,5.9,4.7,4.7,0,0,0,1,1,120.7,120.7,0,0,1,30.7,40.1,49.6,49.6,0,0,1,2.4,5.6l-3.4,1.1a1.3,1.3,0,0,1-.8-.7c-1-2-1.9-4.2-3-6.2-2.6-4.6-5.3-9.2-8-13.7a4.4,4.4,0,0,0-1.5-1.2,101.9,101.9,0,0,0-19.8-7.8,177,177,0,0,0-37.5-6.9,126.8,126.8,0,0,0-22.2.6,2.1,2.1,0,0,0-2.2,1.8c-.9,2.9-3,4.9-5.5,6.6a7.4,7.4,0,0,1-1.9.5c-1.1,3.7-4.1,6.1-7.3,8.4a19.9,19.9,0,0,0-3.7,3.4,7.3,7.3,0,0,0-1.9,4.7,65.1,65.1,0,0,1-.4,7.7,33.9,33.9,0,0,1-1.7,5.1,5,5,0,0,1-1,1.1H269c-2.6-2.9-3.8-6.4-5.1-10a8.8,8.8,0,0,1,.5-7.9l.6-1.1a71.6,71.6,0,0,1-14.6.5,30.4,30.4,0,0,1-5.4-1.3c-.4-.1-.7-.5-1.1-.8s.7-.7,1-.8l8.6-2.5,1.8-.4c-1.9-.7-3.6-1.4-5.3-1.9a36,36,0,0,1-9.8-4.9,1.7,1.7,0,0,1-.8-2.3,14.4,14.4,0,0,1,1.5-4.1,45.2,45.2,0,0,1,3.5-4.9c-.7-.8-1.5-2-2.4-3.1l-1.4-1.6a2.7,2.7,0,0,1,.1-3c-1.5-1.4-3-2.6-4.3-4s-1.2-2.7.8-3.6,3-1.2,4.6-1.8,4-1.8,6-2.5,2.2-.6,3.2-.9l1.4-.2a.9.9,0,0,0,.1-.5l-6.2-1.7c-1.2-.3-1.3-.4-1-1.7a7.8,7.8,0,0,1,3.6-5.5,26.6,26.6,0,0,1,9.8-4.1c3.7-.6,7.1.4,10.5,1.7l1.6.7c0-3.4,1.9-5.9,3.4-8.5a53.9,53.9,0,0,1,3.3-5,4,4,0,0,1,1.6-1.2c1.1-.7,1.9-.3,2,1a27.8,27.8,0,0,1,0,5,22.2,22.2,0,0,0,2.6,13.4c1.6,3.1,3.4,6,4.8,9.2s2.5,4.2,3.5,6.4a19.6,19.6,0,0,1,1.7,10.4v1.4a174.5,174.5,0,0,1,29.8-.6v-.2l-1.8-.6c-2-.4-3.9-.7-5.8-1.2a5.3,5.3,0,0,1-1.4-1.2v-.4l3.5-.3v-.2a31.2,31.2,0,0,0-4.9-2.3,28.9,28.9,0,0,0-7.2-1.6,15.3,15.3,0,0,1-13.3-11.3,24.7,24.7,0,0,1-1.3-8.5c.1-.4.1-.8.2-1.2.6-2.2.8-2.4,3-2-.1-1.7-.1-1.7,2.6-2.7l-.7-.7c1-1.2,2.3-1.2,3.5-1.2,5.8.5,10.7,2.7,14.1,7.7a45.4,45.4,0,0,1,5.7,12.7l2.6,8c1.3-.2,1.8.7,2.2,1.5s2.2,3.8,3.4,5.6a2.2,2.2,0,0,0,1.5.8,165.7,165.7,0,0,1,27,6.4c4.6,1.6,9.2,3.5,13.8,5.3l.8.2-.8-1.1a111.6,111.6,0,0,0-25.8-24.1c-6.9-4.8-14.2-9.1-21.1-13.9s-15.2-10.9-22.6-16.6a71.6,71.6,0,0,1-7.9-7.7,1.6,1.6,0,0,0-2-.5,30.6,30.6,0,0,1-4.8,1.7,13.8,13.8,0,0,1-11-1.6c-3.6-2.2-6.4-5.5-9.5-8.4a42.7,42.7,0,0,1-3.6-3.8,8.8,8.8,0,0,1-1.2-2.1c-.3-.8.1-1.4.9-1.4s3.8-.9,5.4-2.2,5.7-2,8.7-1.9h1.2l-4.2-6.7-4.2-6a3.5,3.5,0,0,0-1-1.1,105,105,0,0,0-14.5-11.1,3.1,3.1,0,0,0-1.3-.3,30,30,0,0,0-9.6,2.7,5.3,5.3,0,0,1-1.8.5,1.8,1.8,0,0,1-.9-.4v-.3l-8.8,5.6a39.9,39.9,0,0,1-11.2,5.4,17.1,17.1,0,0,1-12.9-1.5,23.3,23.3,0,0,1-3.7-2.7,6.1,6.1,0,0,1-1.1-1.8l1.2-.4c-1.4-2.3-1.4-2.3-.3-3.7-1.8-.8-2-1.4-1-3.2,2-3.6,5.2-6,8.8-8,5.4-3,10.6-2.5,15.7.9a29.1,29.1,0,0,0,12.1,4.5l-2.9-2.8a2.3,2.3,0,0,1,2.5-.3l5.2,3a4.2,4.2,0,0,0,1.5.4,26.4,26.4,0,0,0,4-.1c.1-.1.1-.2.1-.4l-5-3.1a126.6,126.6,0,0,0-17.4-8.4,325,325,0,0,0-34.6-11.3l-4.6-1a13.1,13.1,0,0,0,.9,1.7c3.4,5.9,4,12.1,2.6,18.7a30.1,30.1,0,0,1-1.4,4.9,13.7,13.7,0,0,1-5.5,6.4c-3.8,2.6-8.1,4.2-12.2,6.1a1.5,1.5,0,0,1-2-.5,7.4,7.4,0,0,1-1.4-2.8,62,62,0,0,1-.6-6.2,4.5,4.5,0,0,1,.5-1.9c.7-1.7,1.6-3.4,2.2-5.2l-3.1,2.4a29.6,29.6,0,0,1-13.1,6.3c-2.1.5-4.4.2-6.6.1s-3.1-.3-4.2,2.6-2.4,5.5-3.6,8.2-1.9,5-1.2,7.7,1.2,2.8,2.9,3.1l6,1.3c1.7.4,1.7.9.8,2.3a10.4,10.4,0,0,1-7,3.9c-1.3.2-2.7.5-4.1.6l-4.8-.3a18.4,18.4,0,0,1-6.7,4.3,8.2,8.2,0,0,1-2.7.6c-1.2.1-1.7-.7-1.2-1.8s2.3-5.2,3.5-7.8c.1-.1.1-.2.1-.5a4.6,4.6,0,0,0-.7.7c-3.1,3.9-7.3,4.7-11.9,3.6s-7-1.3-10.6-.3q-2.4.8-2.1-1.8c.2-2.2.7-4.3,1.1-6.4a18.6,18.6,0,0,1,2.9-7.7,12.9,12.9,0,0,1-2.4.5,14.5,14.5,0,0,1-3.7-.4,3.2,3.2,0,0,1-2-4.5,56.8,56.8,0,0,1,2.8-5.5,11,11,0,0,1,2-2.3c-1.6-.2-3.3-.2-4.8-.5a36.2,36.2,0,0,1-5.6-1.7c-1.3-.4-1.6-1.1-1-2.4a16.7,16.7,0,0,1,4.4-6.4c.3-.2.4-.5.8-.9l-4.7-1.5a19.1,19.1,0,0,0-3.3-.6,4.3,4.3,0,0,0-1.9.4l-5.9,1.7c-.5.1-1.1-.3-1.7-.5v-.3l3.3-2.1a27.8,27.8,0,0,0-12.7,2.2c-3.6,1.6-7.3,2.2-11.1.7a15.6,15.6,0,0,1-4-2.2,22.8,22.8,0,0,1-7.1-8c-.3-.7-.6-1.3-.8-1.9s-.3-2.4,1.5-2.8c-.2-.6-.6-1.4-.4-2s1-1.1,1.5-1.6c-1.1-.6-1.2-.9-.3-1.8l1.2-.9a17.2,17.2,0,0,1,14.5-1.5,29.6,29.6,0,0,1,10.5,6.6l8.3,7.7.9.7c.8-.9,1.6-.4,2.3.1a30.3,30.3,0,0,0,3.8,2.4c2.7,1.2,5.5,2.1,8.3,3.1h.7l5.8-2.3c-1.9-1.5-4-3-5-5.6,3.4-1.5,6.8-3.1,10.6-1.9l9.5,3.4,4,1.4c5.6-6,11.8-9.8,20.4-9.2l-2-2.6c-1.6-2.1-1.7-3.3-.3-5.7l-.7-.3a10.6,10.6,0,0,1-5.5-4.9l-5.3-9.3a3.4,3.4,0,0,1,.4-3.7c2.3-3.8,6-4.7,10.2-4.8h3.5l-6-.9a121,121,0,0,1-19.7-5c-9.3-3.1-17.7-7.8-26-13s-14.2-10.3-21.1-15.8l-1.1-.9c.1.6.2,1,.3,1.4a80.3,80.3,0,0,1,2,9.5,52.8,52.8,0,0,1,.2,10.5,10.3,10.3,0,0,1-3.8,7.2,30.9,30.9,0,0,1-5.5,4c-3.2,1.9-6.6,3.5-9.9,5.1a12.2,12.2,0,0,1-3.4,1c-1.1.2-1.5-.4-1.2-1.5s.4-1.3.5-1.9a2.6,2.6,0,0,0-.1-1.5c-2.1-4.1-1.3-8.2.5-12.1a21.6,21.6,0,0,0,2.1-7.4,19,19,0,0,1,3.4-8.6c1.3-2.1,2.8-4,4.4-6.1l-2,1L47.3,198a37,37,0,0,0-9.4,9.1,20.4,20.4,0,0,1-9.8,8,14.6,14.6,0,0,1-6.9.5l-6.8-1.1a5.4,5.4,0,0,1-4-2,1.7,1.7,0,0,1-.3-1.5,13.8,13.8,0,0,1,1.4-2.7c1.8-3.4,3.5-6.9,5.4-10.2a37.7,37.7,0,0,1,3.7-5.2,12.7,12.7,0,0,1,8.7-4.7l.9-.2H30a31.3,31.3,0,0,1-15.5-7.5,37,37,0,0,1-4.8-4.9c-1.7-2.2-1.8-4.9-1.3-7.5a3.4,3.4,0,0,1,1.6-2.1,62.1,62.1,0,0,1,5.9-2.6c1.6-.6,3.3-1.1,4.9-1.8a10.9,10.9,0,0,1,8.1-.6l.6.2.2-.2c.2-2.6,1.7-3.9,4.2-4.4s1.9-.5,2.9-.7L33,152a15.6,15.6,0,0,1-4.9-8.5c-.3-1.2-.9-2.3-1.2-3.5a27,27,0,0,1-.6-4.1c0-1.1.4-1.4,1.5-1.3l6.1.4a22,22,0,0,1,10.2,4.6,22.6,22.6,0,0,0,4.2,2.6,12.2,12.2,0,0,1,4.8,3.9l.5.6c-.6-2.5-1.2-5.1-1.9-7.7a11.7,11.7,0,0,0-1.7-2.8,8.1,8.1,0,0,1-1.2-6.6c.5-1.6,1.2-1.9,2.5-.9l4.6,3.6,6.7,4.9a10.7,10.7,0,0,1,2.7,2.5c3.1,4.2,5.7,8.7,6.7,14a22.5,22.5,0,0,0,1.3,4.2l1.2-5.4a5,5,0,0,1,1.8-3.1,43.5,43.5,0,0,0,3.6-3.8,4.9,4.9,0,0,1,3.4-1.7,1.7,1.7,0,0,1,1.8.9c2.4,4.6,5,9.2,6.5,14.2a13.9,13.9,0,0,1-.2,8.8c-2.1,6.2-5.5,11.5-11,15.3a36.4,36.4,0,0,1-11,4.8l6.7,4.9c7.5,5.2,15,10.5,22.7,15.6a84.1,84.1,0,0,0,24,10.9,103.9,103.9,0,0,0,24.1,4.1l5.8.4a42.6,42.6,0,0,1-.2-5c.2-2.2.7-4.4,1-6.5s.8-3.6,1-5.3a1.7,1.7,0,0,0-.5-1.3c-2.3-2.2-4.8-4.3-7.2-6.4a2.2,2.2,0,0,0-1.4-.5,3.8,3.8,0,0,1-3.4-1c-2.3-2.4-5.2-3.6-8.2-4.7s-6.8-3.1-10.2-4.6l-3.6-1.7a12.1,12.1,0,0,0-7.5-.8,12.3,12.3,0,0,1-2.7.2c-.7,0-1.5-.1-1.8-1s.4-1.4,1.1-1.9a8.3,8.3,0,0,1,5.5-1.2c2.7.3,5.3.8,8,1.2s3.5.1,5.5.2c-1.9-1.7-3.7-3.1-5.4-4.7a17.3,17.3,0,0,1-2.6-2.8l-.8-.7a126.8,126.8,0,0,1-22.5-21.4l-.6-.9.5.3c6.1,7.7,13.5,14.2,21.1,20.4l1.7,1.2a13,13,0,0,1-.3-2.6A2.1,2.1,0,0,0,118,170l-.5-.4a149.4,149.4,0,0,1-21-21.8,126.4,126.4,0,0,1-18.3-31.9c-.9-2.1-2.5-3-4.4-4a11.2,11.2,0,0,1,.5,1.3c2.3,5,4.4,10.1,6.9,15a143,143,0,0,0,12.6,21.4Zm86.2,110.3.4,1a11,11,0,0,0,1.2-3.1,28.8,28.8,0,0,0,.7-5.9,3.7,3.7,0,0,0-3.9-3.5,10.2,10.2,0,0,0,.7,6,6.5,6.5,0,0,1,.6,2.4c.2,1,.2,2.1.3,3.1a6.4,6.4,0,0,1-.2-.7,21.5,21.5,0,0,0-2-7.3c-.8,1.4-1.9,2.5-1.6,4.3a1.7,1.7,0,0,1-.1,1c-.6,4.3-1.3,8.4-3.3,12.3a40.4,40.4,0,0,0,4.8-4.4C181.3,267,182.5,265.4,182.4,263.3ZM72.3,179.1a26.9,26.9,0,0,1-3.2,2.7,10.3,10.3,0,0,0-4.5,4.5l.3.3c1.8.7,3.9,1,5.4-.8a27,27,0,0,0,2.5-3.4,13.2,13.2,0,0,0,1.7-5.3L72.4,179a2.1,2.1,0,0,1,.4-.6,7,7,0,0,0,2.3-5.3,37.6,37.6,0,0,0-1.1-8.6c-.1.4-.2.5-.2.6a33.8,33.8,0,0,1-6.1,13.5c-1,1.4-.9,2.8-1.2,4.5l1.3-.9ZM312.1,313h0c1,.4.8.9.3,1.6a5.1,5.1,0,0,0,2.4-1.6c.4-.6.6-1.2,1.3-1a9.3,9.3,0,0,1,.5-1l1.2.8c0-.4.1-1,0-1s-.2-1.1.2-1.9.4.9.5,1.3.6-.9.9-1.5c-1.5.3-1.3-.8-1.5-1.3l.9-.7c-1-.2-1.5-.5-1.6-1.4a5.3,5.3,0,0,0-.3-1.2,1.6,1.6,0,0,0-1.7-1.1c-1.3.2-1.3.2-1.4-1.1l-1.7-.7c-.2.6-.4,1.1-.6,1.8s-1.3-.3-1.3-1.3-.7-1-1.4-.5a13.5,13.5,0,0,0-1.2,1.2l1,.3-.5.6c.8.6.5,1.9,1.7,2.1v.6h-.7c-.3-.1-.5-.5-.7-.5s-1.7,0-1.3-1.3-.2-1.2-.9-1.1-.3.8-.2,1.2.2,1.2.2,1.7.9.4,1.1.7-.1.9-.2.9-.5.4-.7.8-.8,2.3-.3,3.4a13.7,13.7,0,0,0,2.3,2.5l.6-.8h.2v.9h2.2C310.9,313.6,311.7,313.4,312.1,313ZM136.9,293.5l2.7-3.8,2.5-3.4c-1.8-.5-3-.2-4,1.3s-2,2.3-2.9,3.6c-2.4,3.3-4.9,6.6-7.2,10.1a6.9,6.9,0,0,0-.2,8.1,41.5,41.5,0,0,0,4.3,5.1l.8.4c2.8,1.2,5.6.3,8.6-.1-3.8-1.4-5.2-3.4-5.2-7.1a19.8,19.8,0,0,1,2-9c1.4-3.3,3-6.5,4.5-9.7l1.1-2.7a1.4,1.4,0,0,0-1.9.6c-1.6,2.3-3.4,4.4-5.1,6.6ZM59.4,172.9h0l.9-.3c.5-.2,1-.5,1.4-.4a21.8,21.8,0,0,1,2.3.9c-.2-1.1-.5-2.1-.7-3.2a29.6,29.6,0,0,0-4.2-9.6c-2.4-3.6-5.5-4.4-9.5-4s-4.9,2-6.6,4.1-2.3,3.1-1.2,5.1a1.2,1.2,0,0,0,.7.7,54.4,54.4,0,0,1,5.2,1.9,12.5,12.5,0,0,1,3,2.1c1.4,1.3,2.7,2.7,4,4s1,.6,1.4-.1a1.7,1.7,0,0,1,2-.8C58.6,173.5,59.2,173.8,59.4,172.9Zm127.3,48.6h.1c.7,1.5,1.4,3,2.2,4.5s.3.7.6.7a8.2,8.2,0,0,0,4.4-.2c-1.1-2.6-2.2-5-3.1-7.6a23.1,23.1,0,0,1,.8-18.9c2-4.1,2.3-8.5,2.2-13a7.1,7.1,0,0,0-5.5.9,26.3,26.3,0,0,0-6.1,5.9,12.5,12.5,0,0,0-2.2,6.1c-.9,7.5,1.1,14.2,5.2,20.4l1.3,1.9h.2Zm146.9,30h.6l10.5-.5a1.3,1.3,0,0,1,.9.4c.1.2-.1.7-.2.9a5.7,5.7,0,0,1-1.1,1.1l-3.1,2.4h.5a22.7,22.7,0,0,0,8-4.9,18.1,18.1,0,0,1,9.3-4.3,26.2,26.2,0,0,0,18.5-11.4l2.4-3,.3.2-.9,1.1c-1.8,2.1-3.4,4.2-5.2,6.2-4,4.3-9.2,6.3-14.8,7.3a19.7,19.7,0,0,0-9.7,4.5,21.2,21.2,0,0,1-7.8,4.6l-1.8.6v.4a18.9,18.9,0,0,0,4,.8c6.7.1,13.2-1.5,19.7-3.2,3.3-.9,6.7-1.5,9.7-3.4s6.8-5.3,8-9.8a47.7,47.7,0,0,0,1-12.5,4.5,4.5,0,0,0-.2-.8c-2.3,1-4.4.3-6.3-.7a11.3,11.3,0,0,0-7.9-.9,27.7,27.7,0,0,0-15.3,9,42.9,42.9,0,0,1-9.5,8A44.9,44.9,0,0,0,333.6,251.5Zm-148.3,1a178.7,178.7,0,0,1,75.9,32,216.7,216.7,0,0,0-16.4-19.7,82,82,0,0,0-9.1-8.6,198.8,198.8,0,0,0-22-14.5c-3.8-2-7.9-3.7-11.8-5.6a47,47,0,0,1-12.1,12.6C188.3,249.8,186.9,251.1,185.3,252.5ZM282,378.8c-.2-2.3,1.1-3.7,2.5-5.1s.9-1.1,1.5-1.6a1.2,1.2,0,0,0-.1-1.9,4.6,4.6,0,0,0-.7-.7c-3.8-3.2-8.3-4.9-13-6.1a17.3,17.3,0,0,0-10.3.5c-2.9,1-6,1.8-9,2.7l-7.7,2.2a7.1,7.1,0,0,0-3.9,2.7c-.8,1.2-.9,2.1.1,3.1s3.7,5,5.5,7.6c3.8,5.4,9.3,7.6,15.6,7.4,2.5-.1,4.9-1.3,7.3-2.3a22.1,22.1,0,0,1,8.8-1.9l6.8.3a7.8,7.8,0,0,0-.5-1.8c-.7-1.2-1.6-2.2-2.2-3.4a3.3,3.3,0,0,0-2.7-1.9,11.9,11.9,0,0,0-3.2-.3c-3.1.2-6.2.4-9.3.8-4.8.6-9.6.6-14.1-1.4-1.9-.9-3.7-2.1-5.6-3.1.1-.1.1-.3.2-.4l1,.6a52.5,52.5,0,0,0,6.3,3.1c4,1.5,8.1,1.2,12.2.7S277.1,377,282,378.8ZM146.4,196.1c1.2-2.7,2.4-5.1,3.6-7.5a6.5,6.5,0,0,0,.8-2.2,36.2,36.2,0,0,1,2.7-10.4c1.7-4.1,3.7-8.1,4.4-12.5s.7-6.4-1.3-9.3-4.4-6.5-6.7-9.7a15.4,15.4,0,0,0-2.9-2.8c-1.4-1.1-1.6-1.1-2.7.4-2.9,3.9-4.7,8.3-6.7,12.6-.9,1.7-1.6,3.5-2.6,5-2.8,4-2.6,7.9-.7,12,.7,1.6,1.6,3,2.4,4.5a22.3,22.3,0,0,1,2.5,8.7c.3,1.8.6,3.5,1.9,4.7a22.3,22.3,0,0,1,4.3,5.9l.6.9a42,42,0,0,1-.8-4.7c-.5-7.6-1.2-15.1-1.5-22.7s-.6-12.6.4-18.9c.3-1.4.8-2.7,1.2-4.1h.3a1.9,1.9,0,0,1-.2.7,27.5,27.5,0,0,0-1.4,8.5,182.5,182.5,0,0,0,.6,19.6c.5,5.8.7,11.7,1.1,17.6A32.1,32.1,0,0,0,146.4,196.1Zm120.1,89.5c-.6-3.5-1.3-6.8-1.8-10.2a5.7,5.7,0,0,1,.6-4.2,1.4,1.4,0,0,0-.1-1.1l-3.6-7.1-.9-.9c-1.2-.9-2.4-1.8-3.5-2.8s-3.4-3.2-5-4.9a21.7,21.7,0,0,1-3.1-3.7,33.8,33.8,0,0,0-7-8.1,61.5,61.5,0,0,1-6.2-6.3c-1.9-2.3-1.7-5.3-2-8.1-.1-.7.4-.8.9-.7a27.4,27.4,0,0,1,3.9.9l2.5,1.1c-.2-.7-.3-1.3-.5-1.9a20.3,20.3,0,0,1-8.8-1.6,16.8,16.8,0,0,0-3.2-.9c-2.7-.5-4.9.7-7,2.2s-6,4-9.7,3.9c-1,2.2-3.1,2.6-5,3.6l.8.4a150.1,150.1,0,0,1,28.8,16.7c8.7,6.5,15.8,14.6,22.3,23.2ZM76.9,112.1v.2a21.3,21.3,0,0,0,3.3,1.1,31.2,31.2,0,0,0,12.9-.1l17.4-4.1.7-.3c1.9-1.6,3.9-3.1,5.6-4.8a7.5,7.5,0,0,0,1.8-3.1c.8-2.3,1.2-4.8,2.1-7,2-4.9,2.9-9.8,1.6-15-.2-.8-.3-1.6-.5-2.2a42,42,0,0,1-4.5,1.1c-3.4.6-6.6,1.5-9.3,3.8A43.1,43.1,0,0,0,97.5,93.8c-1.6,3-3.3,6.1-6.1,8.2a68.6,68.6,0,0,1-7.6,5.3c-2.5,1.5-5.1,2.8-7.8,4.1l1.6.2,12.9-.8a8.6,8.6,0,0,0,1.7-.3c5.4-1.2,9.7-4.2,13.4-8.2a56.9,56.9,0,0,1,6.3-5.7,17,17,0,0,0,4.6-5.7c.6-1.5,1.2-3,1.7-4.5l1.8-4.9a6.4,6.4,0,0,1-.3,2l-1.9,5.2a16.7,16.7,0,0,1-6.2,8.6,43.6,43.6,0,0,0-4,3.5c-1.2,1.1-2.2,2.3-3.3,3.4a24,24,0,0,1-16.7,7.3ZM333.2,251l.5-.2,7.7-6.5a1.5,1.5,0,0,0,.6-.5c1.7-2.9,3.2-5.8,3.4-9.3a15.9,15.9,0,0,1,5.2-11.5,23,23,0,0,0,2.8-3.4c2.9-3.9,3.1-7.9.9-12.3-1-2-1.3-4.4-2-6.6a12.1,12.1,0,0,0-.5-1.4l-1.5.7c-.1,0-.1.1-.2.2l-11,9.2a26.5,26.5,0,0,0-7.4,8.9,49.8,49.8,0,0,0-3.2,10.6,16.8,16.8,0,0,0,.4,8.9,1.6,1.6,0,0,1,1,.5,16.2,16.2,0,0,1,1.4,7.5,5.7,5.7,0,0,0,0,1.3,7,7,0,0,0,.8-1.4c1.2-2.8,2.6-5.5,2.8-8.6a88.9,88.9,0,0,1,3.5-18.5,32.9,32.9,0,0,1,10.4-15.5,4.1,4.1,0,0,1,1.1-.7v.2l-.9.8a31.3,31.3,0,0,0-7.1,8.3c-3.9,6.8-5.4,14.4-6.4,22.1a29.2,29.2,0,0,1-2,9.3c-.6,1.2-1,2.5-1.6,3.7a1.5,1.5,0,0,0,.7-.3l1.1-.5a7.9,7.9,0,0,1,.3,1.3,5.8,5.8,0,0,1-.3,1.4C333.6,249.4,333.4,250.1,333.2,251ZM202.3,224.5a50.8,50.8,0,0,1,1.6-5.9c1-2.4,2.2-4.7,3.4-7a21.5,21.5,0,0,0,2-15.9c-.1-.3-.1-.7-.2-1.1s.3.2.3.3a20.9,20.9,0,0,1-.7,14.6c-1.3,2.9-2.8,5.7-4.1,8.5s-1.8,4-1.6,6.3a3.2,3.2,0,0,0,.3.9l1.5,2.1a6.2,6.2,0,0,0,2.7,2.3,3.5,3.5,0,0,1,.1-.6c1.2-5,3.1-9.5,6.9-13.1a11.7,11.7,0,0,0,3-4c2.1-5.4,2-10.6-1.3-15.6l-4.8-7.1a2,2,0,0,0-2.4-1,6.6,6.6,0,0,0-3.7,2.6c-3.5,4.8-7,9.5-10.4,14.3a8,8,0,0,0-1.3,2.4,27.9,27.9,0,0,0-.1,16.2c1,3.3,1.2,2.8,3.8,1.7S200.6,223.8,202.3,224.5ZM319.1,287l-1.1.3c-1.9.4-3.2-.5-3.3-2.5a5.7,5.7,0,0,1,.1-1.3,21.6,21.6,0,0,1,4.7-9.6,1.9,1.9,0,0,0,.3-1,10.2,10.2,0,0,0-2.6-7.2,59,59,0,0,1-3.9-4.6c-1.2-1.5-2-1.8-3.8-1.1a6.1,6.1,0,0,0-1.6.9c-1.5,1.5-3.3,1.8-5.3,2a3.7,3.7,0,0,0-2.5,1,17.2,17.2,0,0,0-4.3,7.5c-1.1,4-.6,8.2-.1,12.3,0,.1.1.1.2.2l4.3-5a20.9,20.9,0,0,1,2.2-2,1.1,1.1,0,0,1,1.9.8,19.2,19.2,0,0,1,.5,4.1,6,6,0,0,1-2.2,5,3.1,3.1,0,0,0-.9,1.1,10.1,10.1,0,0,0,.6,10.2c1,1.6,2.3,3.1,3.5,4.7l3.5-2.5a13.6,13.6,0,0,1-1.2-7.9,68.3,68.3,0,0,1,1.7-8.8c1.5-5.6,1.8-11-.7-16.4a20.1,20.1,0,0,1-1-3.5V263c.8,2.3,1.6,4.4,2.3,6.6,1.6,4.5.8,9-.1,13.6a74.3,74.3,0,0,0-1.6,8.2,16,16,0,0,0,.7,8.1,1.6,1.6,0,0,0,.9.9,5.9,5.9,0,0,1,3.2.8,3.7,3.7,0,0,0,1.1.4c1.2-2,2.3-3.8,3.3-5.7a7.5,7.5,0,0,0,.8-2.4C318.9,291.4,319,289.3,319.1,287ZM54.8,175.3a43.8,43.8,0,0,1-3.7-4c-2.2-3.1-5.7-3.4-8.9-4.8v1.2a2.5,2.5,0,0,1-3.3,2.3,3.1,3.1,0,0,1-1.2-.5,19.7,19.7,0,0,1-7.8-7.6c-.2-.2-.4-.5-.7-.6a11,11,0,0,0-7.6.2,58.3,58.3,0,0,1-5.8,2.3c-1.8.6-2.3,1.2-2.2,3.1A4.9,4.9,0,0,0,14,169c.9,1.8.6,3.6.1,5.5a3.9,3.9,0,0,0,.2,2.6,17,17,0,0,0,5.7,6.5,24.6,24.6,0,0,0,9.1,3.5l3,.6c-1.2-2-2.3-3.7-3.3-5.6a15.1,15.1,0,0,1-1.3-2.9c-.4-1.2.2-1.8,1.5-1.7l2.9.6c2.2.6,4.1,1.7,5,4.1a2.4,2.4,0,0,0,.6.9,10,10,0,0,0,10.2,2.7l5.3-1.7L51.8,180a17.3,17.3,0,0,1-9.3-1.9c-2.9-1.6-5.6-3.4-8.5-5.1s-5.5-3-8.7-3.2-4.7-.1-7-.1l-2.2-.2,5.6-.3a17.5,17.5,0,0,1,9.3,1.9c3.2,1.7,6.2,3.6,9.3,5.3a25.2,25.2,0,0,0,10,3.3c1.2.1,1.9-.2,2.2-1.5a3.2,3.2,0,0,1,.8-1.2A8.3,8.3,0,0,1,54.8,175.3Zm208.5,87.9.3-.4a15.5,15.5,0,0,1-1.8-7.3,45.8,45.8,0,0,1,.4-6.4c.7-4.3,1.6-8.6,2.3-12.9.3-1.7.3-3.4.5-5.2a2.3,2.3,0,0,1,.2,1.1c-.4,3-.7,5.9-1.1,8.9-.6,4.5-1.4,9.1-1.9,13.6a13.9,13.9,0,0,0,2,8.3,7.5,7.5,0,0,0,1.3-1.1c1.4-2.3,3-4.5,4.2-6.9,2.5-5,4.7-10.2,7.2-15.2a8.4,8.4,0,0,0,.9-4.9,6,6,0,0,0-3.8-5.3,7.8,7.8,0,0,0-5.6-.6,3,3,0,0,1-2.7-.6,4.2,4.2,0,0,0-2.1-.8l-4.2.6-2.4.6a4.2,4.2,0,0,0-3.8,4.8c.2,2.6.3,5.2.6,7.8a49.2,49.2,0,0,0,.9,7.6c.7,3.3,1.8,6.4,2.8,9.6a2,2,0,0,0,.4.8Zm-118.7,12a5.4,5.4,0,0,0-1.3-.7l-2.6-.5c-3-.2-6-.1-8.9-1.2-.3-.1-.7.1-1,.1a43.2,43.2,0,0,0-12.1,4.1c-2,1-4.2,1.6-6.3,2.5a4.8,4.8,0,0,0-2.7,4.6c.4,1.7.6,3.3,1.1,4.9s1.2,3.8,3.4,4.6a3.8,3.8,0,0,1,1.2,1.8,8.8,8.8,0,0,0,3.1,4.9c3.6,3.1,8.4,1.3,10.4-1.5s2.6-3.7,4-5.5l5.8-7.1h-1.2c-1.6-.1-1.9-.7-1.2-2.3a7.3,7.3,0,0,1,5.1-4.1,7.5,7.5,0,0,0,3.8-2.1,1.2,1.2,0,0,0,.3-1.1,1.2,1.2,0,0,0-1-.6l-3.1.2c-3.4.5-6.3,2.3-9.1,4.2s-7.4,5.5-11.1,8.1c-1.7,1.2-3.5,2.2-5.2,3.2l-.2-.3.8-.5c1.3-.8,2.7-1.5,3.9-2.4,3.3-2.4,6.6-5,10-7.4S139,275.3,144.6,275.2ZM158,231.7l-4.4-2.1a17.8,17.8,0,0,0-14.1-.9,3.5,3.5,0,0,0-2.6,2.5,6.1,6.1,0,0,1-3,3.5,10,10,0,0,0-2.1,2,2.1,2.1,0,0,0,0,2.7c1.1,1.6,2.1,3.4,3.1,5.2a9.8,9.8,0,0,0,5.7,4.7,1.2,1.2,0,0,0,.8-.1,20.5,20.5,0,0,1,9.8-1c2.3.4,4,2.2,1.9,4.7v.4c2,.6,3.9,1.2,5.9,1.6a5.5,5.5,0,0,0,2.2.1l6-1v-.3c.1-1-.1-2,.1-3s.5-1.6-.9-2.6l-1.4-.9c-4.1-2.1-8.5-2.6-13-3.1a23.4,23.4,0,0,1-9.4-2.8c-1.9-1.2-3.5-2.7-5.2-4l-1.8-1.4a5.2,5.2,0,0,1,1.8,1c1.7,1.3,3.3,2.7,5,3.9,3.5,2.3,7.5,2.8,11.5,3.2s10,1.3,14,4.9l3.3-2.4a38.8,38.8,0,0,1-2.3-3.3,9.4,9.4,0,0,0-8.3-5,7.5,7.5,0,0,0-2.6.5,12.9,12.9,0,0,1-2.5.6c-2.3.2-4.2-1-6-2.2a.9.9,0,0,1,0-1.7,12.3,12.3,0,0,1,2.5-1.4ZM108.8,71.3l-3.7-.8c-3.6-.6-7.2-.8-10.6.6a24.9,24.9,0,0,0-11.2,9.6c-2,3.1-2.5,6.6-3.5,10a2.4,2.4,0,0,0,.2.8,5.8,5.8,0,0,1,.1,4.5,3.8,3.8,0,0,0-.3,1,1.1,1.1,0,0,0,.5-.4c2.7-4.1,5.4-8.2,8-12.3s8.5-9.8,14.9-11.9l1-.3a.5.5,0,0,1-.5.4C97,74.7,92.1,79,88.4,84.9L80.2,97.4l-1.5,2.3c-.8,1.4-1.5,2.8-2.4,4.2l-1.6,2.4a3.2,3.2,0,0,0-.2,3.7c.6,1.2.9,1.3,1.7.2s2-3.1,3-4.7A19.4,19.4,0,0,1,88.6,97,50.9,50.9,0,0,0,94,94.8,10.3,10.3,0,0,0,97.9,92a44.1,44.1,0,0,1,7.5-8.6,8.2,8.2,0,0,0,2.4-4.6C108.2,76.4,108.5,73.9,108.8,71.3ZM350.2,365c-5-10-8.2-21-12-31.4-10.9,1.4-20.1-1.2-27.5-9.6a4.1,4.1,0,0,0,.1,1.2,70.4,70.4,0,0,0,2.8,12.7,8.8,8.8,0,0,0,3.8,5.1c5.2,3.3,10.5,6.6,15.6,10.1S344.5,361.1,350.2,365ZM339.1,155.8a10.1,10.1,0,0,1,4.5-5.4l3.4-1.9c4.5-2.2,7.8-5.5,9-10.6.7-2.6,1.1-5.3,1.6-8,.1-.2.1-.5.2-.8a1.7,1.7,0,0,1,.1,1.2,78.1,78.1,0,0,1-1.7,8.4,14,14,0,0,1-6.8,8.8l-4.2,2.3a11.7,11.7,0,0,0-5.8,6c2.6,1.4,2.5,1.4,4.6-.5l.7-.6a25.2,25.2,0,0,1,11-6.8,2.1,2.1,0,0,0,1.1-.8c2.8-3.1,3.5-7,3.5-11.1s-.1-6.3-.2-9.5a19.7,19.7,0,0,0-.3-2.4c-.1-.6-.5-.7-1.1-.4a40.8,40.8,0,0,1-5.4,2.2c-5.9,1.8-10.1,5.6-13.4,10.5a14.2,14.2,0,0,0-2,4.1,51.2,51.2,0,0,1-4,10.3,15.2,15.2,0,0,0-.8,2.2Zm-16,175.8v.3c2.5.5,4.9,1.2,7.4,1.6a15.7,15.7,0,0,0,11.8-3c3.9-3,7-6.7,10.5-10.1a1.7,1.7,0,0,0,.2-1.4,4.9,4.9,0,0,0-2.6-2.5l-4.9-2.3a7.6,7.6,0,0,0-2.5-.6,31.3,31.3,0,0,0-4.4.4,16.9,16.9,0,0,0-3.4.8,41.1,41.1,0,0,0-5.1,2.7,26.2,26.2,0,0,1-10.6,4,18.5,18.5,0,0,1-11.5-2l.4.6a70.9,70.9,0,0,0,5.7,6.6,15.7,15.7,0,0,0,14.2,4.3,23.5,23.5,0,0,0,15.6-9.8,10.9,10.9,0,0,1,1.3-1.7C340.2,327.8,332.9,331.9,323.1,331.6ZM85.9,176.6h.3c1.1-1.9,2.3-3.7,3.4-5.7a15.6,15.6,0,0,0,1.3-12.7c-1.6-4.7-4.1-8.9-6.3-13.2a1.6,1.6,0,0,0-1.3-.7,4.4,4.4,0,0,0-3.3,1.8c-1.1,1.3-2.4,2.5-3.5,3.7a8.7,8.7,0,0,0-1.5,2.4,18.7,18.7,0,0,0-.9,4.1,14.7,14.7,0,0,0-.4,3.6,37.1,37.1,0,0,0,1.1,5.8,24.8,24.8,0,0,1-.8,15,14.7,14.7,0,0,1-4.7,6.5,32.7,32.7,0,0,0,9.2-3.6,16.2,16.2,0,0,0,8.4-12,23.6,23.6,0,0,0-4.6-18.2l-1-1.5C87.6,159.3,89.2,167.5,85.9,176.6ZM49.2,195.9l-1.5.3c-3.3.5-6.5.5-9.3-1.5a1.7,1.7,0,0,0-1.2,0,18.6,18.6,0,0,0-6.3,4.8c-2.6,3-5.3,5.9-8.8,7.8l-1.8.9c0-.3.2-.4.3-.4a29.5,29.5,0,0,0,8.3-6.6c2.5-2.8,5-5.5,8.6-7l-5.3-6-2.1.4a12.8,12.8,0,0,0-9,4.4,35.2,35.2,0,0,0-3.9,5.6L11,209.7a13.8,13.8,0,0,0-.6,1.6l1.4-.2a13.3,13.3,0,0,0,2.4-1,6.5,6.5,0,0,1,7.3.4l2.4,1.7a7.2,7.2,0,0,0,8.2,0,23.6,23.6,0,0,0,5.8-6,22.1,22.1,0,0,1,5.6-6.2C45.3,198.6,47.2,197.3,49.2,195.9Zm242.1,95.3c1.3-2.3,2.6-4.6,4-6.8-.4-.7-.8-1.6-1.2-2.4a13.6,13.6,0,0,0-4.6-5.5,25.2,25.2,0,0,0-8.8-3.2L268.2,271h-1.7a5,5,0,0,0,.7,1.3,7.7,7.7,0,0,0,1.7,1.9,6.7,6.7,0,0,1,1.8,7.2c-.3,1.1-.7,2.3-.9,3.4a6.7,6.7,0,0,0,2.6,7,21.7,21.7,0,0,0,7.3,3.6,28.5,28.5,0,0,1,13,7.3l.6.4a5.2,5.2,0,0,0-.7-1.5c-1.4-2.8-2.5-5.6-1.6-8.7a1.9,1.9,0,0,0-.6-2,20.4,20.4,0,0,0-7.1-4.5,32.4,32.4,0,0,1-9.9-6l-.8-1a33.8,33.8,0,0,0,10,6.3C285.8,287,288.9,288.5,291.3,291.2ZM72.2,57.7c2.7-.8,5.3-2,6.7-4.7a22.3,22.3,0,0,1,4.4-5.7,29.1,29.1,0,0,0,6.1-10.1,33.5,33.5,0,0,0,1.7-14.7,22,22,0,0,0-.7-3.7,1.4,1.4,0,0,0-.8-.7,4,4,0,0,0-3.8,1.4l-1.8,2c-3.9,4.6-7.8,9.2-11.6,14A14.7,14.7,0,0,0,70.1,40c-1.1,3.5-.8,7.1-.4,10.7a35.6,35.6,0,0,0,1,4.7,8.2,8.2,0,0,0,1.1,1.7,11.8,11.8,0,0,0,1.1-1.9c.5-1.4.8-2.9,1.4-4.4s2.7-4.1,4.4-6a23.8,23.8,0,0,0,5.9-9.7c1-3.3,1.9-6.6,2.8-9.9l.3-1H88c-.2.8-.3,1.5-.5,2.2s-1.2,4.1-1.7,6.1a26.9,26.9,0,0,1-7.5,13.2,17.1,17.1,0,0,0-4.8,8.7A18.9,18.9,0,0,1,72.2,57.7ZM327.3,159.5h.4c.1-.6.3-1.2.4-1.9.5-2.7,1.9-4.2,4.5-4.4h-.1c.4-1,.7-1.9,1.1-2.7l3.6-9a30.4,30.4,0,0,1,2.3-5.2,14,14,0,0,0,1.8-4.8c1.1-4.7,2.8-9.1,6-12.8a42.3,42.3,0,0,0,3.3-4.1,14.5,14.5,0,0,0,1.2-2.2,56.3,56.3,0,0,0-12.7,3.2,14.4,14.4,0,0,0-5.3,3.5,26.1,26.1,0,0,0-7.1,12.9,22.6,22.6,0,0,0,1.5,14.4c.1-2.2.2-4,.4-5.8a28.8,28.8,0,0,1,.5-5.9c1.9-7.3,5.7-13.4,12-17.7l1.2-.8a7.7,7.7,0,0,1-1.6,1.5l-1.6,1.3a28.9,28.9,0,0,0-9.8,17.7c-.4,2.4-.2,4.8-.5,7.2s-1,6.4-1.4,9.6S327.3,157.5,327.3,159.5ZM173,286.5l1.9-.5a22,22,0,0,0,14-11.1,14.5,14.5,0,0,0,1.3-10.6,29.6,29.6,0,0,0-4.9-10.1l-.4-.2a15.1,15.1,0,0,1-1.3,9.6,24.6,24.6,0,0,1-7.6,9.3c-2.3,1.8-4.7,3.5-5.8,6.4-.5,1.2-1.2,2.2-1.7,3.4a5.8,5.8,0,0,0-.4,1.8c.2,2,.4,4,.7,5.9a6.3,6.3,0,0,0,.9,2.5,1.4,1.4,0,0,0,2.1.5l2.8-1.3c2.2-1.1,4.5-2,6.7-3.2a20.4,20.4,0,0,0,5.1-3.6c3.7-3.9,4.1-8.9,4.4-14C187.8,279.8,181.9,284.9,173,286.5ZM390.1,416.8a10.9,10.9,0,0,0-.5-1.4,97.8,97.8,0,0,0-11.3-20.5,114.9,114.9,0,0,0-21.2-23.4,261.1,261.1,0,0,0-29.8-21.4,127.5,127.5,0,0,1-23.5-17.8l-6.9-6.6a1.3,1.3,0,0,0-1-.3l-2.9,1.7.6.8a67.6,67.6,0,0,0,12,10.7c7.1,5.1,14.1,10.3,21.3,15.3s11.9,7.6,17.6,11.6a122.5,122.5,0,0,1,18.7,15.7,138.6,138.6,0,0,1,20.7,29.1c1.3,2.4,2.4,4.9,3.7,7.4ZM161.3,209.9l.5.9a29.9,29.9,0,0,1,2.1,10.6,17,17,0,0,0,1.8,8,1.9,1.9,0,0,0,1.1.9,9.4,9.4,0,0,1,5.9,2.8l2.7,2.7c-.2-.4-.2-.6-.3-.7a31.6,31.6,0,0,1-2.2-14.3c.2-2.4-.5-4.8-.8-7.2a1.6,1.6,0,0,0-1.4-1.4l-5.1-1.6a24.3,24.3,0,0,1-2-1.4l.2-.4c-3.2.1-5-1.6-6.1-4.4a9.5,9.5,0,0,0-1-1.7,2.9,2.9,0,0,0-1-.8c-.2.7-.3,1.2-.4,1.7s-.3,3.3-.6,4.9c-.5,3.1-1.3,6.3-1.7,9.5s.3,8.5,3.7,11.7l1.6,1.7,7.3-1.3a19.9,19.9,0,0,1-2-7.5C163.4,218.3,163,214,161.3,209.9Zm84.3,145.8c2.2.6,4.4,1.3,6.6,1.8s6.3.5,9.4.3a26.3,26.3,0,0,1,17.7,5.6c2.7,2.2,5.2,4.7,8,7.2.5-1.5,1.1-3,1.6-4.6s-.1-.7-.3-.9a59.9,59.9,0,0,0-10.9-9.1,30.9,30.9,0,0,0-18.1-5.1l-4.4.5a7.3,7.3,0,0,1,2.1-.6,27.3,27.3,0,0,1,9.9.4c6.9,1.4,12.4,5.2,17.6,9.6l.7.6a.8.8,0,0,1-.1-.4c-4.4-6.5-10-11.6-17.5-14.3a19,19,0,0,0-7.8-1.5c-4.2.4-7.9,2.3-11.3,4.6A7.6,7.6,0,0,0,245.6,355.7ZM138.9,187.6l.3-.2c-.1-1.1-.3-2.2-.5-3.3a24.7,24.7,0,0,0-2.8-8.7,27.1,27.1,0,0,1-2.1-3.7c-1.8-4.2-2.1-8.3.9-12.2.4-.5.3-.9,0-1.5-1.4-2.3-3.7-3.2-6.2-3.7s-4.9-.9-7.3-1.3-2.2.2-1.8,2,.9,3.2,1.3,4.8a10.8,10.8,0,0,1,.4,5.9,27.6,27.6,0,0,1-.8,2.7c-1.2,4-.5,7.4,2.8,10.1l3.7,3.3a8.6,8.6,0,0,0,4,2.1,11.8,11.8,0,0,1,3,1c1.6.7,3.1,1.6,4.7,2.4-1-1.4-2-2.7-2.9-4.1s-4-5.5-4.5-8.9a32.9,32.9,0,0,0-4.6-12.8c-.7-1.2-1.2-2.7-1.9-4.1h.3l.5,1c1.2,2.4,2.5,4.8,3.6,7.2a31.2,31.2,0,0,1,1.5,3.9c.7,2.6.9,5.5,2.1,7.9S136.8,184.2,138.9,187.6Zm236.4,39.2c-.3-4.6-.8-9,.7-13.3.5-1.2.1-1.5-1.1-1.7a8.3,8.3,0,0,0-6.3,1.5,44,44,0,0,1-9.3,4.4,25.7,25.7,0,0,0-8.5,5.8,17.2,17.2,0,0,0-5,11.2,16.5,16.5,0,0,1-2.9,8.1l-.4.8a31.5,31.5,0,0,0,3.3-2.2l4.3-3.6a16.6,16.6,0,0,0,1.6-2.1c1.3-1.9,2.4-3.9,3.8-5.6a114.8,114.8,0,0,1,15.4-15l.8-.6c-6.8,6.3-13.8,12.3-18.9,20.2l.8-.6c4.1-3.9,8.7-6.8,14.4-7.9C370.4,225.7,372.9,225.5,375.3,226.8Zm-323-87.9a36.3,36.3,0,0,0,3.6,11.3c1.7,3.7,3,7.7,4.8,11.4a40.7,40.7,0,0,1,4,12.2,8.8,8.8,0,0,0,.7,1.2c3.6-11.3-.1-20.5-7-28.9a1.6,1.6,0,0,1,.8.5c6.6,7.8,9.9,16.5,7.1,26.8a7.3,7.3,0,0,0,.5,5.6l.4-.4c2.8-4.2,5.2-8.6,6.2-13.6a4.2,4.2,0,0,0,.3-1.9,28.9,28.9,0,0,0-2.8-9.5,8.9,8.9,0,0,0-2.1-2.6,28,28,0,0,0-3.2-2c-3-1.8-5.9-3.7-7.8-6.8a4.9,4.9,0,0,0-1.9-1.6ZM314.9,314.2l.4.2a40.3,40.3,0,0,0,12.9,1.9,10.7,10.7,0,0,0,4-.5,25.8,25.8,0,0,0,8.2-5.7,7.9,7.9,0,0,0,1.8-2.9c.7-2.3,1.2-4.6,1.7-6.9a15,15,0,0,1,2.7-5.7,6.8,6.8,0,0,0,1.3-2.7c.3-1.3.4-2.8.6-4.2a35.3,35.3,0,0,0-7.6,5.2c-2.9,2.7-5.8,5.4-8.8,8a31.1,31.1,0,0,0-2.8,2.3,36.9,36.9,0,0,1-9.8,7.3c-.4.2-.7.7-1.3,1.2,11.9-.1,19.5-6.5,25.3-15.9,0,.3.1.4,0,.5a1.4,1.4,0,0,1-.2.6c-5.2,8.3-12,14.1-22.2,15-2.2.2-4.4.4-6,2.2ZM68.7,187.8l-4-.6a9.6,9.6,0,0,1-1.5,5.7A36,36,0,0,0,57.6,207c-.6,3.3-1.1,6.7-2.6,9.8s-2.1,4.1-3.1,6.1l9.6-4.4a18,18,0,0,0,6.4-4.9,11.9,11.9,0,0,0,3.3-10l-.9-5.9C69.6,194.4,68.2,191.3,68.7,187.8ZM306.5,314.9a9.6,9.6,0,0,1-5.8.3,35.9,35.9,0,0,0-14.6-.9c-3.7.5-7.5,1.2-11.3.6l-6.3-1,7.2,7.7a19.2,19.2,0,0,0,6.6,4.6c3.6,1.5,7.2,1.8,10.7,0s5.1-2.8,7.6-4.3,4.2-2.7,6.6-3.1C306.9,317.4,306.7,316.2,306.5,314.9ZM93,281.8h-.1a.3.3,0,0,0,.1-.2l2.9-1.6a32.5,32.5,0,0,1,15.2-4.3c3.7-.2,7.4-.2,11-1.1l7.4-1.9.8-.2v-.3a5.5,5.5,0,0,0-1.8-.2,44.4,44.4,0,0,1-15-.5,41.7,41.7,0,0,0-7.8-1c-4.7.1-8.6,2.3-12,5.6a18.2,18.2,0,0,0-3.8,6.2c-.3.6-.2,1.2.4,1.4a43.2,43.2,0,0,0,6.8,1.9,70.9,70.9,0,0,0,8,.1c1.5,0,3-.2,4.5-.3a5.2,5.2,0,0,1,3.4-6.5l2.1-.8,6.4-2.7c-3,.2-6,.5-9,.6a33.8,33.8,0,0,0-14.1,3.2Zm108.9-46.3v.4l4.4,1.7a116.5,116.5,0,0,1,20.5,11.9c3.8,2.7,7.6,5.2,11.1,8.2,8.3,6.9,14.9,15.5,21.6,23.9a287,287,0,0,1,17.3,24.7c1.1,1.8,2.1,2.2,4.5,1.6-1.7-2.7-3.3-5.4-5.1-8-5.5-7.6-11.1-15.2-16.6-22.9-8.8-12.3-19.2-22.9-32.2-30.9a182.4,182.4,0,0,0-20.1-10.5l-1.8-.5h-2.8ZM83.4,269.6c0-.1,0-.2.1-.2-1.5-1.1-3-2-4.3-3.1-4.8-4.1-9.9-7.8-15.8-10.1-4.3-1.6-8.5-2.3-13-1.1a7.5,7.5,0,0,0-4.1,2.4c-.4.4-.4.7,0,1l1.5,1.7c5.3,5.5,11.4,9.2,19.4,8.8,5.2-.2,10.4-.3,15.5,1.4.2.1.5-.2.7-.4a40.8,40.8,0,0,1-4.2-1.8,77.1,77.1,0,0,0-14.7-5.7L54.7,260l-1.1-.4v-.4l5.6,1.6c6.9,1.7,13.6,3.7,19.9,7.1C80.5,268.6,82,269,83.4,269.6Zm217.7,82.6.2-.2c7,7.5,15.6,13.4,20.9,22.4-.6-1.5-1.4-3-2-4.6-2.1-5.4-4.4-10.7-8-15.3s-6.7-7.3-11.7-8.5a7.2,7.2,0,0,0-4.8.1,1.3,1.3,0,0,0-.5.9,7.3,7.3,0,0,0,.5,2,60.3,60.3,0,0,0,2.6,7.1c2.1,5.1,6.2,8.3,10.9,10.7s8.5,4.6,11.9,8.2c.2.2.7.1,1.2.2a71.9,71.9,0,0,0-11.5-13.5l-6.7-6.4Zm-59.8-70.4h-1a54.5,54.5,0,0,1-7-.1,75.6,75.6,0,0,1-8.3-1.4c-8.7-2-15.7,1.6-22.3,6.7-.2.1-.4.7-.3.8a9.3,9.3,0,0,0,2.3,2.5,17.2,17.2,0,0,0,10.4,2.5,46,46,0,0,0,19-6.3c2.2-1.2,4.5-2.2,6.7-3.3l.6-.4c0-.1-.1-.2-.1-.3a7.6,7.6,0,0,0-1.6.3l-13.8,3.5a57.3,57.3,0,0,1-17,2.4l-.6-.2,4-.2c6.3-.3,12.3-1.9,18.2-3.6Zm75.9-19c-.5-1.8-1.1-3.5-1.4-5.2-.7-4.1-1.2-8.3-1.8-12.4-2.3-14.4-2.8-28.8,1.1-43.1,3.1-11.5,6.7-22.8,12.4-33.3l3-5.6-2.3-1-.3.4a165.8,165.8,0,0,0-10.3,21.2,115.6,115.6,0,0,0-6.1,21.6,121.6,121.6,0,0,0-2,23.3c0,10.4.8,20.7,3.8,30.7a12.5,12.5,0,0,0,2.4,4Zm-60.3-34.6a20.8,20.8,0,0,0-1.2-3c-.8-1.8-1.7-3.5-2.4-5.3s-3.8-5.3-6.1-7.6c-.6-.5-1-.4-1.6.1a16.6,16.6,0,0,0-4.6,10.3,15.9,15.9,0,0,0,4,12.8,50.5,50.5,0,0,1,9.8,18.8,24.8,24.8,0,0,0,1.7,3.7h.2c-.4-1.4-1-2.9-1.3-4.3s-1.2-5.8-2-8.6a47.2,47.2,0,0,0-3.8-10.3,29.8,29.8,0,0,1-3.2-12.1c-.2-2.4,0-4.8,0-7.2h.3a16.2,16.2,0,0,1,0,2.2,35.4,35.4,0,0,0,2.8,16.1c1.3,2.9,2.4,5.9,3.6,8.9h.2v-.5a70.1,70.1,0,0,0-.5-8A5.1,5.1,0,0,1,256.9,228.2Zm74.3,73,.3-.2,6.1-5.6a16.8,16.8,0,0,0,5-9.2,8.3,8.3,0,0,0-.1-2.7,27.6,27.6,0,0,1-.8-2.7c-.1-2.2-.1-4.4-.2-6.6s0-5.6-1.9-8a5,5,0,0,1-.3-1.3l-3.4,2.4a13.5,13.5,0,0,0-4.8,5c-.8,1.5-1.5,3.1-2.3,4.6a3,3,0,0,0,.4,3.9,10.1,10.1,0,0,1,2.1,5.5c.3,3,.9,5.9,1.4,8.8,4-7.1,5.1-14.6,4.2-22.6.2.2.2.4.3.5a39.5,39.5,0,0,1-.3,11.9C335.8,290.7,332.9,295.7,331.2,301.2ZM34.3,145a30.4,30.4,0,0,1,13.4,5.1c4.1,2.9,7.9,6.2,11.8,9.3a3.4,3.4,0,0,1-.3-.8L56,151.7a16.3,16.3,0,0,0-7.1-7.8,7.2,7.2,0,0,0-2.5-.7c-2.1-.4-4.2-.5-6.2-1s-4.7-1.4-7.1-2a10.7,10.7,0,0,0-3.1,0,16,16,0,0,0-2.3.3c.3,1.2.7,2.5,1.1,3.8a14.4,14.4,0,0,0,3.5,6.4c1.1,1.2,2.4,2.2,3.5,3.5a2.8,2.8,0,0,0,3.5.8,10.3,10.3,0,0,1,6.5-.2c2.7.6,5.6.9,8.4,1.3v-.3l-4.6-4A38.9,38.9,0,0,0,34.3,145ZM152.9,277.6c10-2.2,18-6.8,21.7-17a3.7,3.7,0,0,0-1.4.7,32.2,32.2,0,0,1-8.1,5.5l-1.7.8c-4.3,2.3-8.6,4.5-12.8,6.9-2.3,1.3-4.5,3-6.9,4.7a21.9,21.9,0,0,1,3.3.6,6.2,6.2,0,0,0,3.8,0,13.9,13.9,0,0,1,4-.6c2.5.1,5.1.4,7.6.7a5.8,5.8,0,0,0,3.9-.5,59.5,59.5,0,0,0,5.3-3.4,11.4,11.4,0,0,0,2.9-2.9,29.3,29.3,0,0,0,3.2-10c.3-1.5.4-3.1.6-5-1.3,1.1-2.7,1.6-3.3,3.1a24.7,24.7,0,0,1-14.8,14.5A25.3,25.3,0,0,1,152.9,277.6Zm2.6-9.6a.4.4,0,0,1,.1-.3c-2.6-1.5-5.2-2.8-7.7-4.3a26,26,0,0,1-3.2-2.6c-.4-.4-.7-1-1.1-1.5a1.6,1.6,0,0,0-1.8-.9l-3.5.2c-4.5.2-8,2.5-11.2,5.1l1.3,1.2a16.2,16.2,0,0,0,1.9,1.8l4.2,2c2.9,1,5.9,1.9,8.1,4.2a3.5,3.5,0,0,0,1.4.6,37,37,0,0,0,4.7.2c3.9-.3,7.1-2.4,10.5-4l2.4-1.3a13.8,13.8,0,0,0-2.9.1c-1.8,0-3.5-.1-5.3,0a34.2,34.2,0,0,1-18-3.7l-.8-.5v-.2A34.5,34.5,0,0,0,155.5,268ZM318,305.5a24.5,24.5,0,0,0,6.7-15.9,19.4,19.4,0,0,1-1.6,8.6,22.8,22.8,0,0,1-4.6,7.2,6.8,6.8,0,0,1,1.1,2,8.8,8.8,0,0,1,0,2.3,31.1,31.1,0,0,0,11.2-9.5c2-2.9,1.6-5.9.4-8.9s-3.4-4.4-6-5.4-3.9-1.3-5.5.5a1.2,1.2,0,0,0-.4.8,54.2,54.2,0,0,1-.1,5.7,16.9,16.9,0,0,1-1.2,3.6c-.8,1.7-1.7,3.3-2.5,5.1-.1.2.1.8.2.8a2.2,2.2,0,0,1,1.9,2.4C317.6,305,317.8,305.1,318,305.5ZM69.3,40.3A35.2,35.2,0,0,1,70.8,37a17.1,17.1,0,0,1,2-2.7l7.8-9.7a2.5,2.5,0,0,0,.6-1.3,39.6,39.6,0,0,0-.5-4.7c-.5-2.3-.6-2.3-2.9-1.7h-.6c-4.4,1.4-7.8,3.9-9.7,8.2-.4,1-.7,2.1-1.1,3.1a20.5,20.5,0,0,0-.2,15.6,19.8,19.8,0,0,1,.6,2.6c.7,3,1.3,6,2,9a2.3,2.3,0,0,0,2.4,2c-1.8-2.8-2-5.9-2.1-8.9s0-5.2-.1-7.8a21.9,21.9,0,0,1,1.9-10.4c1.5-2.9,2.8-5.8,4.2-8.7l.7-1.9h.3c-.6,1.6-1.2,3.3-1.9,4.8s-2.6,5.2-3.8,7.9A19.2,19.2,0,0,0,69.3,40.3Zm78.1,154.8.4-.2,8.7-8.1a30.4,30.4,0,0,0,6.2-7.7c1.4-2.5,3-4.9,4.6-7.4a11.4,11.4,0,0,0,1-1.9c.9-3.3,1.9-6.6,2.8-9.9a12.6,12.6,0,0,0-.1-6.1c-.3-1.3-.5-2.5-.8-3.8s-.9-4-1.4-6l-.5-.8a3.8,3.8,0,0,0-.8,1.3,15.3,15.3,0,0,0-1.3,6.4,23.1,23.1,0,0,1-.6,5.2,42.8,42.8,0,0,0-1.8,10.6,8.2,8.2,0,0,1-.7,2.8,65.9,65.9,0,0,1-3.3,6.5c-2,3-4.2,5.7-6.3,8.5A50.4,50.4,0,0,0,147.4,195.1Zm117.5,68.1v.3l3.4-2c4.5-3.2,7.8-7.5,11.1-11.9a24.8,24.8,0,0,1,6.1-6.4c2-1.5,4.2-2.7,6.9-2.4a6.8,6.8,0,0,1,4,2.1,46.3,46.3,0,0,0-2.1-5.6,4.7,4.7,0,0,0-3.2-2.6,27.5,27.5,0,0,0-4.1-1.1c-3-.4-5.7.2-7.7,2.8a74.6,74.6,0,0,0-6.1,11.5c-2.1,4.4-3.6,9.2-6.7,13.1a7.6,7.6,0,0,1-.8,1.1,2.6,2.6,0,0,0,1.3-.6c3.3-2.5,5.4-5.9,7.1-9.6s3.6-7.6,6.5-10.8a13.1,13.1,0,0,1,8.4-4.8,6.1,6.1,0,0,1,4.8,1.4h-.4a7.4,7.4,0,0,0-7.2-.2,17.9,17.9,0,0,0-6,4.6,41.4,41.4,0,0,0-6,10.4C272.2,256.9,269.6,260.9,264.9,263.2ZM69.1,188.3c.1,1-.4,1.9.6,2.6,7,5.7,14,11.6,21.6,16.5,12.6,8,25.9,14.1,40.6,17.1a127.3,127.3,0,0,0,19.4,2.6H154c-.4-1.1-.7-2-1.1-2.9l-8.4-.6A103.6,103.6,0,0,1,117,218a92.4,92.4,0,0,1-19.1-9.6C88.1,202.2,78.7,195.3,69.1,188.3ZM278.2,386a.4.4,0,0,0-.1-.3c-1.4.3-2.9.4-4.3.8s-3.5,1.4-5.3,1.9-4.5,1.7-6.8,1.8a79.5,79.5,0,0,1-10.9-.4,36.9,36.9,0,0,1-5.6-1.1.6.6,0,0,0,.1-.4c4,1.5,8.3,1.4,12.4,1.6a26.5,26.5,0,0,1-7.6-3.6c-2.5-1.6-3.8-4.1-5.3-6.5-3.2,2.1-4,5.5-5,8.7a1.2,1.2,0,0,0,.4,1.3c2.1,1.2,4.1,2.5,6.3,3.5s5.1,2,7.7,2.9a6.4,6.4,0,0,0,2,.3,12.4,12.4,0,0,0,6.2-1.5l11-5.3A11.7,11.7,0,0,0,278.2,386Zm-33.6-20.8c5-1.3,9.9-2.6,15.2-2.3a11.5,11.5,0,0,0,3.7-.1,21.4,21.4,0,0,1,13.2,1.5l5.8,2.5-1.7-1.5a25.8,25.8,0,0,0-17.3-7c-2.2,0-4.5.4-6.7.2a25,25,0,0,0-6.7.7,10.6,10.6,0,0,0-2.5.9l-4.8,2-6,2.4a1.2,1.2,0,0,0-.5,2,14.2,14.2,0,0,0,4.8,4.3,8,8,0,0,1,4.4-2.6l11.2-3.1,4.7-1.5C255.6,362.9,250.1,364.1,244.6,365.2Zm22.2-72.8a28.2,28.2,0,0,0-8.1-9.1c-7.5-5.8-15.8-10.3-24.3-14.4A181.4,181.4,0,0,0,202,256.6c-5.3-1.4-10.7-2.4-16.1-3.6l-.9.2,1.6,2a2.7,2.7,0,0,0,1.3.7c3.3.8,6.7,1.5,10,2.4a287,287,0,0,1,28.8,9.8,106.3,106.3,0,0,1,17.3,8.4C251.9,281.4,259.9,286.2,266.8,292.4Zm-93.9-31.7c-2.1.4-2.9-1.2-3.9-2.3l.5-.4c-1.4-.7-2.4-1.6-1.9-3.5l-6.1.8a6.6,6.6,0,0,1-2.4.1c-2.1-.5-4-1.3-6.1-1.9-.2-.1-.5-.2-.6-.1a3.2,3.2,0,0,0-2.1,2.1,9.9,9.9,0,0,0,4,10.8,7.8,7.8,0,0,0,7.8,1A29.7,29.7,0,0,0,172.9,260.7Zm-21.5-74.2,3.2-4.2c1.9-2.7,4-5.3,5.7-8.1a17.8,17.8,0,0,0,3.2-8.9c0-1.6.1-3.2.1-4.8s.2-4.7-.9-6.9a27.1,27.1,0,0,0-2.1-3.7c-1.3-2-2.7-3.9-4.2-5.8s-1.4-1.1-2.3-.2a10,10,0,0,0-1.3,1.5c-1,1.3-.9,1.4.1,2.8s3.1,4.6,4.6,7a8.1,8.1,0,0,1,1.2,4.6,22.4,22.4,0,0,1-1.5,8.1c-1.2,3.4-2.7,6.7-4,10.1A25.2,25.2,0,0,0,151.4,186.5ZM349.3,176a5.6,5.6,0,0,1-1.2-4.6c.2-2.3.5-4.6.6-6.9a5.3,5.3,0,0,0-1.7-4.6,19.6,19.6,0,0,0-6.1-2.7c1.7,1.9,2.2,4.2,2.6,6.6s.9,5.2,1.3,7.7l-.4.4c-.4-1.9-.6-3.7-.9-5.4a60.1,60.1,0,0,0-1.4-6.4c-1.2-3.7-4.8-4.7-7.9-6.2h-.9c.3,1.4.7,2.7,1,4.1s.6,4.3.9,6.4C336.5,171.9,341.9,175.4,349.3,176ZM189.5,229.3l-2.7,5.3a26.7,26.7,0,0,0-2.8,9.1,31.1,31.1,0,0,1-.8,4.4,30.1,30.1,0,0,1-1.6,3.1l2.9,1.7c1.2-1.2,2.3-2.4,3.5-3.4l5.8-4.7a13.2,13.2,0,0,0,5.4-8.9c.2-.9,0-1.3-1-1.6a29.1,29.1,0,0,1-4.8-2.1A43.4,43.4,0,0,1,189.5,229.3Zm55,171.4v.6a38.6,38.6,0,0,0,5.7,1.2c3.1.2,6.3,0,9.5,0a12.8,12.8,0,0,0,8-2.4c2.1-1.4,4.3-2.5,6.5-3.7,4-2.2,7.7-4.7,10.2-8.6.2-.4.4-.9.7-1.4a1.7,1.7,0,0,0-1.3.4c-2.6,1.5-5.2,3-7.7,4.7a45.6,45.6,0,0,1-21.2,8.7,4.8,4.8,0,0,1-1.2,0c.1-.2.2-.2.3-.2a45.6,45.6,0,0,0,20.2-7.6l9.4-6.1q.1,0,.3-.3h-2c-1.7-.1-3.3-.1-4.4,1.6a4,4,0,0,1-1.2,1c-3.5,1.9-7.1,3.9-10.7,5.6a72.6,72.6,0,0,1-8.2,3l-8.2,2.2ZM127.2,301c-2.1,1.2-4.4,2-7,1s-3.9-2.9-5.2-5.6c-1,2-1.8,3.6-2.8,5.2a10.2,10.2,0,0,1-4.1,4l.8-.7,3.9-4.9c.7-1,1.3-2.2,2-3.4a.9.9,0,0,0,.1-.7,2.1,2.1,0,0,0-1.5-2.1,3.3,3.3,0,0,1-2-2c-.5-.9-.9-1.8-1.3-2.7-3.5,4.2-5.1,12.4-3.7,17.5a1.7,1.7,0,0,0,1.8,1.3l4.8.3a21,21,0,0,0,12.3-2.7c.4-.2.7-.4.8-.8A25.9,25.9,0,0,0,127.2,301ZM79.4,90.7a17.1,17.1,0,0,0,.7-2.6,22.9,22.9,0,0,1,6.2-11.9,22.6,22.6,0,0,1,8.6-5.8,19,19,0,0,1,10.3-.2c.8.1,1.2.1,1.5-.8l1.9-5.5a.7.7,0,0,0-.6-.6h-2.7c-9.4,0-17.2,3.4-23.2,10.6-2.4,3-4.3,6.4-4,10.5l.6,5.4C78.8,90,79.1,90.2,79.4,90.7Zm254.3,156-.3-.2-2.5,1.9c.1-3.7.2-7-1.7-10.3a12.8,12.8,0,0,0-1.2,3.2c-.3,3.2-.4,6.4-.6,9.6a13.5,13.5,0,0,1-6.4,10.6c-1.5.9-3.2,1.6-4.9,2.4l1.7,1.9,1.2-.9a67.8,67.8,0,0,1,8.4-4.5,18.3,18.3,0,0,1,8.9-1.4l6.9.6a9.7,9.7,0,0,0,2.4-.1v-.3h-.4l-4.9-1.6c-.4-.1-.6-.5-1-.8l.9-.9,4.2-3.1.9-1.1-.2-.3-12.5.5C333,250.2,333.3,248.4,333.7,246.7Zm-27.4,67.7a47.3,47.3,0,0,0-5.6-3.5c-5.1-2.4-10.5-3.9-16.3-2.7a26.6,26.6,0,0,1-6.9.2,34.7,34.7,0,0,0-5.6.1,9.9,9.9,0,0,0-6.7,3.7l3.2,1.1a33.8,33.8,0,0,0,14.5,1c6.1-1,12.1-1.4,18,.5A7.8,7.8,0,0,0,306.3,314.4Zm-257.2-89,.3-.2a30.9,30.9,0,0,0,7.1-14.9c1.1-6.3,2.5-12.4,6.4-17.7a7.6,7.6,0,0,0,1.3-5.4,34.8,34.8,0,0,1-3,2.6,18.3,18.3,0,0,0-5,5c-2.3,3.4-4.4,6.9-4.8,11.1a25.2,25.2,0,0,1-2.1,7.1C47.4,217.1,46.6,221.2,49.1,225.4Zm229.3,11.5,2.4-2.4a2.5,2.5,0,0,0,.6-1.4,19.2,19.2,0,0,0-2.1-10.2l-3.4-5.9a1.5,1.5,0,0,0-1.8-.8c-2.3.7-4.7,1.2-6.6,3s-1.8,1.4-2.6,2.2a15.6,15.6,0,0,0-4.4,5.7c2.3-.2,4.5-.4,6.4,1.2s1.9,0,2.4-.9,1.1-1.7,1.6-2.5a12.8,12.8,0,0,0,1.5-2.5,29,29,0,0,0,1.6-4.1,12.8,12.8,0,0,1-2.6,6.5c-.8,1-1.4,2.1-2.3,3.2C276.2,228.2,278.7,231.8,278.4,236.9ZM160,190.8c3.2.3,6,.4,8.8-.6a28.6,28.6,0,0,0,3.5-1.2,14,14,0,0,0,6.3-9c.3-1.1.5-2.2.7-3.2-10.8,1.4-19.5,6.6-26.6,14.2l5.6-.3h1.1c5.1-2.5,10-5,14-9l1.5-1.3C171,185.1,165.7,188,160,190.8ZM69.3,57.4c-.3-.9-.7-1.6-.9-2.3-1.2-4.7-2.3-9.4-3.5-14.1s-.4-8.6,1-12.8,3.3-7.6,7.1-9.9a1,1,0,0,0,.5-.8,15.6,15.6,0,0,0-4.6-9.1A38.6,38.6,0,0,0,65.1,16c-2.6,7.5-3.9,15.1-2.6,23.1.3,2.2.4,4.5.6,6.7a19,19,0,0,0,2.8,8.4A10.5,10.5,0,0,0,69.3,57.4Zm24.4,2.4.2.2c-1.7,1.4-3.2,2.8-4.9,4.1l-6,4.3a10.3,10.3,0,0,0-3.9,5.9,33.7,33.7,0,0,1-1.5,4.8c-.7,1.9-1.6,3.7-1.2,5.7l.6,2.6c.3.7.7,1.3,1,2l.4-.2c-.2-1-.3-2-.4-3a29.5,29.5,0,0,1-.2-4.2c.4-3.5,2.3-6.4,4.5-9.1a27.8,27.8,0,0,1,13-8.6,2.1,2.1,0,0,0,1.6-2c0-2-.2-4-.3-6.1l-.5-.3c-.6.4-1.2,1-1.9,1.4s-3.6,2-5.5,2.9-2.6,1.1-3.9,1.8c-5.2,2.8-8.4,7-8.9,12.9-.3,3-.2,6-1,9a2.9,2.9,0,0,0,1.8,3.6l-.3-1a9.7,9.7,0,0,1,.4-6.3,56.6,56.6,0,0,0,2-5.8,11.7,11.7,0,0,1,4.8-6.9c3.3-2.4,6.9-4.6,9.8-7.6ZM293.3,382a126.3,126.3,0,0,1,41.6,1.3c13.6,2.6,27.1,6,39.5,12.5a40.5,40.5,0,0,0-2.3-3.4l-.7-.4c-4.2-1.7-8.3-3.6-12.6-4.9q-9-2.9-18.3-5.1a99.6,99.6,0,0,0-21.8-3,166.3,166.3,0,0,0-23.4.6c-1.8.2-1.8.3-2.1,2.1C293.2,381.8,293.3,381.8,293.3,382Zm-101-161c-.1-1.9-.3-3.8-.3-5.7a19.4,19.4,0,0,1,2.2-10.1,16.9,16.9,0,0,0,1.7-3.6c1.2-4.6,3.8-8.4,6.3-12.3,0-.1.2-.2.3-.2-2.6,4.3-5.3,8.5-6.5,13.4a2.2,2.2,0,0,0,.7-.6c2.5-3.5,5-6.9,7.4-10.4,1.2-1.5,2.3-3,4.3-3.7l-.9-2.9a13.9,13.9,0,0,0-1.1-2.1c-.7-1.1-1.3-1.2-2.3-.4l-1.2,1.3c-2.1,2.3-4.1,4.5-6,6.8A18.2,18.2,0,0,0,194,195c-1.1,2.2-1.8,4.6-2.7,6.9C188.8,208.4,189.4,214.8,192.3,221Zm80.8,176.8-.3-.4-2.3,1.5c-1.6,1.1-3.5,1.8-4.6,3.2a7.6,7.6,0,0,0-2.1,5.9,27.5,27.5,0,0,0,3.8,10.7l1.7,2.2h.4c.4-1.3,1.2-2.6,1.3-4,.5-3.2.7-6.5.9-9.8a7.4,7.4,0,0,1,2-4.7,41.4,41.4,0,0,1,4.6-3.9,17.2,17.2,0,0,0,6.8-9.1c.1-.6.1-1.2.2-1.9a34.1,34.1,0,0,1-2.8,3.3c-2.3,2-4.7,3.8-7.1,5.6s-6.2,5.3-7.3,9.5a17.9,17.9,0,0,0,0,8.9c.1.5.1,1,.2,1.4h-.3C266.3,409.2,267.2,402.9,273.1,397.8ZM105.9,297.5h-.4c-1.3.6-1.7,1.9-2.2,3-1.7,3.9-2.2,8-2.7,12.2-.2,1.1.2,1.4,1.4,1.2s4.5-.6,6.7-.6,3.3.8,5,1c3.7.6,7.2.3,9.9-2.7l2.7-2.9c.2-.2.4-.6.3-.8a20.5,20.5,0,0,0-.5-2.4l-1.5.7a23.4,23.4,0,0,1-13.3,2.3,3.5,3.5,0,0,0-2,.3l-5.1,2.8a15.6,15.6,0,0,1-2.2,1l7-4.3h-.8a2,2,0,0,1-2.2-1.9c-.7-2.8-1.2-5.7-.2-8.5A.9.9,0,0,0,105.9,297.5Zm270-28.9h.3v-2.1a6.9,6.9,0,0,1,1-4.6,6.3,6.3,0,0,0,.9-3.5,16,16,0,0,0-1-4.2c-.7-2.2-2.7-2.9-4.7-1.7l-2.1.8-9.1,2.6c-5.3,1.3-10.5,2.5-16,2.5l-.4.2a6.3,6.3,0,0,0,2.2.5c4,0,8,0,12-.3,5.7-.5,10.2,1.3,13.5,6.1A40.2,40.2,0,0,0,375.9,268.6ZM208,229.3l.2.3,1.1-.2a14.6,14.6,0,0,0,6.7-3c3.7-2.9,7.2-5.9,10.8-8.9a4.9,4.9,0,0,0,1.4-1.8c1.4-3.5,2.9-7,4.1-10.6a29.6,29.6,0,0,0,.6-5.2h-.4l-3.2,4.3c-2.4,3.3-4.7,6.7-7.4,9.9s-4.2,4.2-6.3,6.3a17.1,17.1,0,0,1-5.4,3.8,1.6,1.6,0,0,0-.8.5c-.5,1.3-.9,2.5-1.3,3.9,2.1-1.6,4-3.3,6.1-4.7a42.1,42.1,0,0,0,14.7-16.1l.3-.4a1.1,1.1,0,0,1-.1.6,6.9,6.9,0,0,1-.4,1A40.2,40.2,0,0,1,215.9,223c-1.4,1.1-2.9,2-4.4,3.1Zm-62.3-31.5.3-.3c-.1-.1,0-.2-.1-.3a23.6,23.6,0,0,0-8.9-10.1,22.3,22.3,0,0,0-11.6-3.3c-3.4-.1-6.9-.8-10.3-1.2a8.4,8.4,0,0,0-6,1.3c-.3.2-.7.9-.6,1.1a1.9,1.9,0,0,0,1.2.7,14.2,14.2,0,0,0,3.5-.3,11.1,11.1,0,0,1,6,.5l3.7,1.6c3.8,2,7.5,4.1,11.6,5.3a16.1,16.1,0,0,1,7.5,4.5,6.6,6.6,0,0,0,2.4,1.1c.3.1.7-.1,1.2-.1l-2-1.8a31.7,31.7,0,0,0-10.2-6.3c-4.6-1.7-9.3-3.1-14-4.7l-4.1-1.4a2,2,0,0,1,1.1.1L131,189a31.5,31.5,0,0,1,13.3,7.8A17,17,0,0,0,145.7,197.8Zm131.6,12.1h.2a17,17,0,0,1,.1,2.2l-.3,4.2a6.4,6.4,0,0,0,1,3.8,21,21,0,0,1,3.4,10.3c.1,1.1.1,2.2.1,3.3l2.2-.5c.2-.1.6-.2.6-.4a36.1,36.1,0,0,0,1.9-6.4c.5-3.1-1-5.8-3-8a19.5,19.5,0,0,1-4.8-9.2c-.3-1.2-.8-1.4-1.8-.8-3.8,2.8-7.9,5.2-10.4,9.3a6.7,6.7,0,0,0-.7,1.8l.3.2a12.7,12.7,0,0,1,6.2-3.4c1.9-.4,3.7-1.2,4.7,1.3ZM354,291.8h.3l3.1-8.4c.4-1.1.1-1.6-1-1.4a7.9,7.9,0,0,0-3.1.8,10.1,10.1,0,0,0-4.8,8A8.5,8.5,0,0,1,347,295a8.3,8.3,0,0,0-1.5,2.3c-.9,2.7-1.7,5.4-2.4,8.2s-.7,3.4-2,4.7h.3a30.8,30.8,0,0,0,10.5-11,13.7,13.7,0,0,0,1.7-8.7c-.1-1.4-.1-2.7-.2-4.1h.2C353.8,288.2,353.9,290,354,291.8ZM71.4,152.6a55.9,55.9,0,0,0-2.2-5.7,55.2,55.2,0,0,0-4-6.6,14.2,14.2,0,0,0-8.4-5.3l-4.2-1.2v-.4l5.1,1.5.2-.3-7.2-5.8c-.7-.5-1.3-.3-1.4.5a9.5,9.5,0,0,0-.3,3.3,10.2,10.2,0,0,0,6.2,7.3,8.2,8.2,0,0,1,3.4,2.7,18,18,0,0,0,2.6,2.9l6.4,4.3C68.9,150.6,70.1,151.6,71.4,152.6ZM286,390.5c3.7-1.2,6.3-5.9,6.6-10.4l-4.7-.3v-.3l2.5.2c1.3,0,2.6-.9,2.6-2a40.1,40.1,0,0,0-.2-6,12,12,0,0,0-2.8-6.4c-.1.1-.3.2-.3.3a1.4,1.4,0,0,0-.2.6,10.9,10.9,0,0,1-2.5,5.3c-.9,1.3-2.1,2.4-3.1,3.6s-1.9,3.7-.3,5.7l.4.6a8.2,8.2,0,0,1,2,5.6ZM37.4,184.1c1.4,2.6,2.5,5.1,3.9,7.5a6.2,6.2,0,0,0,3.7,3,10.7,10.7,0,0,0,9.7-2,15.5,15.5,0,0,1,5.4-2.8c1.7-.5,2.7-2,3.9-3.3a5.1,5.1,0,0,1-3.6.4,5.4,5.4,0,0,0-2.2,0l-7.7,2.8c-1.2.5-2.4,1.2-3.7,1.6a7,7,0,0,1-5.4-.4c3.5,1,6.5-.2,9.5-1.8a38.5,38.5,0,0,1,4.7-1.9l3.2-.8-.2-.3c-3-1.3-6.1-1.8-9.1-.4a9.9,9.9,0,0,1-8.4.3C39.9,185.5,38.8,184.8,37.4,184.1ZM300.7,288.2c-1.9,1.8-3.8,3.6-5.5,5.5a6,6,0,0,0-1.9,4.3,10.3,10.3,0,0,0,5,9.1,14,14,0,0,1,4.2,4.2c1.1,1.4,2.8,2,4.2,2.7l-1.2-3.2a21.8,21.8,0,0,0-1.1-2.7,26,26,0,0,0-5.4-6.5,10.2,10.2,0,0,1-3.6-7.1v-.4c0-.1.1-.1.2-.3,1,4.7,1.2,5,4.7,8.5a47.4,47.4,0,0,1,4,4.9,18.8,18.8,0,0,0,1.2,1.8c.1-.2.2-.2.2-.3.2-3.4-.4-6.5-2.8-9a8.6,8.6,0,0,1-2.7-6.2A52.4,52.4,0,0,1,300.7,288.2ZM78.9,269.9h0l-1.7-.3c-3.2-.1-6.4-.3-9.6-.2a23.7,23.7,0,0,1-18.2-7.2,8.4,8.4,0,0,0-2-1.8,3,3,0,0,0-2.1-.3,2.1,2.1,0,0,0-.3,1.5,9.2,9.2,0,0,0,.9,2.3,25.7,25.7,0,0,0,6.6,7.7,13.4,13.4,0,0,0,14.7,1.8,29.6,29.6,0,0,1,14.1-2.3h.5a8,8,0,0,0-3.4-.5c-4.3.2-8.5.4-12.8.8a25.8,25.8,0,0,1-12-1.3,14.2,14.2,0,0,1-5.1-3.2l.6.2a18.6,18.6,0,0,0,12.8,4.1C67.6,271,73.3,270.4,78.9,269.9Zm210.2,94.9.3-.2-1.4-3.3c-1.8-3.4-3.7-6.8-5.4-10.3a19.8,19.8,0,0,1-2.2-11c.2-2.1.1-4.2.1-6.4s-.4-1-1.1-.6a5.5,5.5,0,0,0-1.7,1.3c-1.7,2.7-3.4,5.3-5,8.1a28.6,28.6,0,0,0-1.5,4.1c-.2.8.2,1,.7,1.4l7.3,5,.5.4c-3.3-7.7-4.5-13.2-3.4-14.6,0,.2.1.3.1.4a28.3,28.3,0,0,0,4.6,15.2c1.9,2.9,4.2,5.8,6.3,8.6A16.2,16.2,0,0,0,289.1,364.8Zm-82.8-84v-.3l3.7-1.9a19.1,19.1,0,0,1,16.2-.5,33.7,33.7,0,0,0,11.2,2.9,22.5,22.5,0,0,0,2.6,0l-.3-.4a30.9,30.9,0,0,1-14.3-5.1,12.6,12.6,0,0,0-12.3-1.3,24.1,24.1,0,0,0-8.4,5.7,26,26,0,0,0-2.7,3.8c-.4.8-.2,1.6.8,1.6a2.5,2.5,0,0,0,1.7-.3c1.2-.6,2.3-1.5,3.5-2.2a23.2,23.2,0,0,1,9.6-3.5,32.9,32.9,0,0,1,9.4.8l8.5,1.4v-.3l-.8-.2a26.1,26.1,0,0,1-7.7-2.2,19.3,19.3,0,0,0-17.2.4ZM319,373.9v-.2a27.8,27.8,0,0,0-2.7-2.1L306,365.5a20.2,20.2,0,0,1-7.6-8c-1.2-2.7-2.1-5.4-3.1-8.2a1.7,1.7,0,0,0-1.7-1.2c-.9-.1-1,.7-1.2,1.3s-.1.7-.2,1c-.4,3.7.6,7.2,1.8,10.7a14.5,14.5,0,0,0,13.8,9.2,9.8,9.8,0,0,1,2.9.5,35.6,35.6,0,0,1,8.8,4.2l.8.4.2-.3a68,68,0,0,0-9.1-5.1,38.6,38.6,0,0,1-13.9-10.1c-1-1.2-1.8-2.5-2.7-3.8h.3c.2.1.2.3.3.5a34.3,34.3,0,0,0,14,12.1l7.2,3.8ZM48.2,155.9c-1.3-.3-2.6-.7-3.9-.9a10.9,10.9,0,0,0-3.6.1c-2.5.5-5,1.3-7.5,2s-4,3.6-2,6a33.9,33.9,0,0,0,3.1,3.4,32.3,32.3,0,0,0,4.3,2.9,2,2,0,0,0,2.5-.2,2.7,2.7,0,0,0,.5-2.7c-.1-.5-.4-1-.5-1.4a3.4,3.4,0,0,1,0-2,13,13,0,0,1,2.5-3.9A31.7,31.7,0,0,1,48.2,155.9ZM331,289.4a45.2,45.2,0,0,0-.5-4.9,6.6,6.6,0,0,0-1-2.5c-1.4-2.3-3-4.5-4.5-6.7a3.5,3.5,0,0,0-6.1,0,26.1,26.1,0,0,0-2.4,4.3,27.2,27.2,0,0,0-1.3,4.9,1.9,1.9,0,0,0,1,2.3,5.8,5.8,0,0,0,2.6-.3c.4-.2.7-.7,1.2-.9a4,4,0,0,1,2-.7,11.1,11.1,0,0,1,4.5,1.1A29.5,29.5,0,0,1,331,289.4Zm-90.5-62.2c.4-2.3-.7-3.8-2.3-5l-3-2.5a7.1,7.1,0,0,0-4.6-1.9c-2.1,0-4,.2-5.6,1.8s-2,1.7-3.1,2.6l-.8.8c6.7-3,13.4-2.3,17.1,1.6l-1.8-1c-6-3.4-12-3-17.4,1.3-3,2.4-6.1,4.5-9.9,5.1-.1.1-.1.1-.1.3a5,5,0,0,0,1.3.3,13.6,13.6,0,0,0,8.6-2l2.9-2c2.1-1.3,4.3-2.5,6.9-1.9a25.8,25.8,0,0,1,4.2,1.2A22.1,22.1,0,0,0,240.5,227.2Zm-74.5,53-3.2.2c-1.8-.1-3.6-.4-5.4-.6a13.8,13.8,0,0,0-6.7.5,7,7,0,0,1-3.8,0,8.7,8.7,0,0,0-3.6-.3c-2.9.2-5.4,1.1-6.7,4.1-.5,1.1-.3,1.6.9,1.6h4.8l3.5-.2h0l-4.5-2.1a10,10,0,0,1,2.9,1,14.4,14.4,0,0,0,9.3,1.6A28.6,28.6,0,0,0,166,280.2Zm-6.1-42.8c4,.5,7.3,1.7,9.2,5.3a10.8,10.8,0,0,0,6,5.3l1.4.4a37.4,37.4,0,0,1-4.9-8.7,9.2,9.2,0,0,0-4.4-4.5l-.6-.4c.3-.1.4,0,.6,0,2.6,1.2,4,3.3,5.2,5.7s2.5,4.5,3.9,6.8a4,4,0,0,0,1.3,1.3c1.2.7,2.4,1.2,2.9,2.6-.1-1.6,0-3.3-.9-4.7a12.6,12.6,0,0,1-2.3-5,9.5,9.5,0,0,0-2.2-4.5c-2.2-2.4-4.7-4-8.1-2.8A76.5,76.5,0,0,0,159.9,237.4ZM151,264.3a31.8,31.8,0,0,1-1.4-5.3c-.3-2.3-.1-4.7,2.4-5.9a2.4,2.4,0,0,0,1.6-2.6c-.1-1.2-1.2-1.5-2.3-1.8h-.5a21.7,21.7,0,0,0-7.6.5c-3.2.6-4.2,3.2-2.2,5.9a32.8,32.8,0,0,1,3.2,4.4C145.8,262.3,148.6,263.1,151,264.3Zm-52.3.2a11.7,11.7,0,0,0,4,4.5,4.1,4.1,0,0,0,3,1,7.6,7.6,0,0,1,2.6.1c3.6.5,7,1.3,10.6,1.7s5.3,0,8,0v-.4a21.2,21.2,0,0,1-3.6-1,18.8,18.8,0,0,0-7-1.2,22.5,22.5,0,0,1-8.5-1.6c-2.4-1-4.7-2.3-7.4-2.3a1.6,1.6,0,0,0-.1-.4,19.3,19.3,0,0,1,3.6.6c2.7.9,5.2,2.5,8.1,2.8l7.6.8a33.7,33.7,0,0,0-4.4-3.3,20.9,20.9,0,0,0-8.6-3.2C103.8,262.2,101.4,263.8,98.7,264.5Zm112.5-32.9-.4-.2c-3.2-.8-5.9-2.3-7.5-5.4a2,2,0,0,0-2.3-1.2,13.5,13.5,0,0,0-3.3.9,14.4,14.4,0,0,1-7.9,1.5h-1.2l1.3,1.7a17.6,17.6,0,0,0,7.9,4.6,2.3,2.3,0,0,0,3-1.6l.6-1.9h.3a11.7,11.7,0,0,1-.6,2,13.3,13.3,0,0,1-1.4,1.9C204.6,235.2,209.5,234.1,211.2,231.6Zm-40.6-23.9a.4.4,0,0,0,.1-.3,27.6,27.6,0,0,1,10.8,7.3c-.6-2.6-1.2-5.4-1.9-8.3a1.7,1.7,0,0,0-.8-.6,22.8,22.8,0,0,0-3.7,0q-3.4.4-6.9,1.2a12,12,0,0,0-3.1,1.3c-.9.6-.8,1.1.2,1.5a23,23,0,0,0,4.2,1.4,20.2,20.2,0,0,1,9.8,5.7l6.8,7.6,2.3,2.1.3-.3c-.6-1-1.1-2-1.8-3s-1.9-2.4-2.6-3.8c-2.6-5.1-6.8-8.4-11.8-11Zm-60.9,78-7.2.4a2.6,2.6,0,0,0-1.3.6c-2.7,2.2-3.7,5.3-4.9,8.4-.5,1.3.5,2.6,1.9,3.1a8.9,8.9,0,0,0,6.8-.7,2.4,2.4,0,0,0,1.4-1.7,16.9,16.9,0,0,1,3.5-7.1c.1-.1.1-.3.2-.7-4.2,1.9-6.9,5.9-11.4,6.9l.7-.5c2-1.2,4-2.4,5.9-3.7l3.1-2.2c1.7-1,1.7-1,1.2-2.9Zm51-102.5,5.2-3,.7-.6,6-5.7c3.4-3.4,5.5-7.1,4.4-12.2a20.8,20.8,0,0,1-.3-4.3,13.4,13.4,0,0,1,0-2h-.3c-.7,1.6-1.3,3.2-2.1,4.8s-2.4,5.1-3.8,7.5-3.9,5.7-5.7,8.6S161.9,181.1,160.7,183.2Zm73.5,44.5c.2,1.9.4,3.6.7,5.3a10.9,10.9,0,0,0,.9,2.3c2.7,4.3,7,6.7,11.5,9l-.7-1.1a26.6,26.6,0,0,0-8.6-10.5,7.3,7.3,0,0,1-2.5-3.5,38.1,38.1,0,0,0,3.3,3.6,24.4,24.4,0,0,1,7.7,9.5c1.4,2.9,4.1,4.7,6.1,7.1a37.1,37.1,0,0,0-6.2-11.4,76.6,76.6,0,0,1-4.5-6.6,4.7,4.7,0,0,0-1.8-1.9l-2.8-1.2A24.4,24.4,0,0,0,234.2,227.7ZM357.4,124.1c-.3-2.3-.5-4.3-.8-6.2s-.3-1.7-1.6-1.4a53.5,53.5,0,0,0-6.7,2.4,3.6,3.6,0,0,0-1.6,1.4c-2.9,3.7-4.2,8-5.2,12.6,1.1-1.8,2-3.5,3.1-5a40,40,0,0,1,3.8-4.4,13.8,13.8,0,0,1,4.7-3.1c-4.9,2.8-8.1,7.1-10.7,11.9.2,0,.3,0,.3-.1a21.5,21.5,0,0,1,10-6.5ZM185.2,224.3a42.8,42.8,0,0,1-2,4.3,21.2,21.2,0,0,0-3.3,9.9,55.8,55.8,0,0,0,.1,7.1,35.8,35.8,0,0,0,.9,4.5,6.4,6.4,0,0,1,.2.7,10.5,10.5,0,0,0,2.3-5.3,31.4,31.4,0,0,1,1.3-6.8c1.2-3.1,2.8-6.1,4.2-9.2a1.7,1.7,0,0,0-.1-1.2C188.2,226.4,186.2,225.8,185.2,224.3Zm116,86c-.7-.6-1.3-1.3-2.1-1.9l-7.3-5.8a34.2,34.2,0,0,0-11.1-6.4l-2-.5,5,12C289.8,306.3,295.5,308.1,301.2,310.3Zm-41.8-82.8c.4-.2.6-.2.6-.3a19.3,19.3,0,0,1,5.2-6.8,1.2,1.2,0,0,0,.4-.8,8.6,8.6,0,0,0-2-6.5c-1.6-1.6-3.4-1.6-4.8.2s-2,2.5-2.9,3.8a21.3,21.3,0,0,0-1.4,3.5,1.2,1.2,0,0,0,.1,1c.9,2.2,1.8,4.3,2.8,6.5l.8-.2c.8-.1,1.1-.5,1-1.4a10.9,10.9,0,0,1,.3-2.6,29.5,29.5,0,0,0,1-8.3v-.9a.6.6,0,0,1,.3.6l-.6,7C260,223.9,259.7,225.6,259.4,227.5ZM99,117.8c0,.1.1.2.1.3,6-1.8,12-3.5,17.9-5.4s10.9-5.4,16.4-8.8a10.6,10.6,0,0,0-2.3-.2,61.7,61.7,0,0,0-7.7,1.5c-5.4,2.1-10.9,4.2-15.6,7.7a18.6,18.6,0,0,1-3.5,2.2ZM338.6,333.3l2.1,6.1c2.8,8.2,5.5,16.4,9.2,24.1,1.1,2.3,4,5.3,5.9,6-6.3-11.9-9.9-24.9-14.8-37.5Zm-50-5.4h-.4c-4.9.1-8.8-2.1-12.2-5.4s-4.3-4.6-6.5-7-3.9-3.3-6.8-3c-1.3.1-1.5.3-.9,1.5a7,7,0,0,0,.6.9c1.2,1.3,2.3,2.6,3.6,3.8,3.2,3,6.1,6.4,10.1,8.6A13.5,13.5,0,0,0,288.6,327.9ZM71.3,208.5c-1.6,5.2-5.6,8.4-10.3,10.7-2.5,1.2-5,2.2-7.5,3.3s-4.4,2.8-5,5.7c-.2,1,0,1.4,1,1.1a11.5,11.5,0,0,0,3.1-1.1l8.4-4.3a22.9,22.9,0,0,0,6.9-5.1A12.2,12.2,0,0,0,71.3,208.5Zm255.2-50.6h.1l.6-6.1c.2-2.1.7-4.2,0-6.3-1.6-4.9-3.8-6.8-8.4-7.1s-7.5-.4-10.8-2.9a16.3,16.3,0,0,0,3,2.9c2.3,1.7,4.7,3.1,7,4.7,4,2.8,6.8,6.4,7.6,11.3ZM310.2,337.5l.4-.2c-.4-1.5-.8-3-1.3-4.5-1.4-4.3-2.7-8.7-2.1-13.5-4.1.9-7,3.8-10.6,5.6ZM293.1,301c-1.2-3.8.5-6.6,3-9.1l.3-.2c1.9-1.8,3.8-3.6,5.8-5.3a4.9,4.9,0,0,0,1.9-3.5,19.1,19.1,0,0,0-.2-4.1,4.9,4.9,0,0,0-.5-1.6l-1.6.8a4.6,4.6,0,0,0-.7.7c-1.3,1.6-2.8,3.1-4,4.7s-3.2,4.7-4.7,7.2a10,10,0,0,0-1,2.9C290.8,296.2,291.7,298.7,293.1,301ZM47.3,195.5c-4.3,0-6.3-2.8-7.9-6.2s-2-4.6-3.1-6.9a9.4,9.4,0,0,0-1.6-2.3c-1.5-1.3-3.5-1.5-5.4-1.9s-1.2-.1-1.3.1a3.4,3.4,0,0,0,.1,1.4,6.7,6.7,0,0,0,.6,1.2,56.5,56.5,0,0,0,3.6,5.8,63.2,63.2,0,0,0,5.2,6.4C40.1,196,43.6,196.4,47.3,195.5Zm66.9-87-7.4,1.9c-2.3.6-4.7,1-7,1.7-5.2,1.6-10.5,2.8-16,2.2-1.6-.1-3.2-.4-4.8-.6a9.4,9.4,0,0,0,1.5.6c3,1.1,5.8,2.7,9.1,3.2s7.9.8,11.5-1.3c1.1-.6,2.2-1,3.3-1.7Zm228,48.5a34,34,0,0,1,3.7,1.6c.7.4,1,.3,1.4-.4a10.3,10.3,0,0,1,6.1-4,31.8,31.8,0,0,0,5.8-2.3c3.4-1.5,5-5,7.7-7.5l-11.4,4.1a17.6,17.6,0,0,0-4.2,1.7C348.3,152.3,345.4,154.6,342.2,157ZM59.5,185.2h0l1.2,1c.2.2.5.5.8.5s4.1-1.5,4.4-4c-.6-.3-1.8.2-1.9-1s.7-.4.7-.6a2.9,2.9,0,0,1,1.5-2.6c-1-1.2-.5-3.2-2.3-3.8-.1-.1-.1-.4-.2-.6s-2.5-1.5-3.1-.8c1.1.2,1.2.6.4,1.6l-1.2-1.1-.2.9-.5-.4-2,1-.4-1.2-3.5,4.3a2.6,2.6,0,0,0-.4,3.2c.3.4.2,1.1.3,1.6a2.9,2.9,0,0,1,.2.9l.9-.6.4,1c.7-1.4,1.1.8,1.9.1l-.3-.3c-.5-1-2-1.3-1.8-2.8s.3-1,1-.8a3.1,3.1,0,0,0,1.3-.3c.3-.1,1.8-.2,2,.2a.7.7,0,0,1-.3.6l-2,1c.5,1.2.9,2.2,1.3,3l1.2-.9ZM77.6,89.4,76.3,88c-1.1-1.2-2.1-2.3-3.1-3.6s-1.7-2.3-2.7-3.4a6.1,6.1,0,0,0-6.1-2.2l-3.9.6a2.7,2.7,0,0,0,.7,2.3c1,1.1,1.9,2.3,3,3.4a10.5,10.5,0,0,0,2.7,2C70.3,88.6,73.9,88.9,77.6,89.4ZM77,110.2c8.1-3.7,16-7.9,20-16.7h-.3c-2,1.1-4,2.2-6,3.1a20.4,20.4,0,0,0-11,9Zm247.4,29.5a14.6,14.6,0,0,0-5-4.9l-10.6-6.4a3.5,3.5,0,0,0-1.6-.8c-.7-.3-1.2,0-1.3.8a7.3,7.3,0,0,0,3.2,7.3,14.8,14.8,0,0,0,5.9,2C318.1,138.2,321.5,137.6,324.4,139.7ZM240.7,283.8c0-.1-.1-.2-.2-.3l-.9.4-2.6,1.3a56,56,0,0,1-17.5,7.3c-5.5,1.2-10.6.8-15.5-2.2a5.9,5.9,0,0,0-1.4-.2v.3c.3.4.5,1,.9,1.3a13,13,0,0,0,2.3,1.8c4,2.3,8.3,3.5,12.9,2.4a34.3,34.3,0,0,0,11.1-4.8l10.2-6.5ZM173.8,235c-2.4-3-5.2-4.5-8.9-4.1s-9.7,2.4-14.4,4.2l-.6.4c-.7.5-.7,1,.1,1.4l2.9,1.4a6.1,6.1,0,0,0,5.4-.4c2.4-1.3,4.8-2.6,7.3-3.7s4.5-1.4,6.7,0ZM46.7,254.9a1.4,1.4,0,0,0,.2.6l1.7-.3c3-.9,6-1.6,9.2-1A31.5,31.5,0,0,1,70,259c3.5,2.2,6.7,4.9,10,7.4l3,2.2.2-.3a6.1,6.1,0,0,0-.7-1l-9.6-8.8A30.3,30.3,0,0,0,62.4,252a17.5,17.5,0,0,0-13.6,1.3A16.6,16.6,0,0,0,46.7,254.9ZM322.2,373.5h.4a5.9,5.9,0,0,0-.2-1.4c-.8-2.2-1.7-4.3-2.3-6.5-1.4-5.4-3.2-10.5-6.6-15s-8.7-6.9-14.7-6.8a4.9,4.9,0,0,0-1.6.5v.4a7.6,7.6,0,0,0,1.6.6c3.8.8,7.3,2.1,10.1,5a46,46,0,0,1,11,17.7C320.5,369.8,321.4,371.6,322.2,373.5ZM171,259.4c.5-.7,1.2-1.7,1.9-2.5s.5-.3.7-.3a2.8,2.8,0,0,1,1.6,1.9c0,.2-.5.5-.5.5s-1.5-.3-2.2.2-.5.1-.9.1-.3.9.5.9a15,15,0,0,1,2-.2c1.3.2,1.7-.8,2.3-1.6s.2-.5.3-.8l.8.8a3.5,3.5,0,0,1,.3-1.1,11.5,11.5,0,0,0,1.4-1.9,4.1,4.1,0,0,0,1-2.7c0-.4-.1-.8-.7-.8s-.7-.2-1-.3l.8-.9c0-.2-.1-.7-.2-.7s-1.8-.3-2.3.1-1.2.6-1.8.2-1.1-1.1-.1-1.8l-3.7-1.5c-.1-.1-.3,0-.4.1s-.9.8-.9,1.3-.6.9-1.2.7h-.4l.4.8,2.7-.9.6.3,1.7,1.8c.1.1.1.4.2.5h-.5c-.8-.7-1.4-.8-2.1.2s-.5.3-.8.4l-.2-.4.7-.6.4-.4-.9-.5-.5-.2-.3.4c.4,1-.4.9-1.1,1s-.1,2.6,1.8,2.8c-.2,1.5-.3,1.6-1.8,1.1a4.6,4.6,0,0,0,.3.9h-.5Zm171.8,28.7h.1l.6-2.1c.6-2.5,1.1-5,1.8-7.4a20.2,20.2,0,0,0,.1-10.9,21.7,21.7,0,0,1-.7-2.4c-.6-3.2-.1-3.2-3.5-1.8-1.5.6-1.7,1.6-.9,3a9.5,9.5,0,0,1,1.3,3.3,30.4,30.4,0,0,1,.4,5.2c-.1,3-.1,5.9,1.1,8.8a7.2,7.2,0,0,1,.1,2.1C343.1,286.6,342.9,287.4,342.8,288.1ZM50.4,144.2V144l-1.1-.7-7.1-4.5a20.3,20.3,0,0,0-7.1-3c-2.1-.3-4.3-.4-6.4-.6s-2.1-.3-2,1.8a4.1,4.1,0,0,1,.1,1.1c.2,1.6,1,2.1,2.6,1.7a9.8,9.8,0,0,1,3.4-.2c2,.4,3.9,1.1,5.9,1.6a35.6,35.6,0,0,0,6.3,1.4A9,9,0,0,1,50.4,144.2Zm307.1,3.1a8.4,8.4,0,0,0,7.3-7.7c.3-2.9.5-5.7.8-8.6v-1.3c-.1-.8-.5-1.2-1.3-1.1l-3,.4c-.7,0-.9.4-.8,1.1s.3,3.9.4,5.8A18.2,18.2,0,0,1,357.5,147.3ZM182.9,228.4c-2.8-2.7-6.1-1.3-9.4-1.3q.9,3.6,1.8,6.9c.9,2.9,1.9,5.8,2.9,8.6a23.4,23.4,0,0,0,.9,2.4C179.1,239.1,179.3,233.3,182.9,228.4ZM73.9,109.7c-.9-2.1.1-3.8,1.3-5.2s3.5-6.1,4.5-9.4-.9-5.4-4.5-5.4a19.4,19.4,0,0,1,.2,2.4c.1,2.6-.9,4.9-1.9,7.1A11.2,11.2,0,0,0,73.9,109.7ZM123.2,267c1.9,1.3,3.5,2.6,5.3,3.6a14,14,0,0,0,4.3,2c3.4.6,6.9.9,10.4,1.4.1-.1.1-.2.2-.4l-6-3.4c-1.2-.6-2.6-.8-3.8-1.3s-4.5-1.8-5.9-4.1a1.7,1.7,0,0,0-1.8-.4A32.5,32.5,0,0,0,123.2,267ZM74.7,89.7l-4.3-.8a28.5,28.5,0,0,1,.4,4.1,23.8,23.8,0,0,1-.6,3.7c-.6,3.1-1.1,6.1-.2,9.2s2.1,3.5,3.7,4.9v-.2l-.3-.6c-1-2.7-2-5.4-1.2-8.4s1.2-3.6,1.9-5.4A9.7,9.7,0,0,0,74.7,89.7Zm63,212a18.3,18.3,0,0,0-.8,8,5.5,5.5,0,0,0,6.7,4.3,7.4,7.4,0,0,0,4-2.7l.8-1.2-1.4-.7h-.5l-5.1-1a3.6,3.6,0,0,1-3.2-3.2C138,304,137.9,302.9,137.7,301.7Zm173.4,13.5a22,22,0,0,0,8.1,5.2,2.7,2.7,0,0,0,1.5.3c3.7-.4,6.9-2.1,10.1-4.1h-.3a37.2,37.2,0,0,1-15.9-1.8h-1ZM165.8,191.4c-3.1-.1-6.8-.2-10.6-.1a8.9,8.9,0,0,0-3.5.8,18.9,18.9,0,0,0-2.8,2.3,5.3,5.3,0,0,0-1.5,3.4l3.8-.3a7.9,7.9,0,0,0,4.2-1.5,27.7,27.7,0,0,1,3.7-2.2C161.5,192.8,163.9,192.1,165.8,191.4Zm-33.7,124-5.3-6.3-.8,1.2-3.3,7.3a9.3,9.3,0,0,0-.5,2.4,13.2,13.2,0,0,0,2.8-.2A19.3,19.3,0,0,0,132.1,315.4Zm151.4-69.7.9-.5c4.4-1.7,5.2-1.2,7.3,1.7.9,1.3,1.8,2.5,2.8,3.7s1.1.8,1.5-.2a22.5,22.5,0,0,0,.8-2.4,5.2,5.2,0,0,0-1.9-5.7,5.4,5.4,0,0,0-5.5-.7A16.1,16.1,0,0,0,283.5,245.7ZM13.4,164.8l-.2-.2-2.9,1.5a2.1,2.1,0,0,0-1.5,2,15.4,15.4,0,0,0,.3,4.8c1.2,3.9,4.4,6.1,7.5,8.3a11.5,11.5,0,0,0-1.4-1.7c-1.5-1.9-2.3-3.8-1.3-6.2a4.4,4.4,0,0,0-.1-3.2C13.3,168.3,12.8,166.7,13.4,164.8Zm298.5,94.3-1.9-2c-1.1-1.4-2.5-1.5-4.2-1.1-5.2,1.2-7.4,6.2-8.8,11.4a19.7,19.7,0,0,0,1.4-2.2c1.2-1.9,2.7-3.1,5.1-2.9a5.4,5.4,0,0,0,3-1C308.1,260.2,309.6,259.1,311.9,259.1Zm-41.8,30.6a7.8,7.8,0,0,1-.7-5.4l.9-3.1a6,6,0,0,0-1.8-6.8c-.9-1-1.7-2.2-2.6-3.3-1.1,1.3-1,3-.7,4.7l1.2,6.6A12.8,12.8,0,0,0,270.1,289.7ZM10.4,211.9a3.4,3.4,0,0,0,2.3,1.7l5,.8,6.6.8a9.8,9.8,0,0,0,4.6-1.1,22.6,22.6,0,0,1-4.3-1.1,12.7,12.7,0,0,1-2.9-1.8,6.6,6.6,0,0,0-7.7-.6A22,22,0,0,1,10.4,211.9ZM81.9,23.1A19,19,0,0,1,83.8,21a2.6,2.6,0,0,0,.5-2.9c-.7-2.1-1.3-4.2-1.9-6.3a5.2,5.2,0,0,1-.2-1.1c-2.4,1.2-4.7,2.3-7,3.6s-2,1.8-1.2,3.3l4.8-1.5c1.3-.4,1.7-.2,2,1.1S81.5,21.1,81.9,23.1Zm60.8,204.3v-.2c-2.3.1-4.6.2-6.8.5a8.5,8.5,0,0,0-5.8,3.6,4.5,4.5,0,0,0,.8,6.2,5.7,5.7,0,0,1,2.9-3.2,5.3,5.3,0,0,0,2.6-3.1,4.1,4.1,0,0,1,3.1-2.9Zm30-14.4c.3,1.6.5,3,.8,4.4a2,2,0,0,0,.7.9l5.8,4.1,4.2,2.6a1.5,1.5,0,0,0-.2-2.1c-1.9-2.1-3.8-4.3-5.9-6.4A15.3,15.3,0,0,0,172.7,213Zm155.6-55.5h.2a15.5,15.5,0,0,0-.4,2.1,2.2,2.2,0,0,0,1.2,2.4,6.4,6.4,0,0,0,4.3.5c.6-.1.8-.4.7-1s-.3-2.5-.5-3.8a14.1,14.1,0,0,0-.9-3.2c-.5-1.3-1.5-1.5-2.5-.4A37,37,0,0,0,328.3,157.5ZM71.1,58.4l-1.8-.3a1.1,1.1,0,0,1-.1.6,108.6,108.6,0,0,0-.5,18.9c0,1.4.8,1.8,1.8,2.4A141.4,141.4,0,0,1,71.1,58.4ZM307.6,320a23.1,23.1,0,0,0,.6,7.5c.8,2.9,1.9,5.7,2.4,8.6s1.7,3,3.2,4.1.1-.3,0-.4a67.6,67.6,0,0,1-3.7-16,1.1,1.1,0,0,0-.3-.8ZM156.2,201.4l2,3.1a15.8,15.8,0,0,0,2.2,2.9,3.8,3.8,0,0,0,3.8.9,16.3,16.3,0,0,0,3.3-1.9l-3.8-2.2-4.5-2.6A3.2,3.2,0,0,0,156.2,201.4ZM107.8,81.2l.4-.3a16.3,16.3,0,0,1,6.6-2.9c1.5-.3,1.7-.6,1.5-2.1a6.1,6.1,0,0,0-.3-1.3c-.2-.8-.7-1.1-1.4-.9l-5.3,1a2,2,0,0,0-.6.7C108.4,77.4,108.1,79.4,107.8,81.2ZM307.4,314.3a4.3,4.3,0,0,0,2.1,5.4,15.2,15.2,0,0,0,6.6,1.5h3v-.3a25.3,25.3,0,0,1-8.3-5.4l-.7-.3Zm-52.6-58.2c-1.1-7.4-6.6-11-12.7-14.1l.6.7a23.9,23.9,0,0,1,6.5,7.6,24.2,24.2,0,0,0,2.5,3.1A37.4,37.4,0,0,0,254.8,256.1Zm-81.2-37.2a13.3,13.3,0,0,1,0,2,1.4,1.4,0,0,0,.8,1.7l5.2,3.3,3.5,2a10.7,10.7,0,0,0,.9-1.9c0-.2-.1-.7-.3-.8Zm101.7,75.4a48,48,0,0,0,6,13c.6.8,1.1.8,2,.4l-4.8-11.4a1.8,1.8,0,0,0-.6-.9ZM85.2,271.6a22.2,22.2,0,0,1,3.8.4,23,23,0,0,1,4.9,1.5c1.2.6,1.9.1,2.8-.8a65.6,65.6,0,0,1-7.1-2.4,48.3,48.3,0,0,1-6.2-3.7l-.3.3C83.8,268.6,84.6,270.2,85.2,271.6Zm61.4-73,8,7.2c.2-1.3.4-2.3.5-3.3a1.1,1.1,0,0,0-.3-.8c-.8-.8-1.7-1.4-2.4-2.2S148.9,198.1,146.6,198.6Zm96.9,82-3.1,4.6.3.3c3.6-1.6,7.2-3.1,11.5-3.3l-2-1.3a1.6,1.6,0,0,0-1.2-.2A6.3,6.3,0,0,1,243.5,280.6ZM262.1,263q1.8,3.8,3.6,7.2l.5.3h2.2c-1.1-2.2-2.1-4.3-3.2-6.4a.5.5,0,0,0-.3-.3Zm-146.8,2.2c3.2,3,10.1,6.1,12.7,5.8-2.1-1.5-3.9-3.1-6.5-3.6A51.1,51.1,0,0,1,115.3,265.2Zm212.4,114-4.2-6.9h-.3l-.3,4.6a1.1,1.1,0,0,0,.5.8C324.8,378.4,326,379.5,327.7,379.2Zm34-228.2c4-1.3,6.4-4.3,8.4-7.9C366.1,144.5,364.6,148.6,361.7,151ZM236.5,277.3l-.3.4c1.2.9,2.5,1.7,3.6,2.6l2.1,1.7,1.4-1.7C240.8,279.4,239,277.5,236.5,277.3Zm78.8,98.1v.5c2.2,1.2,4.7,1.1,7.2,1.8,0-.9-.1-1.5-.1-2ZM77.7,273.4l.2.6c2.5.1,4.7-1.3,7.2-1.9l-1-1.8-2.2,1.2Zm95.9-46.8,5.6-.4c-1.9-1.3-3.4-2.7-5.8-1.6C173.5,225.2,173.5,225.9,173.6,226.6Zm97.3,64.9,5.4,7.5a28.8,28.8,0,0,0-1.8-4.9l-.5-.6ZM149.1,227.4l7.7,3.1-2.2-2.6-.5-.3Zm50.8,7.3c-.4,1.7-.9,3.2-1.3,4.7h.4l2.8-4.4Zm-53.7,42,3.5-2.3-4.6.6ZM173.4,224l2.1-.2-2-1.3C173.5,223.1,173.4,223.5,173.4,224Z" fill="url(#afb1b949-a130-4cc1-beb4-3cf1855f1ef6)"/><path d="M186.7,221.5a44.3,44.3,0,0,1-1.7-4.7c-1-3.9-1.9-7.9-1.3-12.1a30.3,30.3,0,0,1,2.8-9.3,7,7,0,0,1,1.3-1.7c-.7,1.3-1.4,2.7-2,4a24,24,0,0,0-1.4,14.5c.6,3.1,1.6,6.1,2.4,9.2Z" fill="url(#aeb518d0-9220-4d8a-afc2-e762c87883b8)"/><path d="M59.4,172.9c-1.2-1.5-2.3-3.1-3.6-4.6a20.8,20.8,0,0,0-8.7-5.9l-.6-.2v-.3l2.2.9a22.4,22.4,0,0,1,10.3,9.4c.2.2.2.5.3.8Z" fill="url(#be9ea431-4a98-45e7-8968-c538104dbecc)"/><path d="M136.9,293.5l-1.7,2.8a20.5,20.5,0,0,0-3.5,8.5c-.7,5,0,7.3,3.7,10.1-1.3-.3-3.1-2.2-3.7-4a13.1,13.1,0,0,1-.3-6.8,28.2,28.2,0,0,1,5.3-10.5Z" fill="url(#e0976dda-a82d-4ceb-bf25-7c24c0e47fdd)"/><path d="M166.9,259.3a18.8,18.8,0,0,1-13.4-.4A23.5,23.5,0,0,0,166.9,259.3Z" fill="url(#a65075e5-2073-4485-94a9-b0b62c9cab36)"/><path d="M312.1,313c-1-.8-.2-1.4.2-2.1s1.1,0,1.6,0,.2.3.3.5l-.9.4a13.6,13.6,0,0,0-1.2,1.2Z" fill="url(#ec64e208-c7a1-4a9d-93b2-2cd5be079c18)"/><path d="M311.7,308.7c-.2.8-.5,1.6-.6,2.2l-1.5-.6c-.1-.1-.3-.3-.3-.4s.2-.4.3-.4a1,1,0,0,0,1.3-.8Z" fill="url(#bd57ddad-2a6c-4c93-9c1e-cba1aaa410b9)"/><path d="M306.6,311.4l1,.5c.8-.6,1.4-.7,1.6.1a1.6,1.6,0,0,1-.5.8C308,312.4,306.9,312.8,306.6,311.4Z" fill="url(#eea506bd-3cbc-40b3-b38a-15fd813a2340)"/><path d="M312.6,303.5c-.2-1.1-.2-1.1,1-1.4a20.9,20.9,0,0,1-1,2.1,1.6,1.6,0,0,1-.8.5,2.9,2.9,0,0,0-.4-.6,3.1,3.1,0,0,0,1-.5Z" fill="url(#b757073c-6fdc-44c1-a844-50a13813b563)"/><path d="M309.4,302.4c.3.7.6,1.2.8,1.8s-.5.4-.7.6a11.5,11.5,0,0,1-.6-1.7C308.8,303,309.1,302.8,309.4,302.4Z" fill="url(#bc246824-f07c-48b0-9f91-7f8729305322)"/><path d="M316.3,304.9a4.5,4.5,0,0,0,.6.9l-1.5.8c-.1-.3-.4-.8-.3-.9A6.2,6.2,0,0,1,316.3,304.9Z" fill="url(#f41c95b4-17cf-4b4e-8237-2818bed453cd)"/><path d="M315.9,309.2c.5,1.7.2,2.1-1.5,1.7Z" fill="url(#fe22d095-ba44-4e16-8b6b-2d4e1c981723)"/><path d="M310.6,305.8l1.2-.8c.1.3.3.8.2.8l-1.2.5A.8.8,0,0,0,310.6,305.8Z" fill="url(#b28f827d-ae6e-4a91-80db-4f261bd114d6)"/><path d="M315.4,309.1l-1.3.7-.3-.6,1.4-.6A.8.8,0,0,1,315.4,309.1Z" fill="url(#eee1a5ba-34f4-4882-b032-2472ee48ad50)"/><path d="M311.7,308.7H313a4.9,4.9,0,0,0-.8,1.3,13,13,0,0,1-.5-1.4Z" fill="url(#be2460a0-2f42-4051-80d0-52f1cfc67626)"/><path d="M60.1,176.4c.1.2.1.5.2.7s.6,1.4-.6,1.7a8.3,8.3,0,0,0,.4,1.5h-.3l-.4-.6h-.9c0-1.2,1.4-1.8.9-3.1s.4-.5.6-.7Z" fill="url(#ae9fd9db-2a07-4bc2-9bc1-3d3387e25984)"/><path d="M61.2,180a12,12,0,0,1,0,1.9c0,.2-.4.5-.7.5s-1.6.1-2,1.2-.4.2-.5.1-.3-.4-.2-.5a3.3,3.3,0,0,1,1.1-.9,1.6,1.6,0,0,0,1.2-1.3c0-.4.5-.8.8-1.2Z" fill="url(#b171e737-724c-4104-8dce-cb0df8156ba8)"/><path d="M56.8,177a4.9,4.9,0,0,1,.1,1.2l.8-.9.7-.3a4.1,4.1,0,0,1,.3.8l-.7,1.4c-.5-.1-.9-.8-1.7-.5S55.8,177.9,56.8,177Z" fill="url(#f28def5d-c34f-4ad8-9f92-911b258ffbbe)"/><path d="M64.6,179.8l-2-.8c.2-.3.4-.7.6-.7s1-.2,1.3.1S64.6,179.1,64.6,179.8Z" fill="url(#ee4a581e-31e0-4d4d-98bb-c669a8296f72)"/><path d="M60.1,176.4v-.3c-.9-.2-.8-.7-.3-1.2s.6.1.7.2a5.7,5.7,0,0,1,.4,1.4Z" fill="url(#a173cd92-25b8-4e59-bfdf-597f87d3b186)"/><path d="M61,183.7l-.4-.6.7-.2h1.1c.1,0,.3.4.2.5a1.2,1.2,0,0,1-.5.5A4,4,0,0,1,61,183.7Z" fill="url(#be089dc2-febb-4972-89aa-def3ebc58bb4)"/><path d="M64.5,177l-.8.3a7.6,7.6,0,0,1-.6-1.6l.4-.2A5.6,5.6,0,0,1,64.5,177Z" fill="url(#ec138dd3-f9fe-4c15-a5a4-058779e61756)"/><path d="M63.2,181.9c-.6-.8-.4-1.3.1-1.7l.6.3Z" fill="url(#a9287f92-466e-4879-8ed6-225cf9434025)"/><path d="M63,182.2l.7-.2a1.6,1.6,0,0,1,.3.9l-.5.4-.8-.7Z" fill="url(#a03d81ac-c0c5-4da0-9058-e7695af75bfe)"/><path d="M174.5,252.9c.1-.6.3-1.1.4-1.6l1.8.7c-.2-1.5.5-1.3,1-1.1a6,6,0,0,1,.5,1.4,8.5,8.5,0,0,1-.4,1.7l-1.4-1.3c-.7-.6-1.2-.2-1.7.4Z" fill="url(#a550ec3b-0cfd-414a-af85-4c5fc0f00404)"/><path d="M176.3,256.3c-.1-.6-.4-1.4-.7-2.5l.7.5.7.5,1.1.8c-.2.2-.3.5-.5.6Z" fill="url(#b32bff27-7ed2-4eca-9bfe-708d43e83859)"/><path d="M173.8,253.6h-2.2c.3-1.6.4-1.6,2.1-1.3v.6A1.7,1.7,0,0,1,173.8,253.6Z" fill="url(#b587a380-b9e9-4484-9a4d-0a73636d2a3d)"/><path d="M171.3,254.3c.6-.1,1-.3,1.3-.2s.2.3.3.5-.6.4-.9.4S171.7,254.7,171.3,254.3Z" fill="url(#aafa8396-0fd7-4759-aa44-601f87f39e8d)"/></g></g></g></g></svg>
