<svg xmlns="http://www.w3.org/2000/svg" xmlns:xlink="http://www.w3.org/1999/xlink" viewBox="0 0 225.09 280.83"><defs><style>.cls-1{fill:url(#Degradado_sin_nombre_91);}.cls-2{fill:url(#Degradado_sin_nombre_91-2);}.cls-3{fill:url(#Degradado_sin_nombre_91-3);}.cls-4{fill:url(#Degradado_sin_nombre_91-4);}.cls-5{fill:url(#Degradado_sin_nombre_91-5);}.cls-6{fill:url(#Degradado_sin_nombre_91-6);}.cls-7{fill:url(#Degradado_sin_nombre_91-7);}.cls-8{fill:url(#Degradado_sin_nombre_91-8);}.cls-9{fill:url(#Degradado_sin_nombre_91-9);}.cls-10{fill:url(#Degradado_sin_nombre_91-10);}.cls-11{fill:url(#Degradado_sin_nombre_91-11);}.cls-12{fill:url(#Degradado_sin_nombre_91-12);}.cls-13{fill:url(#Degradado_sin_nombre_91-13);}.cls-14{fill:url(#Degradado_sin_nombre_91-14);}.cls-15{fill:url(#Degradado_sin_nombre_91-15);}.cls-16{fill:url(#Degradado_sin_nombre_91-16);}.cls-17{fill:url(#Degradado_sin_nombre_91-17);}.cls-18{fill:url(#Degradado_sin_nombre_91-18);}.cls-19{fill:url(#Degradado_sin_nombre_91-19);}.cls-20{fill:url(#Degradado_sin_nombre_91-20);}.cls-21{fill:url(#Degradado_sin_nombre_91-21);}.cls-22{fill:url(#Degradado_sin_nombre_91-22);}.cls-23{fill:url(#Degradado_sin_nombre_91-23);}.cls-24{fill:url(#Degradado_sin_nombre_91-24);}.cls-25{fill:url(#Degradado_sin_nombre_91-25);}.cls-26{fill:url(#Degradado_sin_nombre_91-26);}.cls-27{fill:url(#Degradado_sin_nombre_91-27);}.cls-28{fill:url(#Degradado_sin_nombre_91-28);}.cls-29{fill:url(#Degradado_sin_nombre_91-29);}.cls-30{fill:url(#Degradado_sin_nombre_91-30);}.cls-31{fill:url(#Degradado_sin_nombre_91-31);}.cls-32{fill:url(#Degradado_sin_nombre_91-32);}.cls-33{fill:url(#Degradado_sin_nombre_91-33);}.cls-34{fill:url(#Degradado_sin_nombre_91-34);}.cls-35{fill:url(#Degradado_sin_nombre_91-35);}.cls-36{fill:url(#Degradado_sin_nombre_91-36);}.cls-37{fill:url(#Degradado_sin_nombre_91-37);}.cls-38{fill:url(#Degradado_sin_nombre_91-38);}.cls-39{fill:url(#Degradado_sin_nombre_91-39);}.cls-40{fill:url(#Degradado_sin_nombre_91-40);}.cls-41{fill:url(#Degradado_sin_nombre_91-41);}.cls-42{fill:url(#Degradado_sin_nombre_91-42);}.cls-43{fill:url(#Degradado_sin_nombre_91-43);}.cls-44{fill:url(#Degradado_sin_nombre_91-44);}.cls-45{fill:url(#Degradado_sin_nombre_91-45);}.cls-46{fill:url(#Degradado_sin_nombre_91-46);}.cls-47{fill:url(#Degradado_sin_nombre_91-47);}.cls-48{fill:#5e7e99;}</style><linearGradient id="Degradado_sin_nombre_91" x1="-96.51" y1="127.35" x2="140.12" y2="266.76" gradientTransform="matrix(-1, 0, 0, 1, 136.09, 0)" gradientUnits="userSpaceOnUse"><stop offset="0" stop-color="#a37b57"/><stop offset="0.08" stop-color="#a67f5b"/><stop offset="0.16" stop-color="#b18a67"/><stop offset="0.24" stop-color="#c19d7b"/><stop offset="0.32" stop-color="#d9b897"/><stop offset="0.34" stop-color="#debd9d"/><stop offset="0.6" stop-color="#ba8e65"/><stop offset="1" stop-color="#946a43"/></linearGradient><linearGradient id="Degradado_sin_nombre_91-2" x1="-89.01" y1="114.61" x2="147.63" y2="254.02" xlink:href="#Degradado_sin_nombre_91"/><linearGradient id="Degradado_sin_nombre_91-3" x1="-90.89" y1="117.8" x2="145.75" y2="257.21" xlink:href="#Degradado_sin_nombre_91"/><linearGradient id="Degradado_sin_nombre_91-4" x1="-88.27" y1="113.36" x2="148.37" y2="252.77" xlink:href="#Degradado_sin_nombre_91"/><linearGradient id="Degradado_sin_nombre_91-5" x1="-88.04" y1="112.96" x2="148.6" y2="252.38" xlink:href="#Degradado_sin_nombre_91"/><linearGradient id="Degradado_sin_nombre_91-6" x1="-91.93" y1="119.57" x2="144.71" y2="258.99" xlink:href="#Degradado_sin_nombre_91"/><linearGradient id="Degradado_sin_nombre_91-7" x1="-72.79" y1="87.08" x2="163.84" y2="226.5" xlink:href="#Degradado_sin_nombre_91"/><linearGradient id="Degradado_sin_nombre_91-8" x1="-96.4" y1="127.15" x2="140.24" y2="266.56" xlink:href="#Degradado_sin_nombre_91"/><linearGradient id="Degradado_sin_nombre_91-9" x1="-99.02" y1="131.61" x2="137.61" y2="271.02" xlink:href="#Degradado_sin_nombre_91"/><linearGradient id="Degradado_sin_nombre_91-10" x1="-77.19" y1="94.55" x2="159.45" y2="233.96" xlink:href="#Degradado_sin_nombre_91"/><linearGradient id="Degradado_sin_nombre_91-11" x1="-84.78" y1="107.43" x2="151.86" y2="246.85" xlink:href="#Degradado_sin_nombre_91"/><linearGradient id="Degradado_sin_nombre_91-12" x1="-100.23" y1="133.66" x2="136.41" y2="273.07" xlink:href="#Degradado_sin_nombre_91"/><linearGradient id="Degradado_sin_nombre_91-13" x1="-65.88" y1="75.35" x2="170.76" y2="214.76" xlink:href="#Degradado_sin_nombre_91"/><linearGradient id="Degradado_sin_nombre_91-14" x1="-67.96" y1="78.87" x2="168.68" y2="218.29" xlink:href="#Degradado_sin_nombre_91"/><linearGradient id="Degradado_sin_nombre_91-15" x1="-97.57" y1="129.14" x2="139.07" y2="268.55" xlink:href="#Degradado_sin_nombre_91"/><linearGradient id="Degradado_sin_nombre_91-16" x1="-93.01" y1="121.4" x2="143.63" y2="260.81" xlink:href="#Degradado_sin_nombre_91"/><linearGradient id="Degradado_sin_nombre_91-17" x1="-65.4" y1="74.54" x2="171.24" y2="213.95" xlink:href="#Degradado_sin_nombre_91"/><linearGradient id="Degradado_sin_nombre_91-18" x1="-83.95" y1="106.02" x2="152.69" y2="245.43" xlink:href="#Degradado_sin_nombre_91"/><linearGradient id="Degradado_sin_nombre_91-19" x1="-73.38" y1="88.09" x2="163.25" y2="227.5" xlink:href="#Degradado_sin_nombre_91"/><linearGradient id="Degradado_sin_nombre_91-20" x1="-65.96" y1="75.48" x2="170.68" y2="214.9" xlink:href="#Degradado_sin_nombre_91"/><linearGradient id="Degradado_sin_nombre_91-21" x1="-68.19" y1="79.27" x2="168.45" y2="218.69" xlink:href="#Degradado_sin_nombre_91"/><linearGradient id="Degradado_sin_nombre_91-22" x1="-87.17" y1="111.48" x2="149.47" y2="250.9" xlink:href="#Degradado_sin_nombre_91"/><linearGradient id="Degradado_sin_nombre_91-23" x1="-132.81" y1="188.96" x2="103.83" y2="328.37" xlink:href="#Degradado_sin_nombre_91"/><linearGradient id="Degradado_sin_nombre_91-24" x1="-121.06" y1="282.7" x2="-3.66" y2="21.3" xlink:href="#Degradado_sin_nombre_91"/><linearGradient id="Degradado_sin_nombre_91-25" x1="-117.75" y1="284.19" x2="-0.35" y2="22.79" xlink:href="#Degradado_sin_nombre_91"/><linearGradient id="Degradado_sin_nombre_91-26" x1="-140.53" y1="280.96" x2="-23.13" y2="19.56" xlink:href="#Degradado_sin_nombre_91"/><linearGradient id="Degradado_sin_nombre_91-27" x1="-127.52" y1="286.8" x2="-10.12" y2="25.4" xlink:href="#Degradado_sin_nombre_91"/><linearGradient id="Degradado_sin_nombre_91-28" x1="-144.96" y1="278.97" x2="-27.56" y2="17.57" xlink:href="#Degradado_sin_nombre_91"/><linearGradient id="Degradado_sin_nombre_91-29" x1="-119.41" y1="290.44" x2="-2.01" y2="29.04" xlink:href="#Degradado_sin_nombre_91"/><linearGradient id="Degradado_sin_nombre_91-30" x1="-99.67" y1="299.31" x2="17.73" y2="37.91" xlink:href="#Degradado_sin_nombre_91"/><linearGradient id="Degradado_sin_nombre_91-31" x1="-123.97" y1="288.4" x2="-6.57" y2="27" xlink:href="#Degradado_sin_nombre_91"/><linearGradient id="Degradado_sin_nombre_91-32" x1="-127.86" y1="286.65" x2="-10.46" y2="25.25" xlink:href="#Degradado_sin_nombre_91"/><linearGradient id="Degradado_sin_nombre_91-33" x1="-104.65" y1="297.08" x2="12.75" y2="35.67" xlink:href="#Degradado_sin_nombre_91"/><linearGradient id="Degradado_sin_nombre_91-34" x1="-125.94" y1="287.51" x2="-8.54" y2="26.11" xlink:href="#Degradado_sin_nombre_91"/><linearGradient id="Degradado_sin_nombre_91-35" x1="-143.32" y1="279.71" x2="-25.92" y2="18.3" xlink:href="#Degradado_sin_nombre_91"/><linearGradient id="Degradado_sin_nombre_91-36" x1="-120.57" y1="289.92" x2="-3.17" y2="28.52" xlink:href="#Degradado_sin_nombre_91"/><linearGradient id="Degradado_sin_nombre_91-37" x1="-95.44" y1="301.21" x2="21.96" y2="39.81" xlink:href="#Degradado_sin_nombre_91"/><linearGradient id="Degradado_sin_nombre_91-38" x1="-164.04" y1="270.4" x2="-46.64" y2="9" xlink:href="#Degradado_sin_nombre_91"/><linearGradient id="Degradado_sin_nombre_91-39" x1="-97.17" y1="300.43" x2="20.23" y2="39.03" xlink:href="#Degradado_sin_nombre_91"/><linearGradient id="Degradado_sin_nombre_91-40" x1="-100.01" y1="299.16" x2="17.39" y2="37.76" xlink:href="#Degradado_sin_nombre_91"/><linearGradient id="Degradado_sin_nombre_91-41" x1="-130.04" y1="285.67" x2="-12.64" y2="24.27" xlink:href="#Degradado_sin_nombre_91"/><linearGradient id="Degradado_sin_nombre_91-42" x1="-142.83" y1="279.93" x2="-25.43" y2="18.52" xlink:href="#Degradado_sin_nombre_91"/><linearGradient id="Degradado_sin_nombre_91-43" x1="-164.12" y1="270.36" x2="-46.72" y2="8.96" xlink:href="#Degradado_sin_nombre_91"/><linearGradient id="Degradado_sin_nombre_91-44" x1="-106.98" y1="296.03" x2="10.42" y2="34.63" xlink:href="#Degradado_sin_nombre_91"/><linearGradient id="Degradado_sin_nombre_91-45" x1="-120.59" y1="289.91" x2="-3.19" y2="28.51" xlink:href="#Degradado_sin_nombre_91"/><linearGradient id="Degradado_sin_nombre_91-46" x1="-131.81" y1="284.87" x2="-14.41" y2="23.47" xlink:href="#Degradado_sin_nombre_91"/><linearGradient id="Degradado_sin_nombre_91-47" x1="-79.18" y1="308.51" x2="38.23" y2="47.11" xlink:href="#Degradado_sin_nombre_91"/></defs><title>7</title><g id="Layer_2" data-name="Layer 2"><g id="OBJECTS"><path class="cls-1" d="M84.75,237.74c-.35,0-.7-.08-1-.08-13.95-.07-26.26-4.95-37.51-12.84-2.79-2-5.37-4.21-8-6.25,1.63,2.8,13.24,10.88,20.33,14C66.9,236.23,75.52,238.51,84.75,237.74Z"/><path class="cls-2" d="M97.73,221.27a28.83,28.83,0,0,0-2-16.07,56.49,56.49,0,0,0-10.24-16.3A83.08,83.08,0,0,0,71,175.67a6.4,6.4,0,0,0-1.69-.91c1.59,1.24,3.23,2.43,4.77,3.75C81.38,184.74,88,191.56,92.7,200a41.7,41.7,0,0,1,4.87,13.65,17.14,17.14,0,0,1,.18,5.72A10.69,10.69,0,0,0,97.73,221.27Z"/><path class="cls-3" d="M50.25,194A166.78,166.78,0,0,1,66,202.92a108.92,108.92,0,0,1,14.6,11.52,54.69,54.69,0,0,1,8.76,10.71l.78,1.19.21-.14c-.32-.56-.64-1.12-1-1.68A59.6,59.6,0,0,0,76.15,209.8a105.78,105.78,0,0,0-25.33-15.58C50.63,194.14,50.44,194.08,50.25,194Z"/><path class="cls-4" d="M63.56,182c2,1.32,4,2.62,6,4a86.55,86.55,0,0,1,20.2,19.54,38.53,38.53,0,0,1,4.85,8.83,4.64,4.64,0,0,0,.61,1.14A40.7,40.7,0,0,0,91,206.3a78.46,78.46,0,0,0-10.45-12.06A71.85,71.85,0,0,0,63.56,182Z"/><path class="cls-5" d="M30,206.3c7.52,11.16,17.85,18.86,29.94,24.39C48.35,224.59,38,217,30,206.3Z"/><path class="cls-6" d="M48.44,211.4A184.37,184.37,0,0,0,72.8,225.12l-24.19-14Z"/><path class="cls-7" d="M57.8,188.11c-4.58-3.71-19.53-10.66-23-10.51a3.43,3.43,0,0,0,.82.52C43.41,180.64,50.63,184.3,57.8,188.11Z"/><path class="cls-8" d="M75.14,202.44a98.94,98.94,0,0,1,10.62,10.95,57.94,57.94,0,0,1,8,12.87c-.09-.33-.17-.67-.29-1A44.35,44.35,0,0,0,86.88,214a63.43,63.43,0,0,0-10.26-10.52c-.39-.31-.78-.62-1.18-.92A1.73,1.73,0,0,0,75.14,202.44Z"/><path class="cls-9" d="M69.45,239.07A83,83,0,0,1,44,234.35C47.65,236.87,62.3,239.63,69.45,239.07Z"/><path class="cls-10" d="M46.6,200.81l-14.71-7.57c.2.44.24.71.39.82a17,17,0,0,0,2.2,1.4c3.89,1.85,7.8,3.65,11.71,5.46a1,1,0,0,0,.35,0Z"/><path class="cls-11" d="M84.84,177.1c1,5.21,5,15.22,6.73,17-1.26-3-2.45-5.72-3.54-8.48S85.9,179.94,84.84,177.1Z"/><path class="cls-12" d="M40,245.77c2.9-1,5.87-2,8.88-3s6.23-.81,9.57-.79C55.62,240.41,44.85,242.7,40,245.77Z"/><path class="cls-13" d="M36.38,171a25.51,25.51,0,0,0-8.05,6.4,4.07,4.07,0,0,0-1.15,2.95c.26-.21.48-.29.54-.44.88-2.35,2.68-4,4.51-5.54C33.58,173.17,35,172.09,36.38,171Z"/><path class="cls-14" d="M58.91,170.57a86.68,86.68,0,0,0-11.27-5.18,3.06,3.06,0,0,0-1,0,5.19,5.19,0,0,0,.82.61c3.74,1.58,7.49,3.14,11.24,4.71C58.76,170.7,58.8,170.65,58.91,170.57Z"/><path class="cls-15" d="M32.45,248.33c2.43-3,6.11-3.89,9.28-5.63A27.36,27.36,0,0,0,34.28,246,3.47,3.47,0,0,0,32.45,248.33Z"/><path class="cls-16" d="M56,218.27l9,5.21.15-.26-8.92-5.28Z"/><path class="cls-17" d="M25.78,179.7c.69-1,1.32-2.1,2.06-3.08s1.61-1.9,2.4-2.82C28.09,174.88,25.59,178.15,25.78,179.7Z"/><path class="cls-18" d="M87.88,188.4c-1-2.41-2-4.82-3.07-7.24a28.67,28.67,0,0,0,2.68,7.39Z"/><path class="cls-19" d="M20.6,202.1c.66-2.31.88-4.51,2.26-6.39a.92.92,0,0,0-1.25.74q-.59,1.83-1,3.69A10.35,10.35,0,0,0,20.6,202.1Z"/><path class="cls-20" d="M53,166.63a25.44,25.44,0,0,0-6.63-2.74A40.77,40.77,0,0,0,53,166.63Z"/><path class="cls-21" d="M36.2,176a18.57,18.57,0,0,0,5,1.65A12.69,12.69,0,0,0,36.2,176Z"/><path class="cls-22" d="M101.41,238.59c-.59-.24-1.19-.46-1.77-.73A14.23,14.23,0,0,0,88,237.64a65.48,65.48,0,0,1-8.43,2.67,202.28,202.28,0,0,0-22.12,6.49A81.77,81.77,0,0,0,37.64,257a16,16,0,0,1-6.17,2.9,7.07,7.07,0,0,1-3.33.14,2.4,2.4,0,0,1-1.84-3.32,10.1,10.1,0,0,1,1.26-2.27c1.63-2.37,3.37-4.66,4.95-7.06a15.4,15.4,0,0,1,6.55-5.79c1.85-.85,3.77-1.52,5.66-2.27-.34-.13-.74-.3-1.16-.44a64.27,64.27,0,0,1-10.88-4.7,57.07,57.07,0,0,1-14.16-10.16,29.4,29.4,0,0,1-2.94-3.71,5.44,5.44,0,0,1-1-3.29c0-1.21.54-1.72,1.76-1.78a4.18,4.18,0,0,1,2.9,1,44.49,44.49,0,0,1,4.09,3.66,22.91,22.91,0,0,0,8.05,5.56c2,.82,4,1.86,6,2.81s4.12,2,6.19,3c.34.16.73.25,1.09.38a2.29,2.29,0,0,0-1-.85c-1.63-.92-3.29-1.8-4.89-2.77a31.42,31.42,0,0,1-6.11-4.53c-.74-.73-1.49-1.46-2.29-2.12a72.59,72.59,0,0,1-8.22-7.85A28.17,28.17,0,0,1,17,205.12a13.34,13.34,0,0,1-.73-5.64,8.6,8.6,0,0,1,2.05-5.17c-1.26-2-1.18-4.1-.74-6.28a9.76,9.76,0,0,0,.22-2.47A6,6,0,0,1,20.6,180c1-.73,2.19-1.34,3.32-2,0-3.16.94-4.29,3-5.7a10.44,10.44,0,0,1,1.06-.66c5.3-2.8,11-3.8,16.94-4.07a10.88,10.88,0,0,1,1.69.17,9.92,9.92,0,0,0-.76-4.23,3,3,0,0,1,2.25-4,7.28,7.28,0,0,1,3.93.19,45.05,45.05,0,0,1,12.5,5.55,76.32,76.32,0,0,1,15.93,13.4c.31.34.63.65.94,1a2.07,2.07,0,0,0-.27-1.06,22.71,22.71,0,0,1-2-14.32,31.75,31.75,0,0,0,.79-6.67c-.06-1.87-.11-3.76,0-5.62a17,17,0,0,1,.74-3.65,2.54,2.54,0,0,1,1-1.18c.68-.48,1.36-.12,2,.24a6.65,6.65,0,0,1,3.16,5c.52,3.57.85,7.17,1.28,10.76.34,2.76.59,5.54,1.09,8.28,1.19,6.41,2.77,12.74,4.52,19,1.88,6.8,3.9,13.58,4.76,20.62a36.3,36.3,0,0,1-.24,10.2,41.86,41.86,0,0,0-.67,7.57,11.26,11.26,0,0,0,3.27,8.25,10.86,10.86,0,0,1,.88,1.12Zm-8.85-32.2C85,191.34,73.37,180.7,57.44,175a43.35,43.35,0,0,0-9.66-2.39,13.53,13.53,0,0,0-15.42,11.64,19,19,0,0,0,0,3.37c.06,2.29.2,4.58.21,6.86a22.87,22.87,0,0,0,4.48,14,34.92,34.92,0,0,0,7.27,6.83,110,110,0,0,0,28.79,15.3,63.17,63.17,0,0,0,9.42,2.87,19.12,19.12,0,0,0,7.31.15,6.45,6.45,0,0,0,4.94-4c1-2.34,1.91-4.72,1.69-6.52A38.28,38.28,0,0,0,92.56,206.39ZM27.08,200a10.08,10.08,0,0,0-2.42.48,2.57,2.57,0,0,0-1.86,2.55,20.68,20.68,0,0,0,.58,6.56,11.42,11.42,0,0,0,1.42,3,30.44,30.44,0,0,0,2.27,2.82c1.65,2,3.33,4.05,5,6.11a18.1,18.1,0,0,0,4.11,3.8,91.74,91.74,0,0,0,18,9.44,55.14,55.14,0,0,0,12.72,3.42,38.64,38.64,0,0,0,10.08.41c2.34-.3,4.7-.54,7-.83a5.14,5.14,0,0,0,1.45-.36c.69-.3,1.35-.7,1.18-1.66a3.08,3.08,0,0,0-2.13-1.2A69.07,69.07,0,0,1,70,230.26a106.7,106.7,0,0,1-26.39-14.5c-1.69-1.29-3.25-2.73-4.83-4.15a21.41,21.41,0,0,1-5.9-9.57c-.06-.19-.13-.38-.2-.59A12,12,0,0,0,27.08,200ZM97.61,220.7a37.36,37.36,0,0,0-3.39-20.77,80.26,80.26,0,0,0-12.13-18.26,77.21,77.21,0,0,0-18-15.76,44.27,44.27,0,0,0-12.26-5.48,6.31,6.31,0,0,0-3.8-.16,2.5,2.5,0,0,0-1.56,3.1c.43,1.1.5,2.34.83,3.49a5.16,5.16,0,0,0,.94,2,14.66,14.66,0,0,0,6.87,4.55c13.74,4.16,24.6,12.32,33,23.9a48.06,48.06,0,0,1,7.57,15.1,38.71,38.71,0,0,1,1.42,8.34c0,.18.06.37.15.86A5.46,5.46,0,0,0,97.61,220.7ZM64.29,242.09c-2.33,0-4.65-.11-7-.25a57.33,57.33,0,0,1-9.55-1.67,7,7,0,0,0-3.58.18,24.07,24.07,0,0,0-7.32,3.4,15.7,15.7,0,0,0-3.72,4c-1.64,2.4-3.35,4.76-5,7.14a15.19,15.19,0,0,0-.95,1.46,2,2,0,0,0,0,2.34,2.55,2.55,0,0,0,2.61.8,4.8,4.8,0,0,0,2.6-1.64c.67-.8,1.3-1.62,1.93-2.45s1.4-1.86,2.08-2.81c3.28-4.59,8-7,13.28-8.2a52.21,52.21,0,0,1,6.41-.8c3.67-.38,7.4-.18,11-1l2.54-.56,0-.15C67.85,242,66.07,242.11,64.29,242.09ZM32.62,228.77a77,77,0,0,0,21.12,11.4,26.48,26.48,0,0,0,7,1.22,52.14,52.14,0,0,0,6.85-.08,59.17,59.17,0,0,0,13.13-2.18c-1.17.06-2.34.16-3.51.18-2,0-4.07,0-6.11,0a43.92,43.92,0,0,1-10.92-1.76c-1.53-.41-3-.88-4.53-1.38-3-1-6-2.07-9-3.08a92.87,92.87,0,0,1-10.93-4.88c-2.2-1.07-4.46-2.05-6.69-3.06a3.05,3.05,0,0,0-.65,0C29.92,226.47,31.2,227.72,32.62,228.77Zm56.67-53.23c-.65-3.42-1.15-6.87-1.66-10.32-.37-2.46-.65-4.94-.94-7.41-.21-1.69-.3-3.4-.6-5.07a7.85,7.85,0,0,0-1-2.78,7.29,7.29,0,0,0-2-2c-.77-.56-1.45-.31-1.75.62a10.47,10.47,0,0,0-.69,3.14c-.07,7.81,1.13,15.29,5.24,22.16,1.9,3.16,3.3,6.62,4.92,10,.14.29.26.6.39.9l.17-.11C90.65,181.6,89.87,178.59,89.29,175.54ZM32.34,200.36c-.1-.89-.2-1.73-.3-2.58,0-.12-.07-.24-.07-.36-.12-4.49-.28-9-.31-13.46a11.74,11.74,0,0,1,.71-2.89c.08-.3.18-.6.32-1.09a9.54,9.54,0,0,1-7.78-.36,2.49,2.49,0,0,0-.72,2.32c.11,1.11.39,2.2.48,3.32a18.72,18.72,0,0,1,0,3.59,6.58,6.58,0,0,1-2.3,4.17c-.34.29-.63.64-1.1,1.11A23.28,23.28,0,0,0,24.16,196,9.77,9.77,0,0,1,28,199.21Zm14.76-31.7a2.6,2.6,0,0,0-1.52-.4,33.67,33.67,0,0,0-10.7,1.42A52.77,52.77,0,0,0,28.71,172a12.59,12.59,0,0,0-2.48,1.65,4.42,4.42,0,0,0-1.64,3,2.4,2.4,0,0,0,1.67,2.85,8,8,0,0,0,5.26.17,5,5,0,0,0,2.55-1.86,13.25,13.25,0,0,1,11.44-6c1.7,0,3.39.21,5,.32C49.44,171,48.32,169.77,47.1,168.66Zm.12,69.58a70.77,70.77,0,0,1-15.64-9.53c-3.27-2.76-6.22-5.9-9.3-8.89A17.4,17.4,0,0,0,18,216.38a2.33,2.33,0,0,0-2.59,0,2.82,2.82,0,0,0,.05,2.08,11.56,11.56,0,0,0,2.34,3.8,41,41,0,0,0,7.28,6.45,69.71,69.71,0,0,0,25,11.32,2.64,2.64,0,0,0,.49.08,1.79,1.79,0,0,0,.48-.12C49.63,239.32,48.41,238.81,47.22,238.24Zm46.36-44a90.21,90.21,0,0,0-8.35-20.1A34.94,34.94,0,0,1,80.54,161,23.19,23.19,0,0,0,82,178.78a40.31,40.31,0,0,0,4.38,7,70.85,70.85,0,0,1,7.71,12.1l.36.64.24-.07C94.3,197,94,195.6,93.58,194.22ZM62.77,243.8c-4.43.3-8.92.14-13.26,1.25-4.9,1.25-9.25,3.46-12.39,7.63-1.52,2-3.1,4-4.73,6.12a2.88,2.88,0,0,0,.8-.14,27.66,27.66,0,0,0,3.39-1.84A91.28,91.28,0,0,1,62.3,244.36c.34-.11.66-.26,1.23-.48A5.92,5.92,0,0,0,62.77,243.8Zm-38.57-47a17.69,17.69,0,0,1-2.44-1.46c-1.64-1.18-2.83-1-3.78.78a9.07,9.07,0,0,0-1.05,5.54,20,20,0,0,0,5.17,10.74c2.12,2.45,4.54,4.63,6.83,6.93a.62.62,0,0,0,.53.17c-.2-.27-.38-.56-.6-.82-1.35-1.59-2.7-3.18-4.07-4.74a10.13,10.13,0,0,1-2.4-5.65,48.74,48.74,0,0,1-.29-5,3.33,3.33,0,0,1,2.68-3.58c.67-.21,1.37-.32,2.21-.52A7.43,7.43,0,0,0,24.2,196.77Zm-3.66-3c.42-.4.75-.77,1.14-1.08,2.32-1.91,2.69-4.46,2.35-7.23a24.3,24.3,0,0,0-.55-2.8,4.42,4.42,0,0,1,.41-3c.12-.25.25-.49.5-1-.54.21-.88.3-1.19.46a11.4,11.4,0,0,0-3.56,2.68,4.42,4.42,0,0,0-1.1,2.58,49.4,49.4,0,0,1-.55,5.18,6,6,0,0,0,.94,4.32Z"/><path class="cls-23" d="M225,269.1c.32-.76-.26-1-.65-1.17-2.64-1.43-5.23-2.95-7.94-4.22a58.68,58.68,0,0,0-16-4.58c-4.28-.65-8.57-1.23-12.86-1.71-4.06-.45-8.13-.74-12.19-1.08s-8-.64-12-.92c-3.08-.22-6.16-.33-9.23-.59-3.44-.28-6.89-.56-10.3-1.05-4.28-.61-8.55-1.3-12.78-2.22a86.75,86.75,0,0,1-18.41-6.2,42.48,42.48,0,0,1-8.78-5.48c-1.61-1.31-3.38-2.42-5.11-3.57a6.83,6.83,0,0,0-1.43-.55l-.13.27c.21.15.42.3.64.44a34.83,34.83,0,0,1,4.15,2.77c5.42,4.79,11.83,7.7,18.57,10a104.24,104.24,0,0,0,19,4.56c5.32.78,10.64,1.42,16,1.73q7.48.45,14.95,1c4.78.37,9.55.76,14.31,1.25a174.78,174.78,0,0,1,20.36,2.92,58.39,58.39,0,0,1,18.72,7.72C224.26,268.68,224.62,268.88,225,269.1Z"/><path class="cls-24" d="M173.22,167.17c.81-.54,1.61-1.09,2.44-1.61a65.35,65.35,0,0,0,29.7-41.68,74.92,74.92,0,0,0,1.94-12.16c.25-3.53.2-7.07.28-10.61a.88.88,0,0,0-.31-.71c0,.54,0,1.09,0,1.63,0,2.13.08,4.26-.12,6.37-.31,3.39-.68,6.78-1.26,10.13A73,73,0,0,1,200.26,137,64.05,64.05,0,0,1,179.73,162c-1.91,1.41-3.83,2.81-5.73,4.22a11.4,11.4,0,0,0-.89.81Z"/><path class="cls-25" d="M166.14,185.61a10,10,0,0,1,0-1.22c.11-1.45.18-2.91.38-4.35a43.41,43.41,0,0,1,6.41-17.57c2.48-3.89,5.14-7.68,7.79-11.47a72.36,72.36,0,0,0,9.93-20.08c1.43-4.6,2.59-9.29,3.84-13.95a65.24,65.24,0,0,1,5.24-14.26,27.24,27.24,0,0,1,2.56-4,11.71,11.71,0,0,1,6.18-4.26c2.68-.72,3.77.3,4.58,2.08a7.84,7.84,0,0,1,.62,1.76c.54,2.9,1.09,5.79,1.52,8.71a85,85,0,0,1,1,12.94,82,82,0,0,1-.49,11.72,33.16,33.16,0,0,1-5.28,14,58.8,58.8,0,0,1-20.7,19c-3.11,1.68-6.38,3.06-9.59,4.54a53.52,53.52,0,0,0-9.64,5.24,9.06,9.06,0,0,0-3.6,6.45c-.21,1.55-.38,3.11-.57,4.67ZM172.66,167a29.7,29.7,0,0,1,8.44-4.5c4.36-1.65,8.75-3.21,13-5a41.72,41.72,0,0,0,11.27-7.08,29.16,29.16,0,0,0,8.5-13.72,33.42,33.42,0,0,0,1.54-9.83c0-3.74.09-7.5,0-11.24a78.35,78.35,0,0,0-.76-8.07c-.39-2.88-.91-5.74-1.47-8.59a10.27,10.27,0,0,0-1-2.68,2.49,2.49,0,0,0-3-1.42,9.62,9.62,0,0,0-3.93,1.81,14.33,14.33,0,0,0-4,4.42,35.84,35.84,0,0,0-4.65,12.16,119.37,119.37,0,0,0-1.53,14,84,84,0,0,1-1.5,12.12,23.61,23.61,0,0,1-6.87,12.1c-2.34,2.3-4.94,4.34-7.44,6.48a32.72,32.72,0,0,0-5.67,5.42c-1.21,1.68-2.24,3.5-3.33,5.27a8,8,0,0,0-.42,1.06C170.89,168.73,171.72,167.82,172.66,167Zm20.44-42.61a78,78,0,0,1-8.51,21.49c-1.81,3-3.89,5.91-5.88,8.84-1.31,1.92-2.66,3.82-4,5.74-.28.4-.51.84-.88,1.43a2.66,2.66,0,0,0,.47-.17c2.53-2.23,5-4.49,7.6-6.67a46.63,46.63,0,0,0,6.72-6.68,24.31,24.31,0,0,0,4.81-11.62c.66-4.49,1-9,1.28-13.53.13-1.94.44-3.88.66-5.82a5.93,5.93,0,0,0,0-.73l-.2-.08C194.48,119.23,193.76,121.82,193.1,124.43Zm10.26,28.3c-5,3.78-10.69,6.23-16.53,8.35-2.46.89-4.94,1.76-7.36,2.73a19.45,19.45,0,0,0-8.62,6.39,15.86,15.86,0,0,0-2.56,5.37l1.25-1.1a30.93,30.93,0,0,1,6.92-4.19c3.65-1.71,7.36-3.32,11-5.07a55.69,55.69,0,0,0,15.76-11.7c.24-.25.45-.54.67-.81l-.12-.15A2.1,2.1,0,0,0,203.36,152.73Z"/><path class="cls-26" d="M187.88,47.52c.07,1.54.15,3.07.22,4.61,0,.45.06.91.06,1.37,0,1.71,0,3.41,0,5.12a96.47,96.47,0,0,1-3.66,27.55,60.63,60.63,0,0,1-5,11.81,6.35,6.35,0,0,0-.72,1.81c.16-.23.32-.45.46-.69a60,60,0,0,0,7.27-18.85,107.81,107.81,0,0,0,1.7-10.68,72.74,72.74,0,0,0,.38-13.2c-.25-2.94-.32-5.9-.47-8.84Z"/><path class="cls-27" d="M182.34,66.85c-.13,1.18-.26,2.35-.37,3.53a83.75,83.75,0,0,1-2.07,11.36,85.15,85.15,0,0,1-6.23,18.1,36.64,36.64,0,0,1-6.73,9.85,1.24,1.24,0,0,0-.34.59,25,25,0,0,0,4.3-4.6,53.12,53.12,0,0,0,6.46-13.16,92.08,92.08,0,0,0,4.26-17c.37-2.42.63-4.85.91-7.28a10.9,10.9,0,0,0,0-1.4Z"/><path class="cls-28" d="M204.11,63.93c-.56,2.59-1,5.2-1.68,7.76-1.92,7.63-4.27,15.11-8.09,22a41.14,41.14,0,0,1-10.16,12.7.72.72,0,0,0-.26.4,22.53,22.53,0,0,0,4.11-3.5,49.34,49.34,0,0,0,9.29-14.56,99.2,99.2,0,0,0,6.81-24.13c0-.24.1-.47.16-.7Z"/><path class="cls-29" d="M159.35,94.54c-.09-.94-.17-1.89-.27-2.83-.31-2.94-.63-5.87-.93-8.8-.11-1.11-.21-2.23-.27-3.35-.11-2-.18-3.91-.29-5.86-.23-4-.48-8-.71-12.08-.11-2-.18-4-.3-6-.1-1.7-.23-3.4-.44-5.1l.27,7L156.89,69c.09,2.29.13,4.58.28,6.86.18,2.9.42,5.8.69,8.69.23,2.44.52,4.87.82,7.3.11.93.31,1.84.47,2.76Z"/><path class="cls-30" d="M155.3,113.3a2.34,2.34,0,0,0-.37-.4,30.87,30.87,0,0,1-7.79-8.36,96.49,96.49,0,0,1-7.31-13.2c-1.26-2.62-2.48-5.27-3.72-7.9a1,1,0,0,0-.49-.57c.58,1.4,1.12,2.83,1.74,4.21,2.75,6.16,5.53,12.3,9.32,17.91a30.25,30.25,0,0,0,6.23,7.12A4.42,4.42,0,0,0,155.3,113.3Z"/><path class="cls-31" d="M164.78,96l4.45-29.61-.32,0A270,270,0,0,0,164.78,96Z"/><path class="cls-32" d="M159.92,71.09a11.66,11.66,0,0,0,.14-1.17c.11-4.45.2-8.91.3-13.36s.23-8.67.33-13c0-1,0-2,0-3C160.36,41.8,159.4,69,159.92,71.09Z"/><path class="cls-33" d="M132.87,57c1.37,3.13,2.76,6.26,4.09,9.4s2.62,6.36,4,9.71C140.78,73.53,134.39,58.06,132.87,57Z"/><path class="cls-34" d="M178,81.46c-1,3.63-1.95,7.39-3.21,11s-2.9,7.12-4.27,10.43C173.75,98.46,178.15,85.93,178,81.46Z"/><path class="cls-35" d="M177,42c-.09,6.31-.17,12.62-.25,19.13.93-6.1,1.22-17.64.51-19.15Z"/><path class="cls-36" d="M145.77,33.67a53.79,53.79,0,0,0-.36,9.91c0,3.3.26,6.6.45,9.88q.15-9.9.29-19.82Z"/><path class="cls-37" d="M126.82,68.11l8.73,20.37.3-.13c-3-6.77-5.45-13.76-8.74-20.4Z"/><path class="cls-38" d="M203.13,44.11c-.11.07-.28.12-.28.19-.46,5.57-.91,11.14-1.37,16.78C202.8,55.15,203.71,45.8,203.13,44.11Z"/><path class="cls-39" d="M124.86,59.34q-2.85-7-5.72-14c0-.06-.21,0-.56-.13A96.23,96.23,0,0,0,124.86,59.34Z"/><path class="cls-40" d="M148.61,103.2q-3.51-6.92-7-13.81a71.77,71.77,0,0,0,6.8,13.92Z"/><path class="cls-41" d="M154.65,32.36c-1.06,1.29-1.06,5.07,0,10.19Z"/><path class="cls-42" d="M174.88,43.59c-.36,1.83.1,3.69.06,5.52a52.43,52.43,0,0,0,.34,5.6V43.61Z"/><path class="cls-43" d="M201.23,46c-.13,2.58-.25,5.16-.38,7.74a22.38,22.38,0,0,0,.68-7.74Z"/><path class="cls-44" d="M136.46,59.46,140,66.51C139.46,64,137.56,60.07,136.46,59.46Z"/><path class="cls-45" d="M144,42.9q.19-3.57.38-7.16l-.3,0c-.47.7-.15,1.52-.22,2.27s-.05,1.66-.06,2.49,0,1.63,0,2.44Z"/><path class="cls-46" d="M200.39,46.81c1-1.32,1.94-2.7,2.93-4A11.35,11.35,0,0,1,204.74,41a1.82,1.82,0,0,1,3.06.35,5.24,5.24,0,0,1,.55,1,13.94,13.94,0,0,1,1.24,5.06,57.83,57.83,0,0,1-.79,12.94,119,119,0,0,1-5.94,21A68.27,68.27,0,0,1,194.17,98a40.62,40.62,0,0,1-24.66,16.09,8.62,8.62,0,0,0-6.94,6.19c-.19.61-.4,1.21-.6,1.82a9.47,9.47,0,0,1-.57-2,7.36,7.36,0,0,0-3.41-5,16.33,16.33,0,0,0-3-1.33,31.91,31.91,0,0,1-9.49-4.93,49.13,49.13,0,0,1-9-9.47,70.31,70.31,0,0,1-7.6-14c-2-4.83-3.82-9.77-5.92-14.58-1.65-3.77-3.62-7.4-5.45-11.1a37.4,37.4,0,0,1-3-7.38,9.32,9.32,0,0,1-.09-5,3.07,3.07,0,0,1,3.09-2.43,9.77,9.77,0,0,1,2.94.42A12.43,12.43,0,0,1,126.09,49c1.07,1.21,2,2.55,3.13,3.74A27.94,27.94,0,0,0,133,56.34a68.07,68.07,0,0,1,8.21,6.54s.15,0,.35.1c-.12-.4-.23-.74-.32-1.08a35.94,35.94,0,0,1-1.07-16.42,26.89,26.89,0,0,1,3-8.69,11.58,11.58,0,0,1,3.14-3.68,6.41,6.41,0,0,1,6-1.17,9.23,9.23,0,0,0,5,.24,8.81,8.81,0,0,1,9.77,5.19,25.7,25.7,0,0,1,2,8.72c.07,1.23,0,2.47,0,3.71a2.51,2.51,0,0,0,.88-.9,17.05,17.05,0,0,1,4.22-4.73,13.82,13.82,0,0,0,3.64-3.75,5.48,5.48,0,0,1,4.07-2.6,15.45,15.45,0,0,0,5.43-1.75,3.46,3.46,0,0,1,4.06.48,8.84,8.84,0,0,1,2.41,3.3,34.43,34.43,0,0,1,2.53,8.47c.34,1.82.58,3.66.9,5.67A15.08,15.08,0,0,1,200.39,46.81Zm-4,6.33a39.07,39.07,0,0,0-3.2-13,11.53,11.53,0,0,0-2.07-2.93,2.75,2.75,0,0,0-3.63-.52,14.48,14.48,0,0,1-5.43,1.74,5,5,0,0,0-3.77,2.39,13.78,13.78,0,0,1-3.63,3.75,16.68,16.68,0,0,0-4.13,4.64,43.88,43.88,0,0,0-5.72,14.3,138.36,138.36,0,0,0-2.29,15,109.34,109.34,0,0,0-.92,14.69c.11,4.2.41,8.4.62,12.6,0,.75,0,1.51.12,2.25a9.38,9.38,0,0,0,.51,2.29,3.2,3.2,0,0,0,4,2.21,13.52,13.52,0,0,0,3.31-1c7.9-3.79,13.59-9.91,18-17.34A60.54,60.54,0,0,0,195.42,75a73.68,73.68,0,0,0,1.41-14.52C196.7,58,196.67,55.58,196.42,53.14Zm-80.51,1.31a43,43,0,0,0,2.24,4.88,155.41,155.41,0,0,1,9.22,20.48,114.81,114.81,0,0,0,5.73,12.76,50.22,50.22,0,0,0,11.42,14.57,29,29,0,0,0,9.67,5.6,6.05,6.05,0,0,0,3.92.06,2.45,2.45,0,0,0,2-2.64,7.17,7.17,0,0,0-.34-2.2c-1.72-5.09-3-10.3-4.4-15.47-1.85-6.7-4-13.32-7.45-19.42a42.75,42.75,0,0,0-11-13.1c-1.09-.83-2.22-1.61-3.35-2.39a23.44,23.44,0,0,1-5.19-4.85c-.92-1.17-1.86-2.35-2.87-3.45a11.81,11.81,0,0,0-6.43-3.85c-2.67-.53-4.16.71-4.25,3.43,0,.21,0,.42,0,.41A12.69,12.69,0,0,0,115.91,54.45ZM161.7,108.2c-.25-4.78-.59-9.56-.69-14.35-.07-3.15.13-6.32.37-9.48.26-3.52.61-7,1.07-10.55.89-6.89,1.9-13.8,5-20.12a13.63,13.63,0,0,0,1.07-7.63,36.71,36.71,0,0,0-1.8-8c-1.4-4.26-6.35-6.07-9.66-5.19a6.94,6.94,0,0,1-4.41-.19,5.86,5.86,0,0,0-6.54,1.49,16.54,16.54,0,0,0-2.75,3.67,24.61,24.61,0,0,0-2.75,8.77,36.81,36.81,0,0,0,1.47,16.14,8,8,0,0,0,1.53,2.83c4.63,5.6,7.65,12.06,10,18.89,1.79,5.24,3.06,10.62,4.52,16,.82,3,1.95,5.92,3,8.87a5.4,5.4,0,0,0,.44.82l.35-.09C161.8,109.41,161.73,108.81,161.7,108.2Zm42.78-66c-1.53,2.08-3.08,4.14-4.54,6.27a14.18,14.18,0,0,0-2.3,7c-.2,2.82-.16,5.65-.29,8.48-.51,10.93-3.1,21.29-8.72,30.78a52.22,52.22,0,0,1-6.9,9.16,40.89,40.89,0,0,1-12.37,8.76c-.3.14-.6.28-.89.44-.06,0-.07.14-.2.43,1-.15,1.88-.22,2.73-.44a40.26,40.26,0,0,0,22.94-15.87,70.68,70.68,0,0,0,8.91-17.67,117.52,117.52,0,0,0,5-17.37,65.17,65.17,0,0,0,1.3-11.89,19,19,0,0,0-1-6.89c-.37-1-.71-2.06-1.84-2.5A2.6,2.6,0,0,0,204.48,42.22Z"/><path class="cls-47" d="M170.39,280.83c0-1.62,0-3.25-.1-4.87-.06-2.12-.15-4.25-.2-6.37-.1-4.92-.06-9.84-.3-14.75-.25-5.16-.75-10.3-1.16-15.44-.34-4.36-1.25-8.67-1-13.06a63.77,63.77,0,0,1,.87-7.68,42.78,42.78,0,0,0,0-15.51q-1.08-5.64-1.78-11.34c-.33-2.64-.44-5.31-.55-8a73.6,73.6,0,0,0-3.37-19.12,81.83,81.83,0,0,1-2.22-8.44,34.66,34.66,0,0,1-.52-6.45A75.55,75.55,0,0,1,161.51,137a64.38,64.38,0,0,0,.66-15.81c-.11-1.5-.2-3-.33-4.48a6.05,6.05,0,0,0-.29-1.09l-.3.07c.05.5.13,1,.15,1.51.11,2.62.19,5.24.29,7.87a71.3,71.3,0,0,1-1.39,15.14,48.94,48.94,0,0,0-.82,13.55,55.12,55.12,0,0,0,1.59,7.68c.91,3.58,2.05,7.11,2.93,10.71A56.79,56.79,0,0,1,165.42,183a135.69,135.69,0,0,0,2.08,18.85,54.74,54.74,0,0,1,1.05,8.15,42.24,42.24,0,0,1-.53,7.09c-.49,3.75-1.3,7.47-1.08,11.28.13,2.37.38,4.73.61,7.09.28,2.86.63,5.71.87,8.57.29,3.44.56,6.89.7,10.34.17,3.92.2,7.84.29,11.75.1,4.38.19,8.75.3,13.13,0,.53.12,1.07.18,1.61Z"/><path class="cls-48" d="M30,113.42a24.66,24.66,0,0,1,3-.18c4.23.2,8.47.45,12.7.7a98.73,98.73,0,0,1,11.85,1.53,36.14,36.14,0,0,1,9.17,2.72c6.28,3,12.8,5.38,19.23,8a75.41,75.41,0,0,1,18.31,10.36A54,54,0,0,1,109.1,141c1.61,1.6,3.13,3.29,4.85,4.82a10.93,10.93,0,0,0-.79-1.21c-2.37-2.73-4.59-5.62-7.46-7.88A73.23,73.23,0,0,0,91.64,128c-4.58-2.19-9.31-4-14-5.82-3.29-1.27-6.49-2.79-9.72-4.24a44.31,44.31,0,0,0-12.2-3.4c-3.24-.44-6.5-.85-9.76-1.19-1.77-.19-3.57-.21-5.35-.31-1,0-2-.15-3-.13-2.33,0-4.66.14-7,.23a2.75,2.75,0,0,0-.58.18Z"/><path class="cls-48" d="M119.86,154.25a.28.28,0,0,1-.11,0,60.38,60.38,0,0,0-9-11.28,29.54,29.54,0,0,0-12-7.46,35.9,35.9,0,0,0-18.26-.59c-4.76,1-9.49,2.13-14.23,3.21a29.56,29.56,0,0,1-12.63.26A26.19,26.19,0,0,1,40,131.15c-4.48-4.47-8.77-9.14-13.56-13.3a7.12,7.12,0,0,1-1.65-2.32A3.6,3.6,0,0,1,26,110.67a13.59,13.59,0,0,1,3.52-1.84,29.8,29.8,0,0,1,10.28-1.76c3.86.06,7.73.3,11.6.53q7,.42,13.95,1a59.31,59.31,0,0,1,7.18.82,50.78,50.78,0,0,1,21.82,10.28,53.16,53.16,0,0,1,10.66,12c2.16,3.16,4.07,6.5,6.24,9.65,2.39,3.46,5,6.79,7.42,10.2a23.62,23.62,0,0,1,1.43,2.56Zm-9.46-13.11a117.32,117.32,0,0,0-10.61-15.28c-1-1.13-2-2.22-3.08-3.28a26.39,26.39,0,0,0-13.24-7.11,48.19,48.19,0,0,0-8.79-1c-3.41-.14-6.83-.11-10.24-.29a33.29,33.29,0,0,1-8.55-1.66c-3-1-6-2-8.94-3.14a24.36,24.36,0,0,0-15.68-.46,16.63,16.63,0,0,0-4.34,1.84c-2.22,1.32-2.55,3.31-1,5.42a12.77,12.77,0,0,0,2,2.18,134.06,134.06,0,0,1,10,9.79,57.1,57.1,0,0,0,5,4.67c3.77,3.12,8.23,4.57,13,5.25,4.31.61,8.45-.21,12.6-1.16s8.09-1.94,12.17-2.75a36.19,36.19,0,0,1,18.5.83,28.4,28.4,0,0,1,9.88,5.72l1.27,1.09.19-.16A2.57,2.57,0,0,0,110.4,141.14ZM62.91,113.49c1.36.18,2.74.25,4.11.3,3.66.11,7.32.13,11,.28a38,38,0,0,1,8.44,1.53.93.93,0,0,0,.64,0c-.25-.16-.49-.35-.75-.49a46.5,46.5,0,0,0-14.6-5.23c-1.73-.27-3.46-.49-5.2-.62-3.19-.23-6.39-.34-9.59-.55-2.53-.17-5-.42-7.58-.63-1.32-.11-2.64-.2-4-.3C51.12,110.17,56.75,112.68,62.91,113.49Z"/><path class="cls-48" d="M23,54.77c3.11,3.07,6.18,6.17,9.33,9.19A115.81,115.81,0,0,0,51.23,78.82a68.53,68.53,0,0,0,13.25,6.32c.39.13.8.23,1.2.33a2.77,2.77,0,0,0,.58,0,80.75,80.75,0,0,1-15-7.28A110.21,110.21,0,0,1,36.62,67.14c-4.37-3.91-8.6-8-12.89-12l-.59-.55Z"/><path class="cls-48" d="M53.38,93.65l-2.92-.33A60.28,60.28,0,0,1,32.89,88.5a151.21,151.21,0,0,1-15.55-7.89A4.46,4.46,0,0,0,15.76,80c.43.28.86.57,1.3.83A115.27,115.27,0,0,0,38,91.05a58.18,58.18,0,0,0,10.48,2.6c1.62.25,3.28.26,4.92.38C53.37,93.9,53.37,93.78,53.38,93.65Z"/><path class="cls-48" d="M75.89,24.21C77.62,28.19,79.4,32,81,36a66.54,66.54,0,0,1,3.45,13.48A60.81,60.81,0,0,1,85.1,63a50.06,50.06,0,0,1-.85,5.4.9.9,0,0,0,.13.76c.31-1.48.67-3,.92-4.45a41.55,41.55,0,0,0,.22-10.21,71.19,71.19,0,0,0-9.33-29.82C76.11,24.53,76,24.4,75.89,24.21Z"/><path class="cls-48" d="M48.8,72.83c-5.12-3.94-10.08-8-14.86-12.39A136.37,136.37,0,0,1,21,46.2C28.34,57.1,38.1,65.47,48.8,72.83Z"/><path class="cls-48" d="M16.74,64.7c2,2,3.9,4,5.92,5.88A96.1,96.1,0,0,0,35.26,81.2a46.65,46.65,0,0,0,11.65,5.91c.07,0,.15,0,.53,0-.46-.22-.68-.34-.91-.43a57.13,57.13,0,0,1-16.15-9.81c-4.35-3.75-8.5-7.74-12.74-11.63-.26-.24-.5-.49-.76-.74Z"/><path class="cls-48" d="M89.33,23.82A74.07,74.07,0,0,1,93.5,35.1a60.24,60.24,0,0,1,1.69,9c.55,4.88-.28,9.6-1.39,14.3-.06.28-.11.57-.18.85s-.14.47-.19.71C97.58,49.15,96,35.84,89.33,23.82Z"/><path class="cls-48" d="M77.4,82.1a16,16,0,0,0,1.4-5.26A51.58,51.58,0,0,0,78.86,66,71.37,71.37,0,0,0,76.29,52c-.17-.64-.4-1.26-.61-1.89,0-.07-.09-.13-.25-.33.46,1.91,1,3.67,1.29,5.45.54,2.93,1.08,5.88,1.39,8.84s.41,5.88.49,8.83a36.54,36.54,0,0,1-1.14,8.5C77.43,81.51,77.43,81.68,77.4,82.1Z"/><path class="cls-48" d="M43.6,10.48c4.61,8.78,7.64,18.15,10.31,27.66C53.4,31.83,46.76,14,43.6,10.48Z"/><path class="cls-48" d="M60.81,71.45C53.54,64.17,48.46,55.26,42.7,46.83c.25.45.49.92.76,1.36A156.75,156.75,0,0,0,55.25,65.81c1.64,2,3.56,3.84,5.36,5.74a.16.16,0,0,0,.11,0S60.76,71.54,60.81,71.45Z"/><path class="cls-48" d="M71.69,65.09Q67.35,51.3,63,37.52C65.07,47,68.33,56.07,71.69,65.09Z"/><path class="cls-48" d="M87.84,47.46a45.2,45.2,0,0,1,.8,14.11,31.75,31.75,0,0,1-4.57,13.19c.16-.2.34-.39.49-.6a24.68,24.68,0,0,0,4.14-10,33.23,33.23,0,0,0,.4-10c-.32-2.21-.62-4.43-.93-6.64Z"/><path class="cls-48" d="M57.56,54.91c-4.22-5.76-6.83-12.37-10-18.69l-.24.1c.7,1.62,1.37,3.25,2.09,4.86s1.49,3.24,2.29,4.84,1.65,3.27,2.56,4.85C56.07,54,56.57,54.55,57.56,54.91Z"/><path class="cls-48" d="M4.36,63.62c.28,1.82,7.32,9.81,11.05,12.66Z"/><path class="cls-48" d="M92.21,27.83c-2.33-6.06-5.27-11.78-9.86-16.52A94,94,0,0,1,92.21,27.83Z"/><path class="cls-48" d="M62.09,14.69a6.72,6.72,0,0,0,.25,1c2,4.1,4,8.2,5.84,12C68.15,25.69,63.7,15.66,62.09,14.69Z"/><path class="cls-48" d="M5,44.11a4.68,4.68,0,0,0,.33,1.08,72.77,72.77,0,0,0,6.75,9.42l.23-.16L5.3,44Z"/><path class="cls-48" d="M34.08,35.06a5.23,5.23,0,0,0-.33-1,100.15,100.15,0,0,0-7.56-11.26s-.13,0-.3-.08c2.7,4.17,5.35,8.28,8,12.4Z"/><path class="cls-48" d="M37.06,31.85,32.62,19.54h-.2a1.84,1.84,0,0,0-.1.6,4.37,4.37,0,0,0,.26,1.08q2,5.15,4.06,10.29a2.8,2.8,0,0,0,.25.41Z"/><path class="cls-48" d="M20.1,30c-1.87-3.15-5.33-7.69-6-8C14.15,23.08,17.56,27.66,20.1,30Z"/><path class="cls-48" d="M50.49,3.42l5.19,10.22A38.48,38.48,0,0,0,50.83,3.23Z"/><path class="cls-48" d="M44.92,44.77c0,1.41,3.33,7.53,5.25,9.89C48.49,51.32,46.72,48,44.92,44.77Z"/><path class="cls-48" d="M67.34,58.64c-1.2-3.63-2.41-7.26-3.66-11C63.61,49.05,66.07,56.64,67.34,58.64Z"/><path class="cls-48" d="M60.64,15.77c-.1.88,1.84,4.47,3.38,6.44A22.55,22.55,0,0,0,60.64,15.77Z"/><path class="cls-48" d="M49.29,43.14c1.45,4.06,3.2,7.25,4.57,8.19-.8-1.33-1.63-2.65-2.38-4S50,44.54,49.29,43.14Z"/><path class="cls-48" d="M17.2,28.32,12.87,23l-.21.11c0,.16-.09.37,0,.46,1.41,1.68,2.84,3.34,4.26,5Z"/><path class="cls-48" d="M17.6,37l-3.5-4.26-.25.21a29,29,0,0,0,3.39,4.34Z"/><path class="cls-48" d="M7.17,50.46A28.84,28.84,0,0,0,4.32,45.9C4.33,47,5.79,49.31,7.17,50.46Z"/><path class="cls-48" d="M63.81,6.1a3.53,3.53,0,0,0,1.36-2.77,3.28,3.28,0,0,1,3-3.3,10.79,10.79,0,0,1,2.6.15,15.61,15.61,0,0,1,7.29,3.65A44.65,44.65,0,0,1,88.78,16.41a56.81,56.81,0,0,1,7.07,22.33A51.92,51.92,0,0,1,95.23,54,49,49,0,0,1,82.9,78.45c-2.61,2.81-3.58,6-2.27,9.78a4.34,4.34,0,0,1,.13.92c-.28,0-.43.06-.52,0a5.14,5.14,0,0,1-.64-.38,8.72,8.72,0,0,0-9.43-.64c-2.26,1.14-4.6,2.1-6.9,3.19A33.94,33.94,0,0,1,51.79,94a52.38,52.38,0,0,1-12.7-.36A56.87,56.87,0,0,1,16,84.76,49.82,49.82,0,0,1,3.22,72.9,16.32,16.32,0,0,1,.28,67.29,7.46,7.46,0,0,1,0,64.6c.19-1.61,1.1-2.23,2.63-1.76A22.65,22.65,0,0,1,8.39,65a8.93,8.93,0,0,0,.95.39l-.63-1a34.78,34.78,0,0,1-4.23-8.47,16.44,16.44,0,0,1-.87-8.59c.79-3.72,2.6-5.71,5.93-6.19.6-.09,1.18-.3,1.75-.44,0-.21,0-.31,0-.38-.2-.36-.42-.71-.62-1.08a15.27,15.27,0,0,1-2-10.08,9.37,9.37,0,0,1,3.77-6.39,16.27,16.27,0,0,0,3.11-2.86,17.26,17.26,0,0,1,5.24-4.18,8.75,8.75,0,0,1,5.31-1,14.43,14.43,0,0,1,5.25,1.87c.31.17.62.31,1.08.55V15.44c0-1.66-.1-3.33,0-5A11,11,0,0,1,41.23.31c3.52-.75,6.7-.2,9.34,2.43.21.2.46.37.66.58a8.06,8.06,0,0,0,3.52,2.06,14.18,14.18,0,0,1,7.3,4.32s.08,0,.25,0A5.06,5.06,0,0,1,63.81,6.1ZM71,87.1a11.19,11.19,0,0,0,3.27-2.66A4,4,0,0,0,74.81,80a22.47,22.47,0,0,0-3.61-5.67,99.92,99.92,0,0,1-8.44-11.61,14.64,14.64,0,0,1-1.09-2,14.8,14.8,0,0,0-3.55-4.92,68.25,68.25,0,0,0-9.92-8.18,127.63,127.63,0,0,0-12.31-7.86,26.1,26.1,0,0,0-9.63-3.28,18,18,0,0,0-7.89.72,15.77,15.77,0,0,0-3.23,1.85c-1.4.9-2.65,2-4.34,2.39-.29.06-.57.15-.85.2-3.28.55-5,2.19-5.67,5.47A16,16,0,0,0,5.16,56a37.56,37.56,0,0,0,7.28,12.13,75.15,75.15,0,0,0,9.31,9.23A59.66,59.66,0,0,0,45.07,89.41,49.56,49.56,0,0,0,55.56,90.8C61,90.64,66.16,89.73,71,87.1ZM83,19.81a30.18,30.18,0,0,0-5.48-6.29,16.15,16.15,0,0,0-5.79-3.37c-1.9-.58-3.58-.31-4.81,1.34a12.89,12.89,0,0,1-5.12,3.84,10.46,10.46,0,0,0-6.32,9.19c-.18,2.4-.55,4.79-.7,7.2A37.39,37.39,0,0,0,56.05,43a87.89,87.89,0,0,0,4.22,13.43,62.1,62.1,0,0,0,8.19,13.53q3.47,4.52,6.88,9.06c1.3,1.74,3.16,2.18,4.88.85A27.29,27.29,0,0,0,84.15,76c3.85-4.47,5.88-9.8,7-15.52a46.34,46.34,0,0,0,1-10.17A55.16,55.16,0,0,0,83,19.81ZM57.33,7A21.73,21.73,0,0,1,49,2.26C47.26.61,45,.47,42.74.69A10.39,10.39,0,0,0,33.4,8.17a14.61,14.61,0,0,0-.53,6.06,14.59,14.59,0,0,1-.36,6.31c-1.44,4.57-.44,8.88,1.14,13.15.58,1.55,1.37,3,2,4.56a3.11,3.11,0,0,0,1.41,1.5A125,125,0,0,1,52.71,50.3C54.89,52,56.84,54,58.89,55.93l.67.63c-.18-.56-.26-.85-.37-1.13a83.85,83.85,0,0,1-4.75-17.8,26.39,26.39,0,0,1,.12-8.82,19.88,19.88,0,0,0,.29-3.36c.1-5.22,2.62-8.8,7.3-11,.56-.25,1.1-.54,1.84-.91C62.24,10.72,60.44,8.1,57.33,7ZM14.6,38.69c3.33-2.75,7.25-3.06,11.32-2.78a23.69,23.69,0,0,1,8.46,2.42c.24.11.51.19,1,.37-.32-.66-.52-1.1-.74-1.53A30.51,30.51,0,0,1,31.5,28a14.89,14.89,0,0,1,.17-6.54c.3-1.07.48-2.18.73-3.32a14.19,14.19,0,0,0-5.73-2.73,8,8,0,0,0-5.77.92,18.53,18.53,0,0,0-5,4.05,21.93,21.93,0,0,1-3,2.76,9.43,9.43,0,0,0-3.78,7,15.6,15.6,0,0,0,2.78,9.91c0,.06.14.08.37.2A27,27,0,0,0,14.6,38.69ZM60.09,91a35.57,35.57,0,0,1-9.22,0C37.36,89.37,26.3,82.87,16.68,73.6c-1.77-1.7-3.38-3.57-5-5.38a14.2,14.2,0,0,0-6.26-4,24.71,24.71,0,0,0-2.51-.72,10.35,10.35,0,0,0-1.61-.13,3,3,0,0,0-.62,2.84A14.41,14.41,0,0,0,3,71.44a44.67,44.67,0,0,0,9.51,10A56.38,56.38,0,0,0,38.62,93a53.77,53.77,0,0,0,13.94.37,40.41,40.41,0,0,0,8.78-1.81c.35-.12.7-.27,1-.42.1,0,.18-.15.45-.4C61.77,90.84,60.93,90.92,60.09,91ZM71.44,1.34a14.55,14.55,0,0,1,4.32,6.18,32.5,32.5,0,0,0,5.58,9.09c4.92,5.79,7.86,12.6,9.71,19.91a55.89,55.89,0,0,1,1.76,15.07A53.27,53.27,0,0,1,90.65,65a2.91,2.91,0,0,0-.13,1.36c.17-.3.37-.59.51-.9a52.06,52.06,0,0,0,4.16-14.7,46.68,46.68,0,0,0,.17-11.57c-1.25-10.62-4.58-20.43-11.52-28.77A42,42,0,0,0,77,3.79a16.2,16.2,0,0,0-4.91-2.68C71.87,1,71.6,1,71.21.92A2,2,0,0,0,71.44,1.34Zm3.21,5.11a13.38,13.38,0,0,0-3.28-4.52A8,8,0,0,0,69.73.8a2.58,2.58,0,0,0-3.57,1.29,8.87,8.87,0,0,0-.58,2.4A1.85,1.85,0,0,1,64.8,6a4.89,4.89,0,0,0-1.95,3.88,2.44,2.44,0,0,0,.33,1.29c.35.65.81,1.25,1.3,2a9.06,9.06,0,0,0,.74-.58,10,10,0,0,0,.74-.85c2.2-2.59,3.78-3,6.92-1.75a35.89,35.89,0,0,1,3.4,1.82l1,.62C76.36,10.24,75.53,8.33,74.65,6.45Z"/><path class="cls-48" d="M182.64,280.83c-.18-4.08-.27-8.16-.58-12.23-.41-5.48-.86-11-1.53-16.41a61.8,61.8,0,0,0-5-16.93A90.16,90.16,0,0,0,151,202.52c-2.47-2.12-4.89-4.29-7.3-6.47a67.31,67.31,0,0,1-16.39-22.75A203.86,203.86,0,0,1,118.85,150a181,181,0,0,0-6.09-17.69,95.34,95.34,0,0,0-16.07-25.48C91.48,100.82,86.17,95,80.93,89c-1-1.12-1.9-2.31-2.85-3.48l-1-1.21-.28.18a5,5,0,0,0,.45.93c1.11,1.45,2.19,2.94,3.39,4.31,5.47,6.23,11,12.39,16.46,18.66a96,96,0,0,1,19,35c2.38,7.67,4.65,15.37,7.53,22.88a91.52,91.52,0,0,0,9.26,18.51,75.61,75.61,0,0,0,12.31,13.58c3.94,3.59,8,7,11.8,10.8a84.49,84.49,0,0,1,21,34.74,51.09,51.09,0,0,1,2.17,10.87c.47,5.23.88,10.45,1.26,15.68.22,3,.33,6.07.48,9.11,0,.42,0,.83,0,1.25Z"/></g></g></svg>