<?xml version="1.0" encoding="utf-8"?>
<!-- Generator: Adobe Illustrator 24.0.0, SVG Export Plug-In . SVG Version: 6.00 Build 0)  -->
<svg version="1.1" id="Layer_1" xmlns="http://www.w3.org/2000/svg" xmlns:xlink="http://www.w3.org/1999/xlink" x="0px" y="0px"
	 viewBox="0 0 620.3 550.8" style="enable-background:new 0 0 620.3 550.8;" xml:space="preserve">
<style type="text/css">
	.st0{fill:#111111;}
	.st1{fill:#FFFFFF;}
	.st2{fill:#E5DDDB;}
</style>
<g id="Layer_2_1_">
	<g id="Layer_24">
		<ellipse class="st0" cx="447.8" cy="501.2" rx="172.5" ry="20.3"/>
		<ellipse class="st0" cx="313.8" cy="537.2" rx="58.5" ry="6.9"/>
		<ellipse class="st0" cx="37.8" cy="510.8" rx="37.5" ry="4.4"/>
		<path class="st1" d="M510.8,8.7c6.1,0,11.1,4.8,11.2,10.9l0.1,69.8c-0.1,6-5,10.9-11,11l-174.8,0.3c-5.2-0.1-9.6-3.8-10.6-8.8
			h19.7h0.1h91.3c0.5,0,0.9-0.1,1.3-0.3c2.3-0.6,3.6-3,3-5.3c-0.5-1.9-2.3-3.2-4.3-3.1l-9.4,0.1l0.1-51c0-2.3-1.9-4.2-4.2-4.2
			c-0.4,0-0.8,0.1-1.2,0.2c-1.8,0.5-3.1,2.2-3.1,4.2l-0.1,50.8h-30.2l0.1-50.8c0.1-2.4-1.8-4.3-4.1-4.4c-0.1,0-0.1,0-0.2,0
			c-2.4,0-4.3,1.9-4.3,4.3l-0.2,50.9h-30.1l0.2-50.7c0-2.4-2-4.3-4.4-4.3c0,0,0,0,0,0c-2.3-0.1-4.2,1.6-4.3,3.9c0,0.1,0,0.3,0,0.4
			l-0.1,50.8l-15.9-0.1L325,20c0.1-6.1,5.1-11,11.1-11L510.8,8.7z M505.1,32.2c0-2.4-1.9-4.3-4.3-4.3c-2.4,0-4.3,1.9-4.3,4.3
			l-0.1,55.1c-0.1,2.3,1.7,4.2,4,4.3c0.1,0,0.2,0,0.3,0c0.5,0,1-0.1,1.5-0.2c1.7-0.6,2.9-2.3,2.8-4.1L505.1,32.2z M466.4,32.3
			c0-2.3-1.9-4.2-4.3-4.3c-0.1,0-0.1,0-0.2-0.1c-2.4,0.1-4.3,2-4.3,4.4l-0.1,51l-0.2-0.1c-0.4,0-0.8,0.1-1.2,0.2
			c-1.8,0.5-3.1,2.2-3.1,4.2c-0.1,2.3,1.7,4.2,4,4.3c0.1,0,0.2,0,0.3,0h17.5c0.4,0,0.8-0.1,1.2-0.2c2.3-0.7,3.6-3.1,2.9-5.4
			c-0.6-1.9-2.3-3.1-4.2-3.1l-8.6,0.1L466.4,32.3z"/>
		<path class="st0" d="M510.8,0c10.9,0,19.7,8.8,19.8,19.7l0.2,69.6c0,10.9-8.8,19.7-19.7,19.8h-12.3c9,18.4,18.3,23.9,30.8,31.1
			c5.7,3.2,11.2,6.7,16.6,10.4c16.6,11.8,22.3,29.2,22.2,41.7l3.5,280.3c-1.6,39.2-102.8,42-146.1,41.4c-3.7,0.1-7.5,0.2-11.4,0.2
			c-53.8,0.1-131.8-5.8-133.4-40.2l0.8-281.3c-0.3-12.2,5.5-29.7,22.2-41.6c5.3-3.8,10.7-7.3,16.3-10.5
			c12.6-7.3,21.8-12.9,30.7-31.2h-14.6c-10.9-0.1-19.7-8.8-19.8-19.7V20c0-10.8,8.7-19.6,19.5-19.6L510.8,0z M521.9,19.7
			c-0.1-6.1-5.1-11-11.2-10.9L336.1,9c-6.1,0-11,4.9-11.1,11l0.2,63.2l15.9,0.1l0.1-50.8c-0.1-2.3,1.7-4.2,3.9-4.3
			c0.1,0,0.3,0,0.4,0c2.4,0,4.4,1.9,4.4,4.2c0,0,0,0,0,0l-0.1,50.7h30.1l0.2-50.9c0-2.4,2-4.3,4.3-4.3c2.4,0,4.3,1.9,4.3,4.2
			c0,0,0,0.1,0,0.1l-0.1,50.8h30.2l0.1-50.8c0-1.9,1.2-3.6,3.1-4.1c0.4-0.1,0.8-0.2,1.2-0.2c2.3,0,4.3,1.9,4.3,4.2c0,0,0,0.1,0,0.1
			l-0.1,51l9.4-0.1c2.4-0.1,4.4,1.7,4.5,4.1c0.1,2-1.2,3.8-3.1,4.3c-0.4,0.2-0.9,0.3-1.3,0.3h-91.3h-0.1h-19.7
			c1,5.1,5.4,8.7,10.6,8.8l174.7-0.3c6-0.1,10.9-5,11-11L521.9,19.7z M559.6,192.3c0.2-10.4-4.6-24.8-18.5-34.6
			c-5.1-3.6-10.4-6.9-15.9-10c-14.1-8.2-25.5-14.9-36.1-38.7l-128.7,0.3c-0.1,0-0.1,0.2,0,0.3c-10.6,23.6-21.8,30.2-35.8,38.5
			c-4.9,2.9-10.1,5.9-15.8,9.9c-11.4,7.9-18.3,20.7-18.6,34.6l-0.1,61.3l269.6-0.4c0.3,0,0.4,0.3,0.7,0.4l-0.2-12.4l-45.2,0.2
			c-2.4,0-4.3-1.9-4.3-4.3c0,0,0,0,0-0.1c0-2.4,1.9-4.4,4.3-4.4c0,0,0,0,0,0l45-0.1L559.6,192.3z M561.9,364.6L560.5,262
			c-0.3,0-0.4,0.1-0.7,0.2h-0.1l-125.6,0l-144,0.2l-0.1,83.9H339c2.4,0,4.3,1.9,4.3,4.3c0,2.4-1.9,4.3-4.3,4.3l0,0l-49,0.2l-0.1,8.9
			l144.3-0.2l125.7-0.1C560.6,363.9,561.3,364.2,561.9,364.6z M563,456.4l-1.1-84.8c-0.4,0.3-0.9,0.5-1.3,0.7
			c-0.2,0.1-0.5,0.1-0.7,0.1l-270,0.4l-0.3,101c0.9,20.6,54.5,33.1,136.1,31.7c82.6,1,136.6-11.8,137.5-32.8l-0.1-4.7
			c-8.8,7.6-30,20.1-75.6,25c-0.1,0.1-0.3,0.1-0.4,0c-2.2,0-4.1-1.7-4.3-3.9c-0.3-2.3,1.3-4.3,3.6-4.6c0.1,0,0.1,0,0.2,0
			c60.8-6.5,74.9-26.9,75-27.1C561.8,456.7,562.5,456.6,563,456.4z"/>
		<path class="st2" d="M541.1,157.8c13.9,9.8,18.7,24.2,18.5,34.6l0.5,40.5l-45,0.1c-2.4,0-4.3,2-4.3,4.4c0,0,0,0,0,0
			c0,2.4,1.9,4.3,4.2,4.3c0,0,0,0,0.1,0l45.2-0.2l0.2,12.4c-0.3,0-0.4-0.3-0.7-0.4l-269.6,0.4l0.1-61.3c0.3-13.8,7.2-26.7,18.6-34.6
			c5.7-4,10.9-7,15.8-9.9c14-8.3,25.2-14.8,35.8-38.5c0-0.1-0.1-0.3,0-0.3l128.7-0.3c10.7,23.8,22,30.4,36.1,38.7
			C530.7,150.8,536,154.2,541.1,157.8z M502.5,237.4c0.1-2.3-1.7-4.2-4-4.4c-0.1,0-0.2,0-0.3,0h-11.3c-2.4,0.1-4.3,2.2-4.2,4.6
			c0.1,2.2,1.9,4,4.2,4.2l11.3-0.1c2.3,0.1,4.2-1.7,4.3-4C502.5,237.5,502.5,237.5,502.5,237.4L502.5,237.4z M348.3,153.1
			c1.8-1.5,2.1-4.2,0.6-6.1c-1.6-1.8-4.3-2-6.2-0.5c-1.8,1.5-2,4.2-0.6,6.1c0.8,1.1,2.1,1.7,3.4,1.6c1,0,2-0.3,2.8-0.9L348.3,153.1z
			 M332.6,162.9c2.1-1,3.1-3.5,2.1-5.7c-0.9-2.2-3.4-3.2-5.6-2.3c0,0-0.1,0-0.1,0.1c-2.1,1-3.1,3.5-2.1,5.7c0.6,1.6,2.2,2.6,3.9,2.6
			C331.3,163.3,332,163.2,332.6,162.9L332.6,162.9z M318.2,170.6c1.9-1.5,2.3-4.2,0.9-6.1c-1.5-1.9-4.2-2.2-6.1-0.7
			c-1.9,1.5-2.3,4.2-0.9,6.1c0.9,1,2.2,1.5,3.5,1.6C316.6,171.4,317.5,171.2,318.2,170.6L318.2,170.6z M308.9,182.3
			c0.8-2.3-0.4-4.8-2.6-5.6c-2.1-0.7-4.4,0.1-5.4,2.1c-0.9,2.3,0.2,4.8,2.3,5.8c0.5,0.3,1.1,0.4,1.7,0.3
			C306.6,184.9,308.2,183.9,308.9,182.3L308.9,182.3z M306,197.5c-0.1-2.4-2-4.3-4.4-4.2c-2.2,0.1-4.1,1.8-4.2,4.1
			c-0.1,2.3,1.7,4.2,4,4.3c0.1,0,0.2,0,0.3,0v0.1c2.4,0.1,4.3-1.8,4.4-4.1C306,197.6,306,197.6,306,197.5z M305.8,214.8
			c0.1-2.3-1.8-4.3-4.1-4.3c-0.1,0-0.1,0-0.2,0c-2.4-0.1-4.4,1.9-4.5,4.3c-0.1,2.4,1.9,4.4,4.3,4.5c2.4,0.1,4.4-1.9,4.5-4.3
			C305.8,214.9,305.8,214.8,305.8,214.8z M306,232c-0.1-2.4-2-4.3-4.4-4.3c-2.4,0.1-4.3,2-4.3,4.4c0,2.4,2,4.3,4.4,4.3c0,0,0,0,0,0
			c0.4,0,0.8-0.1,1.2-0.2C304.8,235.6,306,233.9,306,232z"/>
		<path class="st0" d="M500.9,27.9c2.3-0.1,4.2,1.7,4.3,4c0,0.1,0,0.2,0,0.3L505,87.3c0,1.8-1.1,3.5-2.8,4.1c-0.5,0.1-1,0.2-1.5,0.2
			c-2.3,0.1-4.2-1.7-4.3-4c0-0.1,0-0.2,0-0.3l0.1-55.1c-0.1-2.3,1.7-4.2,4-4.3C500.7,27.8,500.8,27.8,500.9,27.9z"/>
		<path class="st0" d="M462.1,28c2.4,0,4.3,2,4.3,4.3l-0.2,51l8.6-0.1c2.4-0.1,4.4,1.8,4.4,4.2c0,1.9-1.2,3.7-3.1,4.2
			c-0.4,0.1-0.8,0.2-1.2,0.2h-17.5c-2.3,0.1-4.2-1.7-4.3-4c0-0.1,0-0.2,0-0.3c0-1.9,1.2-3.6,3.1-4.2c0.4-0.1,0.8-0.2,1.2-0.2
			l0.2,0.1l0.1-51c0-2.4,1.9-4.3,4.3-4.4C462,28,462,28,462.1,28z"/>
		<path class="st2" d="M561.9,371.6l1.1,84.8c-0.5,0.3-1.2,0.4-1.5,0.9c-0.1,0.2-14.1,20.6-75,27.1c-2.3,0.2-4,2.2-3.8,4.5
			c0,0.1,0,0.1,0,0.2c0.2,2.2,2.1,3.9,4.3,3.9c0.1,0.1,0.3,0.1,0.4,0c45.6-4.9,66.8-17.4,75.7-25l0.1,4.7
			c-0.8,21-54.9,33.9-137.5,32.8c-81.7,1.4-135.3-11.1-136.1-31.7l0.3-101l270-0.4c0.2,0,0.5,0,0.7-0.1
			C561,372.2,561.5,371.9,561.9,371.6z M468.3,490.2c0-2.4-2-4.3-4.3-4.2c-0.1,0-0.1,0-0.2,0c-5.2,0.3-10.9,0.4-16.7,0.5
			c-2.4,0-4.3,1.8-4.3,4.2c0,0,0,0.1,0,0.1c0,2.4,2,4.3,4.4,4.3c0,0,0,0,0,0c6,0,11.7-0.1,17.1-0.3
			C466.6,494.5,468.4,492.6,468.3,490.2z"/>
		<path class="st0" d="M498.2,233c2.4,0,4.3,2,4.3,4.3c0,2.4-2,4.3-4.3,4.3l-11.3,0.1c-2.4-0.1-4.3-2.2-4.2-4.6
			c0.1-2.2,1.9-4,4.2-4.2L498.2,233z"/>
		<path class="st0" d="M463.8,486c2.4-0.1,4.4,1.7,4.5,4c0,0.1,0,0.1,0,0.2c0.1,2.4-1.7,4.4-4.1,4.5c-5.4,0.2-11,0.3-17.1,0.3
			c-2.4,0-4.4-1.9-4.4-4.2c0,0,0,0,0,0c0-2.4,1.9-4.3,4.2-4.3c0,0,0.1,0,0.1,0C452.9,486.4,458.6,486.2,463.8,486z"/>
		<path class="st0" d="M348.9,147c1.5,1.8,1.2,4.5-0.6,6.1v0.1c-0.8,0.6-1.8,1-2.8,0.9c-1.3,0.1-2.6-0.5-3.4-1.6
			c-1.4-1.9-1.2-4.5,0.6-6.1C344.5,145,347.2,145.2,348.9,147z"/>
		<path class="st0" d="M334.7,157.2c1,2.2,0,4.7-2.1,5.7c-0.6,0.2-1.2,0.4-1.9,0.3c-1.7,0-3.2-1-3.9-2.6c-0.9-2.2,0-4.7,2.1-5.7
			c2.2-1,4.7,0,5.7,2.1C334.7,157.1,334.7,157.2,334.7,157.2z"/>
		<path class="st0" d="M319.1,164.5c1.4,1.9,1,4.7-0.9,6.1c-0.8,0.5-1.7,0.8-2.6,0.9c-1.3,0-2.6-0.6-3.5-1.6c-1.4-1.9-1-4.7,0.9-6.1
			C314.9,162.3,317.6,162.6,319.1,164.5z"/>
		<path class="st0" d="M306.6,176.6c2.2,1,3.2,3.5,2.3,5.7c-0.7,1.6-2.3,2.6-4,2.6c-0.6,0-1.2-0.1-1.7-0.3c-2.2-1-3.2-3.6-2.3-5.8
			C301.9,176.6,304.4,175.7,306.6,176.6z"/>
		<path class="st0" d="M301.9,193.1c2.4,0,4.3,2,4.2,4.4c0,2.4-2,4.3-4.4,4.2l0,0v-0.1c-2.3,0.1-4.2-1.7-4.3-4c0-0.1,0-0.2,0-0.3
			C297.5,195,299.5,193.1,301.9,193.1z"/>
		<path class="st0" d="M301.5,210.4c2.3,0,4.2,1.8,4.3,4.1c0,0.1,0,0.1,0,0.2c0,2.4-2,4.3-4.3,4.2s-4.3-2-4.2-4.3
			C297.2,212.3,299.2,210.4,301.5,210.4z"/>
		<path class="st0" d="M301.6,227.7c2.4,0,4.4,1.9,4.4,4.3c0,1.9-1.2,3.6-3.1,4.2c-0.4,0.1-0.8,0.2-1.2,0.2c-2.4,0-4.4-1.9-4.4-4.3
			c0,0,0,0,0,0C297.3,229.8,299.2,227.8,301.6,227.7z"/>
		<polygon class="st2" points="165,420.5 178.8,426.1 191.3,438.8 196.6,458.1 196.7,484.1 183.4,509.1 163.9,521.2 145.4,522 
			133,516.8 120.4,507.5 105.6,502.2 83.7,503 11.1,503.2 4.9,497.7 4.9,478.5 11.7,469.6 35.7,469.5 76.8,469.4 97.3,464.6 
			110.3,450.1 122,424.9 139.6,419.2 		"/>
		<path class="st0" d="M0,492.3v-10.9c0-8.6,6.9-15.6,15.5-15.6l62.5-0.2c13.4,0.1,25.4-8.5,29.7-21.2c1.7-5.2,4-10.1,6.9-14.7
			c5.7-8.5,15.2-13.6,25.5-13.6l25-0.1c6-0.1,12,1.6,17,4.9c7.1,4.9,12.4,12.7,15.8,23.3c3.8,11.8,7.1,29.5,0.8,46.9
			c-6.2,16.9-19.9,29.5-36.7,33.5c-12.8,3-25.4,0.6-32.9-6.5c-1-1-2.1-1.9-3.3-2.7c-7.6-5.4-16.8-8.2-26.1-8l-84,0.2
			C7.1,507.9,0,501,0,492.3C0,492.4,0,492.3,0,492.3z M193.5,470.1c-0.1-7.8-1.4-15.6-3.9-23c-2.8-8.8-7.1-15.1-12.5-18.9
			c-3.6-2.3-7.7-3.5-12-3.4l-25,0.1c-7.3,0-14.2,3.6-18.3,9.7c-2.5,3.9-4.5,8.2-5.9,12.6c-5.5,16.2-20.7,27.1-37.8,27.1l-62.5,0.2
			c-3.8,0-6.9,3.1-6.9,6.9v10.9c0,3.8,3.1,6.9,6.9,6.9l84-0.2c11.1-0.2,22.1,3.2,31.2,9.6c1.4,1,2.8,2.2,4.1,3.4
			c5.4,5.1,15,6.8,25,4.4c6.7-1.6,23.1-7.5,30.6-28C192.5,482.5,193.6,476.3,193.5,470.1L193.5,470.1z"/>
		<path class="st0" d="M120.1,425.7c0-1.4,0.7-2.7,1.8-3.5c5.3-3.8,11.6-5.9,18.1-5.9l25-0.1c6-0.1,12,1.6,17,4.9
			c1.2,0.8,2.3,1.7,3.4,2.7c1.4,1.3,1.8,3.3,1,5.1c-2.9,6.1-9,10-15.8,10L137,439c-7.5,0-14.2-4.8-16.6-11.9
			C120.2,426.6,120.1,426.2,120.1,425.7z M176.6,427.9c-3.5-2.1-7.5-3.2-11.6-3.1l-25,0.1c-3.4,0-6.8,0.8-9.9,2.3
			c1.7,2,4.2,3.2,6.8,3.1l33.6-0.1C172.7,430.3,174.9,429.4,176.6,427.9L176.6,427.9z"/>
		<path class="st0" d="M24.6,503.5l-0.1-33.3c0-2.4,1.9-4.3,4.3-4.3c2.4,0,4.3,1.9,4.3,4.3c0,0,0,0,0,0l0.1,33.3
			c0,2.4-1.9,4.3-4.3,4.3C26.5,507.8,24.6,505.9,24.6,503.5C24.6,503.5,24.6,503.5,24.6,503.5z"/>
		<circle class="st0" cx="153.6" cy="493.8" r="5.6"/>
		<polygon class="st2" points="317.9,523.4 327.8,512.3 333.3,495.3 329.5,475.7 318,452.4 295,435.9 272.1,433.7 255.2,441.3 
			246.4,451.4 239.2,465.3 228.4,476.6 208.4,485.7 143.3,517.8 140.2,525.4 148.7,542.7 158.8,547.6 180.3,537 217.1,518.8 
			237.7,514 255.7,521.2 277.4,538.6 295.7,535.8 		"/>
		<path class="st0" d="M145.3,511.6l75.3-37.1c8.4-4,15.4-10.6,19.8-18.8c0.7-1.3,1.2-2.6,1.7-3.9c3.6-9.7,13.8-17.5,26.6-20.4
			c16.8-3.9,34.7,1.2,47.7,13.7c13.4,12.7,18.3,30,20.2,42.3c1.6,11,0.4,20.4-3.8,27.9c-3,5.2-7.5,9.4-13,12l-22.4,11
			c-9.2,4.6-20,4.3-28.9-0.8c-4.7-2.8-9-6.2-12.8-10.1c-9.5-9.5-24-11.8-36-5.8l-56,27.6c-7.7,3.8-17,0.6-20.8-7.1l-4.8-9.7
			C134.4,524.7,137.6,515.4,145.3,511.6z M310.5,451.3c-15.8-15-33.1-13-39.8-11.5c-10,2.3-17.8,8.1-20.5,15.1
			c-0.6,1.7-1.3,3.3-2.2,4.9c-5.3,9.8-13.6,17.7-23.6,22.5l-75.3,37.1c-3.4,1.7-4.8,5.8-3.1,9.3l4.8,9.8c1.7,3.4,5.8,4.8,9.2,3.2
			l56-27.6c15.3-7.7,33.8-4.7,45.9,7.5c3.3,3.3,6.9,6.3,11,8.6c6.4,3.6,14.2,3.9,20.7,0.5l22.4-11c3.9-1.8,7.1-4.7,9.3-8.4
			c3.2-5.8,4.2-13.4,2.8-22.5c-1.1-7.7-3.4-15.3-6.7-22.3C318.7,460.7,315,455.7,310.5,451.3L310.5,451.3z"/>
		<path class="st0" d="M275,537.4c-1-7.5,2.8-14.7,9.6-18.1l30.1-14.9c6.1-3,13.3-2.2,18.6,2c1.5,1.2,2.1,3.2,1.4,5
			c-0.5,1.4-1.1,2.7-1.8,3.9c-3,5.2-7.5,9.4-13,12l-22.4,11c-5.8,2.9-12.5,3.9-18.9,2.8c-1.4-0.2-2.5-1.1-3.1-2.3
			C275.2,538.4,275.1,537.9,275,537.4z M318.5,512.2L288.4,527c-2.3,1.2-4.1,3.3-4.7,5.8c3.4,0,6.8-0.8,9.9-2.3l22.4-11
			c3.7-1.7,6.8-4.5,9-7.9C322.9,511,320.5,511.2,318.5,512.2L318.5,512.2z"/>
		<path class="st0" d="M155.2,511.5l14.8,29.9c1.1,2.1,3.6,3,5.8,2c2.1-1.1,3-3.6,2-5.8L163,507.7c-1.1-2.1-3.6-3-5.8-2
			C155.1,506.8,154.2,509.4,155.2,511.5L155.2,511.5z"/>
		<circle class="st0" cx="275.1" cy="462.8" r="5.6"/>
	</g>
</g>
<g id="layer1" transform="translate(-249.8125,-282.84375)">
	<g id="text2989" transform="translate(-3.7898964,-8.6626204)">
	</g>
	<g id="text2985">
		<path id="path2997" d="M668.5,556.1c-0.8,0-2,0-3.8,0.1c-4.7,0.2-8.4,0.3-11.2,0.3c-2.5,0-6-0.1-10.5-0.3l-0.3,0.3v1.8l0.3,0.3
			c2.6,0.1,4.2,0.2,4.9,0.4c0.7,0.2,1.1,0.4,1.3,0.7c0.2,0.3,0.4,0.8,0.5,1.6c0.1,0.8,0.2,2.6,0.2,5.4l0.1,7.2v17l0,7.7
			c0,2.6-0.1,4.3-0.3,5.1s-0.4,1.2-0.6,1.5c-0.3,0.2-0.8,0.4-1.5,0.6c-0.8,0.1-2.3,0.3-4.6,0.4l-0.3,0.2v1.8l0.3,0.3
			c6.2-0.2,9.7-0.3,10.5-0.3c1,0,2.3,0,4.1,0.1c4.2,0.1,6.3,0.2,6.5,0.2l0.3-0.3v-1.8l-0.3-0.2c-2.6-0.1-4.2-0.2-4.9-0.4
			c-0.7-0.2-1.1-0.4-1.3-0.7s-0.4-0.8-0.5-1.6c-0.1-0.8-0.2-2.6-0.2-5.4l0-7.2v-17c0-8.6,0.2-13.2,0.6-13.8c2.3-0.7,4.7-1.1,7.3-1.1
			c3.7,0,6.6,0.8,8.7,2.5c2.2,1.7,3.2,4.1,3.2,7.3c0,3.6-1.2,6.4-3.6,8.4c-2.4,2-5.7,3-9.9,3c-0.7,0-1.7,0-3-0.1l-0.4,1.1
			c4.4,5,8.7,10.5,12.9,16.3c3.5,4.8,6,8.3,7.7,10.3l1.2,1.9l-10,14.1c-2.6,3.6-4.3,5.9-5.2,7c-0.9,1.1-1.6,1.8-2.2,2.1
			c-0.6,0.3-1.7,0.4-3.3,0.5l-0.3,0.3v1.8l0.3,0.3c1.5-0.1,2.8-0.1,3.7-0.1c0.9,0,2.2,0,3.7,0.1c4.8-8,8.9-14.4,12.4-19.3l2.7-3.7
			l11.2,16.5c1.2,2.2,2.6,4.3,4.1,6.5c2.5-0.1,4.4-0.1,5.6-0.1c1,0,2.6,0,4.9,0.1l0.3-0.3v-1.8l-0.3-0.3c-1.6,0-2.6-0.1-3-0.3
			c-0.4-0.2-1-0.7-1.8-1.7c-0.7-0.9-1.7-2.4-2.8-4.3l-13.7-19.8c0-0.1-0.1-0.3-0.1-0.4l2.7-3.6l6.8-9.3c2.4-3.3,4.1-5.4,4.9-6.2
			c0.8-0.8,1.4-1.4,1.9-1.6c0.5-0.2,1.5-0.3,3.1-0.4l0.3-0.3V584l-0.3-0.3c-2.1,0.1-3.2,0.1-3.4,0.1c-0.4,0-1.7,0-3.8-0.1l-14,20.6
			c-0.5-0.7-1.3-1.8-2.5-3.4c-1.9-2.5-3.7-4.9-5.4-7.2l-5.2-6.9c-1.8-2.3-3-4-3.7-5c3.7-0.7,6.6-1.8,8.7-3.2
			c2.1-1.4,3.7-3.1,4.8-5.1c1.1-2,1.6-4,1.6-6.1c0-3.1-1.1-5.7-3.3-8C678.8,557.2,674.7,556.1,668.5,556.1z"/>
	</g>
</g>
</svg>
