<svg xmlns="http://www.w3.org/2000/svg" viewBox="0 0 154.57 154.59"><defs><style>.cls-1{fill:#663398;}</style></defs><title>4</title><g id="Layer_2" data-name="Layer 2"><g id="Layer_1-2" data-name="Layer 1"><path class="cls-1" d="M70.17.17A79.43,79.43,0,0,0,28.78,17,77.43,77.43,0,0,0,0,79.37a75.24,75.24,0,0,0,8.1,32.31,77.31,77.31,0,0,0,97.24,37.67A75.6,75.6,0,0,0,132.8,131a71.09,71.09,0,0,0,14.06-20,76.89,76.89,0,0,0,7-22.4,91.47,91.47,0,0,0,0-22.67,75.56,75.56,0,0,0-7.16-22.67,73.46,73.46,0,0,0-13.88-19.71A77,77,0,0,0,88.21.62,116.24,116.24,0,0,0,70.17.17ZM84.83,5a72.56,72.56,0,0,1,50.6,115.53c-2.15,2.87-7.8,9.28-8.19,9.28a8.12,8.12,0,0,1-.61-2.48A50,50,0,0,0,93.69,87.53l-3.12-1.12,2.51-1.69A28.91,28.91,0,0,0,105.2,67.64a33.61,33.61,0,0,0,0-13.48,28.65,28.65,0,0,0-56.46,5,30,30,0,0,0,3.83,16.2,33.2,33.2,0,0,0,9,9.4l2.57,1.69-2.81,1c-17.89,6.38-30.5,21.49-33.22,39.78a7.88,7.88,0,0,1-.64,2.66c-.39,0-6-6.41-8.28-9.4a72.49,72.49,0,0,1,47.37-115c1.72-.27,3.6-.51,4.17-.57A117.61,117.61,0,0,1,84.83,5ZM81.65,37.47a24,24,0,0,1,18.69,17.29,28.24,28.24,0,0,1,.18,11.76A24.43,24.43,0,0,1,83.23,83.93a26.09,26.09,0,0,1-11.76,0A23.55,23.55,0,0,1,56,71.36a20.61,20.61,0,0,1-2.39-10.58A22.72,22.72,0,0,1,61,43.61,23.58,23.58,0,0,1,81.65,37.47ZM85.28,89.8a46.35,46.35,0,0,1,19,8.28,45.18,45.18,0,0,1,18,33.22l.21,2.72-2.32,1.73a67.51,67.51,0,0,1-11.52,6.83,71.5,71.5,0,0,1-21.28,6.53,93,93,0,0,1-20,0,74.22,74.22,0,0,1-32.89-13.45L32.2,134l.21-2.72a45.15,45.15,0,0,1,18-33.22,46.6,46.6,0,0,1,22.7-8.86A71.65,71.65,0,0,1,85.28,89.8Z"/><path class="cls-1" d="M76,103A35,35,0,0,0,73.13,108l-2.3,4.5-4.8.67c-5.51.78-6.23,1.14-6.23,3.08,0,1,.3,1.39,3.66,4.65l3.65,3.54-.78,4.5c-1,5.57-1,5.93,0,6.9s1.84.87,6.77-1.7c2.24-1.17,4.17-2.14,4.26-2.14s2.15,1,4.48,2.27a27.76,27.76,0,0,0,5,2.26,2.66,2.66,0,0,0,2.24-2.33c0-.45-.36-2.84-.78-5.29l-.79-4.47,3.66-3.57c3.35-3.23,3.65-3.62,3.65-4.62,0-1.94-.72-2.3-6.22-3.08l-4.81-.7L81.53,108A35,35,0,0,0,78.69,103a3,3,0,0,0-1.36-.39A3,3,0,0,0,76,103Zm2.93,10.58c1.61,3.26,1.7,3.29,5.78,3.84l2.66.36-2.42,2.51a12.49,12.49,0,0,0-2.45,3c0,.24.21,1.54.45,2.84.73,3.78.82,3.66-2.11,2.09a12.29,12.29,0,0,0-3.45-1.39,12.46,12.46,0,0,0-3.47,1.39c-3,1.57-2.85,1.72-2.15-2.24a11.64,11.64,0,0,0,.24-3,19,19,0,0,0-2.42-2.81l-2.26-2.33,2.66-.33c4.11-.58,4.2-.61,5.8-3.87a20.89,20.89,0,0,1,1.57-2.81A19.69,19.69,0,0,1,78.9,113.62Z"/></g></g></svg>