<svg xmlns="http://www.w3.org/2000/svg" viewBox="0 0 512 392"><defs><style>.cls-1{fill:#663398;}</style></defs><title>8</title><g id="Layer_2" data-name="Layer 2"><g id="Layer_1-2" data-name="Layer 1"><path class="cls-1" d="M483.69,199.45h-43V83.15a28.1,28.1,0,0,0-28.07-28.06H347.81V27.21A27.25,27.25,0,0,0,320.6,0H27.21A27.25,27.25,0,0,0,0,27.21v12a7.5,7.5,0,0,0,15,0v-12A12.23,12.23,0,0,1,27.21,15H320.6a12.23,12.23,0,0,1,12.21,12.21V263.42H15v-189a7.5,7.5,0,0,0-15,0V328.6a27.25,27.25,0,0,0,27.21,27.21H44.44a44.18,44.18,0,0,0,86.91,0H250.66a7.5,7.5,0,1,0,0-15H131.52a44.18,44.18,0,0,0-87.24,0H27.21A12.23,12.23,0,0,1,15,328.6V278.42H332.81v62.39H285.06a7.5,7.5,0,0,0,0,15h97.27a44.18,44.18,0,0,0,86.9,0h14.71A28.09,28.09,0,0,0,512,327.75v-100a28.34,28.34,0,0,0-28.31-28.32ZM87.9,318.64a29.18,29.18,0,1,1-29.18,29.18A29.2,29.2,0,0,1,87.9,318.64ZM425.78,377A29.18,29.18,0,1,1,455,347.82,29.21,29.21,0,0,1,425.78,377ZM497,268.43H477a7.5,7.5,0,0,1,0-15h20Zm0-30H477a22.5,22.5,0,0,0,0,45h20v44.31a13.08,13.08,0,0,1-13.06,13.07H469.4a44.18,44.18,0,0,0-87.24,0H347.81V70.09h64.77a13.08,13.08,0,0,1,13.06,13.06V84.9H375.43a7.5,7.5,0,0,0-7.5,7.5V207a7.5,7.5,0,0,0,7.5,7.5H483.69A13.33,13.33,0,0,1,497,227.77v10.66ZM425.64,99.9v99.55H382.93V99.9Z"/><path class="cls-1" d="M392.77,238.43H375.43a7.5,7.5,0,0,0,0,15h17.34a7.5,7.5,0,0,0,0-15Z"/><path class="cls-1" d="M217.89,122.44a7.5,7.5,0,0,0,0-15h-30a7.5,7.5,0,0,0-7.5,7.5v60a7.5,7.5,0,0,0,7.5,7.5h30a7.5,7.5,0,0,0,0-15H195.41v-15h22.48a7.5,7.5,0,0,0,0-15H195.41v-15Z"/><path class="cls-1" d="M276.88,122.44a7.5,7.5,0,0,0,0-15h-30a7.5,7.5,0,0,0-7.5,7.5v60a7.49,7.49,0,0,0,7.5,7.5h30a7.5,7.5,0,0,0,0-15H254.4v-15h22.48a7.5,7.5,0,0,0,0-15H254.4v-15Z"/><path class="cls-1" d="M100.91,122.44a7.5,7.5,0,0,0,0-15h-30a7.5,7.5,0,0,0-7.5,7.5v60a7.5,7.5,0,1,0,15,0V152.43h22.48a7.5,7.5,0,0,0,0-15H78.43v-15Z"/><path class="cls-1" d="M166.41,144.94v-30a7.5,7.5,0,0,0-7.5-7.5h-30a7.5,7.5,0,0,0-7.5,7.5v60a7.5,7.5,0,0,0,15,0v-20.2l16.24,24.36a7.5,7.5,0,1,0,12.48-8.33l-12.22-18.33h6a7.5,7.5,0,0,0,7.5-7.5Zm-15-7.5h-15v-15h15Z"/></g></g></svg>