<svg xmlns="http://www.w3.org/2000/svg" viewBox="0 0 198.17 198.21"><defs><style>.cls-1{fill:#663398;}</style></defs><title>3</title><g id="Layer_2" data-name="Layer 2"><g id="Layer_1-2" data-name="Layer 1"><path class="cls-1" d="M.93,1a2.55,2.55,0,0,0-.2,3.75c1.9,2.44,26.17,12.55,38.41,16l3.71,1.05.2,8.4c.08,4.6.23,8.63.31,9s-5,4.57-18,14.48C15.29,61.21,6.62,67.9,6,68.52a4.3,4.3,0,0,0-1.32,3.22,7.43,7.43,0,0,0,.31,3A59.25,59.25,0,0,0,10.57,82a3.13,3.13,0,0,0,3.71-.15c1.4-1.28,1-2.83-1.58-6.35a20.29,20.29,0,0,1-2.25-3.29c.23-.19,27.45-20.87,33.49-25.44L49,43h4.34c3.25,0,4.72-.15,5.69-.62a6,6,0,0,0,3.09-3.79c.16-.66.47-1,.86-.93s2.82,3.75,5.61,8.21c6.89,11.07,10.3,14.59,17.46,17.84a26.72,26.72,0,0,0,12.81,2.67c5.73,0,8.64-.69,14.09-3.32a21.48,21.48,0,0,0,7.59-5.46c3.06-3.06,4.26-4.69,8.6-11.69,5.26-8.48,6.31-9.61,6.85-7.32a5.93,5.93,0,0,0,3.1,3.79c1,.47,2.47.62,5.53.62l4.18,0,5.38,4c4.22,3.17,5.66,4.06,6.62,4.06a2.74,2.74,0,0,0,2.71-2.36c.35-1.35-.77-2.59-5.38-6-3.09-2.25-3.68-2.83-3.48-3.49a91.4,91.4,0,0,0,.42-9.17l.2-8.4,1.2-.23c2.44-.55,16.06-5.19,21.29-7.32,8.25-3.33,18.16-8,19.36-9.18a3.35,3.35,0,0,0,1-2.09A3.5,3.5,0,0,0,195.46,0,32.17,32.17,0,0,0,190,2.32a211.53,211.53,0,0,1-31.32,12.39l-5.07,1.51-1.78-.93c-1.62-.85-2.28-1-6.12-1a35,35,0,0,0-5.69.39,6.62,6.62,0,0,0-4,4.1c-.51,1.48-.58,1.51-3,2-4.15.73-14.87,2-20.91,2.44-14.17,1-33.91,0-47.07-2.44-2.4-.47-2.48-.5-3-2a6.62,6.62,0,0,0-4-4.1,35,35,0,0,0-5.69-.39c-3.84,0-4.49.12-6.08,1s-1.86.93-3.83.35A211.67,211.67,0,0,1,8,2.28,29,29,0,0,0,2.67,0,3,3,0,0,0,.93,1ZM56.48,28.65v8.51H48.74V28.92A68.28,68.28,0,0,1,49,20.4a15.57,15.57,0,0,1,3.87-.27h3.6Zm92.84.08.07,8.43h-7.74V20.09l3.79.12,3.76.11ZM67.94,27.1a215,215,0,0,0,56.68.77c3.29-.42,6.93-.93,8.09-1.16,3.25-.62,3.13-.69,3.13,2.33v2.71h-1.39a6.41,6.41,0,0,0-5.34,3c-1.28,1.78-1.43,1.9-5.5,3.06A84.15,84.15,0,0,1,96,41.31a79.53,79.53,0,0,1-21.84-3.45c-4.06-1.16-4.22-1.28-5.49-3.06a6.52,6.52,0,0,0-5.15-3h-1.2V29c0-1.51.15-2.71.35-2.71S65.19,26.67,67.94,27.1ZM79.71,45.29a98.3,98.3,0,0,0,40.07-.38,17.48,17.48,0,0,1,3.25-.58c.31.35-3.64,6.15-5.61,8.28a25.41,25.41,0,0,1-21.88,7.78c-8.13-1.16-14.17-5.22-19-12.7-2-3.25-2.24-3.71-1.2-3.4C75.72,44.4,77.7,44.87,79.71,45.29Z"/><path class="cls-1" d="M168.4,54a2.36,2.36,0,0,0-.31,3.14c.23.46,4.65,4,9.76,7.9s9.37,7,9.44,7.12c.2.23-24,32.33-24.39,32.33-.19,0-3.87-2.29-8.16-5.11s-8.33-5.27-8.87-5.5a3,3,0,0,0-3.48,2c-.24.62-.35,5.23-.27,11.66l.11,10.6,1.12,1a2.68,2.68,0,0,0,3.84-.15c.58-.55.65-1.51.65-8.75,0-6.31.12-8.06.51-7.9.23.08,3.06,1.86,6.19,3.91,6.08,4,7.09,4.49,8.71,4.49,2.44,0,3.64-1.35,16.49-18.47,6.93-9.21,12.78-17.11,13-17.57.7-1.36.23-4.84-.81-6-.51-.55-5.27-4.26-10.65-8.33C170.72,52.34,170,52,168.4,54Z"/><path class="cls-1" d="M18,87.53C16,89.16,16.34,90,23.77,99.92c6.93,9.25,8.44,10.76,10.72,10.8,1.63,0,2.6-.46,9-4.61,3.33-2.16,6.12-3.91,6.24-3.91s.19,16,.19,35.62V173.4l.85.81a2.89,2.89,0,0,0,4.76-1.63c.12-.5.16-18,.12-38.94l-.12-38.1-1.08-.92a3.68,3.68,0,0,0-1.78-.93c-.39,0-4.49,2.44-9.1,5.42s-8.52,5.42-8.71,5.42a101.77,101.77,0,0,1-6.43-8.13,112.52,112.52,0,0,0-7.08-8.91C20.09,86.52,19.28,86.52,18,87.53Z"/><path class="cls-1" d="M142.39,126.4a9.08,9.08,0,0,0-2.29,2.48,17.39,17.39,0,0,1-5.53,5.34c-2.09,1.47-2.83,3.29-2.17,5.61.39,1.47,1.08,2.17,4.41,4.3a10.5,10.5,0,0,1,3.29,3.48c1.55,2.56,2.63,3.33,4.76,3.37a5,5,0,0,0,4.38-2.48,16.83,16.83,0,0,1,5.26-5.3,5.11,5.11,0,0,0,2.44-6.93A8.2,8.2,0,0,0,154.7,134a19,19,0,0,1-5.23-5.31,7.81,7.81,0,0,0-2.05-2.24A5.83,5.83,0,0,0,142.39,126.4Zm3.75,7.63a17,17,0,0,0,2.94,3l1.82,1.47-1.7,1.2a16,16,0,0,0-2.94,2.94l-1.24,1.7-1.09-1.51a18.69,18.69,0,0,0-2.94-3l-1.86-1.43,2.91-3c1.59-1.63,2.94-3,2.94-3A13.43,13.43,0,0,1,146.14,134Z"/><path class="cls-1" d="M22.34,133.41a7,7,0,0,0-2.06,2.24,25.71,25.71,0,0,1-6.69,6.51c-3.37,2.2-3.1,6.38.5,8.71,3.1,2,4.84,3.64,6,5.73,1.28,2.28,2.79,3.29,4.88,3.29a5.63,5.63,0,0,0,4.76-2.95,16.72,16.72,0,0,1,5.34-5.42c4.72-3.05,4.72-6.62,0-10.14a19.69,19.69,0,0,1-5.3-5.57,8.35,8.35,0,0,0-2.36-2.44A6,6,0,0,0,22.34,133.41Zm5.49,9.48a10.49,10.49,0,0,0,2.13,1.9l2.13,1.62-1.47,1.09a26.87,26.87,0,0,0-3.56,3.37L25,153.19l-1.47-2a17.55,17.55,0,0,0-3.41-3.32,13.64,13.64,0,0,1-1.94-1.55,10.81,10.81,0,0,1,1.9-1.71,19.72,19.72,0,0,0,3.41-3.36l1.47-1.94L26.36,141A11.45,11.45,0,0,1,27.83,142.89Z"/><path class="cls-1" d="M173.51,150.4a7.65,7.65,0,0,0-2.59,2.63,12.67,12.67,0,0,1-3.72,3.76c-2.71,1.82-3.71,3.56-3.25,5.54s1.16,2.78,3.29,3.94a8.67,8.67,0,0,1,3,2.64c2.09,3.13,3.33,4.14,5.11,4.14,2.13,0,3.37-.81,5-3.21a15.47,15.47,0,0,1,3.68-3.57c1.78-1.23,2.44-1.93,2.83-3.09.77-2.36-.16-4.38-2.83-6.16a13.71,13.71,0,0,1-3.68-3.75C178.16,150.05,176.18,149.24,173.51,150.4Zm4.42,13.4L175.68,166l-2.28-2.24-2.25-2.28,2.17-2.25,2.2-2.21,2.33,2.33,2.32,2.32Z"/><path class="cls-1" d="M143.32,157.72l-1.09.93-.11,16.88L142,192.41H55.71V188.3a16.68,16.68,0,0,0-.47-4.91c-1-1.94-2.67-2.33-4.33-1l-1,.77v13.48l1,.77c1,.81,1.08.81,48,.81s46.92,0,48-.81l1-.77V158.38l-1-.78C145.48,156.56,144.63,156.6,143.32,157.72Z"/></g></g></svg>