<svg xmlns="http://www.w3.org/2000/svg" viewBox="0 0 185.45 172.02"><defs><style>.cls-1{fill:#663398;}</style></defs><title>1</title><g id="Layer_2" data-name="Layer 2"><g id="Layer_1-2" data-name="Layer 1"><path class="cls-1" d="M19.87,94.05a1.94,1.94,0,0,0,1.51,1,1.71,1.71,0,0,0,.95-.19L38,86.29,37.85,98.4a1.79,1.79,0,0,0,1.89,1.9,1.9,1.9,0,0,0,1.89-1.9L42,83.08c4.35-15.52.57-31.61-7-45.8-.19-.19-.19-.38-.38-.57L52.8,29.33v.38A32.24,32.24,0,0,0,73.42,54.12h.19c18.17,6.82,39.18-4.73,42.77-24.79l9.27,4a1.87,1.87,0,0,0,1.52-3.41L115.44,25a1.85,1.85,0,0,0-1.71.19,2,2,0,0,0-.94,1.51,1.71,1.71,0,0,1-.19.95c-.57.38-1.33.76-1.9,1.13L86.48,21.57V19.11a9.55,9.55,0,0,0,7.76-9.46,9.65,9.65,0,1,0-19.3,0,1.89,1.89,0,0,0,3.78,0,5.87,5.87,0,1,1,5.87,5.87,1.78,1.78,0,0,0-1.89,1.89v4L58.29,28.76c-.57-.37-1.14-.56-2.09-1.13a1.14,1.14,0,0,0-.19-.76,1.91,1.91,0,0,0-.94-1.51,1.83,1.83,0,0,0-1.7-.19L31,34.25h-.19c-.19,0-.38.19-.57.38L1.89,64.34a1.75,1.75,0,0,0-.19,2.27Zm91.21-61.31.38.19v.19c-4.35,13.24-19.3,22.71-34.63,18.35a29,29,0,0,1-19.3-18.54l.38-.19c17.6,9.08,35.57,9.08,53.17,0Zm-26.87-8L105.6,31c-14.2,6.24-28.2,6.24-42.39,0ZM31.6,39c7,13.44,10.6,28,6.82,42.58l-16.28,8.9L5.87,65.67Z"/><path class="cls-1" d="M151.58,144.2a4.51,4.51,0,0,0,2.65-.95l19.87-13.43a4.65,4.65,0,0,0,2.08-4.54c-.57-4.73-2.84-7.38-6.43-7.38-1.89-.19-21.2-1.9-38.8,7.57a50.21,50.21,0,0,0-17.6,15.32,2.28,2.28,0,0,0-.18,1.9,2,2,0,0,0,1.7.94C115.06,143.82,154,144.2,151.58,144.2ZM118.65,140a46.35,46.35,0,0,1,8.52-7.76l.19,7.95ZM131,129.82c17.6-10.22,38-8.33,38.42-8.14h.19c1.51,0,2.46,1.33,2.84,4a1,1,0,0,1-.57.95l-19.68,13.63a.7.7,0,0,1-.57.19l-20.44-.19Z"/><path class="cls-1" d="M182.62,151.2a6.3,6.3,0,0,0,2.46-5.49L183.18,120c0-.38-.94-8.33-13.43-9.09-1.71-.37-18-2.65-39,4.74l-.37-28.58,15.7,7.57a1.14,1.14,0,0,0,.76.19,1.68,1.68,0,0,0,1.51-1l18-27.44a1.72,1.72,0,0,0-.19-2.27L138.52,35.2c-.19-.19-.38-.38-.56-.38l-4.17-1.89a1.86,1.86,0,1,0-1.51,3.4l2.08,1c-5.68,10-8.33,19.68-8.89,26.3a56,56,0,0,0,1.13,19.5V84l.38,33.12a102.85,102.85,0,0,0-20.06,10.6c-10,7.38-23.84,22-24.41,34.44a4.63,4.63,0,0,0-2.65,4.16v1.89H40.31l1.13-57.34A1.89,1.89,0,0,0,39.55,109c-1.13-.19-1.89.76-1.89,1.89l-1.14,57.34H12.87a1.9,1.9,0,0,0-1.89,1.9A1.78,1.78,0,0,0,12.87,172h158.2a1.76,1.76,0,0,0,1.52-2.84,4.16,4.16,0,0,0,.19-1.51v-1.33a4.34,4.34,0,0,0-4-4.35l4.16-3.22ZM128.87,65.86c0-.57.19-1.14.19-1.71a68.61,68.61,0,0,1,8.33-24.79l25,26.12L146.09,90.27,130.2,82.51v-.38A51.07,51.07,0,0,1,128.87,65.86ZM109,130.76c20.25-13.62,44.66-18.73,60.18-16.08h.19c8.89.38,9.84,5.11,9.84,5.68l1.89,25.73a3.5,3.5,0,0,1-.94,2.27l-6.44,5.11a1.72,1.72,0,0,0-1.51-.75H89.32c6.25-11.93,19.68-22,19.68-22Zm60.18,35.58v1.33a.6.6,0,0,1-.57.56H84.21a.6.6,0,0,1-.57-.56v-1.33a.61.61,0,0,1,.57-.57h84.4C169,165.58,169.18,166,169.18,166.34Zm-3.41-6.62a2.36,2.36,0,0,0-.75,1.51v.57H86.29a18,18,0,0,1,1.33-5.3h82.32Z"/><path class="cls-1" d="M4.92,168.23h-3a1.9,1.9,0,0,0,0,3.79h3a1.9,1.9,0,0,0,0-3.79Z"/><path class="cls-1" d="M183.56,168.23h-4.92a1.9,1.9,0,0,0,0,3.79h4.92a1.78,1.78,0,0,0,1.89-1.89A1.9,1.9,0,0,0,183.56,168.23Z"/></g></g></svg>