<svg xmlns="http://www.w3.org/2000/svg" viewBox="0 0 220.13 214.7"><defs><style>.cls-1{fill:#663398;}</style></defs><title>5</title><g id="Layer_2" data-name="Layer 2"><g id="Layer_1-2" data-name="Layer 1"><path class="cls-1" d="M36.39,183.31h7.38a7.9,7.9,0,0,0,7.89-7.89V158.78h1.55a7.82,7.82,0,0,0,6-12.88L46,130.46a7.82,7.82,0,0,0-11.91,0L21,145.9a7.82,7.82,0,0,0,6,12.88H28.5v16.64A7.9,7.9,0,0,0,36.39,183.31Zm-9.43-31a1.37,1.37,0,0,1-1.05-2.26L39,134.64a1.36,1.36,0,0,1,2.09,0l13.12,15.43a1.37,1.37,0,0,1-1,2.26H48.44a3.22,3.22,0,0,0-3.22,3.22v19.87a1.44,1.44,0,0,1-1.45,1.44H36.39A1.44,1.44,0,0,1,35,175.42V155.55a3.22,3.22,0,0,0-3.22-3.22Z"/><path class="cls-1" d="M102,173.21A3.23,3.23,0,0,0,105.2,170v-5.09a3.23,3.23,0,0,0-6.45,0V170A3.23,3.23,0,0,0,102,173.21Z"/><path class="cls-1" d="M135.34,185.58c5.62,0,10.2-4.94,10.2-11s-4.58-11-10.2-11-10.19,5-10.19,11S129.73,185.58,135.34,185.58Zm0-15.59c2.07,0,3.75,2,3.75,4.57s-1.68,4.57-3.75,4.57-3.74-2-3.74-4.57S133.28,170,135.34,170Z"/><path class="cls-1" d="M168.71,173.21a3.23,3.23,0,0,0,3.23-3.23v-5.09a3.23,3.23,0,0,0-6.45,0V170A3.23,3.23,0,0,0,168.71,173.21Z"/><path class="cls-1" d="M220.1,87.93A74.43,74.43,0,0,0,199.39,42a3.23,3.23,0,0,0-4.65,4.47,67.85,67.85,0,0,1,18.92,41.93,7.06,7.06,0,0,1-13.81,2.51C194.3,71.18,177.55,57,158.19,55.44a3.22,3.22,0,0,0-3.49,3.21V69.51a4.51,4.51,0,0,1-7.3,3.56L110,43.8a4.51,4.51,0,0,1,0-7.11L147.4,7.43A4.51,4.51,0,0,1,154.7,11V22.87A3.23,3.23,0,0,0,157.29,26a71.78,71.78,0,0,1,28.2,12.37,3.23,3.23,0,1,0,3.81-5.21,78.18,78.18,0,0,0-28.15-12.92V11a11,11,0,0,0-17.73-8.63L106.05,31.61a11,11,0,0,0,0,17.27l37.37,29.27a11,11,0,0,0,17.73-8.64V62.32c15.24,2.69,28,14.46,32.49,30.34a13.51,13.51,0,0,0,26.46-4.73Z"/><path class="cls-1" d="M25.25,214.7H172.06a25.28,25.28,0,0,0,25.25-25.25V125.36a25.28,25.28,0,0,0-25.25-25.26H55.59a3.23,3.23,0,0,0,0,6.45h26.2a25.36,25.36,0,0,0-8.41,18.81v64.09h0a25.28,25.28,0,0,0,8.41,18.8H25.25a18.82,18.82,0,0,1-18.8-18.8V125.36a18.83,18.83,0,0,1,18.8-18.81H42.7a3.23,3.23,0,0,0,0-6.45H25.25A25.28,25.28,0,0,0,0,125.36v64.09A25.28,25.28,0,0,0,25.25,214.7Zm95.19-108.15h29.81V142.7a5.93,5.93,0,0,1-5.92,5.92h-18a5.93,5.93,0,0,1-5.92-5.92V106.55Zm-40.61,82.9V125.36a18.83,18.83,0,0,1,18.8-18.81H114V142.7a12.39,12.39,0,0,0,12.37,12.37h18A12.39,12.39,0,0,0,156.7,142.7V106.55h15.36a18.83,18.83,0,0,1,18.8,18.81v64.09a18.82,18.82,0,0,1-18.8,18.8H98.63a18.82,18.82,0,0,1-18.8-18.8Z"/></g></g></svg>