<svg xmlns="http://www.w3.org/2000/svg" viewBox="0 0 203.57 203.57"><defs><style>.cls-1{fill:#663398;}</style></defs><title>6</title><g id="Layer_2" data-name="Layer 2"><g id="Layer_1-2" data-name="Layer 1"><path class="cls-1" d="M173.76,29.81A101.12,101.12,0,0,0,101.79,0a4,4,0,1,0,0,8,93.85,93.85,0,0,1,77.33,147,4,4,0,0,0,6.55,4.51A101.83,101.83,0,0,0,173.76,29.81Z"/><path class="cls-1" d="M155,179.12A93.87,93.87,0,0,1,12.55,72.7a49.25,49.25,0,0,0,9.2.87,50.14,50.14,0,0,0,17.5-3.17A70,70,0,1,0,68.92,40,50,50,0,0,0,70,10.83,4,4,0,0,0,67.17,8,49.85,49.85,0,0,0,5.81,67.83,101.81,101.81,0,0,0,159.46,185.67a4,4,0,0,0-4.51-6.55ZM113.57,56.37A114.4,114.4,0,0,1,118,75.81H85.56A115.37,115.37,0,0,1,90,56.37c4.09-12.24,8.77-16.61,11.79-16.61S109.49,44.13,113.57,56.37Zm50.24,45.42A62,62,0,0,1,161.1,120a4.17,4.17,0,0,0-1.06-.15H127c.54-5.8.81-11.85.81-18s-.27-12.22-.81-18h34.19a61.74,61.74,0,0,1,2.67,18Zm-44,0c0,6.19-.29,12.25-.84,18H84.61c-.56-5.77-.85-11.83-.85-18s.29-12.25.85-18H119C119.52,89.54,119.81,95.59,119.81,101.79Zm-18,62c-3,0-7.7-4.36-11.79-16.61a115.14,115.14,0,0,1-4.44-19.44H118a114.18,114.18,0,0,1-4.44,19.44C109.49,159.45,104.81,163.81,101.79,163.81ZM42.48,120a62.13,62.13,0,0,1,0-36.2H76.62c-.53,5.81-.81,11.86-.81,18s.28,12.22.81,18H43.54A4.11,4.11,0,0,0,42.48,120Zm40-66.1a123.75,123.75,0,0,0-4.92,22H45.47A62.24,62.24,0,0,1,88.15,41.28a57.49,57.49,0,0,0-5.69,12.58Zm-37,73.9H77.54a123.87,123.87,0,0,0,4.92,22,57.93,57.93,0,0,0,5.69,12.58A62.25,62.25,0,0,1,45.47,127.76Zm70,34.54a58.9,58.9,0,0,0,5.69-12.58,125.66,125.66,0,0,0,4.92-22H158.1a62.24,62.24,0,0,1-42.67,34.54ZM158.1,75.81H126a125.54,125.54,0,0,0-4.92-22,58.44,58.44,0,0,0-5.69-12.58A62.22,62.22,0,0,1,158.1,75.81ZM24.64,26.54a42.06,42.06,0,0,1,38.2-11.38A41.87,41.87,0,0,1,17.49,65.39,74,74,0,0,1,45,37.61a4,4,0,0,0-4-6.88A81.84,81.84,0,0,0,12.44,58.32a42.06,42.06,0,0,1,12.2-31.78Z"/><path class="cls-1" d="M171,167a4,4,0,1,0,2.81,1.17A4,4,0,0,0,171,167Z"/></g></g></svg>