<svg xmlns="http://www.w3.org/2000/svg" viewBox="0 0 85.67 95.28"><defs><style>.cls-1{fill:#663398;}</style></defs><title>7</title><g id="Layer_2" data-name="Layer 2"><g id="Layer_1-2" data-name="Layer 1"><path class="cls-1" d="M37.89.2A59.52,59.52,0,0,0,15.82,6.42c-2.64,1.32-3,1.67-3,3.09A1.69,1.69,0,0,0,13.57,11c1,1.06,1.7,1,4.32-.32A56.14,56.14,0,0,1,35.28,5.26a85.65,85.65,0,0,1,15.36,0,58.47,58.47,0,0,1,17.29,5.51c2.14,1,2.94,1.17,3.82.6a2.17,2.17,0,0,0,1-2c0-1.3-.45-1.75-3.05-3A59.71,59.71,0,0,0,37.89.2Z"/><path class="cls-1" d="M39.73,11.74c-15.58.86-29.32,8-38.35,20C.17,33.3,0,33.61,0,34.3a2.17,2.17,0,0,0,2.27,2.4c1.12,0,1.57-.31,3.13-2.4A45.75,45.75,0,0,1,31.13,17.77c12.79-3,27-.85,37.47,5.79A47.77,47.77,0,0,1,80.24,34.14c1.69,2.19,2.34,2.66,3.48,2.43a2.88,2.88,0,0,0,1.21-.63,1.8,1.8,0,0,0,.67-1.52l.07-1-1.54-2a64.85,64.85,0,0,0-8.36-8.54A51.1,51.1,0,0,0,53.62,12.67c-3.56-.69-4.16-.74-10-1C43,11.61,41.18,11.65,39.73,11.74Z"/><path class="cls-1" d="M38.72,23.21C22.56,24.81,8.68,36,4.84,50.54c-1.75,6.62-1.62,14.74.37,22.62a51,51,0,0,0,2,6.18,2.33,2.33,0,0,0,3.94.44c.69-.89.67-1.39-.15-3.92A43.7,43.7,0,0,1,8.49,60.68a29.4,29.4,0,0,1,.95-8.84c2.21-8.51,8.56-16,17.22-20.33a36.28,36.28,0,0,1,25.08-2.57C63.41,31.9,72.87,40.84,76,51.8a30.31,30.31,0,0,1,1.07,9.89C76.18,67.35,69.59,71,64,69a9.76,9.76,0,0,1-5.24-4.08,9.15,9.15,0,0,1-1.39-4.88A13.05,13.05,0,0,0,56,54.63a14.52,14.52,0,0,0-9.26-7.76,12.39,12.39,0,0,0-4.15-.43,11.17,11.17,0,0,0-4.09.45,14.39,14.39,0,0,0-9.87,9.33c-.6,1.71-.73,6.05-.28,9a34.61,34.61,0,0,0,9.76,19.73,35.09,35.09,0,0,0,15.22,9.46c3.13,1,3.32,1.06,4.25.67A2.24,2.24,0,0,0,59,92.74c-.15-1.32-.71-1.75-3.71-2.74a31,31,0,0,1-13-7.61,30.23,30.23,0,0,1-9.44-20.5c-.2-3.46.54-5.67,2.64-7.8a9.76,9.76,0,0,1,7.17-2.94,9.73,9.73,0,0,1,8.94,5.33c.69,1.41.76,1.71,1,4.17.41,4.07,1.4,6.46,3.69,8.91a14.33,14.33,0,0,0,10.83,4.75A14.16,14.16,0,0,0,78,69.79a10.62,10.62,0,0,0,2.37-3.37c1.54-3.13,1.84-5.79,1.23-10.61C79.46,39,65.53,25.67,47.79,23.36A62.59,62.59,0,0,0,38.72,23.21Z"/><path class="cls-1" d="M39.08,34.9A26.56,26.56,0,0,0,16.25,55.81a48.17,48.17,0,0,0-.09,10.37,43.25,43.25,0,0,0,8,20.1c1.7,2.44,5.91,7.19,6.78,7.65a2.39,2.39,0,0,0,3.43-2.66,14.29,14.29,0,0,0-2.27-2.85,42,42,0,0,1-5.42-7A35.47,35.47,0,0,1,21.8,70.27a31.11,31.11,0,0,1-1-9.31c0-4.28.18-5.32,1.38-8.28A22.27,22.27,0,0,1,35.67,40.52a25.32,25.32,0,0,1,11.13-.76c9,1.56,16.09,8.19,17.8,16.6A18.56,18.56,0,0,1,65,59.23a3.43,3.43,0,0,0,1,2.83,2.27,2.27,0,0,0,3.6-.73c.35-.67.35-.83.14-3A24.27,24.27,0,0,0,62.4,42.74,27.64,27.64,0,0,0,39.08,34.9Z"/><path class="cls-1" d="M42.07,58a2.59,2.59,0,0,0-1.52,1.16c-.36.57-.37.82-.28,2.62a25.38,25.38,0,0,0,16.33,22,30.73,30.73,0,0,0,13.68,1.36c2.47-.31,3-.56,3.52-1.67A2,2,0,0,0,73.24,81c-.75-.71-1-.75-4.95-.41-5.85.46-11.27-1-15.06-4A20.59,20.59,0,0,1,45,61.74c-.18-2.17-.42-2.86-1.19-3.37A2.39,2.39,0,0,0,42.07,58Z"/></g></g></svg>