<svg xmlns="http://www.w3.org/2000/svg" viewBox="0 0 407.89 512"><defs><style>.cls-1{fill:#663398;}</style></defs><title>9</title><g id="Layer_2" data-name="Layer 2"><g id="Layer_1-2" data-name="Layer 1"><path class="cls-1" d="M400.34,408.9a7.55,7.55,0,0,0,7.55-7.55V193.06c0-79.47-64.66-144.13-144.13-144.13H213.55V41.25a21.32,21.32,0,1,0-26.3-30.07,7.55,7.55,0,0,0,13.28,7.18A6.22,6.22,0,1,1,206,27.53a7.55,7.55,0,0,0-7.54,7.55V48.93H144.13C64.65,48.93,0,113.59,0,193.06V488.4A23.63,23.63,0,0,0,23.6,512H384.29a23.63,23.63,0,0,0,23.6-23.6V431.54a7.55,7.55,0,0,0-15.1,0V488.4a8.51,8.51,0,0,1-8.5,8.51H23.6a8.52,8.52,0,0,1-8.51-8.51V193.06a129.19,129.19,0,0,1,129-129h54.33v5.25a119.49,119.49,0,0,0-38.94,8.5l-74.7,30a7.56,7.56,0,0,0-3.12,2.34A138.86,138.86,0,0,0,42,207.75a7.55,7.55,0,0,0,15.09,0,123.87,123.87,0,0,1,28.6-79.57,160.49,160.49,0,0,1,13.09,68.41L94.45,395.75l-37.36-5.58V235.3a7.55,7.55,0,0,0-15.09,0V415.94a12.92,12.92,0,0,0,12,12.87l26,4.91V453a17,17,0,0,0,17,17H310.83a17,17,0,0,0,17-17v-19.3l26-4.91a12.92,12.92,0,0,0,12.05-12.88V331.88a7.55,7.55,0,1,0-15.09,0v58.29l-37.36,5.57-4.33-199.21a160.52,160.52,0,0,1,13.09-68.35,123.85,123.85,0,0,1,28.6,79.57V305a7.55,7.55,0,1,0,15.09,0v-97.2a138.8,138.8,0,0,0-39.64-97.59,7.39,7.39,0,0,0-3.17-2.41l-74.7-30a119.17,119.17,0,0,0-34.83-8.23V64h50.21a129.19,129.19,0,0,1,129,129V401.35a7.54,7.54,0,0,0,7.54,7.55ZM261.57,147.12l9.33,41.21-59.07,56.42c1.21-20.52,7.26-39.39,17.53-54.18a116.37,116.37,0,0,0,20.85-66.68v-23.6L279,125.61,263.76,140a7.53,7.53,0,0,0-2.19,7.17ZM144.15,140,128.9,125.61l28.8-25.32v23.6a116.44,116.44,0,0,0,20.84,66.68,101.26,101.26,0,0,1,18.1,54.73l-59.64-57,9.34-41.21A7.55,7.55,0,0,0,144.15,140Zm28.64-24.82h62.32v8.76A101.29,101.29,0,0,1,217,182a108.16,108.16,0,0,0-12.79,25.09A117,117,0,0,0,190.94,182a101.36,101.36,0,0,1-18.15-58.07ZM235.11,100H172.79v-11a103.54,103.54,0,0,1,62.32,0Zm-178,305.39L94.21,411l-.11,10-37-7ZM95.18,453V436.57l.38.07h.71a12.9,12.9,0,0,0,12.9-12.82l.21-20.1L113.87,197A175.62,175.62,0,0,0,98,118.73L127.21,107,112.7,119.76a7.54,7.54,0,0,0-.19,11.17L130.66,148l-9.32,41.18a7.57,7.57,0,0,0,2.14,7.13l72.64,69.37v42.27h-9.33a7.55,7.55,0,1,0,0,15.09h9.33v10.53h-9.33a7.55,7.55,0,1,0,0,15.1h9.33v29.71h-9.33a7.55,7.55,0,1,0,0,15.1h9.33V404h-9.33a7.55,7.55,0,1,0,0,15.09h9.33v35.82H97.07A1.89,1.89,0,0,1,95.18,453Zm218.6-32-.13-10,37.15-5.54V414ZM294,196.92l4.49,206.65h-.06l.27,20.17a12.92,12.92,0,0,0,12.9,12.9h.71l.39-.08V453a1.89,1.89,0,0,1-1.89,1.89H211.21V419.09h9.27a7.55,7.55,0,0,0,0-15.09h-9.27V393.47h9.27a7.55,7.55,0,0,0,0-15.1h-9.27V348.66h9.27a7.55,7.55,0,0,0,0-15.1h-9.27V323h9.27a7.55,7.55,0,0,0,0-15.09h-9.27v-42.1c.08-.19.16-.38.23-.59a7.45,7.45,0,0,0,2.4-1.54l70.58-67.41a7.57,7.57,0,0,0,2.15-7.13L277.24,148l18.15-17.06a7.55,7.55,0,0,0-.18-11.17L280.7,107l29.21,11.73A175.48,175.48,0,0,0,294,196.92Z"/></g></g></svg>