<svg xmlns="http://www.w3.org/2000/svg" viewBox="0 0 75.68 45.4"><defs><style>.cls-1{fill:#663398;}</style></defs><title>2</title><g id="Layer_2" data-name="Layer 2"><g id="Layer_1-2" data-name="Layer 1"><path class="cls-1" d="M74.6,45.4H1.08A1.08,1.08,0,0,1,0,44.32H0v-11a1.07,1.07,0,0,1,.87-1.06A9.74,9.74,0,0,0,8.46,20.76,9.73,9.73,0,0,0,.87,13.17,1.09,1.09,0,0,1,0,12.11v-11A1.08,1.08,0,0,1,1.08,0H74.6a1.08,1.08,0,0,1,1.08,1.08h0v11a1.1,1.1,0,0,1-.87,1.06,9.73,9.73,0,0,0,0,19.07,1.08,1.08,0,0,1,.87,1.06v11A1.08,1.08,0,0,1,74.6,45.4ZM2.16,43.24H73.51V34.15a11.9,11.9,0,0,1,0-22.89V2.16H2.16v9.1a11.89,11.89,0,0,1,8.21,14.68,11.89,11.89,0,0,1-8.21,8.21v9.09Z"/><path class="cls-1" d="M54.05,6.09A1.08,1.08,0,0,1,53,5V1.08a1.09,1.09,0,0,1,1.12-1,1.07,1.07,0,0,1,1,1.05V5a1.07,1.07,0,0,1-1.08,1.08Zm0,9.83A1.08,1.08,0,0,1,53,14.84h0V10.91a1.08,1.08,0,0,1,2.16,0v3.93a1.08,1.08,0,0,1-1.08,1.08Zm0,9.83A1.08,1.08,0,0,1,53,24.67h0V20.74a1.08,1.08,0,0,1,2.16,0v3.93a1.08,1.08,0,0,1-1.08,1.08Zm0,9.83A1.09,1.09,0,0,1,53,34.5h0V30.57a1.09,1.09,0,0,1,1.14-1,1.08,1.08,0,0,1,1,1V34.5a1.08,1.08,0,0,1-1.08,1.08Zm0,9.82A1.08,1.08,0,0,1,53,44.33h0V40.39a1.09,1.09,0,0,1,1.14-1,1.07,1.07,0,0,1,1,1v3.93a1.08,1.08,0,0,1-1.08,1.08ZM20.46,34.1A1.08,1.08,0,0,1,19.38,33a1.12,1.12,0,0,1,.32-.77l20-20a1.08,1.08,0,1,1,1.59,1.47l-.06.06-20,20a1.06,1.06,0,0,1-.77.32Zm16.71.52a5,5,0,1,1,5-5,5,5,0,0,1-5,5Zm0-7.83a2.83,2.83,0,1,0-.11,5.66h.11a2.83,2.83,0,0,0,0-5.66Zm-13.8-6.08a5,5,0,1,1,5-5A5,5,0,0,1,23.37,20.71Zm0-7.83a2.84,2.84,0,0,0-.1,5.67h.1a2.84,2.84,0,0,0,0-5.67Z"/></g></g></svg>